<svg xmlns="http://www.w3.org/2000/svg" viewBox="0 0 1000 1000" width="1000" height="1000"><title>2331509-ai</title><defs><linearGradient id="g1" x2="1" gradientUnits="userSpaceOnUse" gradientTransform="matrix(0,102.856,-161.101,0,269.369,664.852)"><stop offset="0" stop-color="#00ffff"></stop><stop offset="1" stop-color="#1c9585"></stop></linearGradient><linearGradient id="g2" x2="1" gradientUnits="userSpaceOnUse" gradientTransform="matrix(-0.118,196.062,-196.057,-0.118,888.053,557.209)"><stop offset="0" stop-color="#afe6ff"></stop><stop offset="1" stop-color="#41b4e6"></stop></linearGradient><linearGradient id="g3" x2="1" gradientUnits="userSpaceOnUse" gradientTransform="matrix(22.328,175.628,-359.07,45.65,797.638,635.114)"><stop offset="0" stop-color="#71c8ef"></stop><stop offset="1" stop-color="#0f9ad6"></stop></linearGradient><linearGradient id="g4" x2="1" gradientUnits="userSpaceOnUse" gradientTransform="matrix(61.946,101.492,-61.706,37.662,751.308,452.034)"><stop offset="0" stop-color="#00ffff"></stop><stop offset="1" stop-color="#1c9585"></stop></linearGradient><linearGradient id="g5" x2="1" gradientUnits="userSpaceOnUse" gradientTransform="matrix(258.754,97.711,-246.813,653.595,266.106,556.41)"><stop offset=".065" stop-color="#ff337c"></stop><stop offset=".332" stop-color="#c2227d"></stop><stop offset="1" stop-color="#480080"></stop></linearGradient><linearGradient id="g6" x2="1" gradientUnits="userSpaceOnUse" gradientTransform="matrix(137.838,17.104,-29.763,239.854,515.953,617.333)"><stop offset=".065" stop-color="#ff337c"></stop><stop offset=".332" stop-color="#c2227d"></stop><stop offset="1" stop-color="#480080"></stop></linearGradient><radialGradient id="g7" cx="0" cy="0" r="1" gradientUnits="userSpaceOnUse" gradientTransform="matrix(311.929,184.391,-184.391,311.929,376.394,295.688)"><stop offset=".15" stop-color="#ad33ff"></stop><stop offset="1" stop-color="#5c64ed"></stop></radialGradient><linearGradient id="g8" x2="1" gradientUnits="userSpaceOnUse" gradientTransform="matrix(141.871,0,0,141.871,450.43,327.688)"><stop offset=".065" stop-color="#ff337c"></stop><stop offset=".332" stop-color="#c2227d"></stop><stop offset="1" stop-color="#480080"></stop></linearGradient><linearGradient id="g9" x2="1" gradientUnits="userSpaceOnUse" gradientTransform="matrix(57.692,60.063,-60.063,57.692,526.175,304.566)"><stop offset="0" stop-color="#afe6ff"></stop><stop offset="1" stop-color="#41b4e6"></stop></linearGradient><linearGradient id="g10" x2="1" gradientUnits="userSpaceOnUse" gradientTransform="matrix(32.162,0,0,238.302,488.973,660.868)"><stop offset=".065" stop-color="#ff337c"></stop><stop offset=".332" stop-color="#c2227d"></stop><stop offset="1" stop-color="#480080"></stop></linearGradient><linearGradient id="g11" x2="1" gradientUnits="userSpaceOnUse" gradientTransform="matrix(75.152,-74.463,152.241,153.648,213,673.719)"><stop offset="0" stop-color="#afe6ff"></stop><stop offset="1" stop-color="#41b4e6"></stop></linearGradient><linearGradient id="g12" x2="1" gradientUnits="userSpaceOnUse" gradientTransform="matrix(114.799,116.34,-116.34,114.799,609.972,629.365)"><stop offset=".065" stop-color="#ff337c"></stop><stop offset=".332" stop-color="#c2227d"></stop><stop offset="1" stop-color="#480080"></stop></linearGradient><linearGradient id="g13" x2="1" gradientUnits="userSpaceOnUse" gradientTransform="matrix(300.743,314.588,-314.588,300.744,612.804,591.889)"><stop offset=".065" stop-color="#ff337c"></stop><stop offset=".332" stop-color="#c2227d"></stop><stop offset="1" stop-color="#480080"></stop></linearGradient><linearGradient id="g14" x2="1" gradientUnits="userSpaceOnUse" gradientTransform="matrix(-39.295,-18.338,18.337,-39.295,525.218,804.226)"><stop offset=".065" stop-color="#ff337c"></stop><stop offset=".332" stop-color="#c2227d"></stop><stop offset="1" stop-color="#ff00ff"></stop></linearGradient><radialGradient id="g15" cx="0" cy="0" r="1" gradientUnits="userSpaceOnUse" gradientTransform="matrix(88.111,.306,-0.306,88.111,330.819,311.97)"><stop offset="0" stop-color="#ffffff"></stop><stop offset="1" stop-color="#ba9bc9"></stop></radialGradient><radialGradient id="g16" cx="0" cy="0" r="1" gradientUnits="userSpaceOnUse" gradientTransform="matrix(49.109,63.709,-63.709,49.109,237.617,269.65)"><stop offset="0" stop-color="#ffffff"></stop><stop offset="1" stop-color="#ba9bc9"></stop></radialGradient><radialGradient id="g17" cx="0" cy="0" r="1" gradientUnits="userSpaceOnUse" gradientTransform="matrix(29.953,38.857,-38.857,29.953,244.327,259.733)"><stop offset="0" stop-color="#ffffff"></stop><stop offset="1" stop-color="#ba9bc9"></stop></radialGradient><radialGradient id="g18" cx="0" cy="0" r="1" gradientUnits="userSpaceOnUse" gradientTransform="matrix(40.082,51.998,-51.998,40.082,330.282,361.432)"><stop offset="0" stop-color="#ffffff"></stop><stop offset="1" stop-color="#ba9bc9"></stop></radialGradient><radialGradient id="g19" cx="0" cy="0" r="1" gradientUnits="userSpaceOnUse" gradientTransform="matrix(23.08,29.941,-29.941,23.08,337.16,355.288)"><stop offset="0" stop-color="#ffffff"></stop><stop offset="1" stop-color="#ba9bc9"></stop></radialGradient><radialGradient id="g20" cx="0" cy="0" r="1" gradientUnits="userSpaceOnUse" gradientTransform="matrix(29.581,38.376,-38.376,29.581,265.549,381.87)"><stop offset="0" stop-color="#ffffff"></stop><stop offset="1" stop-color="#ba9bc9"></stop></radialGradient><radialGradient id="g21" cx="0" cy="0" r="1" gradientUnits="userSpaceOnUse" gradientTransform="matrix(16.93,21.963,-21.963,16.93,270.731,377.482)"><stop offset="0" stop-color="#ffffff"></stop><stop offset="1" stop-color="#ba9bc9"></stop></radialGradient><radialGradient id="g22" cx="0" cy="0" r="1" gradientUnits="userSpaceOnUse" gradientTransform="matrix(22.35,28.995,-28.995,22.35,304.405,335.162)"><stop offset="0" stop-color="#ffffff"></stop><stop offset="1" stop-color="#ba9bc9"></stop></radialGradient><radialGradient id="g23" cx="0" cy="0" r="1" gradientUnits="userSpaceOnUse" gradientTransform="matrix(18.831,24.43,-24.43,18.831,308.734,332.422)"><stop offset="0" stop-color="#ffffff"></stop><stop offset="1" stop-color="#ba9bc9"></stop></radialGradient><radialGradient id="g24" cx="0" cy="0" r="1" gradientUnits="userSpaceOnUse" gradientTransform="matrix(31.952,41.451,-41.451,31.952,215.761,333.328)"><stop offset="0" stop-color="#ffffff"></stop><stop offset="1" stop-color="#ba9bc9"></stop></radialGradient><radialGradient id="g25" cx="0" cy="0" r="1" gradientUnits="userSpaceOnUse" gradientTransform="matrix(17.808,23.102,-23.102,17.808,221.85,329.272)"><stop offset="0" stop-color="#ffffff"></stop><stop offset="1" stop-color="#ba9bc9"></stop></radialGradient><radialGradient id="g26" cx="0" cy="0" r="1" gradientUnits="userSpaceOnUse" gradientTransform="matrix(31.609,41.006,-41.006,31.609,326.066,268.996)"><stop offset="0" stop-color="#ffffff"></stop><stop offset="1" stop-color="#ba9bc9"></stop></radialGradient><radialGradient id="g27" cx="0" cy="0" r="1" gradientUnits="userSpaceOnUse" gradientTransform="matrix(32.386,38.571,-38.571,32.386,331.893,264.711)"><stop offset="0" stop-color="#ffffff"></stop><stop offset="1" stop-color="#ba9bc9"></stop></radialGradient><radialGradient id="g28" cx="0" cy="0" r="1" gradientUnits="userSpaceOnUse" gradientTransform="matrix(30.77,39.918,-39.918,30.77,356.892,314.604)"><stop offset="0" stop-color="#ffffff"></stop><stop offset="1" stop-color="#ba9bc9"></stop></radialGradient><radialGradient id="g29" cx="0" cy="0" r="1" gradientUnits="userSpaceOnUse" gradientTransform="matrix(21.314,27.651,-27.651,21.314,366.397,318.663)"><stop offset="0" stop-color="#ffffff"></stop><stop offset="1" stop-color="#ba9bc9"></stop></radialGradient><linearGradient id="g30" x2="1" gradientUnits="userSpaceOnUse" gradientTransform="matrix(431.58,-286.156,335.794,506.443,299.098,174.778)"><stop offset=".065" stop-color="#ff337c"></stop><stop offset=".332" stop-color="#c2227d"></stop><stop offset="1" stop-color="#480080"></stop></linearGradient></defs><style>		.s0 { fill: #cfccff } 		.s1 { fill: url(#g1) } 		.s2 { fill: none;stroke: #ffffff;stroke-linecap: round;stroke-miterlimit:10;stroke-width: 3.3 } 		.s3 { fill: url(#g2) } 		.s4 { fill: none;stroke: #ffffff;stroke-linecap: round;stroke-miterlimit:10;stroke-width: 2.9 } 		.s5 { opacity: .3;mix-blend-mode: overlay;fill: #000000 } 		.s6 { fill: url(#g3) } 		.s7 { fill: none;stroke: #0f9ad6;stroke-linecap: round;stroke-miterlimit:10;stroke-width: 2.9 } 		.s8 { fill: url(#g4) } 		.s9 { fill: none;stroke: #ffffff;stroke-linecap: round;stroke-miterlimit:10;stroke-width: 2.1 } 		.s10 { fill: #0073aa } 		.s11 { opacity: .2;mix-blend-mode: overlay;fill: #000000 } 		.s12 { fill: url(#g5) } 		.s13 { fill: url(#g6) } 		.s14 { fill: url(#g7) } 		.s15 { opacity: .3;fill: #450b82 } 		.s16 { fill: url(#g8) } 		.s17 { fill: url(#g9) } 		.s18 { opacity: .1;fill: #000000 } 		.s19 { fill: url(#g10) } 		.s20 { fill: url(#g11) } 		.s21 { fill: none;stroke: #0f9ad6;stroke-linecap: round;stroke-miterlimit:10;stroke-width: 1.7 } 		.s22 { fill: none;stroke: #0091c8;stroke-linecap: round;stroke-miterlimit:10;stroke-width: 5 } 		.s23 { fill: none;stroke: #0091c8;stroke-miterlimit:10;stroke-width: 5 } 		.s24 { fill: none;stroke: #41b4e6;stroke-linecap: round;stroke-miterlimit:10;stroke-width: 5 } 		.s25 { fill: none;stroke: #41b4e6;stroke-miterlimit:10;stroke-width: 5 } 		.s26 { fill: #fab9af } 		.s27 { fill: #f5415f } 		.s28 { fill: #c3417d } 		.s29 { fill: #502d6e } 		.s30 { fill: #482963 } 		.s31 { fill: #6e289b } 		.s32 { fill: #ffe65a } 		.s33 { fill: #ffd23c } 		.s34 { fill: #ff6473 } 		.s35 { fill: #5046af } 		.s36 { fill: #ffc305 } 		.s37 { fill: #0091c8 } 		.s38 { fill: url(#g12) } 		.s39 { fill: url(#g13) } 		.s40 { fill: url(#g14) } 		.s41 { fill: #dfabff } 		.s42 { opacity: .5;mix-blend-mode: overlay;fill: #dfabff } 		.s43 { fill: url(#g15) } 		.s44 { opacity: .5;fill: url(#g16) } 		.s45 { fill: url(#g17) } 		.s46 { opacity: .1;mix-blend-mode: overlay;fill: #000000 } 		.s47 { opacity: .5;fill: url(#g18) } 		.s48 { fill: url(#g19) } 		.s49 { opacity: .5;fill: url(#g20) } 		.s50 { fill: url(#g21) } 		.s51 { fill: url(#g22) } 		.s52 { fill: url(#g23) } 		.s53 { opacity: .5;fill: url(#g24) } 		.s54 { fill: url(#g25) } 		.s55 { fill: url(#g26) } 		.s56 { fill: url(#g27) } 		.s57 { fill: url(#g28) } 		.s58 { fill: url(#g29) } 		.s59 { fill: #ffa50a } 		.s60 { fill: url(#g30) } 		.s61 { opacity: .4;fill: #ffffff } 		.s62 { opacity: .1;fill: #450b82 } 	</style><g id="BACKGROUND">	</g><g id="OBJECTS"><g id="&lt;Group&gt;"><path id="&lt;Path&gt;" class="s0" d="m673.2 807.7c-19.5-0.9-38.1-3.7-54.6-8.5-18-5.3-46.2-11.2-77.1-8.8-29.2 2.3-55.1 7.6-72.3 14-10.5 3.9-22.8 6-34.9 5.7-20.5-0.6-44 0-68.9 2-78.1 6.1-130.8 9-129.6 23.9 1.1 14.9 55.7 36.1 133.8 29.9 9.3-0.7 18.3-1.6 27-2.6 22.2-2.6 44.5-1.2 63.7 3.6 35 8.8 98.2 20.3 169 14.7 107.7-8.4 175.3-20.4 173.7-40.4-1.1-13.8-77.5-31.2-129.8-33.5z"></path><g id="&lt;Group&gt;"><path id="&lt;Path&gt;" class="s1" d="m257.9 677.6c-9.1-5-18.7-8.2-28.2-10.1-1.2-0.3-2.4 0.7-2.4 1.9 0 2.3-3.1 2.8-3.9 0.7l-0.9-2.8c-0.3-0.7-0.9-1.2-1.7-1.3-8.1-1.1-16.1-1.3-23.5-1.1-1.1 0.1-1.9 1-1.9 2.1v2.2c0 2-2.5 2.8-3.7 1.2l-2.8-4c-0.4-0.5-1.1-0.9-1.8-0.8-14.3 1.4-25.4 4.2-29.7 5.4-1 0.3-1.6 1.4-1.3 2.5 2 7.1 10.3 32.5 28.3 54.8 0.4 0.6 1.2 0.9 1.9 0.7l3.7-0.7c2.2-0.4 3.3 2.6 1.4 3.7l-0.4 0.2c-1.2 0.7-1.4 2.2-0.5 3.1 7 7.5 15.2 14.4 24.7 19.6 40 22.1 90.1 9.6 100.4 6.6 1.1-0.3 1.7-1.4 1.4-2.4-3-10.3-19.2-59.4-59.1-81.5z"></path><g id="&lt;Group&gt;"><path id="&lt;Path&gt;" class="s2" d="m182 686.2l124.9 68.9"></path><path id="&lt;Path&gt;" class="s2" d="m195.4 706.1l13.5-3.9"></path><path id="&lt;Path&gt;" class="s2" d="m224 730.4l23.7-6.8"></path><path id="&lt;Path&gt;" class="s2" d="m248.8 752.7l33.9-9.8"></path><path id="&lt;Path&gt;" class="s2" d="m205.5 687.7l3.9 13.5"></path><path id="&lt;Path&gt;" class="s2" d="m241.4 698.9l6.8 23.8"></path><path id="&lt;Path&gt;" class="s2" d="m273.4 708l9.8 34"></path></g></g><g id="&lt;Group&gt;"><g id="&lt;Group&gt;"><path id="&lt;Path&gt;" class="s3" d="m861 647.1h2.8c4.8 0 9-3 10.6-7.5 10.8-30.8 13.2-60.1 13.6-74.1 0.2-4.6-3.6-8.4-8.3-8.3-6.2 0.2-15.5 0.8-26.6 2.3-6.1 0.9-11.6 4.2-15.2 9.2l-2.6 3.7c-1.2 1.6-3.8 0.8-3.8-1.2 0-4-3.8-7-7.7-6q-0.7 0.2-1.5 0.4c-7.9 2.1-14.6 7.3-18.6 14.4l-9.1 16.5c-1.1 1.9-3.9 1.1-3.9-1v-9.7c0-4.3-4.6-7.1-8.4-5.2-13.9 7-27.3 16-39 27.7-49.5 49.4-51.5 129.2-51.4 142.8 0 1.1 0.9 2.1 2 2.1 13.7 0 93.4-1.9 142.9-51.3 11.9-11.9 21.1-25.6 28.1-39.7 1.8-3.6 0.5-7.9-2.9-10l-2.1-1.3c-1.8-1.1-1-3.8 1.1-3.8z"></path><g id="&lt;Group&gt;"><path id="&lt;Path&gt;" class="s4" d="m856.1 589.1l-151.3 151.1"></path><path id="&lt;Path&gt;" class="s4" d="m821.9 600.1l-0.1 21.1"></path><path id="&lt;Path&gt;" class="s4" d="m774.9 631.2l-0.1 37"></path><path id="&lt;Path&gt;" class="s4" d="m732.5 657.5l-0.1 53"></path><path id="&lt;Path&gt;" class="s4" d="m844.1 622.4h-21.1"></path><path id="&lt;Path&gt;" class="s4" d="m813 669.3h-37"></path><path id="&lt;Path&gt;" class="s4" d="m786.6 711.7h-53"></path></g></g><path id="&lt;Path&gt;" class="s5" d="m834.5 704.1c-4.7-2.2-9.8-4.3-15.2-6.1-2.3-0.8-4.7-0.8-7 0l-5.7 1.9c-1.9 0.7-3.5-1.5-2.3-3.1 0.9-1.2 0.2-2.9-1.2-3.2-9.9-2-20.4-2.8-31.1-1.5-37.3 4.2-66.7 31.6-79.7 45.8-0.4 6.2-0.4 10.8-0.4 13.2q0 0.2 0 0.5 1.1 0.7 2.3 1.6c14.2 0 91.1-2.2 140.3-49.1z"></path><path id="&lt;Path&gt;" class="s6" d="m812.1 708.6l-5.8 1.6c-1.9 0.6-3.4-1.7-2.1-3.2 0.9-1.2 0.4-2.9-1.1-3.3-9.8-2.5-20.2-3.8-30.9-3.1-45.5 2.9-81 40.4-88.2 48.4-0.7 0.9-0.7 2.1 0.2 2.9 7.5 6.6 42.8 35.3 84.3 36.9 1.4 0 2.4-1.3 2-2.6l-0.4-1.5c-0.5-1.9 1.8-3.4 3.3-2l3.2 2.7c2.3 2 5.4 3 8.5 2.5 36.6-5.3 65.7-31.7 77.1-43.5 2.9-3 2.6-7.9-0.7-10.5-7.9-6.3-23.2-17.3-42.4-25-2.2-0.9-4.7-1-7-0.3z"></path><g id="&lt;Group&gt;"><path id="&lt;Path&gt;" class="s7" d="m837.2 740.7l-142.4 9.1"></path><path id="&lt;Path&gt;" class="s7" d="m815.2 731.1l-9.3 10.6"></path><path id="&lt;Path&gt;" class="s7" d="m778 726l-16.3 18.5"></path><path id="&lt;Path&gt;" class="s7" d="m745.1 720.5l-23.3 26.6"></path><path id="&lt;Path&gt;" class="s7" d="m816.5 752.1l-10.5-9.3"></path><path id="&lt;Path&gt;" class="s7" d="m780.2 761.9l-18.5-16.3"></path><path id="&lt;Path&gt;" class="s7" d="m748.4 771.5l-26.6-23.4"></path></g></g><g id="&lt;Group&gt;"><path id="&lt;Path&gt;" class="s8" d="m728.4 555.6c-1.1 0.2-1.8-1-1.1-1.8l2.8-3.4c0.2-0.3 0.3-0.6 0.3-0.9-1-8.7-3.6-16.8-7.1-24.1-0.2-0.5-0.8-0.7-1.3-0.6l-0.5 0.2c-1.1 0.3-1.9-1-1.1-1.9l0.6-0.7c0.3-0.3 0.3-0.9 0.1-1.3-9.6-17.8-23.6-30.2-27.1-33.2-0.5-0.4-1.2-0.3-1.6 0.2-1.8 2-6.4 7.9-11.3 16.2-0.2 0.3-0.2 0.8 0 1.1 0.4 0.7 1.1 1.8 1.8 2.9 0.1 0.1 0 0.3-0.1 0.4-0.1 0.1-0.3 0.1-0.5 0l-1.5-1.3c-0.5-0.4-1.4-0.3-1.7 0.3q-2 3.6-3.8 7.7c-0.2 0.3-0.2 0.6-0.1 0.9l2.1 5c0.2 0.5-0.4 0.9-0.8 0.6l-1.8-1.4c-0.6-0.5-1.5-0.2-1.8 0.5-4.1 10.5-6.9 22.7-5.8 35.4 2.9 33.3 31.2 58.6 36.6 63.1 0.4 0.4 1.2 0.4 1.6-0.1 4.2-5 25.5-31.9 25.5-62.9 0-0.7-0.7-1.3-1.4-1.1z"></path><g id="&lt;Group&gt;"><path id="&lt;Path&gt;" class="s9" d="m695 509l8.8 102.5"></path><path id="&lt;Path&gt;" class="s9" d="m688.4 524.9l7.8 6.6"></path><path id="&lt;Path&gt;" class="s9" d="m685.3 551.9l13.6 11.5"></path><path id="&lt;Path&gt;" class="s9" d="m681.9 575.7l19.5 16.4"></path><path id="&lt;Path&gt;" class="s9" d="m703.5 523.7l-6.5 7.7"></path><path id="&lt;Path&gt;" class="s9" d="m711.2 549.7l-11.5 13.6"></path><path id="&lt;Path&gt;" class="s9" d="m718.6 572.5l-16.4 19.5"></path></g></g><g id="&lt;Group&gt;"><path id="&lt;Path&gt;" class="s10" d="m562.2 738.4h-80.3c-7.4 0-13.4-6-13.4-13.4v-17.8h107.1v17.8c0 7.4-6 13.4-13.4 13.4z"></path><path id="&lt;Path&gt;" class="s11" d="m575.6 726.8v-19.6h-107.1v5.9z"></path><path id="&lt;Path&gt;" class="s12" d="m438.4 533.6l-46.4 38.7c-21.2 17.7-33.4 43.8-33.4 71.3v157c18 0 32.5-14.5 32.5-32.5v-18.3c0-40.4 17.9-78.7 48.8-104.6l42.9-35.9z"></path><path id="&lt;Path&gt;" class="s13" d="m604.6 533.6l46.5 38.7c21.1 17.7 33.3 43.8 33.3 71.3v157c-17.9 0-32.5-14.5-32.5-32.5v-18.3c0-40.4-17.8-78.7-48.8-104.6l-42.9-35.9z"></path><path id="&lt;Path&gt;" class="s10" d="m574.8 709.4h-105.4c-7.4 0-13.1-6.4-12.2-13.7l9.4-77.3h111l9.3 77.3c0.9 7.3-4.8 13.7-12.1 13.7z"></path><path id="&lt;Path&gt;" class="s11" d="m580.7 644.4l-3.1-19.8h-111l-3.2 19.8z"></path><path id="&lt;Path&gt;" class="s14" d="m461.5 195.4c-21.1 66.8-38.8 154.1-38.8 239.7 0 61.1 5.4 118.2 14.9 166.5 4 20.4 21.9 35.1 42.7 35.1h83.5c20.8 0 38.7-14.7 42.7-35.1 9.5-48.3 15-105.4 15-166.5 0-85.6-18.7-172.9-40.3-239.7z"></path><path id="&lt;Path&gt;" class="s15" d="m532.7 195.4h-71.2c-4.5 14.4-8.9 29.8-13 45.9-4.2 16.5 70.7-22.5 84.2-45.9z"></path><path id="&lt;Path&gt;" class="s11" d="m588.2 218.3c-13.6 0-23.9 12.4-21.4 25.8 10.5 55.1 18.3 120.5 17.3 191-0.8 61.1-5.4 118.2-14.9 166.5-4 20.4-21.9 35.1-42.7 35.1h37.1c21 0 39-14.9 43-35.5 14.3-74.4 14.9-139.3 14.9-166.1 0-76.1-14.8-153.6-33.3-216.8z"></path><path id="&lt;Path&gt;" class="s5" d="m592.3 406.1c0 39.2-31.8 70.9-70.9 70.9-39.2 0-71-31.7-71-70.9 0-39.2 31.8-70.9 71-70.9 39.1 0 70.9 31.7 70.9 70.9z"></path><path id="&lt;Path&gt;" class="s16" d="m592.3 398.6c0 39.2-31.8 71-70.9 71-39.2 0-71-31.8-71-71 0-39.2 31.8-70.9 71-70.9 39.1 0 70.9 31.7 70.9 70.9z"></path><path id="&lt;Path&gt;" class="s11" d="m521.4 327.7q-0.4 0-0.8 0v141.8q0.4 0.1 0.8 0.1c39.1 0 70.9-31.8 70.9-71 0-39.2-31.8-70.9-70.9-70.9z"></path><path id="&lt;Path&gt;" class="s17" d="m569.9 398.6c0 26.8-21.7 48.6-48.5 48.6-26.8 0-48.6-21.8-48.6-48.6 0-26.8 21.8-48.5 48.6-48.5 26.8 0 48.5 21.7 48.5 48.5z"></path><path id="&lt;Path&gt;" class="s18" d="m521.4 358.4c25.4 0 46.2 19.5 48.3 44.4q0.2-2.1 0.2-4.2c0-26.8-21.7-48.5-48.5-48.5-26.8 0-48.6 21.7-48.6 48.5q0 2.1 0.2 4.2c2.1-24.9 23-44.4 48.4-44.4z"></path><path id="&lt;Path&gt;" class="s19" d="m522.8 799.7l-0.7 0.9c-7.4-8.2-11.7-18.8-12-29.9l-6.5-205.3c-0.5-15.3 6.3-29.9 18.4-39.2l0.1-0.1c12.1 9.4 19 24 18.5 39.4l-6.9 205.7c-0.4 10.4-4.2 20.5-10.9 28.5z"></path><path id="&lt;Path&gt;" class="s11" d="m522.8 799.7l-0.7 0.9-0.1-274.4 0.1-0.1c12.1 9.4 19 24 18.5 39.4l-6.9 205.7c-0.4 10.4-4.2 20.5-10.9 28.5z"></path></g><path id="&lt;Path&gt;" class="s20" d="m242.6 640.1l2.9 2.2c0.9 0.7 0.4 2.2-0.8 2.2-0.9-0.1-1.5 0.9-1.2 1.7 2.4 5.5 5.6 10.9 9.8 15.7 17.9 20.6 48.6 23.8 55 24.3 0.7 0 1.3-0.5 1.3-1.2 0.4-5.9 1.2-33.1-13.1-53.4-0.5-0.6-1.5-0.6-2 0l-0.5 0.8c-0.8 0.9-2.3 0.4-2.2-0.8l0.1-2.6c0.1-1.8-0.6-3.6-1.9-4.9-15.8-15.4-39-19.6-48.7-20.7-2.5-0.3-4.7 1.6-4.7 4.1-0.1 6 0.2 17.3 3.6 29.2 0.4 1.4 1.2 2.6 2.4 3.4z"></path><g id="&lt;Group&gt;"><path id="&lt;Path&gt;" class="s21" d="m248.7 616.6l56.1 64.2"></path><path id="&lt;Path&gt;" class="s21" d="m252.1 630.5l8.4 0.5"></path><path id="&lt;Path&gt;" class="s21" d="m263.2 650l14.8 1"></path><path id="&lt;Path&gt;" class="s21" d="m272.6 667.6l21.1 1.4"></path><path id="&lt;Path&gt;" class="s21" d="m261.6 622.2l-0.6 8.4"></path><path id="&lt;Path&gt;" class="s21" d="m279.4 635.9l-1 14.7"></path><path id="&lt;Path&gt;" class="s21" d="m295.6 647.5l-1.4 21.1"></path></g><g id="&lt;Group&gt;"><path id="&lt;Path&gt;" class="s22" d="m446 850.9l-62.6-361"></path><path id="&lt;Path&gt;" class="s22" d="m453.5 489.9l79.2 361"></path><path id="&lt;Path&gt;" class="s23" d="m388.6 517h71.1"></path><path id="&lt;Path&gt;" class="s23" d="m380.8 554.5h85.6"></path><path id="&lt;Path&gt;" class="s23" d="m389.2 592.1h85.7"></path><path id="&lt;Path&gt;" class="s23" d="m397.7 629.6h85.6"></path><path id="&lt;Path&gt;" class="s23" d="m406.1 667.1h85.6"></path><path id="&lt;Path&gt;" class="s23" d="m414.5 704.7h85.6"></path><path id="&lt;Path&gt;" class="s23" d="m427.1 742.2h81.5"></path><path id="&lt;Path&gt;" class="s23" d="m431.4 779.8h85.6"></path><path id="&lt;Path&gt;" class="s23" d="m439.8 817.3h85.6"></path><path id="&lt;Path&gt;" class="s24" d="m391 850.9l62.5-361"></path><path id="&lt;Path&gt;" class="s24" d="m383.4 489.9l-79.2 361"></path><path id="&lt;Path&gt;" class="s25" d="m448.3 517h-69"></path><path id="&lt;Path&gt;" class="s25" d="m441.6 554.5h-71.1"></path><path id="&lt;Path&gt;" class="s25" d="m435.3 592.1h-73.2"></path><path id="&lt;Path&gt;" class="s25" d="m428.9 629.6h-75.2"></path><path id="&lt;Path&gt;" class="s25" d="m422.6 667.1h-77.4"></path><path id="&lt;Path&gt;" class="s25" d="m416.2 704.7h-79.4"></path><path id="&lt;Path&gt;" class="s25" d="m409.9 742.2h-81.5"></path><path id="&lt;Path&gt;" class="s25" d="m405.6 777.6h-85.6"></path><path id="&lt;Path&gt;" class="s25" d="m397.2 817.3h-85.7"></path></g><g id="&lt;Group&gt;"><path id="&lt;Path&gt;" class="s26" d="m432.7 552h5.8c-0.5-0.8-0.9-1.7-1.4-2.4-1.1-1.8-2.8-2-5-2.9l-3.6-1q-1.5-0.4-3-0.4h-0.1q-2.2-0.1-4.3 0.4l-6.1 1.5 1.7 6 3.8-0.4c1.8 2.4 10.4-0.7 12.2-0.8z"></path><path id="&lt;Path&gt;" class="s27" d="m345.4 553.5c-0.1-9.8 3.2-22.1-17.4-42.1-0.6-0.6-1.5-0.7-2.2-0.2-1.7 1.4-7.1 2.1-9.8 4.5-5.2 4.6-14.2 18.9-11.7 25.3 5.5 13.6 6.7 23.1 5.9 38.5-0.6 15.8 15.8 31.7 28.3 27.3 4.4-1.6 6.9-4.7 8.3-8.6 1-3 0.7-6.3-0.8-9q0-0.1 0-0.1c-4.8-9-0.2-2.7-0.6-35.6z"></path><path id="&lt;Path&gt;" class="s26" d="m361.2 694.1c6-32.9 3.5-60.6 1.2-75.2-1.1-6.5-6.4-11.5-12.9-12.2-9.5-0.9-17.6 6.8-17.1 16.3 0.3 4.1 0.8 9 2 14.7 4.3 22.2 12.8 125.3 12.8 125.3 0.3 2.8-0.5 6.4-0.9 7.3-1.2 3-2.2 5.7 2 5.7 3.2 0 3.6-0.7 8.1-0.2 2.7 0.3 5.1 0.3 6.8 0.2 1 0 1.1-1.4 0.2-1.7-2.5-0.8-6.4-1.7-8.5-2.7-2.5-1.3-3.4-1.4-3.5-4.4q0-1.1 0.2-2.2z"></path><path id="&lt;Path&gt;" class="s28" d="m363.4 774.3c-2.4-0.8-6.2-1.6-8.3-2.6q-1.5 0.5-3.4 0.5c-2.2 0-4-0.6-5.5-1.6-1.2 2.8-2 5.4 2.1 5.4 3.2 0 3.6-0.7 8.1-0.2 2.7 0.3 5.1 0.3 6.8 0.2 1 0 1.1-1.4 0.2-1.7z"></path><path id="&lt;Path&gt;" class="s26" d="m308.1 702.5c0 0 19.2-1.2 20.5-3.9 8.4-17.2 16.9-76.2 14.7-92.6l-14.7-1.2c-7.4-0.3-14.1 4.4-16.2 11.5-3.2 10.6-6.3 28.5-3.4 54.5 0 0 4.7 18.6-0.9 31.7z"></path><path id="&lt;Path&gt;" class="s26" d="m324.2 680.6q-0.4 0.1-0.7 0.2c-8.3 2.2-58.9 16.8-68.1 19.5-1.4 0.2-2.8 0.4-3.3 0.4-1.9 0-2.6-0.4-3.5-0.7-2.5-1-3.7 0.3-5.4 4.1-1.4 3.2-5.4 2.7-5.2 5.6 0.4 3.8 1.4 6.3 2.3 6.4 1.5 0.1 1.3-1 2.1-4.6 0.3-1.4 3.2-2.9 6.1-4 3.1-1.3 6.4-1.9 9.7-2.1 9.4-0.4 31.6-1.2 49.9-2.9 5.7-0.5 11.8-1.7 16.1-2.2z"></path><path id="&lt;Path&gt;" class="s28" d="m250.8 700.6c-1-0.1-1.6-0.4-2.2-0.6-2.5-1-3.7 0.3-5.4 4.1-1.4 3.2-5.4 2.7-5.2 5.6 0.4 3.8 1.4 6.3 2.3 6.4 1.5 0.1 1.3-1 2.1-4.6 0.2-1.1 2.3-2.3 4.6-3.4 0.1-2.9 1.4-5.7 3.8-7.5z"></path><path id="&lt;Path&gt;" class="s29" d="m352.6 761.5l8.6-67.4c6-32.9 3.5-60.6 1.2-75.2-1.1-6.5-6.4-11.5-12.9-12.2-9.5-0.9-17.6 6.8-17.1 16.3 0.3 4.1 0.8 9 2 14.7 4 20.6 11 111 12.1 123.8z"></path><path id="&lt;Path&gt;" class="s30" d="m334.4 637.7c2.2 11.4 5.4 44.4 7.9 73.6q1.5-5.4 2.7-10.9c2.3-11.3 2.8-22.7 4.3-34.1 1.3-10.3 5.5-20.6 6-31 0.1-3.2 1.5-5.5 3.4-7.1 2.8-2.2 4.2-5.7 3.7-9.2q0 0 0-0.1c-1.1-6.5-6.4-11.5-12.9-12.2h-0.4c-9.6 0-17.2 8.1-16.6 17.6 0.3 3.8 0.9 8.3 1.9 13.4z"></path><path id="&lt;Path&gt;" class="s31" d="m343.3 606l-14.7-1.2c-7.4-0.3-14.1 4.4-16.2 11.5-3.2 10.6-6.3 28.5-3.4 54.5l1 13.8c-16.1 4.6-41.2 10.8-51.4 13.7l1.1 8.1c9.6-0.4 30.3-2.2 48.4-3.9 0 0 18.5-1 20.5-3.9 10.6-15.9 16.9-76.2 14.7-92.6z"></path><path id="&lt;Path&gt;" class="s32" d="m415 547.2l-34.1 16.6c-14.1-3.2-37.9-16.3-45.3-17.5-0.7 3.8-2.2 7.5-1.7 12.4 0.5 4.8 4 8.6 8.6 9.8 13.5 3.5 33.4 9.5 41.9 7.3 11.2-2.9 32.3-22.6 32.3-22.6 1-1.7 0.7-5.5-1.7-6z"></path><path id="&lt;Path&gt;" class="s32" d="m414.6 547.2l-34.1 16.6c-14.1-3.2-37.8-16.3-45.3-17.5-0.7 3.8-2.2 7.5-1.7 12.4 0.5 4.8 4 8.6 8.6 9.8 13.5 3.5 33.4 9.5 41.9 7.3 11.2-2.9 32.3-22.6 32.3-22.6 1-1.7 0.7-5.5-1.7-6z"></path><path id="&lt;Path&gt;" class="s33" d="m351.6 585.7c-0.4-0.9-2.3-3.9-0.4-6.1 1.5-1.7 3.7-5.7 3.2-8.1-0.5-2.6-0.2-6.1-3.4-10.6-8.6-12.3-15.4-14.6-15.4-14.6-4.9-0.2-14 0.9-21.8 1.2-25.8 1.2-14.6 14.8-14.6 14.8 3.1 3.1 5.6 6.6 7.5 10.6 3.2 6.8 7.3 15.6 9.7 20.7 1 3.3-2 12.9-3 16.2l-2.3 6.8c-0.3 1 0.2 2.1 1.2 2.4 11.3 3.9 34 4.5 48.5-0.1 1.6-0.5 2.4-2.4 1.6-3.9z"></path><path id="&lt;Path&gt;" class="s26" d="m311.8 509.6c-7.5 2.1-8.8 8.2-6.2 18.1 0.9 3.7 3.6 6.9 5.6 8.9 1.5 1.4 2.3 3.4 2.3 5.5l-0.1 6c0.3 5.4 3.5 7.6 7.4 7.6 2 0 4-1 5.3-2.4 1.5-1.7 1-4.4 0-6.4l-0.9-1.5c-1.1-2-0.5-4.6 1.5-5.7 1.6-0.8 3.2-2.1 4.2-3.3 1-1.1 1.6-9.8-2.4-18.9-4.1-9.4-9.3-10-16.7-7.9z"></path><path id="&lt;Path&gt;" class="s34" d="m301.9 517c6-11.7 19-15.6 25.6-11.6 3.5 2.2 8.4 11.4 0.6 11.7-2 0.1-3.8-0.6-5.4-1.6-0.5-0.3-1.2-0.5-1.8-0.4l-5.1 1.8c-4.2 1.4-6.4 6-5 10.2l0.5 1.5c0.2 0.8-0.6 1.5-1.3 1.1l-0.3-0.6c-0.8-1.4-2.2-2.5-3.8-2.9-3.4-0.9-7.6-2.2-4-9.2z"></path><path id="&lt;Path&gt;" class="s35" d="m358 611.6l-22.3 6.1c-1.2 0.4-2.3-0.5-2.4-1.7l-1.8-39.2c0-0.9 0.5-1.7 1.4-1.9l22-6.1c1.1-0.3 2.3 0.5 2.4 1.7l2.1 39.2c0 0.9-0.6 1.7-1.4 1.9z"></path><path id="&lt;Path&gt;" class="s26" d="m353.3 587.4c-1.8 1.1-3.9 2-4.6 2.6-0.2 0.2-0.9 1-1 1.2-0.6 0.7-1.4 1.8-2.2 2.1l-3.5 1.1c-1.6 0.6-2.7 1.8-2.1 3.5 0.6 1.8 2.4 2.1 4.1 1.3l2.5-0.8c1.3-0.6 2.9-0.5 4.4-0.5 3.1-0.1 6.3-1.9 8.6-3.5 1.5-1.1 1.1-2.8 0.8-6-0.3-2-0.9-5.1-2.3-3.6-0.6 0.7 0.2 6.3-4.7 6.4-0.3 0-0.9 0-1-0.3-0.3-0.8 1.5-1.5 2.3-2.2 1.1-1 1.3-2 1-2.5-0.3-0.6-0.9 0.4-2.3 1.2z"></path><path id="&lt;Path&gt;" class="s32" d="m293.4 556.4c3.8-12.2 16.9-6 16.9 2.8 0 4.1 0.8 26-1 33.7-0.7 3-0.8 5.1 2.7 4.7q0 0 0.1 0l33.8-5.3c1.8 2.3 1.1 4.7 0.4 7.1 0 0-25.2 11.4-38.5 14.8-3.3 0.9-10.7 2.2-12.7-2.6-2.2-5.4-4.8-45.2-1.7-55.2z"></path><path id="&lt;Path&gt;" class="s34" d="m318.9 594c1.6-7.8 0.4-16.2-3.3-23.2-2.7-5.1-4.6-11.5-6.2-17-1.6-5.3-3.9-9.8-4.2-15.3-0.6-8.2 1.6-16.4 8.9-22 3.2-2.4 3.5-5.5 7.6-5.9-0.7-1.2-1.7-2.2-3-3.2 0 0-14.3-5.8-19.5 3.5-5.3 9.3-5.2 21.7-16.5 37.4-20.8 28.8-16.8 41.6-6.6 52.8 11.4 12.6 39.9 7.1 42.8-7.1z"></path><path id="&lt;Path&gt;" class="s26" d="m309.5 528.6c1.1 2.1 2.5 4.8 0.7 5.8-1.9 1-5.8-1.9-6.9-4-1.1-2.1-0.2-3.2 1.7-4.2 1.8-1 3.4 0.4 4.5 2.4z"></path></g><g id="&lt;Group&gt;"><path id="&lt;Path&gt;" class="s26" d="m685.3 826.7l2.7 10.5c1 3.6 2.4 6.1 2.4 6.1 1.2 1.8 1.1 5.1-1.7 4.9 0 0-3.9-0.7-7.9 0.6-4 1.3-9.2 0.2-9.2-0.9 0-2.4 2.3-0.5 6-3 1.3-0.8 2.5-1.7 3.7-2.6 3.2-2.5 0.4-8.9-1.6-12.5-0.7-1.3 0.1-4.5 1.5-4.8l1-0.2c1.3-0.3 2.7 0.5 3.1 1.9z"></path><path id="&lt;Path&gt;" class="s26" d="m682.9 735.9c-0.8-1.9-1.4-4-1.8-4.7-0.1-0.3-0.8-1-1-1.2-0.5-0.7-1.5-1.6-1.6-2.4l-0.6-3.4c-0.2-1.7-1.2-2.9-2.9-2.6-1.8 0.3-2.4 1.9-1.9 3.7l0.3 2.4c0.4 1.4 0.1 2.9-0.1 4.3-0.4 3 0.8 6.2 2 8.7 0.8 1.6 3 2.3 6.1 3.1 1.5 0.3 3.9 0.5 2.7-1.1-0.9-1.3-5.5-2.8-4.9-7.4 0.1-0.2 0.2-0.8 0.5-0.9 0.8-0.1 1.2 1.7 1.7 2.5 0.8 1.2 1.8 1.6 2.3 1.4 0.5-0.2-0.3-1-0.8-2.4z"></path><path id="&lt;Path&gt;" class="s32" d="m660.3 659c3.2-9.2-6.1-12.5-12.6-5.6-5.6 5.8-24.8 43.7-30.4 49.6-3.4 3.6-20.4 12.4-32.8 18.7l1.3 8.3c10.7-3.5 25.9-8.9 34.2-13.2 20.1-10.5 34.5-41.3 40.3-57.8z"></path><path id="&lt;Path&gt;" class="s26" d="m743.6 824.7l3.2 10.5c1.5 4.3 2.8 7.1 2.8 7.1 1.4 2.1 0.7 5.8-2 5.7 0 0-4.5-0.9-9.2 0.7-4.8 1.5-10.4 0.2-10.8-1-0.7-2.3 2.6-0.6 7-3.5 1.5-1 3-2 4.3-3.1 3.8-2.9 0.5-10.4-1.8-14.6-0.8-1.5 0-3.4 1.7-3.8l1.1-0.2c1.6-0.4 3.2 0.6 3.7 2.2z"></path><path id="&lt;Path&gt;" class="s29" d="m711.3 701.7l-34.7-2.9c0 0-12.3 44.1-15.5 63.6-2.4 14.2 19 68.9 19 68.9 2.4 0.2 4.8-0.1 6.7-0.8 0 0-3.9-48.7-1.7-60.5 2.3-12.3 18.2-35 20.7-41.1 9.3-22.4 5.5-27.2 5.5-27.2z"></path><path id="&lt;Path&gt;" class="s31" d="m704.1 702.2c-3.6 19.2-11.6 47.9 3.8 74.9 15.4 27 31.3 55.2 31.3 55.2 2.1 0 4.6-0.9 6.4-2.3 0 0-3.1-12.1-7-26.4-4.4-16.3-10.1-35.5-8.5-45.6 3-18.7 6.5-43.8 5.5-55.9-1.1-12.2-29.6-10-31.5 0.1z"></path><path id="&lt;Path&gt;" class="s36" d="m702.9 727.3c-11.4 7.7-26.9 3.4-32.8-9l-24.6-51.7c-3-6.3 0-13.8 6.6-16.3l18.5-6.9c6.2-2.3 13.2-0.6 17.6 4.2l45.3 49.5c1.3 1.2 1.3 3.2 0.1 4.5-4.6 4.6-16 15.5-30.3 25.4q-0.2 0.2-0.4 0.3z"></path><g id="&lt;Group&gt;"><path id="&lt;Path&gt;" class="s37" d="m664.1 630.6c-0.1-2.8 2.5-7.9-1.9-10.1-2.7-1.3-4.3-3.6-5.2-5.3q-0.4-1-0.8-1.8 0 0 0 0 0 0 0 0c-0.1-0.2-0.2-0.4-0.3-0.6-3-6.7-10.1-4.7-18.5-0.9-6.6 3-10.5 11-10.8 17.1-0.1 1.6 0.7 3.4 1.4 4.8 5.4 12.8 16.9 12.8 25.5 10.2 2.8 1.6 9.7-2.1 11.5-4.8 2-2.8-0.8-5.8-0.9-8.6z"></path><path id="&lt;Path&gt;" class="s26" d="m639.8 618.1c7-3.2 11.9 0.6 16.2 9.7 1.7 3.5 1.7 7.6 1.4 10.4-0.1 2 0.5 4.1 1.8 5.6l4 4.5c3.2 4.4 2.1 8.1-0.8 10.6-1.5 1.2-3.7 1.8-5.6 1.5-2.2-0.3-3.5-2.7-4.1-4.9l-0.3-1.6c-0.3-2.3-2.5-3.9-4.7-3.4-6 1.3-9.3-4-14.8-12.1-5.6-8.4-0.1-17.1 6.9-20.3z"></path><path id="&lt;Path&gt;" class="s37" d="m621.6 621.5l4.6-0.6c1.7-0.3 3.2-1 4.5-2.1l7-6c4.9-2.2 14.1-3.1 16.3 4.4l1.4 5.3c0.6 2.2-0.4 4.4-2.3 5.5q0 0 0 0c0.1 0.8-0.3 1.5-1 1.9-0.9 0.4-1.9 0-2.3-0.9-1-2.2-3.5-3.4-5.9-2.9-3 0.6-5.9 1.8-8.5 3.9-4.9 4.1-12.4 3.3-15.6-2.2q-0.3-0.5-0.5-1.1c-1.1-2.3 0.1-4.9 2.3-5.2z"></path><path id="&lt;Path&gt;" class="s26" d="m652.3 629.8c0.9 2.1 2.5 3.5 4.6 2.5 2.1-0.9 2-4.5 1.1-6.6-1-2.1-2.6-2.1-4.7-1.1-2 0.9-2 3-1 5.2z"></path></g><g id="&lt;Group&gt;"><path id="&lt;Compound Path&gt;" fill-rule="evenodd" class="s38" d="m679.4 780.3h-4.2c-2.6 0-4.9 1.6-5.8 4.1q-1 2.8-2.3 5.5c-1.1 2.3-0.6 5.2 1.2 7l2.9 3c2.2 2.1 2.2 5.6 0 7.8l-9.3 9.4c-2.2 2.2-5.7 2.2-7.9 0l-2.9-2.9c-1.9-1.9-4.7-2.4-7.1-1.2q-2.7 1.3-5.5 2.3c-2.5 0.8-4.1 3.2-4.1 5.8v4.1c0 3.1-2.5 5.6-5.6 5.6h-13.2c-3.1 0-5.6-2.5-5.6-5.6v-4.1c0-2.6-1.7-5-4.1-5.8q-2.9-1-5.5-2.3c-2.4-1.2-5.2-0.7-7.1 1.2l-2.9 2.9c-2.2 2.2-5.7 2.2-7.9 0l-9.4-9.4c-2.1-2.2-2.1-5.7 0-7.8l3-3c1.8-1.8 2.3-4.7 1.1-7q-1.3-2.7-2.2-5.5c-0.9-2.5-3.2-4.1-5.9-4.1h-4.1c-3.1 0-5.5-2.5-5.5-5.6v-13.3c0-3.1 2.4-5.5 5.5-5.5h4.1c2.7 0 5-1.7 5.9-4.2q0.9-2.8 2.2-5.5c1.2-2.3 0.7-5.2-1.1-7l-3-2.9c-2.1-2.2-2.1-5.7 0-7.9l9.4-9.4c2.2-2.2 5.7-2.2 7.9 0l2.9 2.9c1.9 1.9 4.7 2.4 7.1 1.2q2.6-1.3 5.5-2.3c2.4-0.8 4.1-3.2 4.1-5.8v-4.1c0-3.1 2.5-5.6 5.6-5.6h13.2c3.1 0 5.6 2.5 5.6 5.6v4.1c0 2.6 1.6 5 4.1 5.8q2.8 1 5.5 2.3c2.4 1.2 5.2 0.7 7.1-1.2l2.9-2.9c2.2-2.2 5.7-2.2 7.9 0l9.3 9.4c2.2 2.2 2.2 5.7 0 7.9l-2.9 2.9c-1.8 1.8-2.3 4.7-1.2 7q1.3 2.7 2.3 5.5c0.9 2.5 3.2 4.2 5.8 4.2h4.2c3 0 5.5 2.4 5.5 5.5v13.3c0 3.1-2.5 5.6-5.5 5.6zm-27.1-9.8c1.5-18.6-14-34-32.6-32.6-14.6 1.2-26.5 13.1-27.6 27.7-1.5 18.6 13.9 34 32.5 32.6 14.7-1.2 26.5-13.1 27.7-27.7z"></path><path id="&lt;Compound Path&gt;" fill-rule="evenodd" class="s39" d="m696.3 783.9h-5.4c-3.4 0-6.4 2.1-7.5 5.3q-1.3 3.7-3 7.1c-1.5 3.1-0.8 6.8 1.6 9.2l3.8 3.8c2.8 2.8 2.8 7.3 0 10.2l-12.2 12.1c-2.8 2.8-7.4 2.8-10.2 0l-3.8-3.8c-2.4-2.4-6.1-3-9.1-1.5q-3.5 1.7-7.1 2.9c-3.3 1.2-5.4 4.2-5.4 7.6v5.3c0 4-3.2 7.3-7.2 7.3h-17.2c-4 0-7.2-3.3-7.2-7.3v-5.3c0-3.4-2.2-6.4-5.4-7.6q-3.6-1.2-7.1-2.9c-3.1-1.5-6.7-0.9-9.1 1.5l-3.8 3.8c-2.8 2.8-7.4 2.8-10.2 0l-12.2-12.1c-2.8-2.9-2.8-7.4 0-10.2l3.8-3.8c2.4-2.4 3-6.1 1.5-9.2q-1.6-3.4-2.9-7.1c-1.1-3.2-4.2-5.3-7.6-5.3h-5.3c-4 0-7.2-3.3-7.2-7.3v-17.1c0-4 3.2-7.3 7.2-7.3h5.3c3.4 0 6.5-2.1 7.6-5.3q1.3-3.7 2.9-7.1c1.5-3.1 0.9-6.8-1.5-9.2l-3.8-3.8c-2.8-2.8-2.8-7.3 0-10.2l12.2-12.1c2.8-2.8 7.4-2.8 10.2 0l3.8 3.8c2.4 2.4 6 3 9.1 1.5q3.5-1.7 7.1-2.9c3.2-1.2 5.4-4.2 5.4-7.6v-5.3c0-4 3.2-7.3 7.2-7.3h17.2c4 0 7.2 3.3 7.2 7.3v5.3c0 3.4 2.1 6.4 5.4 7.6q3.6 1.2 7.1 2.9c3 1.5 6.7 0.9 9.1-1.5l3.8-3.8c2.8-2.8 7.4-2.8 10.2 0l12.2 12.1c2.8 2.9 2.8 7.4 0 10.2l-3.8 3.8c-2.4 2.4-3.1 6.1-1.6 9.2q1.7 3.4 3 7.1c1.1 3.2 4.1 5.3 7.5 5.3h5.4c4 0 7.2 3.3 7.2 7.3v17.1c0 4-3.2 7.3-7.2 7.3zm-35.1-12.7c1.9-24.1-18.1-44.1-42.2-42.2-19 1.5-34.3 16.9-35.8 35.9-1.9 24.1 18 44.1 42.2 42.2 18.9-1.5 34.3-16.9 35.8-35.9z"></path><g id="&lt;Group&gt;"><path id="&lt;Compound Path&gt;" fill-rule="evenodd" class="s40" d="m622.2 823.6c-30.6 0-55.5-24.9-55.5-55.5 0-30.7 24.9-55.6 55.5-55.6 30.6 0 55.5 24.9 55.5 55.6 0 30.6-24.9 55.5-55.5 55.5zm0-104.4c-27 0-48.9 21.9-48.9 48.9 0 26.9 21.9 48.8 48.9 48.8 26.9 0 48.9-21.9 48.9-48.8 0-27-22-48.9-48.9-48.9z"></path></g></g><path id="&lt;Path&gt;" class="s26" d="m627.3 702c0.5-1.7-0.4-3.3-2-3.8l-1.9-0.7c-2.2-0.7-4.3-1.9-5.5-3.9-0.9-1.3-4.3-4.4-5.5-3.2-1 1 3.3 4.7 2.1 5.4-0.6 0.3-4.7-1.6-7.5-2.5-1.5-0.5-3.3 0-2.9 1.1 0.2 0.7-0.3 1.2-0.7 2.2-0.4 1 2.3 4 2.9 4.9 0.8 1 0.6 1.6 3.6 2.4 2.2 0.6 10.3 0.3 10.3 0.3h3.6c1.6 0.3 3.1-0.7 3.5-2.2z"></path><path id="&lt;Path&gt;" class="s32" d="m623 697.4c0 0 38.2 6.2 44.8 4.3 6.7-1.9 0.1-44.4 0.6-49.6 0.8-8.6 14.5-9.8 19.8 1.5 6.6 14.2-6.9 59.7-10.4 62.6-3.4 3-55.4-11.4-55.4-11.4-0.8-1.7-0.5-4.2 0.6-7.4z"></path></g><g id="&lt;Group&gt;"><path id="&lt;Path&gt;" class="s41" d="m804.8 272l0.7 2c0.8 1.8 2.2 3.3 4.1 4l1.9 0.8c1 0.4 1 1.7 0 2.1l-1.9 0.8c-1.9 0.7-3.3 2.2-4.1 4l-0.7 2c-0.4 0.9-1.8 0.9-2.2 0l-0.7-2c-0.8-1.8-2.2-3.3-4.1-4l-1.9-0.8c-1-0.4-1-1.7 0-2.1l1.9-0.8c1.9-0.7 3.3-2.2 4.1-4l0.7-2c0.4-0.9 1.8-0.9 2.2 0z"></path><path id="&lt;Path&gt;" class="s41" d="m694.2 331.3l1.1 2.8c1 2.5 3.1 4.6 5.6 5.6l2.8 1.1c1.3 0.6 1.3 2.5 0 3l-2.8 1.1c-2.5 1-4.6 3.1-5.6 5.7l-1.1 2.7c-0.6 1.4-2.5 1.4-3 0l-1.1-2.7c-1-2.6-3.1-4.7-5.7-5.7l-2.7-1.1c-1.4-0.5-1.4-2.4 0-3l2.7-1.1c2.6-1 4.7-3.1 5.7-5.6l1.1-2.8c0.5-1.3 2.4-1.3 3 0z"></path><path id="&lt;Path&gt;" class="s41" d="m219.3 539.6l1.1 2.8c1 2.6 3.1 4.6 5.6 5.7l2.8 1.1c1.3 0.5 1.3 2.4 0 2.9l-2.8 1.1c-2.5 1.1-4.6 3.1-5.6 5.7l-1.1 2.8c-0.6 1.3-2.5 1.3-3 0l-1.1-2.8c-1-2.6-3.1-4.6-5.7-5.7l-2.7-1.1c-1.4-0.5-1.4-2.4 0-2.9l2.7-1.1c2.6-1.1 4.7-3.1 5.7-5.7l1.1-2.8c0.5-1.3 2.4-1.3 3 0z"></path><path id="&lt;Path&gt;" class="s41" d="m856.1 508l0.6 1.7c0.7 1.6 1.9 2.8 3.5 3.4l1.7 0.7c0.8 0.3 0.8 1.5 0 1.8l-1.7 0.7c-1.6 0.6-2.8 1.9-3.5 3.4l-0.6 1.7c-0.4 0.8-1.5 0.8-1.8 0l-0.7-1.7c-0.6-1.5-1.9-2.8-3.4-3.4l-1.7-0.7c-0.8-0.3-0.8-1.5 0-1.8l1.7-0.7c1.5-0.6 2.8-1.8 3.4-3.4l0.7-1.7c0.3-0.8 1.4-0.8 1.8 0z"></path><path id="&lt;Path&gt;" class="s41" d="m885.1 374.8l1.1 2.8c1.1 2.6 3.1 4.6 5.7 5.6l2.8 1.1c1.3 0.6 1.3 2.5 0 3l-2.8 1.1c-2.6 1-4.6 3.1-5.7 5.7l-1.1 2.7c-0.5 1.4-2.4 1.4-2.9 0l-1.1-2.7c-1.1-2.6-3.1-4.7-5.7-5.7l-2.8-1.1c-1.3-0.5-1.3-2.4 0-3l2.8-1.1c2.6-1 4.6-3 5.7-5.6l1.1-2.8c0.5-1.3 2.4-1.3 2.9 0z"></path><path id="&lt;Path&gt;" class="s41" d="m658.5 449.6l0.4 1.1c0.4 1 1.3 1.8 2.3 2.3l1.1 0.4c0.6 0.2 0.6 1 0 1.2l-1.1 0.4c-1 0.4-1.9 1.3-2.3 2.3l-0.4 1.1c-0.2 0.6-1 0.6-1.2 0l-0.5-1.1c-0.4-1-1.2-1.9-2.3-2.3l-1.1-0.4c-0.5-0.2-0.5-1 0-1.2l1.1-0.4c1.1-0.5 1.9-1.3 2.3-2.3l0.5-1.1c0.2-0.6 1-0.6 1.2 0z"></path><path id="&lt;Path&gt;" class="s41" d="m252.2 197.4l0.4 1.1c0.4 1.1 1.2 1.9 2.3 2.3l1.1 0.5c0.5 0.2 0.5 1 0 1.2l-1.1 0.4c-1.1 0.4-1.9 1.3-2.3 2.3l-0.4 1.1c-0.3 0.5-1 0.5-1.2 0l-0.5-1.1c-0.4-1-1.2-1.9-2.3-2.3l-1.1-0.4c-0.5-0.2-0.5-1 0-1.2l1.1-0.5c1.1-0.4 1.9-1.2 2.3-2.3l0.5-1.1c0.2-0.5 0.9-0.5 1.2 0z"></path><path id="&lt;Path&gt;" class="s41" d="m884.3 680.8l0.4 1.1c0.4 1 1.2 1.8 2.3 2.3l1.1 0.4c0.5 0.2 0.5 1 0 1.2l-1.1 0.4c-1.1 0.4-1.9 1.3-2.3 2.3l-0.4 1.1c-0.3 0.6-1 0.6-1.2 0l-0.5-1.1c-0.4-1-1.2-1.9-2.3-2.3l-1.1-0.4c-0.5-0.2-0.5-1 0-1.2l1.1-0.4c1.1-0.5 1.9-1.3 2.3-2.3l0.5-1.1c0.2-0.6 0.9-0.6 1.2 0z"></path><path id="&lt;Path&gt;" class="s42" d="m855.8 796.2l0.4 1.1c0.4 1 1.2 1.8 2.3 2.2l1.1 0.5c0.5 0.2 0.5 1 0 1.2l-1.1 0.4c-1.1 0.4-1.9 1.3-2.3 2.3l-0.4 1.1c-0.3 0.6-1 0.6-1.2 0l-0.5-1.1c-0.4-1-1.2-1.9-2.3-2.3l-1.1-0.4c-0.5-0.2-0.5-1 0-1.2l1.1-0.5c1.1-0.4 1.9-1.2 2.3-2.2l0.5-1.1c0.2-0.6 0.9-0.6 1.2 0z"></path><path id="&lt;Path&gt;" class="s41" d="m399.3 474.7l0.4 1.1c0.4 1 1.3 1.9 2.3 2.3l1.1 0.4c0.6 0.2 0.6 1 0 1.2l-1.1 0.4c-1 0.5-1.9 1.3-2.3 2.3l-0.4 1.1c-0.2 0.6-1 0.6-1.2 0l-0.5-1.1c-0.4-1-1.2-1.8-2.2-2.3l-1.2-0.4c-0.5-0.2-0.5-1 0-1.2l1.2-0.4c1-0.4 1.8-1.3 2.2-2.3l0.5-1.1c0.2-0.6 1-0.6 1.2 0z"></path><path id="&lt;Path&gt;" class="s41" d="m758.1 503l0.5 1.1c0.4 1 1.2 1.9 2.3 2.3l1.1 0.4c0.5 0.2 0.5 1 0 1.2l-1.1 0.5c-1.1 0.4-1.9 1.2-2.3 2.2l-0.5 1.1c-0.2 0.6-0.9 0.6-1.2 0l-0.4-1.1c-0.4-1-1.2-1.8-2.3-2.2l-1.1-0.5c-0.5-0.2-0.5-1 0-1.2l1.1-0.4c1.1-0.4 1.9-1.3 2.3-2.3l0.4-1.1c0.3-0.6 1-0.6 1.2 0z"></path><path id="&lt;Path&gt;" class="s42" d="m405.1 310.6l0.4 1.1c0.5 1 1.3 1.9 2.3 2.3l1.1 0.4c0.6 0.2 0.6 1 0 1.2l-1.1 0.5c-1 0.4-1.8 1.2-2.3 2.2l-0.4 1.2c-0.2 0.5-1 0.5-1.2 0l-0.4-1.2c-0.5-1-1.3-1.8-2.3-2.2l-1.1-0.5c-0.6-0.2-0.6-1 0-1.2l1.1-0.4c1-0.4 1.8-1.3 2.3-2.3l0.4-1.1c0.2-0.6 1-0.6 1.2 0z"></path><path id="&lt;Path&gt;" class="s41" d="m173.7 262l0.4 1.1c0.4 1.1 1.3 1.9 2.3 2.3l1.1 0.5c0.6 0.2 0.6 0.9 0 1.2l-1.1 0.4c-1 0.4-1.9 1.2-2.3 2.3l-0.4 1.1c-0.2 0.5-1 0.5-1.2 0l-0.5-1.1c-0.4-1.1-1.2-1.9-2.3-2.3l-1.1-0.4c-0.5-0.3-0.5-1 0-1.2l1.1-0.5c1.1-0.4 1.9-1.2 2.3-2.3l0.5-1.1c0.2-0.5 1-0.5 1.2 0z"></path><path id="&lt;Path&gt;" class="s41" d="m158.5 630.1l0.5 1.1c0.4 1 1.2 1.9 2.3 2.3l1.1 0.4c0.5 0.2 0.5 1 0 1.2l-1.1 0.5c-1.1 0.4-1.9 1.2-2.3 2.2l-0.5 1.2c-0.2 0.5-0.9 0.5-1.1 0l-0.5-1.2c-0.4-1-1.2-1.8-2.3-2.2l-1.1-0.5c-0.5-0.2-0.5-1 0-1.2l1.1-0.4c1.1-0.4 1.9-1.3 2.3-2.3l0.5-1.1c0.2-0.6 0.9-0.6 1.1 0z"></path><path id="&lt;Path&gt;" class="s41" d="m123.8 531.7l0.4 1.1c0.4 1.1 1.3 1.9 2.3 2.3l1.1 0.5c0.5 0.2 0.5 1 0 1.2l-1.1 0.4c-1 0.4-1.9 1.3-2.3 2.3l-0.4 1.1c-0.2 0.5-1 0.5-1.2 0l-0.5-1.1c-0.4-1-1.2-1.9-2.3-2.3l-1.1-0.4c-0.5-0.2-0.5-1 0-1.2l1.1-0.5c1.1-0.4 1.9-1.2 2.3-2.3l0.5-1.1c0.2-0.5 1-0.5 1.2 0z"></path><path id="&lt;Path&gt;" class="s41" d="m172.3 462.2l0.4 1.1c0.4 1.1 1.3 1.9 2.3 2.3l1.1 0.4c0.6 0.3 0.6 1 0 1.2l-1.1 0.5c-1 0.4-1.9 1.2-2.3 2.3l-0.4 1.1c-0.2 0.5-1 0.5-1.2 0l-0.5-1.1c-0.4-1.1-1.2-1.9-2.2-2.3l-1.2-0.5c-0.5-0.2-0.5-0.9 0-1.2l1.2-0.4c1-0.4 1.8-1.2 2.2-2.3l0.5-1.1c0.2-0.5 1-0.5 1.2 0z"></path><path id="&lt;Path&gt;" class="s41" d="m786.2 406.9l0.4 0.9c0.3 0.8 1 1.5 1.8 1.8l0.9 0.4c0.4 0.1 0.4 0.7 0 0.9l-0.9 0.4c-0.8 0.3-1.5 0.9-1.8 1.8l-0.4 0.9c-0.1 0.4-0.7 0.4-0.9 0l-0.4-0.9c-0.3-0.9-0.9-1.5-1.8-1.8l-0.9-0.4c-0.4-0.2-0.4-0.8 0-0.9l0.9-0.4c0.9-0.3 1.5-1 1.8-1.8l0.4-0.9c0.2-0.4 0.8-0.4 0.9 0z"></path></g><g id="&lt;Group&gt;"><g id="&lt;Group&gt;"><path id="&lt;Path&gt;" class="s26" d="m332.7 321.4c0 0-2.9 5.7-7.5 10.1l-2.9 2.7c-1.9 1.8-1.6 4.8 0.6 6.1 0 0 3.2 0.7 9.9 9 3.2 3.8 7.8 7.2 8.1 6 0.6-2.7-0.6-4.7-4.1-8.7-7.9-8.9-1.6-18.5 1.6-22 1.2-1.3-0.1-3.7-1.7-4.4-1.5-0.7-3.2-0.2-4 1.2z"></path><path id="&lt;Path&gt;" class="s29" d="m343.6 208.6c-13.3-17.5-35.3 1.6-26 15.8 6.6 10.2 20.6 30.9 32.6 45.6q0.2 0.2 0.3 0.4c2.7 3.5 3.1 8.2 1.2 12.2-3.3 6.3-7 12.9-10.4 19.1-7.1 13-12.5 24.2-12.5 24.2 1.4 1.7 4.6 3.9 6.6 4.3 0 0 30.8-29.4 40.2-49.9 0.9-2.1 1.3-4.4 1.3-6.7q0-0.3 0-0.3c-4-16.9-22.2-50.1-33.3-64.7z"></path></g><g id="&lt;Group&gt;"><path id="&lt;Path&gt;" class="s43" d="m406.4 341.1c0 53.8-43.6 97.4-97.4 97.4-53.8 0-97.5-43.6-97.5-97.4 0-53.8 43.7-97.4 97.5-97.4 53.8 0 97.4 43.6 97.4 97.4z"></path><g id="&lt;Group&gt;"><path id="&lt;Path&gt;" class="s44" d="m307.9 302.4c0 18.2-14.7 32.9-32.9 32.9-18.1 0-32.8-14.7-32.8-32.9 0-18.1 14.7-32.8 32.8-32.8 18.2 0 32.9 14.7 32.9 32.8z"></path><path id="&lt;Path&gt;" class="s45" d="m302.7 302.4c0 15.3-12.4 27.7-27.7 27.7-15.2 0-27.6-12.4-27.6-27.7 0-15.2 12.4-27.6 27.6-27.6 15.3 0 27.7 12.4 27.7 27.6z"></path><path id="&lt;Path&gt;" class="s46" d="m295.7 284.1c1.8 3.6 2.7 7.6 2.7 11.9 0 15.3-12.4 27.7-27.6 27.7-8.3 0-15.7-3.6-20.7-9.3 4.4 9.3 13.9 15.7 24.9 15.7 15.3 0 27.7-12.4 27.7-27.7 0-7-2.6-13.5-7-18.3z"></path></g><g id="&lt;Group&gt;"><path id="&lt;Path&gt;" class="s47" d="m387.6 388.2c0 14.8-12 26.8-26.8 26.8-14.8 0-26.8-12-26.8-26.8 0-14.8 12-26.8 26.8-26.8 14.8 0 26.8 12 26.8 26.8z"></path><path id="&lt;Path&gt;" class="s48" d="m382.1 388.2c0 11.8-9.5 21.3-21.3 21.3-11.8 0-21.3-9.5-21.3-21.3 0-11.8 9.5-21.3 21.3-21.3 11.8 0 21.3 9.5 21.3 21.3z"></path><path id="&lt;Path&gt;" class="s46" d="m376.8 374c1.3 2.8 2.1 5.9 2.1 9.3 0 11.7-9.6 21.3-21.4 21.3-6.3 0-12-2.8-15.9-7.2 3.4 7.2 10.8 12.1 19.2 12.1 11.8 0 21.3-9.5 21.3-21.3 0-5.4-2-10.4-5.3-14.2z"></path></g><g id="&lt;Group&gt;"><path id="&lt;Path&gt;" class="s49" d="m307.9 401.6c0 10.9-8.9 19.8-19.8 19.8-10.9 0-19.8-8.9-19.8-19.8 0-10.9 8.9-19.8 19.8-19.8 10.9 0 19.8 8.9 19.8 19.8z"></path><path id="&lt;Path&gt;" class="s50" d="m303.7 401.6c0 8.7-7 15.7-15.6 15.7-8.6 0-15.7-7-15.7-15.7 0-8.6 7.1-15.6 15.7-15.6 8.6 0 15.6 7 15.6 15.6z"></path><path id="&lt;Path&gt;" class="s46" d="m299.8 391.2c1 2.1 1.5 4.4 1.5 6.8 0 8.6-7 15.6-15.6 15.6-4.7 0-8.9-2-11.7-5.2 2.5 5.2 7.9 8.9 14.1 8.9 8.6 0 15.6-7 15.6-15.7 0-4-1.5-7.6-3.9-10.4z"></path></g><g id="&lt;Group&gt;"><path id="&lt;Path&gt;" class="s51" d="m336.4 350.1c0 8.2-6.7 14.9-15 14.9-8.2 0-14.9-6.7-14.9-14.9 0-8.3 6.7-15 14.9-15 8.3 0 15 6.7 15 15z"></path><path id="&lt;Path&gt;" class="s52" d="m332.9 350.1c0 6.3-5.1 11.4-11.5 11.4-6.3 0-11.4-5.1-11.4-11.4 0-6.3 5.1-11.5 11.4-11.5 6.4 0 11.5 5.2 11.5 11.5z"></path><path id="&lt;Path&gt;" class="s46" d="m330 342.5c0.7 1.5 1.1 3.2 1.1 4.9 0 6.4-5.1 11.5-11.4 11.5-3.4 0-6.5-1.5-8.6-3.9 1.9 3.9 5.8 6.5 10.3 6.5 6.4 0 11.5-5.1 11.5-11.4 0-2.9-1.1-5.6-2.9-7.6z"></path></g><g id="&lt;Group&gt;"><path id="&lt;Path&gt;" class="s53" d="m261.5 354.7c0 11.8-9.6 21.3-21.4 21.3-11.8 0-21.3-9.5-21.3-21.3 0-11.8 9.5-21.4 21.3-21.4 11.8 0 21.4 9.6 21.4 21.4z"></path><path id="&lt;Path&gt;" class="s54" d="m256.6 354.7c0 9-7.4 16.4-16.5 16.4-9.1 0-16.4-7.4-16.4-16.4 0-9.1 7.3-16.5 16.4-16.5 9.1 0 16.5 7.4 16.5 16.5z"></path><path id="&lt;Path&gt;" class="s46" d="m252.4 343.7c1 2.2 1.6 4.6 1.6 7.1 0 9.1-7.3 16.5-16.4 16.5-4.9 0-9.3-2.1-12.3-5.5 2.6 5.5 8.3 9.3 14.8 9.3 9.1 0 16.5-7.4 16.5-16.4 0-4.2-1.6-8.1-4.2-11z"></path></g><g id="&lt;Group&gt;"><path id="&lt;Path&gt;" class="s55" d="m371.3 290.1c0 11.7-9.5 21.1-21.1 21.1-11.7 0-21.2-9.4-21.2-21.1 0-11.7 9.5-21.1 21.2-21.1 11.6 0 21.1 9.4 21.1 21.1z"></path><path id="&lt;Path&gt;" class="s56" d="m366.6 290.1c0 9.1-7.4 16.4-16.4 16.4-9.1 0-16.5-7.3-16.5-16.4 0-9.1 7.4-16.5 16.5-16.5 9 0 16.4 7.4 16.4 16.5z"></path><path id="&lt;Path&gt;" class="s46" d="m362.4 279.2c1.1 2.1 1.7 4.5 1.7 7.1 0 9.1-7.4 16.4-16.5 16.4-4.9 0-9.3-2.1-12.3-5.5 2.7 5.5 8.3 9.3 14.9 9.3 9 0 16.4-7.3 16.4-16.4 0-4.2-1.6-8-4.2-10.9z"></path></g><g id="&lt;Group&gt;"><path id="&lt;Path&gt;" class="s57" d="m400.9 335.1c0 11.4-9.2 20.6-20.6 20.6-11.3 0-20.5-9.2-20.5-20.6 0-11.3 9.2-20.5 20.5-20.5 11.4 0 20.6 9.2 20.6 20.5z"></path><path id="&lt;Path&gt;" class="s58" d="m396.8 335.1c0 9.1-7.4 16.5-16.5 16.5-9 0-16.4-7.4-16.4-16.5 0-9 7.4-16.4 16.4-16.4 9.1 0 16.5 7.4 16.5 16.4z"></path><path id="&lt;Path&gt;" class="s46" d="m392.6 324.2c1.1 2.2 1.6 4.6 1.6 7.1 0 9.1-7.3 16.5-16.4 16.5-4.9 0-9.3-2.2-12.3-5.5 2.7 5.5 8.3 9.3 14.8 9.3 9.1 0 16.5-7.4 16.5-16.5 0-4.1-1.6-8-4.2-10.9z"></path></g></g><g id="&lt;Group&gt;"><path id="&lt;Path&gt;" class="s59" d="m415.9 190.3c-0.3-5.8 0.1-9-2.2-15.6-11.7-0.4-25.1-1.5-30.5-0.6-8.8 1.6-11.1 11.1-11.1 11.1-0.3 2.5 1 5.8 9.1 5.9 4.4 0.1 20.4-2 34.7-0.8z"></path><g id="&lt;Group&gt;"><path id="&lt;Path&gt;" class="s60" d="m521.6 137.8c-73.3-23.9-130.2-31.2-136.9-21.9-7.9 11.1 17.7 62.5 64.5 123.5z"></path><path id="&lt;Path&gt;" class="s61" d="m456.5 229.2l7.7-10.9c-25.9-33.8-46-55-61.9-79.1-1.4-2-4.4-0.3-3.4 1.8 8.3 18.7 25.8 46.7 57.6 88.2z"></path><path id="&lt;Path&gt;" class="s11" d="m521.7 137.8c-73.3-23.9-130.3-31.2-137-21.9-0.6 0.9 50 12.7 122.2 42.6z"></path></g><path id="&lt;Path&gt;" class="s26" d="m339.5 240.1l60.1-47.2c2.4-2.3 3-5.8 1.5-8.7l-3.2-6.2c-4.9-9.4-16.4-13.4-26.1-9l-61.5 27.9z"></path><path id="&lt;Path&gt;" class="s26" d="m262.8 307.6c0 0-5.4 3.3-11.6 4.8l-3.9 0.8c-2.5 0.5-3.8 3.3-2.6 5.5 0 0 2.3 2.3 3.8 12.8 0.8 5 3 10.2 3.9 9.3 1.9-2 1.9-4.3 0.9-9.5-2.1-11.8 8.2-16.7 12.8-18.1 1.6-0.5 1.7-3.2 0.8-4.6-0.9-1.4-2.7-1.8-4.1-1z"></path><path id="&lt;Path&gt;" class="s62" d="m329.1 228.2c-5-21.4-30-14.4-27.4 2.3 1.8 12.1 3.3 38.1 8.3 56.4q0 0.2 0.1 0.5c1 4.3-0.6 8.8-4 11.5-5.5 4.5-11.6 9-17.2 13.3-11.8 8.9-21.4 16.9-21.4 16.9q0.1 0.4 0.3 0.9c-1.7 1-3.7 2-5.8 2.8l-3.8 1.3c-2.5 0.8-3.4 3.7-1.9 5.7 0 0 2.5 2 5.3 12.3 1.3 4.8 4.2 9.8 4.9 8.8 1.7-2.2 1.4-4.6-0.2-9.6-2.3-7.5 1.1-12.8 5-16q0.2 0.2 0.5 0.4c0 0 40.2-14.1 57.1-29.1 1.7-1.5 3-3.4 4-5.5q0.1-0.2 0.1-0.3c3.2-17 0.2-54.8-3.9-72.6z"></path><path id="&lt;Path&gt;" class="s31" d="m330.3 216.5c-2.4-21.8-31.1-16.8-30.5 0.2 0.4 12.1 1.8 37.1 4.5 55.8q0.1 0.3 0.1 0.5c0.5 4.4-1.6 8.7-5.3 11.1-6.1 3.7-12.6 7.5-18.7 11-12.8 7.5-23.3 14.3-23.3 14.3 0.3 2.2 2 5.7 3.5 7.1 0 0 41.6-9.3 60.1-22.1 1.9-1.3 3.5-3 4.7-5q0.1-0.2 0.1-0.3c5.2-16.5 6.8-54.4 4.8-72.6z"></path><path id="&lt;Path&gt;" class="s36" d="m317.9 233.7c5.1 7.1 9.2 10.8 12 12.7 2.1 1.5 5 1.3 7.1-0.4l64.9-54.1c1.3-1.3 1.1-3.9 0.3-5.6l-4.5-8.9c-4.6-9.1-15.6-13.1-24.9-8.9l-60.8 27.1c-3.2 1.4-5.1 4.6-4.8 8 0.7 7 2.9 19 10.7 30.1z"></path><path id="&lt;Path&gt;" class="s59" d="m397.7 177.4c-2.1-4.1-5.5-7.2-9.4-8.9-3.2 2.2-4.4 6.5-2.7 10.2 1.9 4.1 6.8 5.8 10.9 3.9 1.1-0.5 2-1.2 2.8-2.1z"></path><path id="&lt;Path&gt;" class="s26" d="m482.7 186.7c-1.5 1.5-3.1 2.9-3.6 3.5-0.2 0.3-0.6 1.2-0.7 1.5-0.3 0.7-0.7 1.9-1.4 2.4l-2.9 2c-1.4 0.9-2.1 2.3-1.1 3.7 1 1.5 2.7 1.4 4.1 0.2l2.1-1.4c1.1-0.9 2.5-1.2 4-1.6 2.8-0.9 5.2-3.3 7-5.5 1.1-1.3 0.8-3.7 0.2-6.7-0.3-1.6-1.2-3.8-2.1-2.1-0.8 1.4-0.2 6.1-4.7 7.5-0.2 0.1-0.8 0.2-0.9 0-0.5-0.7 0.9-1.8 1.5-2.7 0.7-1.1 0.7-2.2 0.3-2.6-0.5-0.4-0.8 0.7-1.8 1.8z"></path><g id="&lt;Group&gt;"><path id="&lt;Path&gt;" class="s31" d="m418.4 146c-0.3-1.4-0.6-3.1-1.5-4.3-3.3-4.4-10.3-8.3-16.8-7.2-8.2 1.5-14.4 3.6-13.3 10.2q0 0.2 0.1 0.5 0 0 0 0 0 0 0 0 0.1 0.9 0.3 1.8c0.2 1.7 0.2 4.3-1.1 6.6-2.2 3.9 2.4 6.3 3.7 8.5 1.4 2.1 0.8 5.8 3.7 6.9 2.8 1 9.8 0.2 11.1-2.3 7.7-2.6 16.3-8.4 13.8-20.7z"></path><path id="&lt;Path&gt;" class="s26" d="m406.7 141.3c-6.7-2-10.2 2.1-13 10.9-1 2.8-1 5-0.6 7.2 0.4 2.5-0.3 6.3-1.7 8.4l-2.2 3.3c-0.7 1.3-0.7 1-1.1 1.7-0.4 0.8-0.8 2.3-0.7 3.2 0.5 4.5 6.5 6.8 9.7 3.2 0.9-0.9 1.5-2.1 1.7-3.5l0.8-5.4c8.3 3.4 10.8-2.1 15.5-11.5 4.2-8.2-1.8-15.4-8.4-17.5z"></path><path id="&lt;Path&gt;" class="s31" d="m422.2 145.6c0.1-1.5-1-2.7-2.5-2.8-2.2-0.1-3.9-1.2-4.8-1.8l-6.9-4.6c-4.7-1.5-13.1-1.2-14.2 5.7l-0.6 5c-0.3 2 0.9 3.9 2.7 4.6 0 0.7 0.4 1.4 1.1 1.6 0.8 0.2 1.7-0.2 2-1 0.6-2.2 2.7-3.5 4.9-3.3 2.7 0.2 5 2.8 7.7 4.3 8.1 4.5 10.1-3.1 10.6-7.7z"></path><path id="&lt;Path&gt;" class="s26" d="m396.8 153.2c-0.6 2.1-1.9 3.5-3.8 2.9-2-0.6-2.4-3.8-1.7-5.9 0.6-2 2-2.1 4-1.5 1.9 0.6 2.2 2.5 1.5 4.5z"></path></g><path id="&lt;Path&gt;" class="s26" d="m374.3 188.3c0 0 38.8 23.7 59.2 21.8 13.9-1.3 42.2-9.3 42.2-9.3 0 0 2.2-2.2 2.1-3.5-0.1-1.3-0.6-3.4-0.6-3.4 0 0-2.2 1.8-5.4 2.2-10.9 1.1-35.5 1.9-41 0.6-7.2-1.7-42.2-21.2-49.5-21-7.3 0.2-13.4 6.4-7 12.6z"></path><path id="&lt;Path&gt;" class="s33" d="m412.3 187.8c-12.6-6.1-27.6-13.2-32-13.1-7.9 0.3-12.4 10-6.1 14.3 0 0 15.4 9.4 32.4 16.4 3.5-5.3 5.3-10.9 5.7-17.6z"></path></g></g><path id="&lt;Path&gt;" class="s29" d="m691.2 845.8c0-0.8-0.3-1.8-0.8-2.5 0 0-0.3-0.6-0.8-1.6-1.5 1.1-3.4 1.9-5.9 1.9q-1.9 0-3.4-0.6-1.3 1-2.7 1.9c-3.7 2.5-7.8 0.6-7.8 3 0 1.1 7 2.2 11 0.9 1-0.3 2-0.5 2.9-0.6v0.4c0 0.4 0.3 0.8 0.7 0.8h6c0.4 0 0.8-0.4 0.8-0.8v-2.8z"></path><path id="&lt;Path&gt;" class="s29" d="m749.6 842.3c0 0-0.4-0.9-1-2.3-1.5 1.5-3.7 2.4-6.5 2.4-1.5 0-2.8-0.3-3.9-0.7-1.2 0.8-2.4 1.7-3.6 2.5-4.4 2.9-7.7 1.2-7 3.5 0.4 1.2 6 2.5 10.8 1 1.9-0.7 3.7-0.9 5.3-0.9v0.2c0 0.5 0.3 0.8 0.8 0.8h5c0.4 0 0.8-0.3 0.8-0.8v-4.2c0 0-0.4-1.1-0.7-1.5z"></path></g></g><g id="DESIGNED BY FREEPIK"><g id="&lt;Group&gt;"><g id="&lt;Group&gt;"><g id="&lt;Group&gt;">				</g></g><g id="&lt;Group&gt;">			</g></g></g></svg>