<svg xmlns="http://www.w3.org/2000/svg" xmlns:xlink="http://www.w3.org/1999/xlink" viewBox="0 0 511 511.99988"><linearGradient id="a" gradientUnits="userSpaceOnUse" x1=".5009993" x2="512.4887954" y1="256.0003974" y2="256.0003974"><stop offset="0" stop-color="#00f2fe"></stop><stop offset=".0208" stop-color="#03effe"></stop><stop offset=".2931" stop-color="#24d2fe"></stop><stop offset=".5538" stop-color="#3cbdfe"></stop><stop offset=".7956" stop-color="#4ab0fe"></stop><stop offset="1" stop-color="#4facfe"></stop></linearGradient><path d="m296.042969 131.613281c-23.390625 23.390625-23.390625 61.449219 0 84.84375 11.695312 11.695313 27.0625 17.542969 42.425781 17.542969 15.359375 0 30.722656-5.847656 42.421875-17.542969 23.390625-23.390625 23.390625-61.453125 0-84.84375-23.394531-23.394531-61.453125-23.394531-84.847656 0zm56.5625 56.5625c-7.796875 7.796875-20.484375 7.796875-28.277344 0-7.800781-7.796875-7.800781-20.484375 0-28.28125 3.894531-3.898437 9.019531-5.847656 14.140625-5.847656 5.117188 0 10.238281 1.949219 14.140625 5.847656 7.796875 7.796875 7.796875 20.484375-.003906 28.28125zm-79.988281 51.710938c7.808593 7.808593 7.808593 20.472656 0 28.28125-7.8125 7.808593-20.472657 7.808593-28.28125 0-7.8125-7.808594-7.8125-20.472657 0-28.28125 7.808593-7.808594 20.46875-7.8125 28.28125 0zm-157.984376 186.265625-79.992187 79.988281c-3.90625 3.90625-9.023437 5.859375-14.140625 5.859375-5.121094 0-10.238281-1.953125-14.140625-5.859375-7.8125-7.808594-7.8125-20.46875 0-28.277344l79.992187-79.992187c7.808594-7.8125 20.472657-7.8125 28.28125 0 7.808594 7.808594 7.808594 20.46875 0 28.28125zm74.410157 6.632812c7.855469 7.769532 7.925781 20.429688.160156 28.28125l-44.496094 44.996094c-3.910156 3.957031-9.0625 5.9375-14.21875 5.9375-5.082031 0-10.164062-1.925781-14.0625-5.777344-7.851562-7.765625-7.925781-20.429687-.15625-28.28125l44.492188-44.996094c7.765625-7.851562 20.429687-7.925781 28.28125-.160156zm-168.542969-30.773437c-5.15625 0-10.308594-1.980469-14.21875-5.9375-7.765625-7.851563-7.695312-20.515625.15625-28.28125l44.996094-44.496094c7.851562-7.765625 20.515625-7.691406 28.28125.160156 7.765625 7.851563 7.695312 20.515625-.160156 28.28125l-44.996094 44.496094c-3.894532 3.851563-8.976563 5.777344-14.058594 5.777344zm423.835938-154.097657c-3.917969 5.351563-9.996094 8.191407-16.15625 8.191407-4.097657 0-8.230469-1.257813-11.789063-3.859375-8.914063-6.523438-10.855469-19.035156-4.335937-27.949219 47.167968-64.472656 57.570312-146.613281 59.816406-183.8125-15.332032.8125-38.277344 2.949219-64.375 8.441406-42.496094 8.945313-102.476563 28.917969-146.886719 73.265625-18.195313 18.171875-36.914063 42.621094-55.664063 72.671875-.875 2.011719-2.078124 3.921875-3.652343 5.621094-7.507813 8.101563-20.160157 8.585937-28.261719 1.082031l-47.324219-43.828125-27.632812 41.925781c7.742187-4.429687 17.621093-3.210937 24.058593 3.226563l39.976563 39.976563c6.03125 6.035156 7.570313 15.230468 3.835937 22.898437-4.902343 10.066406-8.859374 18.683594-11.710937 25.085937l67.40625 67.308594c6.3125-2.894531 14.773437-6.882812 24.640625-11.808594 7.695312-3.839843 16.984375-2.328124 23.066406 3.753907l40.253906 40.253906c6.972657 6.972656 7.820313 17.988281 2 25.945313l-3.4375 4.699218 55.289063-34.21875-49.378906-49.378906c-4.292969-4.292969-6.402344-10.300781-5.738281-16.335938.664062-6.03125 4.035156-11.433593 9.160156-14.6875 13.332031-8.464843 25.71875-17.015624 36.8125-25.414062 8.804687-6.667969 21.347656-4.933594 28.015625 3.871094 6.664062 8.804687 4.933593 21.347656-3.871094 28.015625-5.953125 4.503906-12.230469 9.042969-18.792969 13.574219l49.929688 49.929687c4.320312 4.320313 6.429687 10.378906 5.726562 16.449219-.707031 6.070312-4.148437 11.480468-9.339844 14.699218l-163.984374 101.488282c-3.253907 2.015625-6.898438 2.992187-10.515626 2.992187-5.425781 0-10.785156-2.199219-14.6875-6.414062-6.5-7.023438-7.113281-17.664063-1.464843-25.390625l53.878906-73.660156-18.039063-18.035157c-15.6875 7.519531-25.65625 11.734375-26.175781 11.953125-7.488281 3.15625-16.144531 1.464844-21.894531-4.277344l-86.738281-86.617187c-5.699219-5.691406-7.425781-14.25-4.382813-21.707031.214844-.527344 4.382813-10.703125 11.855469-26.6875l-17.863281-17.863282-73.660156 53.875c-7.8125 5.714844-18.589844 5.015626-25.597657-1.660156-7.007812-6.671875-8.230469-17.40625-2.90625-25.484375l101.488281-153.984375c3.234376-4.90625 8.460938-8.140625 14.292969-8.847656 5.835938-.707031 11.683594 1.1875 15.992188 5.179688l46.972656 43.5c16.589844-24.691407 33.285156-45.488282 49.796875-61.976563 40.875-40.820313 98.96875-69.980469 168.003906-84.332031 51.59375-10.726563 91.113282-9.5507815 92.765625-9.496094 10.570313.355469 19.035157 8.867188 19.328125 19.433594.148438 5.320312 2.8125 131.476562-68.105468 228.417968zm0 0" fill="url(#a)"></path></svg>