<svg xmlns="http://www.w3.org/2000/svg" xmlns:xlink="http://www.w3.org/1999/xlink" viewBox="0 0 512 512.002"><linearGradient id="a" gradientUnits="userSpaceOnUse" x1=".001" x2="511.983" y1="256.001" y2="256.001"><stop offset="0" stop-color="#00f2fe"></stop><stop offset=".0208" stop-color="#03effe"></stop><stop offset=".2931" stop-color="#24d2fe"></stop><stop offset=".5538" stop-color="#3cbdfe"></stop><stop offset=".7956" stop-color="#4ab0fe"></stop><stop offset="1" stop-color="#4facfe"></stop></linearGradient><path d="m509.019531 445.453125c-13.199219-36.632813-41.0625-65.382813-75.765625-80.855469 11.652344-13.628906 18.710938-31.300781 18.710938-50.597656 0-35.382812-23.6875-65.316406-56.03125-74.828125 2.019531-9.320313 1.460937-19.304687-1.984375-28.75-13.628907-37.363281-42.515625-66.601563-78.4375-82.121094 11.5-13.589843 18.453125-31.144531 18.453125-50.300781 0-43.007812-34.992188-78-78-78-43.007813 0-78 34.992188-78 78 0 19.15625 6.953125 36.707031 18.453125 50.300781-35.921875 15.519531-64.808594 44.757813-78.4375 82.121094-3.382813 9.269531-3.835938 19.230469-1.5625 28.628906-32.5625 9.378907-56.453125 39.417969-56.453125 74.949219 0 19.296875 7.058594 36.96875 18.710937 50.597656-34.707031 15.46875-62.570312 44.222656-75.769531 80.855469-5.429688 15.074219-3.160156 31.921875 6.074219 45.066406 9.453125 13.449219 25.011719 21.480469 41.617187 21.480469h73.367188c11.046875 0 20-8.953125 20-20s-8.953125-20-20-20h-73.367188c-5.179687 0-7.9375-3.132812-8.886718-4.476562-1.042969-1.492188-2.589844-4.578126-1.171876-8.507813 14.445313-40.082031 53.597657-67.015625 97.425782-67.015625s82.980468 26.933594 97.425781 67.015625c.449219 1.246094.621094 2.394531.621094 3.441406.003906.105469-.003907.207031-.003907.3125-.074218 2.320313-1.007812 4.082031-1.71875 5.097657-1.085937 1.542968-3.609374 4.132812-8.324218 4.132812-11.046875 0-20 8.953125-20 20s8.953125 20 20 20c11.074218 0 21.65625-3.609375 30.230468-10.019531 8.65625 6.410156 19.289063 10.019531 30.402344 10.019531h75.367188c11.046875 0 20-8.953125 20-20s-8.953125-20-20-20h-75.367188c-5.179687 0-7.9375-3.132812-8.886718-4.476562-1.042969-1.492188-2.589844-4.578126-1.171876-8.507813 14.445313-40.082031 53.597657-67.015625 97.425782-67.015625s82.980468 26.933594 97.425781 67.015625c1.507813 4.1875-.042969 7.34375-1.101563 8.851563-1.085937 1.542968-3.609374 4.136718-8.324218 4.136718-11.046875 0-20 8.953125-20 20 0 11.042969 8.953125 20 20 20 16.40625 0 31.75-7.902344 41.050781-21.140625 9.257813-13.175781 11.503906-30.152343 6.003906-45.410156zm-97.054687-131.453125c0 20.953125-17.046875 38-38 38s-38-17.046875-38-38 17.046875-38 38-38 38 17.046875 38 38zm-194-236c0-20.953125 17.046875-38 38-38s38 17.046875 38 38-17.046875 38-38 38-38-17.046875-38-38zm-118 236c0-20.953125 17.046875-38 38-38s38 17.046875 38 38-17.046875 38-38 38-38-17.046875-38-38zm156 98.722656c-14.804688-21.023437-35.175782-37.632812-58.710938-48.125 11.652344-13.628906 18.710938-31.300781 18.710938-50.597656 0-12.980469-3.207032-25.21875-8.839844-36h41.839844c11.046875 0 20-8.953125 20-20s-8.953125-20-20-20h-82.585938c-5.523437 0-8.5-3.402344-9.523437-4.867188-1.125-1.605468-2.789063-4.914062-1.296875-9 14.863281-40.753906 55.214844-68.132812 100.40625-68.132812s85.542968 27.378906 100.40625 68.132812c1.738281 4.757813.058594 9.5625-2.398438 11.664063-.058594.050781-.0625.054687-.125.105469-2.308594 1.988281-5.988281 4.410156-7.378906 4.867187-2.089844.597657-3.996094 1.515625-5.703125 2.667969-26.449219 12.496094-44.800781 39.421875-44.800781 70.5625 0 19.296875 7.058594 36.96875 18.710937 50.597656-23.535156 10.492188-43.910156 27.101563-58.710937 48.125zm0 0" fill="url(#a)"></path></svg>