<svg width="1160" height="782" viewBox="0 0 1160 782" fill="none" xmlns="http://www.w3.org/2000/svg">
<path d="M710.75 260.667L792.208 195.501L873.667 260.667V0C909.509 0.000149833 938.833 29.3254 938.833 65.167V716.833C938.833 752.675 909.509 782 873.667 782H287.167C251.325 782 222 752.675 222 716.833V65.167C222 29.3253 251.325 0 287.167 0H710.75V260.667ZM376.769 553.917C363.272 553.917 352.331 564.858 352.331 578.354C352.331 591.851 363.272 602.792 376.769 602.792H621.144C634.64 602.792 645.581 591.851 645.581 578.354C645.581 564.858 634.64 553.917 621.144 553.917H376.769ZM376.769 423.583C363.272 423.583 352.331 434.524 352.331 448.021C352.331 461.517 363.272 472.458 376.769 472.458H718.894C732.39 472.458 743.331 461.517 743.331 448.021C743.331 434.524 732.39 423.583 718.894 423.583H376.769ZM376.769 293.25C363.272 293.25 352.331 304.191 352.331 317.688C352.331 331.184 363.272 342.125 376.769 342.125H588.561C602.057 342.125 612.998 331.184 612.998 317.688C612.998 304.191 602.057 293.25 588.561 293.25H376.769ZM376.769 162.917C363.272 162.917 352.331 173.858 352.331 187.354C352.331 200.851 363.272 211.792 376.769 211.792H653.728C667.224 211.792 678.165 200.851 678.165 187.354C678.165 173.858 667.224 162.917 653.728 162.917H376.769Z" fill="black"/>
<path d="M791.951 32.0742L810.323 72.167L856.863 75.6035L821.345 104.241L832.368 146.625L791.951 123.715L751.534 146.625L762.557 104.241L727.039 75.6035L773.58 72.167L791.951 32.0742Z" fill="black"/>
</svg>
