<svg width="1160" height="782" viewBox="0 0 1160 782" fill="none" xmlns="http://www.w3.org/2000/svg">
<path d="M768.225 0C805.492 0.000196706 835.824 30.3182 835.824 67.6006V313.731C835.824 350.999 805.507 381.332 768.225 381.332H684.389L638.69 461.319C626.686 482.32 604.187 495.379 579.994 495.379C555.801 495.379 533.304 482.335 521.299 461.319L488.537 403.982H488.655L474.848 381.17L391.765 381.332C354.497 381.332 324.164 351.014 324.164 313.731V67.6006C324.164 30.3334 354.482 0 391.765 0H768.225ZM417.088 215.859C401.784 215.859 389.336 228.307 389.336 243.611H389.32V259.908C389.32 275.212 401.768 287.66 417.072 287.66H742.916C758.22 287.66 770.668 275.212 770.668 259.908V243.611C770.668 228.307 758.22 215.859 742.916 215.859H417.088ZM417.088 93.6719C401.784 93.6719 389.336 106.12 389.336 121.424V137.721C389.336 153.025 401.784 165.473 417.088 165.473H449.666C464.97 165.473 477.418 153.025 477.418 137.721V121.424C477.418 106.12 464.97 93.6719 449.666 93.6719H417.088ZM547.416 93.6719C532.112 93.6719 519.664 106.12 519.664 121.424V137.721C519.664 153.025 532.112 165.473 547.416 165.473H742.916C758.22 165.473 770.668 153.025 770.668 137.721V121.424C770.668 106.12 758.22 93.6719 742.916 93.6719H547.416Z" fill="black"/>
<path d="M665.16 615.427H624.196L611.535 576.48C607.014 562.551 594.627 553.57 579.995 553.555C565.363 553.555 552.976 562.551 548.455 576.465L535.794 615.427H494.83C480.198 615.427 467.811 624.423 463.291 638.338C458.77 652.267 463.504 666.823 475.341 675.422L508.485 699.492L495.823 738.455C491.302 752.384 496.022 766.94 507.874 775.539C519.711 784.138 535.015 784.138 546.867 775.539L580.01 751.468L613.154 775.539C619.08 779.846 625.861 782 632.643 782C639.424 782 646.221 779.846 652.131 775.539C663.968 766.94 668.703 752.384 664.182 738.455L651.52 699.492L684.664 675.422C696.501 666.823 701.236 652.267 696.715 638.338C692.194 624.408 679.807 615.427 665.175 615.427H665.16Z" fill="black"/>
<path d="M969.299 531.455C964.778 517.525 952.391 508.545 937.759 508.545H896.796L884.134 469.597C879.613 455.668 867.227 446.672 852.595 446.672C837.963 446.672 825.576 455.668 821.055 469.597L808.393 508.545H767.43C752.798 508.545 740.411 517.541 735.89 531.455C731.369 545.369 736.089 559.94 747.941 568.539L781.084 592.61L768.423 631.557C763.902 645.486 768.621 660.042 780.474 668.641C786.4 672.948 793.181 675.102 799.962 675.102C806.744 675.102 813.541 672.948 819.451 668.641L852.595 644.57L885.738 668.641C897.575 677.24 912.879 677.24 924.731 668.641C936.568 660.042 941.303 645.486 936.782 631.557L924.12 592.594L957.264 568.523C969.101 559.924 973.835 545.369 969.314 531.439L969.299 531.455Z" fill="black"/>
<path d="M392.543 508.545H351.579L338.918 469.582C334.397 455.668 322.01 446.672 307.378 446.672C292.746 446.672 280.359 455.668 275.838 469.582L263.177 508.545H222.229C207.597 508.545 195.21 517.541 190.689 531.455C186.168 545.384 190.903 559.94 202.74 568.539L235.883 592.61L223.221 631.572C218.7 645.502 223.42 660.057 235.272 668.656C241.198 672.963 247.98 675.117 254.761 675.117C261.542 675.117 268.339 672.963 274.25 668.656L307.393 644.585L340.537 668.656C352.374 677.255 367.678 677.255 379.53 668.656C391.382 660.057 396.102 645.502 391.581 631.572L378.919 592.61L412.062 568.539C423.899 559.94 428.634 545.384 424.113 531.455C419.592 517.525 407.205 508.545 392.573 508.545H392.543Z" fill="black"/>
</svg>
