<svg width="1160" height="782" viewBox="0 0 1160 782" fill="none" xmlns="http://www.w3.org/2000/svg">
<path d="M674.073 258.183C672.736 245.752 671.973 232.939 671.973 220.126C671.973 207.121 672.736 194.308 674.073 181.686H323.711L294.117 69.0432C289.725 52.2137 274.451 40.5479 257.267 40.5479H124.187C103.184 40.5479 86 57.7598 86 78.7966C86 99.8334 103.184 117.045 124.187 117.045H227.863L257.458 229.879C257.458 230.07 257.649 230.07 257.649 230.07L350.442 588.461C354.833 605.291 370.108 616.956 387.483 616.956H392.065C386.528 630.726 383.473 645.643 383.473 661.325C383.473 727.878 437.507 782 503.952 782C570.396 782 624.43 727.878 624.43 661.325C624.43 645.643 621.375 630.726 615.838 616.956H706.722C701.185 630.726 698.13 645.643 698.13 661.325C698.13 727.878 752.164 782 818.609 782C885.053 782 939.087 727.878 939.087 661.325C939.087 645.643 936.033 630.726 930.495 616.956H935.078C952.453 616.956 967.727 605.291 972.119 588.461L976.128 572.97C939.087 567.616 903.956 556.332 871.497 540.459C764.193 487.676 687.247 382.3 674.073 258.183ZM548.057 661.325C548.057 685.613 528.391 705.502 503.952 705.502C479.703 705.502 459.846 685.613 459.846 661.325C459.846 636.846 479.703 616.956 503.952 616.956C528.391 616.956 548.057 636.846 548.057 661.325ZM862.714 661.325C862.714 685.613 842.857 705.502 818.609 705.502C794.169 705.502 774.503 685.613 774.503 661.325C774.503 636.846 794.169 616.956 818.609 616.956C842.857 616.956 862.714 636.846 862.714 661.325Z" fill="black"/>
<path d="M1034.45 178.62C1033.18 177.03 1031.64 177.343 1030.83 177.667C1030.16 177.941 1028.61 178.816 1028.82 181.009C1029.08 183.643 1029.23 186.328 1029.25 188.991C1029.37 200.037 1024.94 210.86 1017.1 218.683C1009.3 226.455 999.058 230.643 988.147 230.522C973.244 230.331 960.883 222.558 952.4 208.041C945.385 196.038 948.468 180.556 951.732 164.165C953.642 154.57 955.618 144.649 955.618 135.206C955.618 61.6821 906.19 19.2641 876.727 0.52301C876.117 0.136038 875.537 0 875.024 0C874.188 0 873.526 0.360316 873.2 0.580918C872.567 1.00925 871.555 1.98542 871.881 3.71346C883.143 63.5168 849.552 99.485 813.989 137.565C777.333 176.816 735.785 221.305 735.785 301.542C735.785 394.772 811.633 470.619 904.863 470.619C981.625 470.619 1049.3 417.101 1069.45 340.473C1083.18 288.225 1068.79 221.669 1034.45 178.62ZM909.081 434.53C885.736 435.594 863.534 427.221 846.576 411.007C829.8 394.966 820.178 372.579 820.178 349.587C820.178 306.44 836.676 274.765 881.048 232.715C881.774 232.026 882.518 231.808 883.166 231.808C883.753 231.808 884.262 231.988 884.612 232.156C885.35 232.512 886.564 233.392 886.4 235.297C884.814 253.758 884.841 269.082 886.481 280.844C890.672 310.887 912.666 331.073 941.211 331.073C955.206 331.073 968.537 325.806 978.748 316.242C979.933 315.132 981.256 315.273 981.764 315.381C982.436 315.526 983.335 315.938 983.807 317.075C988.041 327.297 990.204 338.148 990.237 349.324C990.373 394.295 953.966 432.518 909.081 434.53Z" fill="black"/>
</svg>
