<svg width="1160" height="782" viewBox="0 0 1160 782" fill="none" xmlns="http://www.w3.org/2000/svg">
<g clip-path="url(#clip0_16332_6304)">
<path d="M531.231 374.771C522.59 374.771 514.304 378.203 508.194 384.313C502.085 390.422 498.652 398.709 498.652 407.349V602.819H661.544V407.349C661.544 398.709 658.112 390.422 652.002 384.313C645.893 378.203 637.606 374.771 628.966 374.771H531.231Z" fill="black"/>
<path d="M1003.62 635.397H156.578C138.586 635.397 124 649.983 124 667.976V749.422C124 767.414 138.586 782 156.578 782H1003.62C1021.61 782 1036.2 767.414 1036.2 749.422V667.976C1036.2 649.983 1021.61 635.397 1003.62 635.397Z" fill="black"/>
<path d="M791.856 179.3C783.215 179.3 774.929 182.732 768.819 188.842C762.71 194.951 759.277 203.238 759.277 211.878V602.819H922.169V211.878C922.169 203.238 918.737 194.951 912.627 188.842C906.518 182.732 898.231 179.3 889.591 179.3H791.856Z" fill="black"/>
<path d="M319.465 197.544C328.667 197.614 337.78 195.734 346.203 192.028C354.626 188.322 362.168 182.874 368.333 176.042L514.936 252.927C515.174 270.208 522.266 286.686 534.653 298.738C547.041 310.789 563.708 317.426 580.989 317.188C598.269 316.951 614.748 309.858 626.799 297.471C638.85 285.083 645.487 268.416 645.25 251.135C645.282 247.143 644.9 243.158 644.109 239.244L801.137 116.912C812.821 125.848 827.185 130.568 841.892 130.303C856.598 130.039 870.783 124.806 882.138 115.456C893.493 106.105 901.35 93.1883 904.431 78.8054C907.512 64.4225 905.636 49.4203 899.108 36.2391C892.58 23.0579 881.784 12.4735 868.476 6.20757C855.168 -0.058345 840.132 -1.63703 825.813 1.72834C811.494 5.09371 798.735 13.2051 789.611 24.743C780.488 36.2809 775.537 50.5664 775.563 65.2755C775.543 74.1524 777.431 82.9299 781.102 91.0125L629.775 208.946C622.925 200.857 614.205 194.56 604.371 190.603C594.536 186.647 583.885 185.149 573.341 186.24C562.798 187.332 552.679 190.979 543.864 196.866C535.049 202.753 527.803 210.702 522.755 220.023L382.83 146.722C384.008 141.923 384.609 137.002 384.622 132.061C384.622 119.174 380.801 106.577 373.641 95.8621C366.482 85.1471 356.306 76.7958 344.4 71.8642C332.494 66.9327 319.393 65.6423 306.754 68.1564C294.115 70.6705 282.505 76.8761 273.393 85.9885C264.28 95.1008 258.075 106.711 255.561 119.35C253.047 131.989 254.337 145.09 259.268 156.996C264.2 168.902 272.551 179.078 283.266 186.237C293.981 193.397 306.579 197.218 319.465 197.218V197.544Z" fill="black"/>
<path d="M315.382 404.583C362.253 404.583 400.249 366.587 400.249 319.716C400.249 272.846 362.253 234.85 315.382 234.85C268.512 234.85 230.516 272.846 230.516 319.716C230.516 366.587 268.512 404.583 315.382 404.583Z" fill="black"/>
<path d="M178.247 593.209H452.557C456.877 593.209 461.021 591.493 464.076 588.438C467.13 585.384 468.847 581.24 468.847 576.92V528.867C468.893 501.999 458.66 476.13 440.246 456.565C421.831 437 396.63 425.219 369.808 423.639C352.984 432.311 334.33 436.835 315.402 436.835C296.474 436.835 277.821 432.311 260.996 423.639C234.203 425.217 209.025 436.975 190.615 456.506C172.204 476.036 161.953 501.864 161.958 528.704V576.757C161.936 578.91 162.342 581.046 163.151 583.041C163.96 585.036 165.156 586.851 166.671 588.381C168.186 589.911 169.989 591.125 171.976 591.954C173.963 592.783 176.094 593.209 178.247 593.209Z" fill="black"/>
</g>
<defs>
<clipPath id="clip0_16332_6304">
<rect width="1160" height="782" fill="white"/>
</clipPath>
</defs>
</svg>
