<svg xmlns="http://www.w3.org/2000/svg" xmlns:xlink="http://www.w3.org/1999/xlink" x="0px" y="0px" viewBox="0 0 1200 800" style="enable-background:new 0 0 1200 800;" xml:space="preserve"><g id="background">	<rect style="fill:#FFFFFF;" width="1200" height="800"></rect></g><g id="Shadow">	<g>		<path style="fill:#F1F2F2;" d="M565.946,674.121c-32.149,0.084-64.298,0.762-96.391,3.892c-12.1,1.18-23.947,3.776-36.075,4.823   c-24.225,2.092-48.016,5.993-72.328,7.793c-19.577,1.449-39.237,2.305-58.757,4.143c-18.301,1.724-38.562,1.326-56.723-1.522   c-13.444-2.109-26.95-3.296-40.169-6.683c-14.787-3.789-30.852-6.497-46.258-6.4c-21.97,0.139-43.365,0.155-64.39,6.845   c-7.381,2.348-16.416,6.209-22.02,11.137c-12.83,11.282-14.566,39.432-1.756,51.133c21.577,19.693,67.628,27.42,97.872,27.785   c33.141,0.4,65.337-1.758,98.527-3.026c30.841-1.179,61.604-2.856,92.496-2.797c63.093,0.121,126.195,0,189.174-3.696   c59.17-3.472,118.49-2.28,177.79-2.28c60.81,0,121.209,0.419,181.58,7.506c26.305,3.088,53.103,4.169,79.539,6.332   c23.676,1.938,46.428-0.038,70.01-1.829c19.802-1.504,39.474-5.964,57.463-13.503c14.24-5.968,39.626-24.507,43.993-38.752   c12.243-39.935-172.534-38.975-200.905-38.885c-31.737,0.101-63.727,1.016-95.439-0.045c-13.34-0.446-26.483-2.733-39.503-5.238   c-12.968-2.495-26.034-1.861-39.185-2.91c-54.841-4.374-109.804-3.734-164.82-3.734   C601.771,674.212,583.859,674.074,565.946,674.121z"></path>	</g></g><g id="object">	<g>		<g>			<g>				<path style="fill:#F2D3B6;" d="M589.799,239.354c-0.266,0.176-0.519,0.372-0.753,0.593c-2.177,2.063-1.349,4.942-2.707,7.235     c-0.606,1.023-3.958,2.203-2.738,3.751c0.455,0.567,1.823,2.61,3.323,4.572c2.187,2.862,1.853,6.689,1.829,10.036     c-0.032,4.5-0.063,8.999-0.095,13.499c-0.027,3.915-0.057,7.851-0.724,11.709c-1.61,9.309-6.702,16.628-11.239,24.549     c-4.812,8.401-10.02,17.114-13.594,26.126c-1.263,3.186-2.282,6.598-1.873,10.001c1.027,8.53,8.949,9.579,14.78,4.705     c2.448-2.046,4.344-4.667,6.112-7.323c4.764-7.161,8.793-14.811,12.002-22.791c1.496-3.72,2.814-7.508,4.131-11.295     c3.396-9.764,5.13-18.909,5.56-29.229c-0.207-4.844-0.938-9.64-1.559-14.442c-0.379-2.933-2.529-9.343,0.168-11.501     c0.443-0.354,0.965-0.611,1.355-1.022c0.44-0.464,0.674-1.082,0.879-1.687c0.752-2.219,1.344-4.555,1.56-6.896     c0.384-4.186-4.725-8.344-7.417-10.879c-0.67-0.631-1.385-1.262-2.263-1.54c-1.427-0.452-2.956,0.115-4.345,0.673     C591.371,238.527,590.533,238.868,589.799,239.354z"></path>			</g>		</g>		<g>			<g>				<path style="fill:#D7E8F4;" d="M595.663,346.553c5.691-13.741,9.419-28.212,11.134-42.178c-5.754-1.97-11.508-3.94-17.262-5.91     c-0.784-0.268-1.651-0.536-2.419-0.227c-0.631,0.254-1.053,0.843-1.435,1.405c-4.965,7.312-9.283,15.303-15.692,21.501     c-4.52,4.371-9.197,8.137-13.57,12.73c-7.148,7.506-14.606,14.757-21.596,22.411c-6.272,6.868-12.718,14.031-15.548,22.891     c-6.042,18.918,13.96,35.752,31.252,24.658C570.963,390.723,586.089,369.671,595.663,346.553z"></path>			</g>		</g>	</g>	<g id="XMLID_286_">		<g id="XMLID_288_">			<g>				<polygon style="fill:#AD6F59;" points="876.924,446.299 885.719,449.951 893.35,446.558 894.893,447.84 893.43,449.819      900.573,448.849 905.561,452 906.103,459.892 901.608,466.633 893.834,466.286 885.995,461.234 873.748,456.763     "></polygon>			</g>		</g>		<g id="XMLID_287_">			<g>				<polygon style="fill:#305399;" points="883.376,444.347 841.127,405.94 808.919,330.187 782.61,334.573 801.76,393.505      826.444,443.888 882.672,464.103     "></polygon>			</g>		</g>	</g>	<g>		<g>			<g id="XMLID_285_">				<path style="fill:#7DB5DB;" d="M399.733,200.358l-14.469,6.234c-6.903,2.974-10.087,10.981-7.113,17.884l24.054,55.826     c2.974,6.903,10.981,10.087,17.884,7.113l14.469-6.234L399.733,200.358z"></path>			</g>			<g id="XMLID_284_">				<path style="fill:#BCBEC0;" d="M801.464,75.18c-134.95-35.389-304.635,44.403-304.635,44.403l-0.038-0.088l-111.245,47.932     l63.201,146.684l111.245-47.932l-0.038-0.088C559.954,266.092,734.495,197.569,801.464,75.18z"></path>			</g>			<g id="XMLID_283_">				<path style="fill:#587BC9;" d="M496.79,119.495c0,0-44.191-60.073-139.995-18.794l-47.902,20.639l9.349,21.697     c0,0,72.323-27.283,90.315,14.475L496.79,119.495z"></path>			</g>			<g id="XMLID_282_">				<path style="fill:#587BC9;" d="M559.992,266.18c0,0,13.309,73.379-82.495,114.658l-47.902,20.639l-9.348-21.697     c0,0,69.504-33.825,51.512-75.583L559.992,266.18z"></path>			</g>			<g id="XMLID_281_">									<ellipse transform="matrix(0.1604 -0.987 0.987 0.1604 327.438 720.1083)" style="fill:#F7F7F7;" cx="587.026" cy="167.574" rx="53.468" ry="53.468"></ellipse>			</g>			<g id="XMLID_280_">									<ellipse transform="matrix(0.2158 -0.9764 0.9764 0.2158 296.7003 704.5946)" style="fill:#7DB5DB;" cx="587.026" cy="167.574" rx="40.601" ry="40.601"></ellipse>			</g>			<g id="XMLID_279_">									<rect x="469.583" y="134.503" transform="matrix(0.9184 -0.3957 0.3957 0.9184 -45.7737 206.811)" style="fill:#F7F7F7;" width="17.698" height="159.721"></rect>			</g>			<g id="XMLID_278_">				<path style="fill:#D7E8F4;" d="M402.205,280.302l-12.027-27.913l-12.027-27.913c0,0-68.764-4.322-96.725,74.771     C358.116,333.248,402.205,280.302,402.205,280.302z"></path>			</g>			<g id="XMLID_277_">				<path style="fill:#305399;" d="M398.226,271.069l-8.048-18.68l-8.048-18.68c0,0-46.018-2.892-64.73,50.037     C368.721,306.501,398.226,271.069,398.226,271.069z"></path>			</g>			<g>				<path style="fill:#587BC9;" d="M691.718,192.216c41.792-30.38,83.825-69.666,109.746-117.036     c-52.232-13.697-109.656-10.131-160.441-0.622L691.718,192.216z"></path>			</g>			<g>				<path style="fill:#B8B7B5;" d="M559.992,266.18l-0.038-0.088c0,0,32.403-12.729,74.634-36.991     c-132.828,21.776-206.512-14.436-239.041-38.461l53.2,123.472L559.992,266.18z"></path>			</g>			<g>				<path style="fill:#DBDAD8;" d="M473.883,226.167l28.023,65.04l16.254-7.003l-23.06-53.52     C487.643,229.374,480.569,227.856,473.883,226.167z"></path>			</g>			<g style="opacity:0.13;">				<path style="fill:#FFFFFF;" d="M651.824,81.434c0,0,86.231-18.158,137.712-1.115c0,0-70.712-3.749-130.998,16.699     L651.824,81.434z"></path>			</g>			<g>				<path style="fill:#6694AD;" d="M617.426,194.49c-20.63,0.41-51.897-1.158-70.55-20.834c0.512,3.362,1.453,6.715,2.862,9.984     c8.873,20.593,32.76,30.095,53.353,21.222C608.764,202.417,613.589,198.829,617.426,194.49z"></path>			</g>			<g>				<path style="fill:#6694AD;" d="M402.205,280.302c2.974,6.903,10.981,10.087,17.884,7.113l14.469-6.234l0-0.001     c-0.017-0.008-31.367-15.323-57.491-61.472c0.072,1.599,0.414,3.211,1.085,4.768L402.205,280.302z"></path>			</g>			<g>				<path style="fill:#4A6EAF;" d="M477.497,380.837c3.304-1.424,6.466-2.889,9.515-4.384c-22.956,3.082-44.691,2.524-62.122,0.863     c-2.882,1.606-4.644,2.464-4.644,2.464l9.348,21.697L477.497,380.837z"></path>			</g>		</g>	</g>	<g>		<g>			<g id="XMLID_276_">				<g>					<polygon style="fill:#3B455A;" points="784.309,731.551 784.197,738.924 802.962,748.667 812.56,739.356 803.25,729.758       802.03,729.739 801.694,731.815      "></polygon>				</g>			</g>			<g id="XMLID_275_">				<g>					<polygon style="fill:#3B455A;" points="737.773,728.761 736.467,728.741 726.869,738.052 736.179,747.65 755.232,738.483       755.345,731.11 737.959,730.845      "></polygon>				</g>			</g>			<g>				<g id="XMLID_274_">					<g>						<path style="fill:#305399;" d="M742.27,451.005c2.681-12.557,4.803-24.151,5.077-30.452       c0.825-18.952,4.164-81.534,4.164-81.534l11.937-23.775l2.136,0.053c-0.153-0.021-0.307-0.042-0.46-0.062       c0.502,0.068-0.171-4.632-0.344-5.049c-10.057-0.496-23.11,4.982-29.577,12.793c-4.785,5.78-7.686,12.89-10.513,19.876       c-7.961,19.671-11.714,37.95-15.852,58.698c-2.639,13.23-5.091,26.401-7.063,39.544c-2.185,14.556-3.79,29.079-4.41,43.532       c-0.069,1.598-0.453,6.062-0.712,11.4c-0.542,11.18-0.531,26.144,4.091,26.774c0.865,0.118,1.708-0.26,2.476-0.625       c6.002-2.852,10.754-6.624,16.058-9.901l1.171-58.342L742.27,451.005z"></path>					</g>				</g>				<g id="XMLID_273_">					<g>						<path style="fill:#305399;" d="M847.792,512.591c-0.995-12.434-2.036-24.866-3.35-37.27       c-2.62-24.741-6.323-49.439-12.859-73.451c-2.497-9.173-5.401-18.225-8.303-27.273c-3.535-11.019-7.069-22.037-10.604-33.056       c-4.393-13.695-12.011-23.411-25.535-28.384c-2.415-0.888-4.961-1.584-7.588-2.105c-0.069,0.281-0.131,0.565-0.172,0.865       c-0.178,1.306-0.568,2.752-1.396,3.688l8.922,0.222c0,0,23.814,89.86,24.504,105.295c0.262,5.867,1.237,18.682,2.333,32.183       l13.64,2.255l-0.199,51.573c0.762,0.235,1.52,0.463,2.273,0.679c4.32,1.237,7.8,4.505,11.365,7.082       C846.091,518.701,848.402,520.211,847.792,512.591z"></path>					</g>				</g>				<g id="XMLID_272_">					<g>						<path style="fill:#5D6C7E;" d="M813.745,453.306c1.735,21.366,3.773,44.452,3.773,44.452s-11.057,0.097-27.065,1.066       c1.183-0.01,2.367-0.024,3.548-0.016c11.123,0.069,22.585,5.05,33.186,8.327l0.199-51.573L813.745,453.306z"></path>					</g>				</g>				<g id="XMLID_271_">					<g>						<path style="fill:#5D6C7E;" d="M738.319,504.52c-7.631,0.288-8.557-1.163-8.557-1.163s7.306-27.989,12.507-52.353       l-21.822,2.928l-1.171,58.342c1.865-1.152,3.797-2.245,5.877-3.214C729.323,507.121,733.766,505.661,738.319,504.52z"></path>					</g>				</g>				<g>					<g>						<path style="fill:#587BC9;" d="M827.187,507.135c-10.601-3.277-22.063-8.258-33.186-8.327       c-1.181-0.007-2.365,0.006-3.548,0.016c-0.991,0.06-2,0.123-3.028,0.19c-7.462,0.486-15.848,1.159-24.605,2.087       c-0.43,0.046-0.858,0.089-1.29,0.137c-11.219,2.263-18.493,3.104-23.21,3.282c-4.552,1.14-8.996,2.6-13.164,4.541       c-2.081,0.969-4.013,2.061-5.878,3.214l-0.244,12.149l18.175,206.69l17.479,0.266l-0.032,2.101l0.1,0.002l21.326-138.128       l0.092-0.778l8.409,139.361l0.1,0.001l0.032-2.101l17.564,0.268l24.638-154.669L827.187,507.135z"></path>					</g>				</g>				<g>					<g>						<path style="fill:#FFFFFF;" d="M813.745,453.306c-1.096-13.501-2.071-26.315-2.333-32.183       c-0.69-15.435-24.504-105.295-24.504-105.295l-8.922-0.222c-0.1,0.113-0.203,0.222-0.316,0.318       c-0.279,0.239-0.6,0.426-0.968,0.543c-0.733,0.233-1.522,0.132-2.283,0.029c-2.944-0.4-5.889-0.8-8.834-1.199l-2.136-0.053       l-11.937,23.775c0,0-3.34,62.582-4.164,81.534c-0.274,6.302-2.397,17.896-5.077,30.452       c-5.202,24.364-12.507,52.353-12.507,52.353s0.926,1.45,8.557,1.162c4.717-0.178,11.992-1.019,23.21-3.282       c0.432-0.047,0.86-0.091,1.29-0.137c8.758-0.928,17.144-1.601,24.605-2.087c1.027-0.067,2.037-0.13,3.028-0.19       c16.008-0.969,27.065-1.066,27.065-1.066S815.48,474.672,813.745,453.306z"></path>					</g>				</g>			</g>		</g>		<g>			<g>				<g>					<path style="fill:#3B455A;" d="M792.467,256.256c2.615,4.517,3.917,9.74,4.216,14.969c0.079,1.39,0.195,2.995,1.312,3.803      c1.196,0.865,0.182,2.806,1.066,1.619s3.886-5.308,4.003-6.794c0.274-3.48,0.221-6.988-0.159-10.459      c-0.33-3.019-0.981-6.17-2.958-8.451c-1.172-1.352-2.725-2.294-4.253-3.207c-2.216-1.324-4.5-2.659-7.031-3.106      c-4.363-0.772-7.01,0.848-3.128,3.887C788.315,250.693,790.675,253.161,792.467,256.256z"></path>				</g>			</g>			<g>				<g>					<g>						<path style="fill:#AD6F59;" d="M766.246,315.946c5.994,0.497,11.988,0.993,17.983,1.49c0.838-5.269,1.299-10.617,1.376-15.975       c5.201-0.972,11.31-2.76,13.015-8.336c0.537-1.756,0.531-3.659,0.519-5.52c-0.051-7.695-0.101-15.389-0.152-23.084       c-0.018-2.661-0.049-5.404-0.98-7.862c-1.632-4.314-5.663-6.848-9.604-8.426c-10.056-4.027-21.708-3.721-30.856,2.289       c-2.435,1.6-4.725,3.647-6.102,6.405c-2.123,4.253-1.777,9.468-1.371,14.34c0.375,4.498,0.75,8.996,1.124,13.493       c0.431,5.173,1.278,11.124,5.27,13.811c2.119,1.426,4.836,1.66,6.671,3.517C766.376,305.364,765,311.276,766.246,315.946z"></path>					</g>				</g>			</g>			<g>				<g>					<path style="fill:#3B455A;" d="M800.931,284.515c-0.104-1.426-0.775-5.599-2.849-2.946c-0.542,0.694-0.665,1.666-0.686,2.582      c-0.021,0.915,0.033,1.856-0.239,2.721c-0.624,1.985-2.763,2.91-4.68,2.899c-0.762-0.004-1.541-0.123-2.22-0.505      c-0.66-0.371-1.187-0.967-1.702-1.552c-1.25-1.421-2.5-2.841-3.75-4.262c-2.149-2.442-6.328-1.325-9.173-0.912      c-3.278,0.476-6.549,1.523-9.202,3.752c-0.268,0.225-0.529,0.461-0.79,0.697c-0.639,0.575-1.282,1.145-2.028,1.526      c-2.519,1.286-5.678,0.014-7.488-2.314c-0.83-1.067-1.609-2.443-2.876-2.608c-0.992-0.129-1.946,0.604-2.44,1.552      c-0.495,0.948-0.616,2.073-0.669,3.165c-0.195,3.977,0.4,8.069,2.142,11.573c3.779,7.6,10.894,8.452,18.03,8.195      c2.82-0.102,5.641-0.204,8.462-0.305c5.156-0.186,10.606-0.469,14.909-3.571c3.796-2.736,6.011-7.337,6.879-12.137      C801.005,289.589,801.115,287.035,800.931,284.515z M782.208,295.577c-2.691,1.89-5.683,2.026-8.724,1.136      c-1.292-0.379-0.776-2.581,0.518-2.202c2.519,0.738,4.888,0.689,7.128-0.884C782.257,292.835,783.329,294.79,782.208,295.577z"></path>				</g>			</g>			<g>				<g>					<path style="fill:#3B455A;" d="M801.433,242.812c0.473-1.87,0.815-3.775,1.023-5.696c-1.737,0.644-3.636,0.832-5.465,0.543      c-0.02-1.106-0.039-2.212-0.059-3.319c-0.021-0.92-12.271-1.417-13.267-1.488c-9.323-0.664-17.849-1.3-26.2,3.883      c-7.133,4.428-11.655,10.966-12.643,19.417c-0.943,8.074,1.796,18.571,6.473,25.206c-0.056-2.146-1.34-7.193-0.87-9.239      c0.277-2.048,0.944-4.027,1.877-5.858c1.863-3.656,4.785-6.749,8.178-8.972c5.41-3.544,11.73-5.46,18.056-6.434      c5.796-0.893,12.861-1.737,18.62-0.242c2.768,0.719,3.235,1.417,4.866-1.434c0.288-0.503,2.542-6.358,2.313-6.358      C803.369,242.818,802.401,242.815,801.433,242.812z"></path>				</g>			</g>		</g>	</g>	<g id="XMLID_268_">		<g id="XMLID_270_">			<g>				<polygon style="fill:#AD6F59;" points="677.446,446.981 677.549,456.503 683.671,462.184 683.099,464.106 680.704,463.54      684.406,469.725 683.472,475.551 676.429,479.155 668.463,477.674 665.724,470.39 667.284,461.196 666.577,448.177     "></polygon>			</g>		</g>		<g id="XMLID_269_">			<g>				<polygon style="fill:#305399;" points="681.779,452.144 700.468,398.193 735.946,384.243 743.058,316.317 696.412,357.107      659.803,399.623 663.34,459.269     "></polygon>			</g>		</g>	</g>	<g>		<g>			<g>				<g>					<path style="fill:#FEE7DE;" d="M930.447,301.584c0.202,0.275,0.409,0.561,0.52,0.871c1.039,2.894-0.153,5.025,0.053,8.084      c0.092,1.364,3.166,3.07,0.879,4.779c-0.844,0.631-3.132,1.886-4.944,3.213c-2.643,1.936-4.822,5.987-5.958,9.523      c-4.466,13.892-5.026,28.614-5.124,43.195c-0.006,0.831,0.001,1.699,0.38,2.439c0.677,1.325,2.283,1.821,3.717,2.219      c6.651,1.844,13.131,4.308,19.327,7.349c5.529,2.713,10.959,5.995,14.777,10.827c3.819,4.832,5.786,11.489,3.75,17.301      c-1.524,4.353-5.27,7.86-9.714,9.095c-11.019,3.063-21.385-10.041-28.806-16.447c-7.021-6.061-13.617-12.613-19.721-19.595      c-0.754-0.862-1.518-1.762-1.872-2.851c-0.377-1.161-0.251-2.417-0.118-3.63c1.72-15.621,4.81-31.002,8.227-46.4      c0.939-4.231,3.983-7.431,4.816-11.352c0.531-2.502-0.851-4.847-0.872-7.319c-0.021-2.445,0.576-5.661,1.458-7.939      c1.74-4.493,6.544-5.793,10.63-7.342c1.017-0.386,1.703-0.649,2.715-0.523c1.645,0.205,2.794,1.333,3.973,2.41      C929.239,300.129,929.889,300.826,930.447,301.584z"></path>				</g>			</g>			<g>				<g>					<path style="fill:#3B455A;" d="M916.37,412.289c-7.498-6.505-13.945-14.278-19.486-22.359      c-1.336-1.948-2.624-4.017-3.028-6.345c-0.335-1.929-0.041-3.905,0.254-5.84c1.716-11.264,3.431-22.529,5.147-33.793      c0.245-1.607,0.708-3.497,2.232-4.062c0.92-0.341,1.94-0.065,2.881,0.213c20.195,5.964,9.619,6.927,15.899,21.734      c5.866,13.829,15.712,11.001,25.281,3.671c6.266-4.799,14.621-5.592,22.489-6.207c2.279-0.178,4.714-0.323,6.7,0.809      c2.028,1.156,3.149,3.396,4.076,5.538c7.801,18.021,10.035,38.407,6.322,57.689c-0.307,1.597-0.717,3.297-1.926,4.384      c-1.213,1.09-2.951,1.313-4.574,1.47c-13.194,1.275-26.845,1.407-39.312-3.099C930.747,422.99,923.131,418.155,916.37,412.289z      "></path>				</g>			</g>		</g>		<g>			<g>				<g>					<g>						<g>							<g>								<g>									<polygon style="fill:#EDD3B8;" points="1024.272,700.203 1029.835,722.743 1016.475,726.028 1010.308,701.039          "></polygon>								</g>							</g>						</g>						<g>							<g>								<g>									<path style="fill:#3B455A;" d="M1016.846,722.209l12.548,1.15l4.341,2.935l1.467,9l-30.937,9.751l0,0          c-3.561-3.259-3.047-8.917,1.04-11.472l1.349-0.843L1016.846,722.209z"></path>								</g>							</g>						</g>					</g>				</g>				<g>					<g>						<g>							<g>								<g>									<g>										<g>											<path style="fill:#EDD3B8;" d="M1113.035,599.656c5.527-2.491,10.7-6.82,16.324-8.763            c0.76,4.457,1.659,8.885,2.499,13.326c-6.624,4.001-13.541,7.347-20.997,9.513            C1111.592,609.066,1112.67,604.366,1113.035,599.656z"></path>										</g>									</g>								</g>								<g>									<g>										<g>											<path style="fill:#3B455A;" d="M1132.23,603.925c-0.463-0.529-0.51-0.541-0.988-1.835            c-1.186-3.206-4.344-12.105-1.525-15.228c0.458-0.507,0.741-0.083,1.215,0.084c7.96,2.811,13.864,6.389,20.541,11.865            c2.856,2.342,5.691,5.359,6.26,9.141c0.25,1.658-0.303,3.023-0.796,4.412c-0.727,2.05-1.637,3.869-2.69,5.68            c-0.385,0.662-0.685,1.387-1.568,1.419c-1.77,0.065-2.828-1.862-3.342-3.483s-0.861-3.621-2.108-4.9            c-0.559-0.573-1.323-0.882-1.957-1.163C1140.572,607.831,1135.861,608.07,1132.23,603.925z"></path>										</g>									</g>								</g>							</g>						</g>						<g>							<g>								<path style="fill:#BCBEC0;" d="M1013.201,597.882c13.106,18.495,30.267,25.364,50.48,29.4         c23.13,4.619,42.032-1.191,60.83-14.43c-0.35-6.698-1.68-13.253-1.836-19.558c-21.828,5.833-32.631,6.172-49.681-12.099         c-24.641-26.406-7.535-70.842-17.077-104.848c-1.097-3.909-2.596-7.758-4.983-11.042         c-27.745-38.155-67.243-6.61-68.596,31.116C981.128,530.181,993.654,570.297,1013.201,597.882z"></path>							</g>						</g>					</g>				</g>				<g>					<path style="fill:#BCBEC0;" d="M1041.798,474.618c-2.792-12.206-7.007-23.618-11.367-32.055      c-19.048,3.354-39.827,10.364-57.559,18.453c-17.331,7.906-27.755,14.494-23.315,34.245      c8.171,36.343,1.153,70.542,3.115,106.841c1.14,21.095,11.492,37.8,22.658,54.993c12.777,19.674,24.494,40.036,35.082,60.969      c6.293-1.498,12.587-2.997,18.88-4.495c-0.269-29.426-9.572-57.898-15.688-86.683c-4.25-20.003-6.936-40.86-3.949-61.243      c3.284-22.407,16.766-16.917,27.303-31.912C1047.201,519.152,1046.621,495.701,1041.798,474.618z"></path>				</g>			</g>			<g>				<g>					<path style="fill:#3B455A;" d="M1001.353,334.945c2.357,1.313,4.51,3.003,6.638,4.677c1.906,1.5,3.812,3,5.719,4.5      c6.604,5.196,10.775,13.741,14.387,21.113c19.012,38.795,32.124,93.992,30.274,137.831      c-31.154,7.527-68.902,5.124-101.055,5.611c-3.126,0.047-6.7-0.112-8.693-2.521c-1.208-1.46-1.536-3.435-1.821-5.309      c-4.106-27.027-2.811-56.942-1.506-84.399c0.551-11.587,1.641-23.158,3.555-34.602c2.026-12.115,4.394-25.224,11.914-35.299      c8.047-10.781,25.472-18.15,38.432-12.66C999.938,334.199,1000.654,334.556,1001.353,334.945z"></path>				</g>			</g>			<g>				<g>					<g>						<g>							<path style="fill:#FEE7DE;" d="M998.774,341.148c0.012-3.762,0.023-7.525,0.035-11.287c0.711-0.483,1.378-0.999,1.988-1.533        c11.887-10.409,27.109-58.904-9.523-63.671c-33.261-4.328-24.939,39.256-15.94,56.589c1.54,2.966,3.412,5.705,5.908,7.948        c1.708,1.534,1.981,1.152,2.082,3.214c0.099,1.997-1.521,4.519-1.651,6.661c-0.139,2.284,0.412,4.707,1.98,6.373        c0.96,1.021,2.238,1.697,3.561,2.159c2.103,0.735,4.452,0.96,6.553,0.22C996.266,346.942,998.766,343.843,998.774,341.148z"></path>						</g>					</g>				</g>				<g>					<g>						<g>							<g>								<g>									<path style="fill:#66574D;" d="M965.332,305.825c2.838,5.534,6.416,10.688,10.609,15.281          c-1.824-10.761-2.161-21.773-0.998-32.625c0.089-0.828,0.156-1.76-0.382-2.395c-0.503-0.593-1.359-0.713-2.135-0.761          C958.565,284.465,960.386,296.177,965.332,305.825z"></path>								</g>							</g>						</g>					</g>					<g>						<g>							<g>								<g>									<g>										<path style="fill:#736357;" d="M1003.061,316.721c2.614,2.701,7.207,1.169,10.273-1.005           c12.597-8.931,18.115-26.657,12.814-41.16c-4.436-12.135-21.646-19.125-22.478-3.127           c-0.295,5.672,4.213,12.783,4.374,19.002C1008.274,299.318,1005.478,308.275,1003.061,316.721z"></path>									</g>								</g>							</g>						</g>						<g>							<g>								<g>									<g>										<path style="fill:#736357;" d="M958.193,257.923c-1.436,0.837-2.895,1.71-4.435,2.6c-3.191,1.842-5.579,2.664-9.378,1.208           c-1.087-0.416-8.751-5.732-7.338-7.293c-9.363,10.346,1.364,21.738,6.742,30.139c3.626,5.662,5.486,14.151,12.162,17.197           c7.344,3.35,11.088-2.867,16.777-6.263c5.018-2.996,10.622-5.056,15.771-7.826c8.543-4.596,21.124-12.301,16.307-23.847           c-5.626-13.486-20.358-14.82-32.953-11.809C966.467,253.314,962.426,255.458,958.193,257.923z"></path>									</g>								</g>							</g>						</g>					</g>				</g>			</g>		</g>		<g>			<g>				<g>					<g>						<path style="fill:#FEE7DE;" d="M1106.915,333.488c-0.341,0.011-0.693,0.025-1.006,0.13c-2.917,0.972-3.857,3.226-6.388,4.954       c-1.129,0.771-4.37-0.592-4.301,2.262c0.026,1.053,0.453,3.628,0.529,5.872c0.111,3.274-1.728,7.491-3.805,10.569       c-3.932,5.826-20.998,17.057-17.499,25.402c8.222,19.605,27.591-19.133,30.073-22.108c1.639-1.964,4.337-2.326,6.293-3.837       c1.935-1.495,4.095-3.951,5.341-6.052c2.458-4.145,0.511-8.725-0.796-12.894c-0.325-1.038-0.542-1.74-1.267-2.458       c-1.178-1.167-2.774-1.373-4.35-1.634C1108.805,333.539,1107.855,333.458,1106.915,333.488z"></path>					</g>				</g>			</g>			<g>				<path style="fill:#3B455A;" d="M1047.044,424.573c18.364-11.823,36.3-25.219,51.57-40.529     c-4.748-5.103-10.767-13.733-18.999-12.113c-12.403,2.442-18.913,16.867-33.888,10.936     c-13.146-5.207-17.214-23.031-29.864-29.349c-1.301-0.65-2.775-1.171-4.191-0.841c-1.002,0.234-1.86,0.87-2.636,1.545     c-22.498,15.967,2.143,53.457,8.976,70.307c1.771,4.367,4.317,9.37,8.984,10.023c2.998,0.42,5.872-1.177,8.461-2.747     C1039.323,429.462,1043.193,427.052,1047.044,424.573z"></path>			</g>		</g>	</g>	<g>		<g>			<g>				<g>					<path style="fill:#F2D3B6;" d="M556.863,338.455c-2.641,4.794-6.66,8.655-10.029,12.97c-3.277,4.198-4.635,8.116-5.799,13.179      c-0.841,3.657-2.378,6.45-6.881,6.751c-8.493,0.568-5.573-6.197-7.105-11.391c-1.752-5.937-6.065-10.846-8.933-16.242      c-8.287-15.593-3.411-44.829,16.588-49.655C556.571,288.792,564.877,323.906,556.863,338.455z"></path>				</g>			</g>		</g>		<g>			<g>				<path style="fill:#3B455A;" d="M523.896,321.507c-2.432-0.083-5.112-0.09-7.032,1.405c-1.919,1.494-1.989,5.06,0.356,5.621     c2.126,0.508,5.079-1.529,6.272,0.208c0.697,1.015-0.082,2.366-0.748,3.443c-2.557,4.132-3.598,9.066-2.896,13.724     c-0.946,0.754-2.264-0.2-2.978-1.112c-3.545-4.529-6.192-9.707-7.769-15.198c-0.872,1.236-2.091,2.252-3.489,2.908     c0.954-1.949,0.609-4.186,0.265-6.273c-1.263-7.669-1.848-16.588,3.872-22.352c3.06-3.084,7.482-4.66,11.846-5.136     c4.364-0.475,8.737,0.045,13.06,0.564c1.85,0.222,4.107,0.793,4.425,2.543c-4.192,1.329-8.641,4.195-10.966,7.897     C527.399,310.885,524.143,321.515,523.896,321.507z"></path>			</g>		</g>		<g>			<g>				<path style="fill:#3B455A;" d="M533.847,304.048c-0.156,0.097-0.31,0.194-0.462,0.293c-1.95,1.267-3.807,2.846-6.087,3.303     c-3.286,0.658-6.628-1.151-9.878-0.291c-3.633,0.962-6.277,5.023-9.05,7.338c-4.546,3.795-10.028,6.425-15.799,7.722     c-2.948,0.662-5.974,0.979-8.995,0.925c-1.369-0.025-3.213,0.098-4.516-0.359c-1.749-0.614-1.627-1.42,0.32-1.888     c6.105-1.466,8.598-9.701,8.561-15.286c-0.029-4.408-1.199-9.1,0.775-13.042c1.508-3.011,4.369-4.41,7.151-5.99     c3.069-1.742,6.198-0.978,9.587-1.673c3.535-0.725,6.559-3.241,10.142-3.673c3.784-0.457,7.388,1.474,11.066,2.477     c3.038,0.829,6.247,1.028,9.364,0.582c2.793-0.4,5.558-1.313,8.37-1.077c4.147,0.348,7.77,3.222,9.941,6.773     c3.07,5.023,4.677,13.345,3.002,19.531c0.26-0.96-2.755-4.733-3.373-5.543c-1.304-1.708-2.91-3.338-5.063-3.758     C544.027,299.46,538.015,301.471,533.847,304.048z"></path>			</g>		</g>	</g>	<g>		<g>			<g>				<g>					<path style="fill:#F2D3B6;" d="M360.182,693.461c1.091,3.031,2.908,5.637,4.349,8.467      c29.724-10.091,59.147-25.007,87.929-37.862c-3.381-7.322-6.762-14.643-10.142-21.965      c-13.561,11.442-28.21,21.591-43.681,30.277C396.185,673.754,360.026,693.029,360.182,693.461z"></path>				</g>			</g>			<g>				<g>					<path style="fill:#3B455A;" d="M370.541,700.581c1.065,1.715,0.677,3.132,0.043,4.812c-0.368,0.975-1.099,1.83-1.223,2.878      c-0.124,1.049,0.122,1.931,0.427,2.997c1.608,5.613,6.789,17.956-4.876,14.93c-10.594-2.748-13.698-20.023-15.15-30.139      c-0.095-0.665-0.26-1.343,0.033-1.974c0.292-0.632,0.842-1.199,1.46-1.664c3.437-2.59,7.679-5.95,11.185-1.852      c1.496,1.748,0.899,4.145,2.495,5.99C366.241,698.071,369.476,698.866,370.541,700.581z"></path>				</g>			</g>		</g>		<g>			<g>				<path style="fill:#3B455A;" d="M463.535,539.198c-2.085,7.143-0.295,13.234,1.033,22.104c1.164,7.778,1.641,15.658,1.424,23.519     c-0.186,6.744-0.913,13.598-3.587,19.792c-4.33,10.029-12.844,15.166-19.875,22.88c-5.875,6.445-11.762,12.18-18.753,17.646     c-14.953,11.69-30.854,22.068-46.38,32.964c4.431,8.181,6.944,10.869,11.376,19.049c0.781,1.442,27.091-4.073,28.8-4.416     c5.779-1.16,11.443-2.888,16.888-5.143c10.448-4.328,20.704-10.393,30.588-15.812c22.784-12.491,42.28-30.959,55.874-53.112     c8.822-14.376,15.145-30.116,21.425-45.771c3.104-7.736,7.04-15.563,9.205-23.615c1.416-5.267,4.897-12.429,3.31-17.828     c-1.373-4.975-4.739-8.189-9.353-11.325c-12.344-8.391-28.238-22.486-44.209-18.702c-8.496,2.013-12,7.159-18.057,12.483     c-6.462,5.681-12.302,11.032-16.726,18.563C465.11,534.875,464.153,537.083,463.535,539.198z"></path>			</g>		</g>	</g>	<g>		<g>			<g>				<g>					<path style="fill:#F2D3B6;" d="M598.951,733.865c2.66,5.971,6.182,0.435,9.135,2.54c9.096-35.621,9.136-60.107,1.812-96.009      c-7.674,1.719-15.271,3.741-22.926,5.462c7.851,16.608,12.225,28.335,14.389,48.714      C601.703,697.802,598.572,733.015,598.951,733.865z"></path>				</g>			</g>			<g>				<g>					<path style="fill:#3B455A;" d="M610.244,730.391c2.018-0.163,2.758,0.929,3.737,2.351c0.569,0.827,0.747,1.914,1.469,2.632      c0.722,0.717,1.668,0.956,2.686,1.231c5.357,1.45,18.501,3.498,10.129,11.552c-7.603,7.314-23.531,1.772-32.648-2.225      c-0.599-0.262-1.34-0.44-1.721-1.028c-0.381-0.587-0.611-1.25-0.655-2.04c-0.245-4.395-0.614-8.837,4.431-10.205      c2.152-0.584,3.957,1.23,6.3,0.638C605.891,732.811,608.226,730.553,610.244,730.391z"></path>				</g>			</g>		</g>		<g>			<g>				<path style="fill:#3B455A;" d="M538.878,585.263c10.052,7.509,20.105,15.018,30.157,22.527c3.311,2.474,6.691,5.019,8.964,8.471     c2.066,3.137,3.087,6.83,4.04,10.463c5.242,19.981,9.336,40.262,12.26,60.71c0.716,5.008,1.362,10.026,1.937,15.052     c0.494,4.311-1.445,9.691,1.969,12.33c3.931,3.039,16.67,2.688,21.712,3.503c2.272-27.273,4.543-54.547,6.815-81.82     c0.405-4.865,0.807-9.8-0.095-14.598c-0.824-4.38-2.704-8.48-4.568-12.529c-17.871-38.82-39.141-74.447-65.09-108.533     c-1.09-1.432-2.228-2.897-3.788-3.795c-2.172-1.249-4.822-1.218-7.327-1.152c-9.52,0.251-24.177-2.16-32.844,1.901     c-11.145,5.223-19.826,12.623-27.177,22.503c-4.901,6.586-1.786,19.088,2.72,25.425c2.943,4.139,7.081,7.248,11.15,10.287     C512.768,565.76,525.823,575.511,538.878,585.263z"></path>			</g>		</g>	</g>	<g>		<g>			<path style="fill:#D7E8F4;" d="M498.253,374.774c-3.282,2.312-6.298,4.917-8.896,7.726c-8.708,9.415-15.657,20.471-20.657,32.267    c-11.456,27.025-13.659,56.695-15.724,85.778c-0.687,9.679-1.374,19.358-2.062,29.038c-0.677,9.523-0.002,11.64,10.081,11.196    c18.686-0.821,38.216-3.21,55.583-10.37c8.264-3.407,16.078-7.924,24.672-10.437c12.499-3.655,24.847-0.537,37.106-2.58    c-2.407-9.818-6.384-18.928-7.828-29.14c-1.445-10.222-1.752-20.575-1.724-30.891c0.039-14.496-0.574-28.98-0.846-43.471    c-0.211-11.263-0.167-24.484-7.091-34.044c-2.322-3.207-5.578-6.135-9.248-7.71c-2.695-1.157-7.58-1.903-9.17-4.729    c-0.146-0.259-0.155-0.569-0.161-0.866c-0.073-3.591,1.052-6.846-2.448-8.13c-1.95-0.715-4.731-0.641-6.79-0.768    c-2.908-0.179-10.238-0.882-11.073,3.201c-0.221,1.082-0.196,2.222-0.599,3.25c-0.1,0.255-0.232,0.508-0.441,0.685    c-0.27,0.228-0.633,0.303-0.979,0.375C512.464,366.696,504.824,370.146,498.253,374.774z"></path>		</g>	</g>	<g>		<g>			<g>				<path style="fill:#F2D3B6;" d="M653.064,291.982c-0.319,0.005-0.638,0.033-0.953,0.093c-2.946,0.56-3.804,3.431-6.185,4.627     c-1.062,0.534-4.521-0.283-4.33,1.679c0.077,0.723,0.125,3.181,0.328,5.643c0.295,3.59-2.052,6.63-3.88,9.435     c-2.456,3.77-4.913,7.54-7.369,11.31c-2.137,3.28-4.287,6.577-6.932,9.464c-6.382,6.966-14.62,10.376-22.715,14.594     c-8.586,4.473-17.675,8.994-25.549,14.649c-2.784,2-5.483,4.32-6.976,7.406c-3.742,7.734,2.36,12.895,9.899,11.941     c3.166-0.401,6.177-1.582,9.099-2.864c7.877-3.455,15.398-7.718,22.408-12.702c3.268-2.323,6.423-4.8,9.576-7.277     c8.13-6.385,14.528-13.145,20.463-21.599c2.441-4.189,4.416-8.62,6.486-12.997c1.264-2.673,2.917-9.229,6.352-9.59     c0.564-0.059,1.142,0.007,1.693-0.129c0.621-0.152,1.151-0.546,1.651-0.945c1.831-1.462,3.591-3.108,5.037-4.962     c2.583-3.316,0.528-9.575-0.368-13.161c-0.223-0.893-0.484-1.81-1.073-2.518c-0.957-1.151-2.55-1.5-4.021-1.779     C654.833,292.135,653.944,291.969,653.064,291.982z"></path>			</g>		</g>		<g>			<g>				<path style="fill:#D7E8F4;" d="M597.853,383.348c2.517-1.452,4.995-2.969,7.396-4.606c8.922-6.085,16.711-13.825,22.854-22.708     c-2.691-6.276-5.944-12.31-9.708-18.008c-24.466,10.606-49.197,15.883-74.744,22.688c-8.987,2.394-18.281,4.942-25.446,10.871     c-13.207,10.927-9.117,33.27,8.126,37.133c20.864,4.674,45.454-11.209,63.07-20.707     C592.232,386.484,595.066,384.955,597.853,383.348z"></path>			</g>		</g>	</g>	<g>		<g>			<g id="XMLID_267_">				<path style="fill:#D7E8F4;" d="M1022.793,361.415c-0.247,0.099-0.495,0.216-0.748,0.292c-13.162,3.941-27.486,6.639-41.42,8.826     c-9.831,1.536-19.846,3.032-29.844,3.283c-15.649,0.393-23.921-6.47-27.338-20.621c-4.184-17.306-0.561-35.743,0.938-53.117     c0.283-3.258,0.624-31.216,3.567-31.84c-9.611,2.033-14.537-8.069-24.261-6.724c-1.875,0.257-3.848,0.613-5.895,0.995     c-0.464-3.989-2.118-7.905-5.005-11.233c-8.248-9.945-21.739-22.391-16.947-35.974c2.308-1.943,4.63-3.838,6.841-5.766     c7.928-6.932,14.48-15.324,19.56-24.532c1.698-3.082,3.563-5.842,5.442-8.266c5.366-6.936,10.827-11.176,12.852-12.633     c-0.242,2.37,0.196,4.719,1.623,6.728c3.091,4.343,9.699,5.792,14.433,3.745c0.239-0.105,0.463-0.215,0.693-0.333     c1.978-1.055,1.095-1.845-0.349-2.411c-1.542-0.609-3.309-1.271-3.839-3.028c-1.378-4.598,10.945-5.726,13.191-6.051     c22.112-3.201,38.013,25.206,43.481,30.962c0,0-1.669,10.252,2.07,14.297c0.796,0.866,1.3,1.667,1.597,2.407     c-0.822,1.29-1.5,2.842-1.966,4.694c-0.006,0.008-0.006,0.008-0.006,0.008c-7.667,2.204,0.448,11.477-4.41,15.736     c-1.866,1.632-4.386,2.208-6.347,3.72c-0.368,0.286-0.732,0.6-0.901,1.033c-0.288,0.691,0.021,1.514,0.551,2.051     c2.168,2.205,5.429,2.318,8.574,1.623c0.653,10.064,3.909,20.323,12.355,28.032c-0.869,7.936-3.076,20.128-12.345,22.182     c-1.34,0.293-2.719,0.514-3.924,1.161c-6.012,3.255,1.141,11.198,5.106,12.12c5.935,1.377,12.615-0.135,19.007-1.06l0.007-0.001     c1.43-0.207,2.187,1.851-1.272,4.955c-9.17,8.241-19.143,20.192-16.137,33.647c2.211,9.909,10.116,16.232,19.17,19.224     C1014.704,360.797,1018.697,361.19,1022.793,361.415z"></path>			</g>			<g id="XMLID_266_">				<path style="fill:#7DB5DB;" d="M895.387,249.8c-8.567-10.331-21.337-23.05-16.36-37.162     c-7.075,5.94-15.249,12.058-18.472,20.862c-3.597,9.825-0.858,21.62,8.407,27.22c8.944,5.406,21.233,3.239,31.708,1.268     C900.19,257.841,898.39,253.257,895.387,249.8z"></path>			</g>			<g id="XMLID_265_">				<path style="fill:#3B3F54;" d="M864.91,240.496c-0.293-2.024,1.11-3.902,3.134-4.195c2.024-0.293,3.902,1.11,4.195,3.134     c0.293,2.024-1.11,3.902-3.134,4.195C867.081,243.923,865.203,242.52,864.91,240.496z"></path>			</g>			<g id="XMLID_264_">				<path style="fill:#3B455A;" d="M922.059,142.901c-5.352,8.136-11.788,15.486-19.073,21.814     c2.755,7.181,4.697,12.021,4.697,12.021c5.366-6.936,10.827-11.176,12.852-12.633c0.437-4.289,3.1-8.653,6.137-11.21     c0.629-0.528,1.293-1.012,1.998-1.453C926.796,148.994,924.541,146.073,922.059,142.901z"></path>			</g>			<g id="XMLID_263_">				<path style="fill:#D7E8F4;" d="M897.214,113.125c-5.49-5.875-9.904-9.751-11.664-9.305c-2.131,0.541-0.45,8.653,2.76,19.282     C891.605,120.202,894.602,116.913,897.214,113.125z"></path>			</g>			<g id="XMLID_262_">				<path style="fill:#7DB5DB;" d="M897.214,113.125c-2.612,3.788-5.609,7.077-8.905,9.977c1.3,4.306,2.85,9.022,4.5,13.819     c4.799-4.049,8.981-8.92,12.323-14.868C902.37,118.813,899.684,115.767,897.214,113.125z"></path>			</g>			<g id="XMLID_261_">				<path style="fill:#587BC9;" d="M905.132,122.053c-3.342,5.948-7.523,10.819-12.323,14.868c1.572,4.569,3.234,9.208,4.855,13.628     c6.273-4.964,11.904-10.743,16.663-17.38C911.3,129.417,908.171,125.618,905.132,122.053z"></path>			</g>			<g id="XMLID_260_">				<path style="fill:#305399;" d="M914.328,133.169c-4.76,6.636-10.391,12.416-16.663,17.38c1.9,5.179,3.744,10.057,5.321,14.167     c7.285-6.328,13.72-13.678,19.073-21.814C919.653,139.828,917.03,136.517,914.328,133.169z"></path>			</g>			<g>				<path style="fill:#587BC9;" d="M1058.688,236.539c-0.19-0.759-0.737-1.476-1.501-1.648c-0.873-0.197-1.726,0.34-2.462,0.85     c-3.519,2.446-7.427,6.637-12.077,4.827c-5.051-1.965-7.458-8.46-8.237-13.375c-1.444-9.114-0.286-16.245-5.215-24.167     c-2.057-3.305-7.401-8.36-13.096-7.821c3.928-0.402-0.021-19.432-1.016-22.058c-3.89-10.266-14.261-17.743-23.603-22.626     c-19.222-10.048-44.119-10.768-62.813,0.919c-0.706,0.441-1.369,0.925-1.998,1.453c-3.037,2.556-5.7,6.921-6.138,11.21     c-0.242,2.37,0.197,4.719,1.623,6.728c3.091,4.343,9.699,5.792,14.433,3.745c0.239-0.105,0.463-0.215,0.693-0.333     c1.978-1.055,1.095-1.845-0.349-2.411c-1.542-0.609-3.309-1.271-3.839-3.028c-1.378-4.598,10.945-5.726,13.191-6.051     c16.821-2.435,30.046,13.42,37.82,23.681c2.627,3.715,10.257,16.826,3.591,36.286c-2.219,6.477-6.566,8.552-8.849,10.609     c-0.428,0.389-0.85,0.817-1.039,1.42c-0.32,0.959,0.073,2.123,0.719,2.892c2.646,3.159,6.525,3.421,10.24,2.546     c0.08-0.019,0.159-0.043,0.238-0.063c0.809,10.25,4.093,20.655,12.156,28.639c-0.967,7.923-3.38,19.154-12.171,21.102     c-1.34,0.293-2.666,0.883-3.87,1.53c-6.012,3.255,1.034,10.46,4.999,11.381c5.935,1.377,12.616-0.135,19.014-1.061     c0.317-0.046,0.627-0.125,0.934-0.219c-0.112,1.021-0.8,2.243-2.42,3.697c-9.17,8.241-19.147,21.078-16.141,34.534     c2.211,9.91,10.28,16.453,19.334,19.445c3.808,1.255,7.855,2.017,11.951,2.242c8.981,0.491,18.179-1.567,25.556-6.557     c4.993-3.375,10.012-8.081,11.659-14.097c0.414-1.527,0.723-3.342,0.277-4.908c-0.538-1.912-2.256-2.961-3.484-0.575     c-1.652,3.209-4.623,5.008-8.151,5.73c-7.381,1.499-13.693-3.894-11.363-11.681c0.507-1.71,1.44-3.256,2.401-4.757     c3.434-5.372,8.341-10.075,11.147-15.787c2.574-5.219,3.995-11.264,3.298-17.005c-0.956-7.869-5.507-17.109-14.162-18.812     c-0.145-0.028-0.289-0.05-0.434-0.071c1.695-5.601,1.923-11.73,1.187-17.514c6.397,0.316,13.791-6.07,16.446-11.366     C1058.164,242.033,1059.252,238.784,1058.688,236.539z"></path>			</g>			<g id="XMLID_259_">				<path style="fill:#7DB5DB;" d="M967.305,184.256c-4.075-0.218-12.5-8.178-11.632-12.165c2.14-9.83,11.331-23.828,10.488-29.65     c-1.179-8.144,13.702-6.066,13.205,9.997c-0.496,16.063-0.381,30.598-7.236,31.604     C970.416,184.294,968.786,184.335,967.305,184.256z"></path>			</g>			<g id="XMLID_258_">				<path style="fill:#3B3F54;" d="M924.883,211.65c0.473,3.266-1.791,6.297-5.057,6.77c-3.266,0.473-6.297-1.791-6.769-5.057     c-0.473-3.266,1.792-6.297,5.057-6.769C921.379,206.12,924.41,208.384,924.883,211.65z"></path>			</g>		</g>		<g>			<path style="fill:#305399;" d="M972.13,184.042c6.855-1.007,6.74-15.541,7.236-31.604c0.205-6.628-2.209-10.869-5.032-12.999    c0.017,0.192,3.369,38.093-10.739,43.352l1.46,0.805c0.825,0.387,1.594,0.625,2.25,0.66    C968.786,184.335,970.416,184.294,972.13,184.042z"></path>		</g>	</g>	<g>		<g>			<g>				<g>					<path style="fill:#7DB5DB;" d="M1106.049,247.117l20.843,39.092c0.343,0.643,0.981,1.077,1.708,1.16l44.13,5.042      c1.828,0.209,2.622,2.417,1.343,3.736l-30.865,31.845c-0.508,0.524-0.724,1.263-0.579,1.977l8.817,43.39      c0.365,1.798-1.496,3.233-3.15,2.429l-39.919-19.411c-0.657-0.319-1.429-0.296-2.066,0.062l-38.68,21.775      c-1.602,0.902-3.547-0.419-3.29-2.235l6.194-43.842c0.102-0.721-0.159-1.446-0.697-1.939l-32.723-29.933      c-1.356-1.24-0.696-3.492,1.116-3.81l43.747-7.685c0.72-0.126,1.331-0.598,1.635-1.26l18.456-40.274      C1102.833,245.568,1105.185,245.498,1106.049,247.117z"></path>				</g>			</g>			<g>				<g>					<g>						<path style="fill:#B6DAEF;" d="M1104.334,256.343l-16.494,34.332c-0.865,1.801-2.593,3.037-4.581,3.279l-37.915,4.603       l40.225,0.664c2.555,0.042,4.843-1.569,5.657-3.984L1104.334,256.343z"></path>					</g>				</g>			</g>			<g>				<g>					<path style="fill:#6E9FBA;" d="M1065.053,370.935l-0.713,5.045c-0.257,1.816,1.688,3.137,3.29,2.235l38.68-21.775      c0.636-0.358,1.409-0.381,2.066-0.062l39.919,19.411c1.654,0.804,3.515-0.631,3.15-2.429l-8.817-43.39      c-0.145-0.714,0.072-1.453,0.579-1.977l30.865-31.845c1.279-1.319,0.485-3.527-1.343-3.736l-14.781-1.689      C1135.425,334.015,1099.651,357.527,1065.053,370.935z"></path>				</g>			</g>		</g>		<g>			<g>				<polygon style="fill:#C0DEEC;" points="1064.488,383.737 1064.488,383.737 1064.496,383.737     "></polygon>			</g>		</g>	</g>	<g>		<g>			<g>				<g>					<g>						<g>							<path style="fill:#3B455A;" d="M895.054,555.399H673.34V416.393c0-4.978,4.035-9.013,9.013-9.013h203.689        c4.977,0,9.013,4.035,9.013,9.013V555.399z"></path>						</g>					</g>					<g>						<rect x="682.179" y="417.634" style="fill:#D7E8F4;" width="204.096" height="129.594"></rect>					</g>				</g>			</g>			<g>				<g>					<g>						<path style="fill:#969999;" d="M895.034,574.526l-221.717-0.665c-5.396-0.015-10.395-2.841-13.191-7.456l0,0l248.142,0.74       l0,0.001C905.445,571.745,900.43,574.541,895.034,574.526z"></path>					</g>					<g>						<path style="fill:#BCBEC0;" d="M905.318,568.382H663.076c-1.807,0-3.273-1.465-3.273-3.273v-6.802       c0-1.807,1.465-3.273,3.273-3.273h242.242c1.808,0,3.273,1.465,3.273,3.273v6.802       C908.591,566.917,907.125,568.382,905.318,568.382z"></path>					</g>				</g>				<g style="opacity:0.14;">					<path style="fill:#000100;" d="M802.48,563.679h-36.566c-1.236,0-2.237-1.002-2.237-2.237v-0.247      c0-1.236,1.002-2.237,2.237-2.237h36.566c1.236,0,2.237,1.002,2.237,2.237v0.247      C804.717,562.678,803.715,563.679,802.48,563.679z"></path>				</g>			</g>		</g>		<g>			<g>				<polygon style="fill:#F2F2F2;" points="682.828,533.396 884.497,533.396 885.625,473.188 854.478,427.729 824.757,479.544      789.557,451.103 744.585,494.242 716.488,476.927 682.828,513.99     "></polygon>			</g>		</g>	</g>	<g style="opacity:0.04;">		<polygon points="789.557,451.103 817.518,533.396 824.757,479.544   "></polygon>	</g>	<g>		<g>			<g>				<g>					<path style="fill:#EACDB0;" d="M150.145,278.266c0.211,0.249,0.427,0.507,0.553,0.796c1.182,2.69,0.188,4.801,0.587,7.703      c0.178,1.294,3.221,2.717,1.155,4.498c-0.763,0.657-2.86,2.006-4.499,3.391c-2.391,2.021-4.199,6.027-5.048,9.473      c-3.335,13.539-2.893,27.611-2.019,41.517c0.05,0.793,0.114,1.619,0.524,2.3c0.733,1.219,2.298,1.585,3.691,1.869      c6.463,1.317,12.803,3.236,18.911,5.724c5.45,2.22,10.845,4.988,14.806,9.34c3.961,4.353,6.278,10.568,4.723,16.244      c-1.164,4.25-4.503,7.842-8.656,9.315c-10.301,3.652-21.053-8.153-28.551-13.767c-7.095-5.312-13.818-11.12-20.1-17.371      c-0.776-0.772-1.564-1.579-1.974-2.594c-0.437-1.081-0.4-2.287-0.353-3.453c0.603-15.005,2.528-29.873,4.764-44.778      c0.614-4.096,3.304-7.348,3.838-11.141c0.341-2.42-1.133-4.564-1.317-6.919c-0.182-2.33,0.173-5.435,0.863-7.665      c1.36-4.399,5.854-5.957,9.646-7.704c0.944-0.435,1.581-0.732,2.554-0.679c1.582,0.087,2.751,1.085,3.947,2.034      C148.897,276.959,149.564,277.58,150.145,278.266z"></path>				</g>			</g>			<g>				<g>					<path style="fill:#7DB5DB;" d="M143.97,383.542c-2.245-2.139-4.36-4.389-6.326-6.744c-5.929-7.103-11.858-14.207-17.787-21.31      c-0.53-0.635-1.07-1.286-1.358-2.061c-0.494-1.328-0.183-2.802,0.116-4.187c2.301-10.643,3.615-21.5,3.921-32.384      c6.712,2.815,14.107,3.984,21.36,3.378c0.015,7.296,0.029,14.592,0.044,21.888c0.002,0.828,0.017,1.707,0.463,2.405      c0.422,0.661,1.157,1.044,1.862,1.388c17.098,8.32,35.827,11.654,53.948,17.09c8.756,2.629,17.809,5.418,24.666,11.464      c14.642,12.909,6.265,37.203-13.919,36.57C187.108,410.29,161.558,400.302,143.97,383.542z"></path>				</g>			</g>		</g>		<g>			<g>				<g>					<g>						<g>							<g>								<g>									<polygon style="fill:#EACDB0;" points="215.272,709.013 215.586,731.196 200.205,731.371 199.857,706.778          "></polygon>								</g>							</g>						</g>						<g>							<g>								<g>									<path style="fill:#3B455A;" d="M201.374,727.896l11.433,3.779l3.408,3.669l-0.577,8.695l-30.904,2.401l0,0          c-2.611-3.802-0.912-8.959,3.444-10.455l1.438-0.494L201.374,727.896z"></path>								</g>							</g>						</g>					</g>				</g>				<g>					<g>						<g>							<g>								<g>									<g>										<g>											<polygon style="fill:#EACDB0;" points="310.004,687.748 318.71,708.154 306.614,713.303 296.962,690.68            "></polygon>										</g>									</g>								</g>								<g>									<g>										<g>											<path style="fill:#3B455A;" d="M304.604,713.685c0.434-0.479,0.939-0.935,1.525-1.363            c1.454-1.062,13.172-7.272,14.178-4.473c0.163,0.455,0.111,0.955,0.054,1.434c-0.965,8.053-2.854,15.995-5.619,23.62            c-1.183,3.262-2.977,6.875-6.351,7.688c-1.479,0.357-3.031,0.094-4.514-0.243c-2.188-0.496-4.341-1.149-6.436-1.952            c-0.766-0.294-1.58-0.656-1.977-1.373c-0.795-1.437,0.592-3.139,2.04-3.913c1.449-0.774,3.217-1.33,3.925-2.813            c0.317-0.664,0.362-1.422,0.402-2.157C302.126,722.684,301.2,717.444,304.604,713.685z"></path>										</g>									</g>								</g>							</g>						</g>						<g>							<g>								<path style="fill:#305399;" d="M225.18,606.212c4.313,19.721,16.641,33.888,29.811,48.39         c15.071,16.595,29.247,34.002,42.447,52.12c5.706-2.379,11.411-4.759,17.117-7.138c-4.77-27.713-17.915-53.139-28.102-79.35         c-7.079-18.214-12.814-37.473-13.125-57.157c-0.155-9.789,2.217-18.741,3.487-28.261c1.573-11.793,1.663-23.881,3.085-35.73         c0.477-3.973,0.748-8.672-2.307-11.256c-1.36-1.15-3.153-1.635-4.901-1.973C207.813,473.293,216.979,568.713,225.18,606.212         z"></path>							</g>						</g>					</g>				</g>				<g>					<path style="fill:#305399;" d="M278.033,502.798c0.035-11.965-1.426-23.498-3.664-32.293      c-18.455-0.988-39.312,1.054-57.564,4.757c-17.839,3.62-28.965,7.503-29.094,26.847      c-0.237,35.595-14.149,65.917-20.157,100.131c-3.491,19.883,2.541,37.668,9.225,56.082      c7.648,21.072,14.162,42.555,19.501,64.327c6.182-0.037,12.364-0.074,18.545-0.111c6.1-27.451,3.584-55.964,4.102-84.079      c0.36-19.538,2.361-39.533,9.54-57.863c7.892-20.15,19.259-12.13,32.303-23.815      C273.452,545.421,277.973,523.465,278.033,502.798z"></path>				</g>			</g>			<g>				<g>					<path style="fill:#7DB5DB;" d="M257.076,365.811c2.038,1.579,3.829,3.485,5.599,5.372c1.585,1.691,3.171,3.382,4.756,5.073      c5.492,5.858,8.205,14.529,10.559,22.013c12.388,39.382,16.846,93.412,8.801,134.562c-30.513,2.636-65.829-5.057-96.275-9.216      c-2.96-0.404-6.314-1.068-7.85-3.63c-0.931-1.553-0.958-3.466-0.958-5.277c0.003-26.123,5.524-54.199,10.702-79.951      c2.185-10.867,4.877-21.642,8.329-32.179c3.654-11.154,7.775-23.198,16.326-31.637c9.151-9.029,26.671-13.488,38.127-6.439      C255.846,364.902,256.472,365.342,257.076,365.811z"></path>				</g>			</g>		</g>		<g>			<g>				<g>					<g>						<g>							<g>								<path style="fill:#EACDB0;" d="M245.255,363.893c-0.184,0.381-0.433,0.748-0.77,1.098c-1.331,1.382-3.204,2.194-5.076,2.511         c-2.467,0.418-4.993,0.071-7.462-0.335c-3.335-0.548-3.267-2.494-3.825-5.495c-0.305-1.639-0.512-3.294-0.678-4.953         c-0.091-0.909,0.178-4.18-0.419-4.803c-0.405-0.423-2.006-0.236-2.718-0.585c-1.129-0.553-2.087-1.601-2.783-2.625         c-1.122-1.651-1.766-3.572-2.396-5.466c-1.097-3.295-2.193-6.59-3.29-9.885c-1.12-3.367-2.247-6.762-2.67-10.285         c-0.637-5.31,0.031-12.847,3.95-16.842c3.574-3.644,8.89-5.024,13.778-5.776c6.472-0.996,13.234,0.021,18.93,3.324         c2.3,1.334,4.494,3.084,5.894,5.531c2.16,3.773,2.125,8.554,2.017,13.025c-0.099,4.127-0.199,8.254-0.298,12.382         c-0.114,4.747-0.565,10.225-4.051,12.887c-1.851,1.413-4.309,1.768-5.879,3.56c-1.966,2.244-1.751,5.53-1.765,8.313         C245.737,361.065,245.895,362.565,245.255,363.893z"></path>							</g>						</g>						<g>							<path style="fill:#3B455A;" d="M223.338,311.133c-0.214,0.393-0.39,0.798-0.524,1.219c-0.701,2.205-0.127,4.659-0.81,6.869        c-1.083,3.504-5.084,5.696-5.603,9.327c-0.424,2.969,1.668,5.729,1.915,8.718c0.27,3.266-1.746,6.415-1.338,9.635        c0.354,2.797,2.234,6.693,3.965,8.897c-0.537-0.683-5.225-0.315-6.462-1.028c-1.895-1.092-2.126-1.805-2.731-3.735        c-0.601-1.916-0.222-3.83-1.132-5.786c-1.116-2.399-3.327-4.125-4.152-6.693c-1.125-3.504,0.658-7.277,0.418-10.95        c-0.364-5.559-5.307-10.678-3.697-16.011c0.945-3.129,3.907-5.189,5.529-8.026c1.232-2.154,1.643-4.666,2.476-7.004        c0.833-2.337,2.308-4.693,4.67-5.456c1.312-0.424,2.738-0.3,4.086-0.587c2.331-0.496,4.236-2.162,6.473-2.983        c3.2-1.175,8.979,1.944,10.933,4.632c1.94,2.668,1.055,5.001-0.796,7.451C233.479,303.705,225.85,306.519,223.338,311.133z"></path>						</g>					</g>					<g>						<path style="fill:#3B455A;" d="M266.396,293.586c1.971,1.37,4.386,2.334,6.195,3.948c3.527,3.146,4.314,8.301,4.559,13.021       c0.218,4.202,2.154,7.892,1.81,12.287c-0.231,2.951-1.406,5.96-3.757,7.759c-2.928,2.241-7.602,2.715-8.845,6.186       c-1.35,3.77,2.637,8.373,0.372,11.676c-1.249,1.822-3.781,2.15-5.603,3.399c-2.033,1.394-3.034,3.817-4.242,5.965       c-1.209,2.148-3.05,4.317-5.513,4.433c-0.195-3.745-0.382-6.711,1.131-10.179c0.881-2.02,3.533-5.773,1.369-7.881       c-1.376-1.763-4.53-2.267-4.668-4.499c-0.065-1.048,0.644-1.96,1.2-2.851c2.149-3.45,2.261-7.976,0.649-11.707       c-1.612-3.731-4.812-6.662-8.514-8.34c-4.339-1.966-3.675-3.03-5.025-7.102c-1.243-3.747-3.408-4.578-6.842-5.867       c-3.084-1.158-4.084-1.903-5.283-4.73c-0.878-2.069-1.956-4.546-0.821-6.91c0.903-1.878,2.579-3.248,4.203-4.553       c3.393-2.727,7.211-5.6,11.559-5.399c2.415,0.112,4.712,1.187,7.128,1.262c1.612,0.05,3.203-0.347,4.813-0.442       c2.744-0.162,5.663,0.599,7.928,2.177c2.286,1.592,2.266,3.32,3.573,5.629C264.41,292,265.339,292.851,266.396,293.586z"></path>					</g>					<g>						<path style="fill:#3B455A;" d="M256.284,278.427c-0.489-2.6-0.305-6.009,2.166-6.954c1.354-0.518,2.898-0.028,4.311-0.353       c3.01-0.693,3.947-4.384,5.466-7.073c0.227-0.403,0.5-0.812,0.917-1.011c0.597-0.285,1.296-0.063,1.954,0       c3.02,0.29,5.233-2.74,8.041-3.89c3.476-1.423,7.949,0.658,9.098,4.234c0.472,1.469,0.437,3.062,0.883,4.539       c1.807,5.986,10.701,8.325,11.083,14.566c0.259,4.217-3.769,8.367-2.063,12.233c1.091,2.472,4.349,4.093,4.049,6.779       c-0.192,1.728-1.996,2.947-3.734,2.967c-1.738,0.02-3.359-0.893-4.697-2.002c-2.124-1.761-3.749-4.049-5.777-5.92       c-2.028-1.871-4.708-3.361-7.436-2.95c-2.643,0.399-4.989,2.524-7.635,2.15c-2.116-0.299-3.729-2.139-5.812-2.616       c-1.949-0.446-3.944,0.366-5.936,0.537c-1.993,0.171-4.47-0.805-4.574-2.802c-0.025-0.484,0.098-0.988-0.066-1.444       c-0.459-1.278-2.658-1.147-3.109-2.428c1.001-1.633,2.484-1.095,3.178-3.211C257.126,282.142,256.591,280.06,256.284,278.427z       "></path>					</g>				</g>			</g>		</g>		<g>			<g id="XMLID_257_">				<path style="fill:#929293;" d="M156.96,297.915l2.613,11.845c0.849,3.847,4.579,6.295,8.332,5.467l30.35-6.696     c3.753-0.828,6.107-4.618,5.258-8.465L200.9,288.22L156.96,297.915z"></path>			</g>			<g>				<path style="fill:#D7E8F4;" d="M217.436,117.793c-9.193-41.67-49.596-68.181-90.24-59.214     c-40.645,8.967-66.141,50.017-56.948,91.687c3.267,14.808,10.478,27.698,20.238,37.766l-0.003,0.001     c28.24,30.661,39.474,59.083,39.474,59.083l37.033-8.171l37.033-8.17c0,0-1.768-30.51,10.949-70.207l-0.003,0.001     C219.585,147.329,220.703,132.601,217.436,117.793z"></path>			</g>			<g>				<path style="fill:#BCBEC0;" d="M129.103,247.304l11.101,50.316c0.464,2.102,2.462,3.448,4.464,3.007l68.523-15.118     c2.002-0.442,3.249-2.504,2.785-4.606l-11.101-50.316L129.103,247.304z"></path>			</g>			<g>				<path style="fill:#BFCFD8;" d="M213.012,103.955c-10.426,41.591-33.96,107.481-83.136,142.964     c0.048,0.117,0.08,0.196,0.08,0.196l37.033-8.17l37.033-8.17c0,0-1.768-30.51,10.949-70.207l-0.003,0.001     c4.618-13.239,5.735-27.967,2.468-42.775C216.37,112.962,214.868,108.346,213.012,103.955z"></path>			</g>			<g>				<g>					<path style="fill:#FFFFFF;" d="M83.644,153.819c-8.026-36.379,14.233-72.217,49.717-80.046      c20.741-4.576,41.407,1.434,56.604,14.48c-15.451-17.299-39.179-26.004-63.002-20.748      c-35.484,7.829-57.743,43.666-49.717,80.045c3.335,15.115,11.376,27.942,22.178,37.215      C91.861,176.299,86.281,165.773,83.644,153.819z"></path>				</g>			</g>			<g>				<g>					<polygon style="fill:#F6F7F7;" points="152.678,242.102 122.455,147.49 137.214,155.34 144.169,135.344 158.914,149.963       168.895,137.148 181.3,235.788 185.101,234.949 171.565,127.319 158.517,144.071 142.52,128.211 135.035,149.728       115.839,139.518 148.877,242.941      "></polygon>				</g>			</g>			<g>				<g>					<path style="fill:#EDECED;" d="M145.863,233.506l3.014,9.435l3.801-0.839l-3.723-11.655      C147.938,231.48,146.908,232.501,145.863,233.506z"></path>				</g>				<g>					<path style="fill:#EDECED;" d="M176.192,195.174l5.107,40.614l3.801-0.839l-5.683-45.189      C178.368,191.575,177.293,193.38,176.192,195.174z"></path>				</g>			</g>			<g>				<g>											<rect x="131.973" y="251.327" transform="matrix(0.9765 -0.2154 0.2154 0.9765 -51.1616 42.8054)" style="fill:#A9A9AA;" width="77.594" height="9.515"></rect>				</g>				<g>											<rect x="136.351" y="271.17" transform="matrix(0.9765 -0.2154 0.2154 0.9765 -55.334 44.2146)" style="fill:#A9A9AA;" width="77.594" height="9.515"></rect>				</g>			</g>			<g>				<g>					<path style="fill:#96928D;" d="M177.779,270.476l34.23-7.552l-2.328-10.552l-21.116,4.659      C185.032,262.011,181.411,266.474,177.779,270.476z"></path>				</g>				<g>					<path style="fill:#96928D;" d="M207.631,243.08l-2.756-12.493l-1.192,0.263c-2.48,5.308-5.085,10.239-7.78,14.818      L207.631,243.08z"></path>				</g>				<g>					<path style="fill:#A9A9AA;" d="M144.668,300.626l68.523-15.118c2.002-0.442,3.249-2.504,2.785-4.606l-1.917-8.687      l-49.476,10.916c-8.892,7.38-17.29,12.248-24.042,15.411C141.307,300.092,142.981,300.999,144.668,300.626z"></path>				</g>				<g>					<path style="fill:#73726F;" d="M188.566,257.03l21.116-4.659l-2.05-9.292l-11.728,2.588      C193.517,249.722,191.064,253.509,188.566,257.03z"></path>				</g>				<g>					<path style="fill:#73726F;" d="M164.583,283.131l49.476-10.916l-2.05-9.292l-34.23,7.552      C173.354,275.351,168.911,279.539,164.583,283.131z"></path>				</g>			</g>			<g>				<path style="fill:#5D5A59;" d="M202.487,295.414c-6.684,10.322-22.492,16.485-27.763,18.307l23.531-5.191     c3.753-0.828,6.107-4.618,5.258-8.465L202.487,295.414z"></path>			</g>		</g>		<g>			<g>				<g>					<g>						<path style="fill:#BCBEC0;" d="M153.398,379.456l-35.786-22.196L75.6,443.109c-1.945,3.857-0.681,8.52,2.915,10.75       l41.501,25.74c3.596,2.23,8.335,1.291,10.926-2.165l58.242-75.783L153.398,379.456z"></path>					</g>				</g>				<g>					<g>						<path style="fill:#9E9D9D;" d="M74.984,449.109c0.525,1.92,1.738,3.638,3.531,4.75l41.501,25.74       c3.596,2.23,8.335,1.291,10.926-2.165l58.233-75.77L74.984,449.109z"></path>					</g>				</g>				<g>					<g>						<polygon style="fill:#9F9B93;" points="117.612,357.26 186.128,405.302 194.28,394.987       "></polygon>					</g>				</g>				<g>					<g>						<polygon style="fill:#587BC9;" points="105.846,380.594 173.508,422.56 139.82,465.593 82.263,429.894       "></polygon>					</g>				</g>				<g>					<g>													<rect x="151.041" y="330.827" transform="matrix(0.5271 -0.8498 0.8498 0.5271 -245.8572 309.8045)" style="fill:#3B455A;" width="8.767" height="89.946"></rect>					</g>				</g>				<g>					<g>						<path style="fill:#305399;" d="M195.332,377.744c-0.013-1.408-0.733-2.701-1.912-3.432l-26.599-16.497l-26.598-16.497       c-1.179-0.731-2.657-0.802-3.924-0.188l-12.091,10.15l33.702,20.903l33.702,20.903L195.332,377.744z"></path>					</g>				</g>			</g>		</g>		<g>			<g>				<g>					<path style="fill:#EACDB0;" d="M116.06,434.184c0.297-0.135,0.605-0.271,0.917-0.314c2.911-0.4,4.668,1.135,7.568,1.546      c1.293,0.184,3.496-2.354,4.642,0.122c0.423,0.913,1.145,3.3,2.028,5.257c1.289,2.853,4.646,5.69,7.728,7.451      c12.107,6.918,25.761,10.349,39.374,13.318c0.776,0.169,1.589,0.334,2.355,0.127c1.373-0.371,2.154-1.775,2.809-3.038      c3.038-5.855,6.62-11.426,10.687-16.619c3.628-4.633,7.768-9.063,13.04-11.679c5.271-2.616,11.884-3.141,16.917-0.091      c3.769,2.285,6.309,6.479,6.586,10.878c0.689,10.908-13.61,18.012-21.064,23.686c-7.053,5.367-14.481,10.241-22.215,14.57      c-0.955,0.534-1.947,1.072-3.035,1.188c-1.16,0.124-2.309-0.242-3.417-0.607c-14.266-4.692-28.037-10.617-41.759-16.852      c-3.771-1.713-6.162-5.191-9.663-6.744c-2.234-0.991-4.7-0.161-7.015-0.63c-2.29-0.463-5.179-1.656-7.135-2.93      c-3.858-2.514-4.125-7.262-4.766-11.388c-0.16-1.027-0.271-1.721,0.047-2.642c0.517-1.498,1.798-2.349,3.038-3.239      C114.462,435.027,115.242,434.556,116.06,434.184z"></path>				</g>			</g>			<g>				<path style="fill:#7DB5DB;" d="M259.976,413.355c0.142-0.425,0.303-0.847,0.439-1.272c6.14-19.238-14.928-33.952-31.356-23.408     c-7.693,4.938-12.857,12.88-17.784,20.581c-6.179,9.666-11.675,19.766-17.794,29.468c-9.597,15.217-25.529,13.936-41.528,10.212     c-3.174,7.636-6.986,15.007-11.386,22.01c11.476,5.281,23.079,10.604,35.457,13.128c12.378,2.523,25.788,2.028,36.938-3.911     c8.781-4.677,15.547-12.34,21.815-20.066C246.046,446.203,256.649,430.872,259.976,413.355z"></path>			</g>		</g>	</g></g></svg>