<svg xmlns="http://www.w3.org/2000/svg" width="1061" height="638" viewBox="0 0 1061 638" fill="none"><path d="M1011.38 519.914H148.818C121.535 519.914 99.212 528.852 99.212 539.777C99.212 547.342 109.919 553.952 125.562 557.304H49.606C22.323 557.304 0 566.243 0 577.167C0 588.092 22.323 597.031 49.606 597.031H76.072C68.68 600.502 64.195 604.992 64.195 609.884V617.829C64.195 628.754 86.518 637.693 113.801 637.693H963.52C990.803 637.693 1013.13 628.754 1013.13 617.829V609.884C1013.13 598.959 990.803 590.02 963.52 590.02L905.744 590.461C910.145 590.461 917.291 589.071 922.085 586.276C930.491 581.376 930.864 573.917 926.754 567.742C924.09 563.739 919.821 560.566 909.246 559.372L1011.38 559.64C1038.66 559.64 1060.98 550.701 1060.98 539.777C1060.98 528.853 1038.66 519.914 1011.38 519.914Z" fill="#17283C"></path><path d="M684.543 325.088L665.217 461.771L671.337 564.75L658.58 569.331L645.704 474.055L619.654 307.21L684.543 325.088Z" fill="#C97F73"></path><path d="M657.903 568.139L656.351 578.368L659.777 597.826L671.208 596.771L673.427 567.967L671.756 563.344L657.903 568.139Z" fill="#305399"></path><path d="M572.56 320.76L578.398 436.739L603.862 598.919L617.87 598.763L611.995 448.435L630.49 309.906L572.56 320.76Z" fill="#C97F73"></path><path d="M604.099 596.146L586.165 609.229L588.376 619.041L621.173 611.304L618.54 597.132L604.099 596.146Z" fill="#305399"></path><path d="M569.432 338.134L569.7 472.742L585.958 563.54L623.498 557.554L622.652 452.659L630.712 337.454L626.894 319.996L572.603 326.03L569.432 338.134Z" fill="#7DB5DB"></path><path d="M635.743 454.671L647.135 550.165L679.78 545.161L672.51 454.263L684.892 338.081L677.857 306.595L623.003 315.697L635.743 454.671Z" fill="#7DB5DB"></path><path d="M711.521 77.0274C709.077 53.3264 678.982 38.7184 666.064 62.8404C662.182 70.0894 659.081 78.0004 658.888 86.2334C658.695 94.4674 661.811 103.084 668.362 107.9C668.399 107.928 668.439 107.949 668.476 107.976C667.751 109.967 667.026 111.958 666.301 113.95C666.145 114.377 663.748 119.197 663.913 119.619C664.1 120.1 666.436 121.483 666.913 121.665C669.242 122.554 671.75 122.11 674.08 122.998C675.234 123.438 676.654 122.71 677.883 122.585C680.574 122.312 682.318 116.485 683.006 113.825C683.17 113.189 683.304 112.539 683.434 111.887C698.752 110.017 713.118 92.5204 711.521 77.0274Z" fill="#C97F73"></path><path d="M665.33 69.9134C660.847 75.1334 659.954 82.2364 659.848 88.8874C659.744 95.3914 658.071 101.504 658.566 108.038C657.736 108.918 656.326 108.03 655.496 107.16C650.626 102.055 645.825 96.8824 641.096 91.6424C640.62 91.1154 640.133 90.5654 639.912 89.8864C639.632 89.0244 639.821 88.0844 640.026 87.1984C644.07 69.7064 652.998 57.8624 665.083 45.4494C670.951 39.4214 684.976 33.9344 691.01 43.1604C692.384 45.2614 692.591 47.9184 692.638 50.4464C692.666 51.9554 692.644 53.5094 692.084 54.9104C689.851 60.4984 684.478 59.3314 679.942 60.5234C674.347 61.9914 669.114 65.5074 665.33 69.9134Z" fill="#3B455A"></path><path d="M703.841 87.8574C703.046 92.9554 700.953 98.5584 698.673 103.14C697.884 104.727 694.079 108.11 693.804 109.225C693.005 112.454 698.538 121.195 699.846 124.329C711.288 120.127 722.73 115.924 734.172 111.722C735.048 111.4 735.968 111.048 736.562 110.317C737.101 109.654 737.291 108.775 737.453 107.932C740.642 91.3604 738.689 75.7114 734.688 59.6444C730.69 43.5854 718.361 29.1194 701.427 27.5514C687.744 26.2844 676.706 34.8024 679.482 49.5374C681.578 60.6614 694.343 64.9404 700.357 73.2554C704.133 78.4754 704.715 83.1644 703.841 87.8574Z" fill="#3B455A"></path><path d="M686.729 126.326C686.99 126.461 687.249 126.598 687.505 126.736C699.793 133.342 707.188 156.437 711.386 169.988C722.222 204.968 724.448 240.175 721.055 276.724C719.229 296.404 716.518 315.996 713.404 335.512C712.544 340.904 701.567 388.727 703.912 390.227C679.86 374.844 655.297 360.061 628.956 349.55C602.615 339.039 574.112 348.221 545.864 350.63C561.97 290.222 582.136 213.921 607.088 156.84C610.072 150.013 612.423 142.621 616.368 136.304C620.911 129.029 626.55 127.47 633.89 123.807C636.404 122.552 638.937 121.29 641.621 120.543C655.772 116.602 673.754 119.608 686.729 126.326Z" fill="#D7E8F4"></path><path d="M670.282 154.724C665.983 152.809 663.85 147.417 666.423 142.907C671.082 134.743 675.144 126.704 670.184 117.579C664.151 106.48 649.218 102.371 638.34 108.773C624.924 116.668 626.578 131.021 633.817 142.629C636.638 147.153 634.535 152.76 630.136 154.723H576.86V155.444V174.386V207.373C575.175 212.198 569.269 214.651 564.532 211.701C552.92 204.469 538.566 202.824 530.679 216.244C524.284 227.126 528.402 242.057 539.504 248.083C548.631 253.038 556.668 248.971 564.829 244.307C569.527 241.622 575.177 244.054 576.86 248.721V300.756H626.707C626.803 300.756 626.894 300.772 626.989 300.775H630.136C634.536 298.811 636.639 293.205 633.817 288.681C626.578 277.073 624.924 262.72 638.34 254.825C649.218 248.423 664.151 252.533 670.184 263.631C675.144 272.756 671.082 280.795 666.423 288.959C663.85 293.468 665.982 298.861 670.282 300.776H673.412C673.509 300.773 673.601 300.757 673.699 300.757H722.893V249.58C721.695 243.79 716.095 241.53 710.639 244.492C702.378 248.977 695.057 252.97 685.93 248.015C674.828 241.988 670.094 227.31 676.489 216.428C684.376 203.007 698.73 204.653 710.342 211.885C715.315 214.983 721.581 212.127 722.893 206.821V175.959V155.445V154.724H670.282Z" fill="#305399"></path><path d="M235.956 14.6464C218.612 -8.28261 179.789 -5.23561 171.624 30.5064C166.324 53.7084 183.993 79.8724 207.345 80.9864L207.22 80.1514C208.08 80.3034 208.952 80.4124 209.842 80.4584C224.562 81.2254 235.877 69.5614 240.379 56.4084C243.823 46.3474 243.604 35.2834 241.155 24.9354C240.448 21.9484 239.516 18.9194 237.585 16.5334C237.056 15.8804 236.452 15.3024 235.956 14.6464Z" fill="#C97F73"></path><path d="M195.39 93.5734C195.339 94.3784 195.309 95.2614 195.774 95.9034C196.188 96.4744 196.893 96.7104 197.558 96.8874C203.822 98.5544 210.666 97.7634 216.447 94.7064C216.871 94.4824 217.303 94.2334 217.586 93.8354C217.93 93.3514 218.002 92.7194 218.055 92.1204C218.514 87.0054 218.506 81.8474 218.032 76.7374C217.873 75.0274 217.606 73.1934 216.459 71.9644C213.184 68.4544 202.408 68.3294 198.81 71.8174C194.224 76.2644 195.764 87.6544 195.39 93.5734Z" fill="#C97F73"></path><path d="M283.352 593.983L292.137 602.699C297.797 608.314 296.164 618.138 288.764 621.105C284.404 622.854 278.349 622.38 270.138 616.388L251.547 593.908L254.889 586.919L275.11 584.488L283.352 593.983Z" fill="#305399"></path><path d="M301.464 346.695L307.428 483.488L279.942 589.042L252.019 587.611L241.931 496.812C241.931 496.812 171.383 374.131 177.043 370.469C182.702 366.806 301.464 346.695 301.464 346.695Z" fill="#587BC9"></path><path d="M141.055 594.093L132.639 603.166C127.217 609.011 129.256 618.759 136.772 621.416C141.201 622.982 147.23 622.258 155.186 615.931L172.829 592.699L169.2 585.855L148.895 584.265L141.055 594.093Z" fill="#305399"></path><path d="M122.692 346.543L136.251 467.774L143.076 588.989L171.006 587.689L202.812 498.078C202.812 498.078 252.644 374.59 247.001 370.901C241.358 367.211 122.692 346.543 122.692 346.543Z" fill="#587BC9"></path><path d="M143.605 118.538C118.382 144.341 111.647 184.43 108.607 221.77C105.914 254.859 105.049 288.12 106.019 321.318C106.364 333.12 107.308 345.926 114.615 354.718C119.427 360.508 126.333 363.671 133.082 366.411C183.479 386.878 238.644 393.541 292.001 385.606C297.935 384.724 304.16 383.515 308.756 379.372C312.194 376.273 314.343 371.849 316.199 367.451C334.719 323.561 331.969 272.791 324.313 225.294C318.799 191.084 310.438 156.18 290.602 128.831C254.357 78.8554 185.648 75.5294 143.605 118.538Z" fill="#D7E8F4"></path><path d="M225.364 71.3044C226.287 67.1874 225.908 62.4354 225.843 58.1144C225.839 57.8154 225.833 57.5104 225.744 57.2244C225.285 55.7504 222.93 55.8654 221.985 57.0864C221.04 58.3074 221.064 59.9874 221.01 61.5304C220.877 65.3614 219.653 69.6364 216.249 71.3994C214.322 72.3974 212.052 72.3944 209.882 72.3684C206.492 72.3284 203.036 72.2764 199.829 71.1784C196.622 70.0804 193.649 67.7384 192.688 64.4874C191.807 61.5054 192.703 58.1894 191.683 55.2514C191.397 54.4294 190.837 53.5654 189.972 53.4654C188.26 53.2664 189.073 56.1054 188.914 56.9974C188.296 60.4614 187.864 63.9584 187.621 67.4694C186.513 83.4494 207.325 84.9224 218.185 80.2504C222.544 78.3744 224.511 75.1114 225.364 71.3044Z" fill="#34435A"></path><path d="M177.761 105.701C165.038 114.671 167.865 128.84 176.032 139.814C179.364 144.291 177.407 150.379 172.738 152.457L139.864 155.184L120.986 156.75L120.267 156.81L124.672 209.903C123.079 214.45 117.665 217.009 112.923 214.572C100.756 208.317 86.3161 207.856 79.5571 221.879C74.0771 233.249 79.4061 247.791 90.9661 252.886C100.469 257.075 108.145 252.362 115.896 247.044C120.177 244.107 125.728 245.786 127.991 249.912L132.341 302.343L133.06 302.283L153.504 300.587L185.305 297.921C190.485 296.175 191.767 289.81 188.269 285.109C180.102 274.135 178.031 260.245 190.754 251.275C201.07 244.002 215.134 246.946 222.058 257.512C227.75 266.199 224.432 274.548 220.46 283.067C218.064 288.204 220.589 293.544 225.789 294.473L277.875 290.269L277.849 289.958L277.518 289.985L273.113 236.892C270.792 232.67 265.031 231.038 260.756 234.223C249.786 242.397 235.619 245.231 226.642 232.514C219.363 222.202 223 207.329 233.562 200.399C242.245 194.701 249.567 198.218 258.088 202.186C262.795 204.378 268.241 201.326 269.794 196.883L265.47 144.763L213.944 149.038C209.155 147.746 206.264 142.317 208.551 137.413C212.524 128.894 215.912 120.549 210.22 111.862C203.297 101.297 188.077 98.4284 177.761 105.701Z" fill="#305399"></path><path d="M130.964 261.825L124.913 264.873L128.543 256.906L125.76 253.775L114.05 262.203L114.831 269.95L114.726 270.003L118.318 289.846L133.525 293.549L151.486 286.606L144.571 260.547L130.964 261.825Z" fill="#C97F73"></path><path d="M120.916 250.596C120.916 250.596 103.066 252.786 98.931 268.513C94.796 284.24 107.243 298.427 113.077 299.983C118.911 301.539 129.634 299.906 129.634 299.906L120.916 250.596Z" fill="#CCDEEA"></path><path d="M281.83 250.352L287.881 253.4L284.251 245.433L287.034 242.302L298.744 250.73L297.963 258.477L298.068 258.53L294.476 278.373L279.269 282.076L261.308 275.133L268.223 249.074L281.83 250.352Z" fill="#C97F73"></path><path d="M291.878 239.123C291.878 239.123 309.728 241.313 313.863 257.04C317.998 272.767 305.551 286.954 299.717 288.51C293.883 290.066 283.16 288.433 283.16 288.433L291.878 239.123Z" fill="#CCDEEA"></path><path d="M690.375 323.92C685.346 328.013 680.32 332.108 675.325 336.243C673.523 334.079 671.721 331.915 669.919 329.751C672.721 326.137 675.52 322.521 678.32 318.907C677.035 318.302 675.746 317.706 674.462 317.099C679.272 314.159 684.138 311.339 688.994 308.477C691.161 310.416 693.289 312.411 695.52 314.276C693.793 317.475 691.954 320.643 690.375 323.92Z" fill="#C97F73"></path><path d="M692.192 146.662C691.049 147.869 690.299 149.521 689.75 151.233C687.474 158.336 688.013 165.924 690.703 172.727C694.962 183.497 702.187 192.205 706.852 202.476C712.189 214.226 715.972 226.143 719.846 238.37C709.334 262.662 697.414 285.285 682.202 306.984C686.738 310.651 691.223 314.38 695.788 318.007C720.234 293.662 739.32 266.825 758.553 238.345C752.421 221.139 746.404 204.354 739.01 187.51C732.382 172.411 726.711 156.221 713.706 145.423C706.363 139.328 698.475 140.032 692.192 146.662Z" fill="#D1E3ED"></path><path d="M582.336 252.206L577.805 254.346L580.726 249.599L578.791 248.027L569.938 253.595L570.255 257.911L570.176 257.948L572.153 268.892L583.168 269.924L591.895 262.505L590.056 254.29L582.336 252.206Z" fill="#C97F73"></path><path d="M575.917 248.495C575.917 248.495 562.83 251.163 558.956 259.217C555.083 267.271 563.341 273.088 567.492 273.325C571.644 273.563 579.523 271.805 579.523 271.805L575.917 248.495Z" fill="#D7E8F4"></path><path d="M417.447 314.759L403.805 350.121L433.411 578.39L452.968 572.68L465.763 309.577L417.447 314.759Z" fill="#15529B"></path><path d="M503.626 293.831L513.07 455.322L490.808 579.616L467.666 572.994L477.549 454.563L447.833 296.849L503.626 293.831Z" fill="#15529B"></path><path d="M466.637 560.718L494.522 570.975L486.941 590.505L501.753 598.308C501.753 598.308 503.691 606.045 499.204 609.722C494.717 613.399 461.993 589.972 461.993 589.972L466.637 560.718Z" fill="#678FE5"></path><path d="M426.646 568.296L456.237 570.966L453.983 591.794L470.313 595.486C470.313 595.486 474.193 602.455 470.813 607.17C467.434 611.886 429.752 597.752 429.752 597.752L426.646 568.296Z" fill="#678FE5"></path><path d="M382.597 75.6204C388.176 80.0044 394.342 83.6414 400.878 86.4044C393.858 76.1194 388.261 64.8644 384.293 53.0614C383.99 52.1614 383.616 51.1624 382.755 50.7604C381.951 50.3854 381.006 50.6694 380.179 50.9894C365.4 56.7044 372.871 67.9774 382.597 75.6204Z" fill="#34435A"></path><path d="M400.663 86.8464C404.901 90.1424 410.391 93.3874 416.537 92.9284C423.775 92.3874 428.204 87.0324 430.433 82.0504C437.794 65.5954 430.457 8.07037 390.214 20.5894C353.672 31.9564 383.073 73.1684 400.663 86.8464Z" fill="#F9CBB7"></path><path d="M426.899 68.9324C430.896 70.4854 434.926 66.7094 437.069 62.9934C445.87 47.7324 443.141 26.7264 430.734 14.2204C420.352 3.75539 399.181 4.71238 405.943 21.6924C408.34 27.7124 416.404 32.9354 419.535 39.3054C424.008 48.4074 425.379 59.0244 426.899 68.9324Z" fill="#34435A"></path><path d="M349.537 26.2344C340.258 44.9864 346.233 67.9764 339.617 87.8254C355.912 84.9254 370.858 75.1064 379.989 61.3014C388.944 47.7614 416.241 24.4004 400.502 9.89639C384.484 -4.86661 357.667 9.80339 349.537 26.2344Z" fill="#34435A"></path><path d="M432.828 95.2194C430.411 89.9204 427.994 84.6204 425.577 79.3214C425.322 78.7634 425.039 78.1714 424.513 77.8544C423.496 77.2414 422.22 77.9524 421.253 78.6424C417.755 81.1394 414.257 83.6374 410.759 86.1354C412.966 92.7224 414.544 99.5214 415.445 106.41C420.717 103.966 425.989 101.523 431.261 99.0794C432.088 98.6964 433.004 98.2124 433.247 97.3334C433.444 96.6254 433.133 95.8874 432.828 95.2194Z" fill="#F9CBB7"></path><path d="M407.565 88.4154C408.63 87.6554 409.695 86.8944 410.76 86.1344C410.628 85.7394 410.501 85.3424 410.364 84.9494L407.565 88.4154Z" fill="#F9CBB7"></path><path d="M377.358 126.687C368.313 145.641 369.951 166.183 372.918 185.726C379.633 229.967 379.39 281.882 398.025 323.228C426.98 320.959 481.464 303.379 510.074 298.18C512.698 259.063 507.671 236.701 501.108 193.145C497.872 171.669 492.275 142.954 483.037 122.972C475.474 106.613 457.105 86.1544 431.974 88.7974C408.424 91.2734 385.584 109.451 377.358 126.687Z" fill="#7DB5DB"></path><path d="M403.766 292.46L391.074 292.491L404.183 292.488C404.043 292.482 403.908 292.46 403.766 292.46Z" fill="#6699C4"></path><path d="M414.937 100.449C401.54 108.376 403.228 122.725 410.495 134.316C413.327 138.833 411.238 144.445 406.843 146.419L353.567 146.548L353.569 147.269L353.615 166.211L353.695 199.198C352.021 204.027 346.122 206.495 341.378 203.556C329.749 196.352 315.39 194.741 307.536 208.181C301.167 219.079 305.321 233.999 316.437 239.999C325.576 244.932 333.603 240.845 341.753 236.162C346.445 233.466 352.1 235.885 353.795 240.547L353.921 292.582H353.939V292.501H354.66L373.603 292.497L391.076 292.493L403.768 292.462C403.91 292.462 404.045 292.483 404.185 292.49L406.59 292.489C411.414 290.803 413.867 284.897 410.915 280.16C403.68 268.549 402.032 254.196 415.45 246.306C426.331 239.908 441.262 244.023 447.291 255.123C452.248 264.249 448.183 272.287 443.521 280.449C440.837 285.148 443.271 290.797 447.937 292.479H449.351C449.807 292.402 450.274 292.349 450.76 292.348L499.954 292.229L499.831 241.052C498.585 234.974 492.727 231.788 487.812 234.612C479.662 239.295 472.664 242.768 461.445 237.734C451.815 233.413 446.978 218.911 453.347 208.013C461.202 194.574 475.56 196.184 487.189 203.388C492.17 206.474 498.428 203.603 499.727 198.294L499.653 167.432L499.604 146.918L499.602 146.197L446.991 146.324C442.687 144.42 440.542 139.032 443.104 134.517C447.743 126.342 451.786 118.293 446.804 109.18C440.742 98.0944 425.8 94.0214 414.937 100.449Z" fill="#587BC9"></path><path d="M357.18 162.53L355.018 166.511L353.975 160.751L351.253 160.093L348.034 169.185L351.416 173.143L351.378 173.212L360.915 182.742L370.679 178.979L372.457 168.185L365.007 161.185L357.18 162.53Z" fill="#F9CBB7"></path><path d="M349.239 161.774C349.239 161.774 340.455 169.939 343.111 179.246C345.767 188.553 356.736 190.516 360.307 188.954C363.878 187.392 369.057 182.333 369.057 182.333L349.239 161.774Z" fill="#7DB5DB"></path><path d="M504.779 233.267L498.893 246.881L492.882 244.76L494.818 234.594L491.479 234.89L497.953 223.819L504.521 225.194L504.779 233.267Z" fill="#F9CBB7"></path><path d="M461.972 101.368C461.402 102.408 460.96 103.597 460.676 104.934C459.496 110.48 461.088 116.275 463.897 121.166C468.344 128.909 475.376 135.295 480.711 142.481C486.813 150.7 492.915 158.92 499.017 167.139L494.49 226.867L507.672 228.939L527.366 157.535C518.708 147.018 510.205 136.773 502.303 125.793C495.219 115.95 489.72 103.893 478.487 97.8474C472.142 94.4334 465.107 95.6524 461.972 101.368Z" fill="#7DB5DB"></path><path d="M872.15 415.148L873.162 430.974L876.179 469.171L881.774 608.964L881.875 608.967L881.954 606.946L899.647 607.536L932.735 452.562L948.166 333.834C924.157 343.542 882.269 351.236 863.276 352.537L872.15 415.148Z" fill="#305399"></path><path d="M900.867 607.576L899.647 607.536L881.954 606.946L881.875 608.967L881.595 616.127L900.15 625.939L909.965 617.073L900.867 607.576Z" fill="#678FE5"></path><path d="M875.003 402.387L863.362 450.537L857.11 590.302L857.009 590.305L856.939 588.284L839.244 588.791L811.671 440.326L806.103 352.404C825.279 355.562 859.512 351.183 878.498 352.574L875.003 402.387Z" fill="#305399"></path><path d="M838.024 588.825L839.245 588.79L856.94 588.283L857.01 590.305L857.256 597.466L838.656 607.191L828.882 598.279L838.024 588.825Z" fill="#678FE5"></path><path d="M889.584 43.1084C892.807 48.1114 894.573 53.9904 895.196 59.9294C895.362 61.5084 895.581 63.3304 896.896 64.1894C898.305 65.1094 897.255 67.3754 898.198 65.9754C899.141 64.5754 902.336 59.7194 902.389 58.0214C902.513 54.0424 902.262 50.0504 901.642 46.1174C901.102 42.6964 900.191 39.1434 897.815 36.6524C896.407 35.1754 894.588 34.1874 892.797 33.2294C890.201 31.8414 887.527 30.4454 884.62 30.0724C879.609 29.4294 876.682 31.4174 881.268 34.6684C884.554 36.9974 887.376 39.6814 889.584 43.1084Z" fill="#3B455A"></path><path d="M862.95 112.513C869.804 112.754 876.658 112.996 883.512 113.237C884.181 107.191 884.417 101.075 884.214 94.9674C890.085 93.5784 896.946 91.2114 898.587 84.7684C899.104 82.7394 898.993 80.5724 898.879 78.4534C898.405 69.6924 897.931 60.9314 897.456 52.1694C897.292 49.1394 897.107 46.0174 895.915 43.2674C893.822 38.4424 889.094 35.7734 884.52 34.1894C872.848 30.1474 859.594 31.1264 849.5 38.4674C846.814 40.4214 844.316 42.8764 842.897 46.0924C840.709 51.0504 841.386 56.9714 842.112 62.4994C842.782 67.6024 843.453 72.7044 844.123 77.8074C844.894 83.6764 846.181 90.4074 850.873 93.2524C853.364 94.7624 856.471 94.8814 858.662 96.8974C862.526 100.453 861.279 107.262 862.95 112.513Z" fill="#F9CBB7"></path><path d="M900.754 74.8374C900.558 73.2194 899.569 68.5024 897.35 71.6364C896.77 72.4554 896.683 73.5704 896.708 74.6144C896.733 75.6584 896.846 76.7274 896.583 77.7264C895.98 80.0214 893.594 81.1914 891.409 81.2814C890.54 81.3174 889.647 81.2254 888.852 80.8264C888.081 80.4394 887.448 79.7894 886.829 79.1514C885.328 77.6014 883.828 76.0504 882.327 74.5004C879.748 71.8354 875.048 73.3344 871.83 73.9584C868.123 74.6774 864.453 76.0474 861.552 78.7304C861.26 79.0014 860.975 79.2844 860.689 79.5664C859.992 80.2564 859.291 80.9404 858.462 81.4144C855.663 83.0154 851.996 81.7374 849.809 79.1844C848.806 78.0144 847.844 76.4894 846.392 76.3704C845.256 76.2774 844.209 77.1644 843.696 78.2704C843.184 79.3774 843.107 80.6644 843.105 81.9114C843.098 86.4514 843.997 91.0804 846.171 94.9774C850.887 103.428 859.037 104.014 867.15 103.335C870.357 103.066 873.564 102.798 876.771 102.529C882.634 102.038 888.825 101.42 893.558 97.6554C897.733 94.3334 900.007 88.9734 900.736 83.4594C901.114 80.6114 901.1 77.6974 900.754 74.8374ZM880.028 88.4494C877.065 90.7474 873.665 91.0644 870.153 90.2154C868.661 89.8544 869.129 87.3174 870.624 87.6794C873.534 88.3834 876.228 88.1994 878.695 86.2864C879.936 85.3234 881.262 87.4924 880.028 88.4494Z" fill="#3B455A"></path><path d="M899.069 27.3104C899.506 25.1544 899.792 22.9664 899.925 20.7684C897.981 21.5954 895.829 21.9134 893.73 21.6824C893.648 20.4234 893.566 19.1644 893.484 17.9054C893.411 16.8584 879.431 16.9564 878.293 16.9294C867.639 16.6774 857.893 16.4144 848.662 22.7704C840.777 28.1994 835.981 35.8914 835.314 45.5704C834.677 54.8174 838.365 66.6244 844.051 73.9294C843.871 71.4884 842.135 65.8094 842.559 63.4534C842.764 61.1064 843.416 58.8154 844.38 56.6804C846.304 52.4154 849.464 48.7344 853.209 46.0184C859.179 41.6894 866.274 39.1654 873.426 37.7134C879.979 36.3834 887.981 35.0394 894.62 36.4304C897.811 37.0994 898.381 37.8684 900.085 34.5344C900.385 33.9464 902.636 27.1554 902.376 27.1674C901.273 27.2134 900.171 27.2624 899.069 27.3104Z" fill="#3B455A"></path><path d="M844.218 108.317L897.505 111.094L930.207 124.6L957.992 364.699C957.992 364.699 816.681 369.171 792.192 362.988L822.25 126.13L844.218 108.317Z" fill="#7DB5DB"></path><path d="M887.31 159.195C883.011 157.28 880.878 151.888 883.451 147.378C888.11 139.214 892.172 131.175 887.212 122.05C881.179 110.952 866.246 106.842 855.368 113.244C841.952 121.139 843.606 135.492 850.845 147.1C853.666 151.624 851.563 157.231 847.164 159.194H793.888V159.915V178.857V211.844C792.203 216.669 786.297 219.122 781.56 216.172C769.948 208.94 755.594 207.295 747.707 220.715C741.312 231.597 745.43 246.528 756.532 252.554C765.659 257.509 773.696 253.442 781.857 248.778C786.555 246.093 792.205 248.525 793.888 253.192V305.227H843.735C850.313 305.227 854.327 312.46 850.845 318.042C843.606 329.65 841.952 344.003 855.368 351.898C866.246 358.3 881.179 354.191 887.212 343.092C892.172 333.968 888.11 325.929 883.451 317.764C880.263 312.177 884.294 305.226 890.727 305.226H939.921V254.051C938.566 248.946 932.589 246.151 927.667 248.963C919.506 253.626 911.469 257.693 902.342 252.739C891.24 246.712 887.122 231.782 893.517 220.9C901.404 207.479 915.758 209.125 927.37 216.357C932.343 219.454 938.609 216.599 939.921 211.293V180.431V159.917V159.196L887.31 159.195Z" fill="#3B455A"></path><path d="M940.03 289.476L932.652 298.955L924.372 298.159L926.334 288.765L922.155 289.563L920.847 287.169L932.38 275.487L940.156 278.872L940.03 289.476Z" fill="#F9CBB7"></path><path d="M916.881 128.691C916.058 129.751 915.348 131.007 914.78 132.465C912.425 138.512 913.047 145.43 915.171 151.578C918.534 161.313 924.982 170.055 929.422 179.345C934.501 189.971 939.579 200.598 944.658 211.224L928.22 278.081L942.21 283.229L977.451 206.33C970.024 192.553 962.715 179.118 956.202 164.975C950.364 152.297 946.682 137.441 935.584 128.195C929.318 122.974 921.403 122.866 916.881 128.691Z" fill="#7DB5DB"></path><path d="M795.62 194.586L791.574 196.624L794.001 191.297L792.14 189.204L784.311 194.838L784.833 200.018L784.763 200.054L787.165 213.32L797.332 215.795L804.946 207.941L802.817 197.943L795.62 194.586Z" fill="#F9CBB7"></path><path d="M789.528 189.437C789.528 189.437 777.656 191.137 774.532 200.297C771.408 209.458 779.301 217.324 783.125 218.077C786.949 218.83 794.089 217.626 794.089 217.626L789.528 189.437Z" fill="#7DB5DB"></path></svg>