<svg xmlns="http://www.w3.org/2000/svg" width="705" height="1056" viewBox="0 0 705 1056" fill="none"><path opacity="0.5" d="M684.6 1000.3C684.5 995.6 683.3 991 680.9 986.8C672.8 972.2 654.3 967.4 637.7 965C524.5 948.6 405 988.1 294.8 1011.7C257.5 1019.6 219.4 1027.6 181.6 1022.4C146.2 1017.4 108.1 1022.7 72.6 1026.9C68.1 1027.5 62.3 1029.9 62.6 1035.7C62.8 1041 68.1 1043 72.2 1043.5C132.3 1049.6 183.9 1043.2 240.1 1039.8C302.4 1035.9 364.7 1033.7 427.3 1037.9C488.1 1042 622.4 1078.6 671.1 1031.9C679.6 1023.8 685.1 1011.8 684.6 1000.3Z" fill="#23364D"></path><path d="M413.1 441.5C411.8 439.9 415.2 330.6 415.2 330.6L520.2 240.3L511.9 367.4L413.1 441.5Z" fill="#3B455A"></path><path d="M445.2 399.8C467.2 382.8 523.6 342.4 557.6 339.7C549.9 373 501.5 422.7 481.5 441.9C474.4 448.7 466.9 454.5 459.3 459.1L396.3 497.6C386.1 498.2 375.3 485.7 377.4 475.6L424.9 419.1C430.6 412.3 437.4 405.7 445.2 399.8Z" fill="#305399"></path><path d="M401.9 478.8C404.9 482 408.1 485.4 411.7 488.3L396.5 497.5C386.3 498.1 375.5 485.6 377.6 475.5L389.4 461.4C392.4 467.9 397.1 473.6 401.9 478.8Z" fill="#BCBEC0"></path><path opacity="0.1" d="M516 303.9L414 372.2L413.4 395.3L515.5 311.5L516 303.9Z" fill="black"></path><path d="M231.4 230.2C232.7 231.7 341.3 244.7 341.3 244.7L446.2 154.4L319.3 143.6L231.4 230.2Z" fill="#3B455A"></path><path d="M277.4 204.7C297.4 185.5 345.8 135.8 353.6 102.5C319.5 105.2 263.1 145.6 241.1 162.5C233.4 168.5 226.5 175.1 220.8 181.9L173.3 238.4C171.2 248.4 182 261 192.3 260.4L255.2 221.9C262.8 217.3 270.3 211.5 277.4 204.7Z" fill="#305399"></path><path d="M192.8 235.7C190 232.3 187.2 228.6 184.9 224.6L173.4 238.2C171.4 248.3 182.1 260.8 192.4 260.2L208.1 250.6C202.2 246.8 197.2 241.2 192.8 235.7Z" fill="#BCBEC0"></path><path opacity="0.1" d="M382.8 149L300 239.6L277 236.8L375.1 148.3L382.8 149Z" fill="black"></path><path d="M262.9 317L322.2 385.9L338.9 371.5L279.6 302.6L262.9 317Z" fill="#242A35"></path><path d="M241.9 323.8L313.1 406.6L325.6 387.2L263 314.4L241.9 323.8Z" fill="#BCBEC0"></path><path d="M457.9 71.4C509 37.1 567.9 14.2 628.4 3.60002C651.5 -0.399984 683.1 -1.59998 704.1 2.90002C705.4 24.3 699.5 55.4 692.1 77.6C672.6 135.9 641.1 190.7 599.6 236.1C555.5 284.4 498.5 315.3 446 353.2C420.267 371.8 394.5 390.433 368.7 409.1L310.5 341.5L252.4 273.9C274.667 251.167 296.933 228.433 319.2 205.7C364.5 159.5 403.6 107.8 457.9 71.4Z" fill="#587BC9"></path><path d="M232 321.9L312.7 415.8C313.5 416.7 315 416.8 315.9 416L318.4 413.9C319.3 413.1 319.5 411.6 318.6 410.7L237.9 316.8C237.1 315.9 235.6 315.8 234.7 316.6L232.2 318.7C231.3 319.5 231.2 321 232 321.9Z" fill="#3B455A"></path><path d="M337.5 372.8L278.2 303.8L267 313.4L334.4 375.5L337.5 372.8Z" fill="#3B455A"></path><path d="M369.1 409.6L252.8 274.4L285.8 240.6L405.5 382L369.1 409.6Z" fill="#BCBEC0"></path><path d="M192.2 366.5C196.7 363.7 201.4 361.4 206.4 359.8C222.1 354.9 239.5 356.4 251.8 366.2C252 366.333 252.233 366.5 252.5 366.7C263.1 374.6 271 385.2 275.3 397.5C276.2 400 277 402.6 277.4 405.3C278.3 410 278.7 414.8 278.6 419.7C278.4 425.1 277.5 430.5 275.2 435.6C273 440.6 269.5 445.1 265.8 449.2C252.8 463.5 236.2 473.3 219.8 480.9C211.7 484.7 203.5 487.9 195.4 491C191.4 492.5 187.3 493.9 183.4 495.5C181.9 496.2 174.3 498.7 174 499.8C174 499.8 175.9 492.4 177.7 477.1C161.7 484.4 146.9 490.6 127.6 496C127.6 496 140.5 470.2 152.6 451.4C142.8 452.8 127.4 457.6 116 461.9C117.1 461.5 118.9 457.6 119.5 456.6C129.4 442 139.9 427 151.2 411.7C162.7 396.1 174.5 377.9 192.2 366.5Z" fill="#587BC9"></path><path d="M208.3 382.3C210.9 380.7 213.5 379.4 216.4 378.5C225.3 375.8 235.2 376.7 242.1 382.2C242.233 382.333 242.367 382.433 242.5 382.5C248.5 387 253.1 393 255.5 400C256.033 401.4 256.433 402.867 256.7 404.4C257.233 407.067 257.467 409.8 257.4 412.6C257.3 415.7 256.8 418.7 255.5 421.6C254.2 424.5 252.3 427 250.2 429.4C242.8 437.5 233.4 443.2 224 447.5C219.4 449.7 214.7 451.6 210.1 453.4C207.8 454.2 205.5 455 203.2 456C202.4 456.3 198 457.8 197.8 458.4C197.8 458.4 198.9 454.2 200 445.4C190.8 449.6 182.3 453.2 171.1 456.3C171.1 456.3 178.6 441.5 185.6 430.7C180.9 431.4 173.9 433.4 167.9 435.5C166.8 435.9 165.9 434.7 166.5 433.7C172.3 425.3 178.3 416.7 184.8 408C191.4 399.1 198.2 388.7 208.3 382.3Z" fill="#7DB5DB"></path><path d="M411.7 488.3C411.7 488.3 391.9 470.9 389.4 461.4L395.4 454.1C395.4 454.1 407.5 473 420.3 483L411.7 488.3Z" fill="#7DB5DB"></path><path d="M481.7 103.4C454.4 126.9 451.3 168.2 474.8 195.5C498.3 222.8 539.5 225.9 566.9 202.4C594.2 178.9 597.3 137.7 573.8 110.3C550.3 83 509 79.9 481.7 103.4Z" fill="#7DB5DB"></path><path d="M590 152.7C588.9 139.5 583.7 126.5 574.4 115.6C550.9 88.3 509.7 85.2 482.3 108.7C467 121.9 459.3 140.8 459.7 159.6L590 152.7Z" fill="#D7E8F4"></path><path fill-rule="evenodd" clip-rule="evenodd" d="M478.8 100.1C508 75 552.1 78.3 577.1 107.5C602.2 136.6 598.9 180.7 569.7 205.8C540.6 230.8 496.5 227.5 471.4 198.4C446.4 169.2 449.7 125.1 478.8 100.1ZM484.6 106.8C459.1 128.7 456.2 167.2 478.1 192.6C500 218.1 538.5 221 564 199.1C589.4 177.2 592.3 138.7 570.4 113.2C548.5 87.8 510 84.9 484.6 106.8Z" fill="#3B455A"></path><path d="M204.9 253.4C204.9 253.4 185.1 236 182.7 226.5L188.6 219.2C188.6 219.2 200.7 238.1 213.5 248.1L204.9 253.4Z" fill="#7DB5DB"></path><path d="M33.8 810.2C33.7333 814.333 33.6333 818.433 33.5 822.5C47.5 824.6 61.8 825.5 76.2 825.2C73.8 819.5 76.1 811.6 66.3 810.5C63.2 810.1 33.8 811 33.8 810.2Z" fill="#E5D1BD"></path><path d="M34.2001 828C32.9001 829.6 30.9001 830.7 28.5001 830.9C27.1001 831.1 25.6001 830.9 24.4001 831.3C23.1001 831.7 22.2001 832.5 21.4001 833.3C16.8001 837.6 5.50006 851.8 1.00006 836C-3.19994 821.7 16.4001 808.2 26.0001 801.2C26.6001 800.8 27.3001 800.3 28.2001 800.3C29.1001 800.2 30.1001 800.7 31.0001 801.1C36.1001 803.7 43.8001 807.4 40.7001 813C39.4001 815.4 36.4001 816.7 35.2001 819.3C34.2001 821.5 35.3001 826.5 34.2001 828Z" fill="#587BC9"></path><path d="M225.9 708.6C209.6 724.7 202.8 745.7 188.2 763.2C159.9 797 52.3003 804.5 52.3003 804.5C52.3003 804.5 54.6003 828.4 56.4003 830.9C82.1003 836.4 167.5 844.5 205.4 820.6C242.3 797.2 278.2 772.1 313 745.5C319.3 740.7 326.3 734.8 327.2 727.3C327.9 721.6 324.7 716.6 321.5 712.2C313 700.4 298.5 677.7 281.6 676.9C263 676.1 238.5 696.3 225.9 708.6Z" fill="#305399"></path><path d="M127.7 950.4C129.767 953.933 131.834 957.5 133.9 961.1C146.9 955.6 159.6 948.8 171.7 941C166.6 937.5 164.5 929.5 155.6 933.7C152.7 935 128.1 951.1 127.7 950.4Z" fill="#E5D1BD"></path><path d="M137.5 966.9C137.1 969 135.7 970.8 133.7 972.1C132.5 972.8 131.1 973.3 130.1 974.1C129.1 975 128.7 976.1 128.3 977.3C126 983.1 121.8 1000.7 111 988.5C101.1 977.3 113 956.7 118.7 946.3C119 945.6 119.4 944.9 120.2 944.5C121 944 122.1 944 123.1 944C128.8 944.2 137.4 944.2 137 950.6C136.9 953.3 134.7 955.8 134.7 958.7C134.7 961.1 137.9 965.1 137.5 966.9Z" fill="#587BC9"></path><path d="M238.2 754.7C232.8 778.1 238.5 800.4 235.5 824.1C229.5 869.8 138.8 936.8 138.8 936.8C138.8 936.8 154.2 956.7 157.3 957.8C183.1 948.3 263 907.4 282.9 865C302.3 823.7 320 781.4 335.7 738.4C338.6 730.5 341.4 721.4 338 714.4C335.4 708.9 329.8 706.2 324.5 704.1C310.3 698.5 284.8 686.7 269.4 695.5C252.6 705.2 242.3 736.8 238.2 754.7Z" fill="#305399"></path><path d="M349.2 545.1C342.667 544.9 336.167 544.667 329.7 544.4C329.3 539.2 329.3 534 329.8 528.9C324.3 527.3 317.9 524.8 316.6 519.3C316.2 517.5 316.4 515.7 316.6 513.9C317.4 506.5 318.2 499.1 319 491.7C319.3 489.1 319.6 486.5 320.9 484.2C323.1 480.3 327.6 478.3 332 477.3C343.3 474.6 355.8 476.3 365 483.2C367.5 485 369.7 487.3 370.9 490.1C372.8 494.5 371.9 499.4 371 504.1C370.133 508.367 369.267 512.633 368.4 516.9C367.5 521.9 366 527.5 361.4 529.6C359 530.7 356 530.6 353.9 532.2C350.1 534.9 351 540.8 349.2 545.1Z" fill="#EACDB0"></path><path d="M410.1 468.1C411.1 466.2 412.2 464.4 413.5 462.6C416.1 458.9 419.5 455.6 421.6 451.4C423.7 447.3 424.2 441.9 421.2 438.4C419.2 436.1 416.2 435.1 413.3 434.5C403.7 432.3 393.6 432.7 384.2 435.7C375.3 438.6 367.4 442.9 358.1 440C349.3 437.4 343.2 439.1 334.4 442.8C325 446.9 312 448.5 303.5 453.9C300 456.2 297.3 459.5 295.2 463.2C288.1 475.8 289.1 492.7 297.6 504.4C299.6 507 301.8 509.4 304.2 511.7C309 516.4 314.9 522.2 321.3 523.6C321.1 518 314.9 500.5 318.9 495.7C325.3 487.9 341 489.5 349.6 490.8C359 492.2 367.7 498.3 377 499.1C383.6 499.7 391.9 495.9 397.3 492.2C404 487.5 406.5 475 410.1 468.1Z" fill="#3B455A"></path><path d="M312.1 541.8C273.9 556.3 255.7 613.6 237 646.7C224.2 669.3 207 694.8 181 695.6C164.2 696.1 149.2 685.7 136 675.3C139.6 695.8 145.2 719.1 163.8 728.5C177.5 735.5 194.2 732.4 208.7 737.5C224.4 742.9 237 757.5 253.5 757.7C266.1 757.9 277.2 749.5 289.7 747.6C308.9 744.7 326.6 757.2 342.8 767.9C347.5 771.1 353 774.2 358.5 772.9C365.5 771.2 368.9 763.2 370.3 756.1C376.7 723.6 364.9 691.6 362.2 659.5C359.7 630.6 375.1 605.6 372 576.3C369.9 555.7 354.5 540.4 333.8 538.6C326.1 538 318.8 539.2 312.1 541.8Z" fill="#7DB5DB"></path><path d="M425.9 417.2C422.967 420.2 420.033 423.167 417.1 426.1C416.2 427.1 413.2 429.1 414.4 430.7C415 431.5 416.8 434.4 418.8 437.1C419.6 439.8 420.5 442.5 421.1 445.3C422.6 452.4 418.1 468.9 426.9 471.6C428.5 472.1 430.3 472.7 432 472.5C433.4 472.4 434.7 471.8 436 471.2C437 470.7 438.7 470.2 439.1 469.1C439.4 468 438.5 465 438.3 463.7C437.767 460.1 437.267 456.467 436.8 452.8C436.2 449.3 436 445 438.4 442.8C439 442.3 439.6 442 440.1 441.4C440.6 440.8 440.9 439.9 441.1 439.1C442 436 442.6 432.8 442.8 429.6C442.9 426.6 441.1 425.3 439.4 423.2C437.4 420.8 437.2 417.6 435.3 415.2C434.2 413.8 432.6 412.8 431 413.1C429.7 413.3 428.6 414.3 427.7 415.3C427.1 415.9 426.5 416.533 425.9 417.2Z" fill="#EACDB0"></path><path d="M441.7 548.4C445.4 541.6 447.5 534.2 448.3 525.1C450.4 502.6 449.2 479.6 444.9 457.2C435.3 455.8 425.4 456.4 416.1 459.1C415.8 477.7 414.1 496.3 411.1 514.5C409.6 523.4 406.9 530.9 399.1 535C381.8 543.9 363.7 551.4 345.2 557.3C341.1 558.7 336.9 559.9 333.5 562.7C327.2 567.7 324.6 577.1 326 585.7C327.4 594.3 332.3 602.1 338.6 607.7C343 611.7 348.4 614.9 354.1 615.2C359.9 615.5 365.4 612.7 370.6 609.8C393.4 596.9 414.5 580.3 432.8 560.6C436.5 556.7 439.4 552.7 441.7 548.4Z" fill="#7DB5DB"></path></svg>