<svg xmlns="http://www.w3.org/2000/svg" width="2140" height="1403" viewBox="0 0 2140 1403" fill="none"><path d="M2108.72 1372.58C2054.92 1383.53 1994.89 1384.91 1938.23 1389.18C1872.18 1394.15 1806.06 1396.03 1740.14 1397.63C1604.19 1400.93 1468.5 1400.78 1332.09 1401.44C1140.32 1402.43 948.545 1402.69 756.808 1398.71C648.563 1396.47 541.305 1398.74 433.126 1394.38C319.101 1389.78 209.755 1391.91 97.0807 1392.09C83.0644 1392.11 56.567 1397.73 49.7985 1381.38C46.0682 1372.37 49.7428 1361.28 57.3286 1355.16C71.818 1343.45 94.6866 1350.05 111.813 1349.63C122.842 1349.35 144.468 1347.07 136.672 1330.75C135.061 1327.37 132.204 1324.76 129.154 1322.6C118.028 1314.73 107.335 1317.92 95.9811 1313.74C80.8891 1308.18 94.8636 1297.31 103.275 1294.6C118.007 1289.85 130.382 1288.66 145.997 1288.87C184.282 1289.37 222.573 1288.3 260.817 1286.63C338.339 1283.23 415.756 1277.21 493.365 1275.98C637.464 1273.71 782.882 1271.09 926.086 1269.27C1209.17 1265.67 1489.6 1266.23 1772.36 1267.4C1849.77 1267.72 1925.48 1267.84 2002.62 1270.3C2017.36 1270.77 2032.24 1271.65 2044.81 1275.16C2057.38 1278.67 2066.25 1286.46 2060.92 1292.75C2051.39 1303.99 2011.68 1308.76 2018.14 1321.9C2020.44 1326.58 2031.4 1327.81 2039.84 1329.35C2060.34 1333.1 2083.32 1336.17 2103.87 1339.84C2119.49 1342.64 2138.65 1346.08 2139.93 1355.08C2141.21 1364.08 2124.56 1369.35 2108.72 1372.58Z" fill="#D7E8F4"></path><path d="M1110.12 616.07C1116.04 614.963 1120.79 613.271 1125.63 608.705C1127.6 606.846 1141.02 592.732 1142.9 601.265C1143.16 602.426 1142.64 603.589 1142.13 604.643C1140.56 607.904 1138.54 611.209 1137.95 614.708C1137.46 617.548 1159.72 610.415 1161.2 609.688C1169.72 605.506 1171.59 602.565 1180.87 608.051C1181.69 608.536 1182.55 609.055 1183.02 609.882C1183.45 610.636 1183.51 611.543 1183.55 612.412C1183.76 617.745 1183.61 623.093 1183.09 628.406C1182.94 629.939 1182.74 631.526 1181.94 632.84C1180.92 634.507 1179.1 635.481 1177.34 636.32C1145.77 651.352 1111.27 648.98 1077.44 648.217C1070.69 648.064 1063.75 648.394 1057.01 647.769C1055.13 647.594 1047.19 647.74 1046.2 646.729C1045.64 646.163 1045.47 645.318 1045.33 644.526C1043.6 635.052 1041.88 625.577 1040.15 616.102C1061.89 618.029 1083.94 619.976 1105.58 616.812C1107.17 616.575 1108.68 616.341 1110.12 616.07Z" fill="#F9CBB7"></path><path d="M1191.73 692.874C1191.9 693.31 1192.06 693.761 1192.09 694.208C1192.34 698.374 1189.92 700.695 1189.01 704.757C1188.6 706.568 1192.02 709.965 1188.31 711.317C1186.95 711.816 1183.41 712.575 1180.49 713.613C1176.22 715.124 1171.74 719.569 1168.85 723.738C1157.5 740.125 1151.02 759.084 1145.21 778.035C1144.88 779.115 1144.55 780.249 1144.76 781.356C1145.39 784.575 1150.5 788.218 1152.72 790.411C1156.61 794.243 1160.21 798.337 1163.63 802.572C1170.49 811.089 1176.54 820.195 1182.58 829.282C1184.48 832.154 1186.43 835.12 1187.08 838.487C1188.9 847.983 1177.25 854.589 1168.91 854.472C1153.06 854.251 1144.37 833.222 1137 822.043C1130.02 811.466 1123.8 800.413 1118.41 788.986C1117.74 787.574 1117.07 786.11 1117.03 784.557C1116.98 782.901 1117.63 781.314 1118.28 779.785C1126.66 760.098 1136.76 741.246 1147.3 722.499C1150.2 717.347 1155.49 714.343 1158.13 709.555C1159.81 706.501 1158.89 702.918 1159.82 699.69C1160.75 696.497 1162.79 692.538 1164.85 689.908C1168.92 684.72 1175.82 684.863 1181.85 684.408C1183.36 684.294 1184.37 684.213 1185.67 684.764C1187.78 685.66 1188.86 687.567 1190.01 689.42C1190.69 690.518 1191.29 691.675 1191.73 692.874Z" fill="#F9CBB7"></path><path d="M1210.95 874.91C1211.25 873.546 1211.46 872.143 1211.53 870.673C1211.8 865.104 1210.5 859.638 1208.13 854.591C1202.94 843.545 1194.93 833.953 1189.66 822.942C1189.49 822.586 1189.31 822.208 1188.97 821.995C1188.6 821.762 1188.12 821.78 1187.68 821.846C1184.28 822.345 1181.66 825.002 1179.68 827.75C1177.69 830.496 1176 833.554 1173.27 835.598C1166.9 840.366 1157.8 837.91 1149.89 839.223C1145.48 839.956 1141.29 841.963 1137.99 844.927C1136.92 845.886 1135.92 846.991 1135.5 848.349C1134.27 852.36 1135.74 855.86 1131.38 858.53C1130.29 859.2 1129.03 859.634 1128.09 860.498C1117.27 870.464 1132.75 876.947 1138.1 882.462C1148.55 893.243 1154.34 905.472 1169.49 910.304C1173.6 911.612 1177.98 913.571 1179.76 917.494C1180.95 920.103 1181.36 923.837 1184.16 924.404C1186.14 924.801 1187.9 923.185 1189.22 921.662C1198.32 911.167 1203.99 899.38 1207.54 886.179C1208.59 882.275 1210.12 878.742 1210.95 874.91Z" fill="#739AF0"></path><path d="M1300.03 1159.13L1298.41 1201.16L1292.72 1316.48L1271.79 1314.4L1260.48 1204.53L1248.88 1160.64L1300.03 1159.13Z" fill="#BCBEC0"></path><path d="M1295.69 1313.11C1294.79 1323.59 1298.17 1336.72 1300.24 1347.07C1300.76 1349.65 1301.03 1352.44 1299.86 1354.81C1298 1358.54 1292.22 1359.88 1288.49 1358.39C1284.01 1356.6 1283.33 1352.46 1282.27 1348.33C1280.94 1343.16 1278.7 1338.6 1274.48 1335.57C1270.48 1332.69 1267.57 1331.79 1269.02 1325.72C1269.72 1322.78 1271.23 1320.03 1271.22 1316.97C1271.21 1314.96 1270.08 1313.23 1270.33 1311.13C1278.71 1309.9 1287.57 1310.05 1296.06 1309.59C1295.95 1310.62 1295.79 1311.83 1295.69 1313.11Z" fill="#363535"></path><path d="M1195.13 1154.98L1197.1 1201.52L1215.7 1316.25L1236.37 1312.45L1239.86 1203.2L1245.71 1157.35L1195.13 1154.98Z" fill="#BCBEC0"></path><path d="M1213.34 1313.66C1214.08 1320.55 1214.58 1335.57 1214.66 1337.27C1214.76 1339.37 1214.71 1341.81 1213.01 1343.09C1211.6 1344.16 1209.52 1344.01 1208.06 1345.01C1207.09 1345.68 1206.5 1346.79 1206.29 1347.94C1205.5 1352.21 1209.73 1356.16 1214.16 1356.69C1218.59 1357.22 1222.92 1355.27 1226.74 1353.01C1228.71 1351.84 1230.65 1350.56 1232.23 1348.92C1234.53 1346.53 1235.97 1343.49 1237.37 1340.52C1238.9 1337.26 1240.43 1334.01 1241.96 1330.76C1242.8 1328.97 1243.67 1327.02 1243.27 1325.08C1243.09 1324.25 1235.58 1307.93 1238.45 1307.64C1229.84 1308.5 1221.23 1309.36 1212.61 1310.23C1212.88 1310.2 1213.12 1311.55 1213.34 1313.66Z" fill="#363535"></path><path d="M1284.02 866.307C1287.12 869.208 1287.98 873.652 1288.86 877.591C1290.01 882.721 1291.2 887.845 1292.42 892.961C1294.82 903.024 1297.37 913.056 1300.06 923.052C1305.28 942.393 1311.04 961.595 1317.4 980.608C1329.32 1016.2 1343.33 1051.16 1359.82 1084.99C1364.72 1095.05 1369.84 1105 1375.19 1114.84C1377.86 1119.74 1380.57 1124.6 1383.35 1129.44C1384.19 1130.9 1390.3 1143.32 1391.47 1143.22C1380.56 1144.21 1373.13 1155.7 1364.95 1163.69C1357.18 1171.27 1347.43 1176.36 1337.5 1179.71C1294.8 1194.14 1249.98 1177.96 1206.47 1184.58C1195.78 1186.21 1185.2 1189.22 1174.47 1189.04C1152.91 1188.67 1132.19 1181.24 1112.32 1174.14C1111.01 1173.67 1093.63 1168.32 1094.18 1166.97C1109.02 1130.13 1123.86 1093.28 1138.7 1056.44C1146.75 1036.45 1154.81 1016.43 1161.08 995.893C1168.19 972.605 1172.96 948.766 1177.1 924.881C1179.15 913.026 1180.23 900.955 1183.63 889.358C1185.35 883.496 1187.68 877.794 1190.88 872.544C1193.74 867.873 1196.91 861.68 1202.05 859.146C1204.91 857.735 1208.08 857.037 1211.17 856.178C1223.25 852.819 1235.19 846.792 1247.67 848.33C1258.58 849.676 1267.75 856.585 1277.28 861.924C1279.6 863.221 1281.99 864.453 1283.94 866.233C1283.96 866.255 1283.99 866.281 1284.02 866.307Z" fill="#739AF0"></path><path d="M1287.24 662.153C1287.01 662.563 1286.78 662.947 1286.76 663.4C1286.57 667.636 1288.21 670.127 1288.67 674.68C1288.88 676.711 1285.27 678.912 1289.29 681.145C1290.78 681.968 1294.04 682.92 1296.53 684.632C1300.16 687.13 1303.75 691.572 1305.86 696.183C1310.77 706.906 1315.35 717.779 1319.68 728.751C1325.82 744.322 1330.62 753.954 1321.34 769.082C1317.22 775.798 1313.57 782.71 1310.64 789.477C1304.74 803.079 1299.64 817.366 1295.05 830.82C1293.6 835.071 1291.78 838.596 1292.53 842.193C1294.59 852.121 1301.82 855.046 1310.9 854.388C1320.87 853.666 1325.97 848.739 1330.38 839.7C1339.47 821.047 1343.69 800.52 1346.41 780.08C1348.98 760.76 1351.77 743.326 1341.87 725.349C1336.58 715.731 1331.4 706.045 1326.64 696.147C1324.22 691.115 1320.24 687.774 1318.23 682.668C1316.95 679.409 1318.55 676.102 1317.97 672.708C1317.39 669.314 1316.57 665.44 1314.48 662.635C1310.36 657.101 1304.43 656.312 1298.19 655.031C1296.64 654.713 1295.6 654.534 1294.23 654.953C1292 655.635 1290.78 657.254 1289.35 658.934C1288.5 659.926 1287.86 661.022 1287.24 662.153Z" fill="#F9CBB7"></path><path d="M1263.56 876.415C1262.36 869.583 1262.68 862.689 1265.34 855.992C1269.82 844.734 1277.08 834.804 1281.63 823.576C1281.78 823.212 1281.94 822.828 1282.26 822.601C1282.6 822.353 1283.06 822.351 1283.49 822.396C1286.78 822.748 1289.42 825.288 1291.46 827.946C1293.5 830.603 1295.27 833.583 1297.98 835.506C1304.33 839.994 1312.97 837.144 1320.63 838.113C1324.91 838.654 1329.03 840.475 1332.35 843.293C1333.42 844.203 1334.44 845.263 1334.9 846.603C1336.27 850.556 1335.02 854.115 1339.33 856.595C1340.41 857.217 1341.64 857.595 1342.59 858.418C1353.46 867.905 1338.87 875.051 1333.98 880.794C1328.52 887.208 1325.01 895.494 1318.81 901.233C1312.5 907.07 1308.13 914.09 1303.22 921.405C1301.91 923.346 1300.5 925.38 1298.4 926.292C1295.93 927.366 1292.99 926.606 1290.77 925.038C1288.54 923.469 1286.88 921.194 1285.27 918.957C1276.81 907.186 1266.27 891.965 1263.56 876.415Z" fill="#739AF0"></path><path d="M1183.77 853.875C1186.06 850.369 1189.22 847.454 1191.16 843.746C1197.12 832.339 1189.71 818.42 1191.47 805.666C1192.36 799.17 1195.6 793.304 1199.04 787.677C1198.93 787.387 1198.81 787.102 1198.7 786.804C1195.22 776.47 1198.35 764.218 1206.37 756.829C1208.95 754.457 1211.94 752.584 1214.9 750.725C1220.51 747.211 1226.26 742.932 1232.56 740.775C1235.48 739.775 1238.63 739.506 1241.74 739.48C1248.79 739.421 1255.72 740.544 1262.65 741.232C1274.92 742.447 1286.09 750.293 1293.32 760.408C1295.51 763.468 1297.34 766.737 1298.73 770.092C1303.51 781.612 1303.66 794.973 1299.15 806.599C1296.5 813.445 1292.04 819.758 1290.4 826.98C1288.82 833.959 1287.26 840.093 1283.83 846.633C1280.73 852.545 1275.41 860.081 1268.61 857.848C1265.07 856.687 1263.28 853.356 1260 852.03C1255.99 850.407 1250.59 851.614 1246.41 851.741C1238.27 851.988 1229.96 850.254 1221.95 852.415C1215.86 854.062 1211.15 861.976 1214.89 868.076C1216.09 870.035 1218.15 871.305 1219.54 873.133C1222.44 876.934 1221.79 882.697 1218.78 886.415C1215.77 890.133 1210.91 891.977 1206.14 892.275C1196.99 892.844 1187.72 887.891 1183.11 879.973C1178.5 872.055 1178.77 861.546 1183.77 853.875Z" fill="#534741"></path><path d="M1202.21 791.292C1201.24 782.131 1203.04 773.339 1209.31 766.127C1211.3 763.836 1213.84 762.1 1216.51 760.677C1225.58 755.833 1236.38 754.429 1246.35 756.797C1260.36 760.126 1268.53 768.213 1272.25 779.813C1274.7 787.421 1277.18 794.941 1275.22 802.9C1273.29 810.747 1271.35 817.712 1269.88 825.576C1268.5 832.945 1264 838.268 1258.55 843.221C1253.05 848.216 1252.32 849.182 1252 857.082C1251.84 861.144 1250.88 865.688 1247.49 867.879C1245.71 869.034 1243.52 869.335 1241.41 869.49C1238.53 869.703 1235.63 869.703 1232.74 869.486C1230.53 869.319 1228.17 868.963 1226.5 867.478C1223.92 865.187 1223.92 861.186 1224.15 857.716C1224.79 848.206 1223.64 847.902 1216.08 844.08C1209.22 840.614 1202.22 833.054 1202.01 826.347C1201.89 822.5 1202.9 818.32 1204.29 813.558C1206.33 806.557 1203.52 800.462 1202.46 793.249C1202.36 792.596 1202.28 791.942 1202.21 791.292Z" fill="#F9CBB7"></path><path d="M1217.98 764.228C1213.68 765.691 1209.58 767.714 1206.74 771.169C1203.44 775.19 1202.34 780.606 1202.25 785.81C1202.21 788.256 1203.01 790.204 1205.45 790.801C1202.76 795.462 1195.97 792.018 1193.72 788.596C1190.39 783.521 1193.14 773.269 1195.16 767.976C1197.23 762.552 1200.55 757.696 1204.13 753.164C1208.71 747.364 1216.04 743.318 1223.99 741.93C1231.09 740.691 1239.08 744.356 1244.28 749.538C1245.85 751.099 1249.66 754.381 1248.98 756.954C1247.99 760.724 1241.66 758.732 1238.92 759.195C1233.21 760.158 1227.53 761.458 1221.95 763.017C1220.63 763.383 1219.29 763.779 1217.98 764.228Z" fill="#534741"></path><path d="M1248.79 776.186C1251.03 776.632 1253.23 777.256 1255.33 778.187C1260.82 780.619 1265.6 785.713 1265.71 791.712C1265.8 797.092 1263.34 800.676 1265.98 805.738C1268.09 809.79 1272.08 813.658 1272.04 818.507C1272.02 820.961 1270.88 823.248 1270.12 825.58C1269.3 828.098 1269.74 829.7 1270.07 832.144C1270.37 834.349 1269.91 836.469 1269.42 838.801C1268.37 843.873 1267.02 848.93 1264.67 853.573C1262.85 857.186 1260.44 860.501 1257.56 863.352C1255.57 865.324 1253.29 867.172 1252.22 869.76C1251.02 872.646 1251.55 875.996 1252.78 878.869C1255.44 885.079 1261.28 889.684 1267.81 891.42C1274.34 893.154 1281.45 892.16 1287.55 889.261C1300.91 882.91 1311.78 867.744 1296.46 857.279C1292.72 854.726 1288.16 852.058 1287.65 847.558C1286.84 840.366 1297.18 835.441 1296.18 828.273C1295.45 823.144 1289.57 820.846 1285.58 817.551C1268.63 803.581 1287.09 781.161 1281.31 764.487C1279.89 760.381 1277.02 756.951 1274.06 753.771C1268.76 748.086 1262.52 742.666 1254.35 743.304C1250.37 743.614 1246.45 744.489 1242.72 745.881C1239.59 747.048 1227.83 748.337 1226.12 750.816C1224.94 752.411 1219.11 753.031 1217.29 753.578C1215.76 754.038 1213.84 754.332 1212.43 755.109C1210.34 756.265 1209.29 758.231 1207.24 759.575C1209.59 765.081 1214.64 769.094 1220.18 771.374C1225.71 773.655 1231.75 774.395 1237.71 774.906C1241.41 775.22 1245.16 775.469 1248.79 776.186Z" fill="#534741"></path><path d="M1751.26 1170.88C1755.95 1197.64 1761.3 1224.12 1767.97 1249.86C1775.23 1249.06 1782.53 1249.26 1789.73 1247.54C1790.49 1247.36 1786.05 1196.57 1783.47 1167.14C1772.76 1168.69 1762.03 1169.97 1751.26 1170.88Z" fill="#E5D1BD"></path><path d="M1762.97 1236.61C1758.33 1236.73 1756.1 1239.26 1753.67 1242.6C1752.26 1244.53 1751.54 1247.02 1749.68 1248.58C1747.82 1250.14 1745.81 1250.78 1743.38 1251.53C1730.56 1255.52 1700.3 1261.14 1720.83 1279.74C1739.48 1296.64 1776.6 1280.81 1797.88 1270.84C1799.28 1270.19 1800.79 1269.65 1801.63 1268.29C1802.48 1266.93 1802.87 1265.16 1802.99 1263.38C1803.63 1253.51 1804.74 1241.12 1792.44 1239.55C1787.19 1238.88 1783.34 1243.05 1777.78 1242.31C1773.22 1241.71 1767.61 1236.49 1762.97 1236.61Z" fill="#4D4D4D"></path><path d="M1736.23 1224.2C1765.26 1217.68 1773.75 1222.5 1802.79 1215.98C1821.44 1211.42 1803.93 1092.98 1802.52 1076.48C1799.09 1036.43 1811.12 994.532 1818.04 954.607C1825.98 908.804 1833.92 863.001 1841.86 817.199C1844.29 803.202 1846.6 788.206 1840.73 775.267C1825.85 742.492 1756.81 724.48 1731.09 752.717C1723.7 760.831 1720.71 771.915 1717.96 782.541C1704.72 833.732 1691.42 885.224 1685.36 937.861C1682.33 964.219 1677.97 995.292 1682.87 1021.63C1686.65 1041.98 1696.31 1062.28 1701.21 1082.88C1712.45 1130.09 1725.2 1176.94 1736.23 1224.2Z" fill="#627277"></path><path d="M1916.9 1170.92C1918.17 1199.83 1920.42 1251.25 1919.66 1251.39C1912.49 1252.79 1905.31 1252.27 1898.13 1252.75C1892.47 1226.22 1888.24 1198.97 1884.7 1171.47C1895.43 1171.24 1906.17 1171.05 1916.9 1170.92Z" fill="#E5D1BD"></path><path d="M1893.62 1240.52C1889.63 1239.84 1886.6 1241.37 1886.66 1248.94C1886.69 1253.43 1888.52 1257.75 1888.55 1262.23C1888.56 1264.89 1887.94 1267.51 1887.33 1270.09C1885.36 1278.4 1883.38 1286.71 1881.41 1295.02C1880.71 1297.94 1880.02 1300.94 1880.51 1303.9C1882.49 1315.94 1899.1 1316.59 1907.73 1312.6C1916.1 1308.73 1922.97 1301.38 1925.51 1292.52C1926.87 1287.78 1927 1282.79 1927.12 1277.86C1927.32 1269.76 1927.52 1261.67 1927.72 1253.57C1927.77 1251.41 1927.81 1249.18 1927.06 1247.16C1924.02 1238.92 1913.93 1246.77 1908.11 1245.74C1904.17 1245.04 1898.25 1241.3 1893.62 1240.52Z" fill="#4D4D4D"></path><path d="M1866.12 1228.82C1893.83 1230.99 1908.76 1229.16 1938.04 1223.91C1941.02 1163.32 1945.52 1001.28 1945.52 1001.28C1945.52 1001.28 1976.93 807.76 1976.86 751.377C1976.85 742.302 1967.17 710.141 1963.25 701.957C1955.84 686.477 1936.96 679.979 1919.8 679.52C1893.14 678.808 1846.64 693.127 1837.65 722.163C1828.15 752.85 1812.14 782.535 1809.75 814.467C1806.85 853.073 1832.04 984.847 1832.04 984.847C1832.04 984.847 1855.68 1162.78 1866.12 1228.82Z" fill="#627277"></path><path d="M1887.15 358.544C1881.83 355.584 1876.17 353.138 1870.2 351.335C1863.47 349.304 1856.46 348.115 1849.43 347.296C1814.53 343.234 1780.03 338.881 1762.55 372.499C1754.62 387.736 1752.89 404.898 1751.13 421.656C1738.75 539.288 1719.3 656.299 1692.88 772.012C1693.42 769.795 1830.1 785.114 1842.81 786.323C1889.88 790.795 1930.07 799.102 1976.78 784.4C1980.15 783.34 1983.68 782.028 1985.73 779.365C1987.56 776.981 1987.88 773.925 1988.14 771.02C1988.69 764.842 1989.18 758.66 1989.63 752.474C1994.18 689.665 1993.76 626.269 1984.02 563.821C1979.18 532.758 1972 501.954 1961.85 471.925C1957.37 458.692 1949.73 447.72 1944.65 434.774C1938.95 420.217 1932.5 405.805 1923.49 392.61C1914.27 379.107 1902.02 366.818 1887.15 358.544Z" fill="#B7CCEA"></path><path d="M1818.88 219.022C1811.69 229.269 1807.53 241.463 1805.81 253.871C1805.35 257.17 1804.76 260.974 1801.9 262.676C1798.85 264.499 1800.93 269.329 1799.02 266.322C1797.1 263.316 1790.64 252.889 1790.64 249.324C1790.65 240.97 1791.45 232.617 1793.03 224.417C1794.41 217.284 1796.59 209.902 1801.81 204.859C1804.9 201.868 1808.84 199.934 1812.71 198.061C1818.32 195.347 1824.1 192.62 1830.31 192.06C1841 191.091 1847.1 195.482 1837.12 201.952C1829.98 206.589 1823.8 212.003 1818.88 219.022Z" fill="#534741"></path><path d="M1871.18 366.552C1870.63 371.642 1871.17 377.031 1866.31 380.56C1863.98 382.256 1860.99 382.743 1858.11 382.924C1850.67 383.395 1843.12 382.135 1836.23 379.273C1833.4 378.096 1830.61 376.597 1828.6 374.269C1826.24 371.519 1826.33 369.129 1826.52 365.838C1826.73 361.98 1826.33 358.002 1826.2 354.055C1825.9 345.427 1826.22 336.787 1826.79 328.178C1814.4 324.819 1799.97 319.335 1796.92 305.703C1795.96 301.408 1796.34 296.872 1796.72 292.438C1798.32 274.101 1799.92 255.766 1801.52 237.429C1802.08 231.088 1802.68 224.554 1805.4 218.879C1810.18 208.919 1820.41 203.682 1830.24 200.707C1855.33 193.116 1883.45 196.174 1904.42 212.331C1910 216.632 1915.14 221.969 1917.94 228.821C1922.26 239.386 1920.42 251.749 1918.5 263.288C1916.73 273.938 1914.96 284.588 1913.19 295.236C1911.16 307.484 1907.97 321.503 1897.8 327.112C1892.4 330.09 1885.79 330.104 1880.99 334.165C1872.62 341.253 1875.16 353.265 1872 362.517C1871.56 363.81 1871.34 365.17 1871.18 366.552Z" fill="#F9CBB7"></path><path d="M1792.44 302.794C1793.61 314.414 1798.09 325.825 1806.74 333.107C1816.55 341.361 1829.68 343.126 1842.11 344.6C1848.91 345.405 1855.71 346.212 1862.51 347.018C1879.72 349.058 1897.08 348.445 1907.68 331.081C1912.57 323.073 1914.79 313.436 1915.09 303.915C1915.16 301.3 1915.09 298.594 1914.08 296.234C1913.06 293.876 1910.89 291.937 1908.47 292.044C1905.37 292.184 1903.23 295.309 1901.02 297.687C1896.19 302.875 1888.31 305.277 1882.47 301.708C1880.73 300.65 1879.29 299.163 1877.85 297.664C1877.27 297.049 1876.68 296.435 1876.08 295.844C1870.09 289.998 1862.38 286.849 1854.54 285.059C1847.75 283.506 1837.85 280.007 1832.19 285.401C1828.89 288.539 1825.6 291.677 1822.3 294.814C1820.94 296.107 1819.55 297.421 1817.89 298.175C1816.17 298.95 1814.27 299.075 1812.42 298.934C1807.78 298.578 1802.79 295.946 1801.66 291.086C1801.17 288.97 1801.48 286.737 1801.61 284.55C1801.73 282.363 1801.62 280.019 1800.44 278.257C1795.94 271.516 1793.51 281.333 1792.99 284.711C1792.05 290.684 1791.83 296.795 1792.44 302.794ZM1839.11 310.393C1844.23 314.593 1849.95 315.181 1856.18 313.927C1859.38 313.28 1860.21 318.637 1857.01 319.281C1849.49 320.797 1842.28 319.874 1836.13 314.829C1833.57 312.728 1836.54 308.28 1839.11 310.393Z" fill="#534741"></path><path d="M1799.77 185.176C1798.99 180.622 1798.53 176.011 1798.39 171.39C1802.47 173.273 1807.03 174.103 1811.5 173.776C1811.76 171.144 1812.02 168.509 1812.28 165.875C1812.51 163.685 1842.23 164.948 1844.65 164.978C1867.32 165.256 1888.06 165.443 1907.26 179.471C1923.66 191.453 1933.34 207.947 1934.1 228.294C1934.83 247.733 1926.19 272.214 1913.61 287.101C1914.16 281.995 1918.23 270.218 1917.49 265.247C1917.21 260.31 1915.98 255.458 1914.07 250.904C1910.27 241.815 1903.8 233.856 1896.02 227.877C1883.62 218.346 1868.7 212.514 1853.59 208.929C1839.75 205.643 1822.83 202.218 1808.62 204.632C1801.79 205.794 1800.52 207.364 1797.12 200.242C1796.53 198.985 1792.2 184.575 1792.75 184.619C1795.09 184.804 1797.43 184.991 1799.77 185.176Z" fill="#534741"></path><path d="M1553.07 473.088C1552.72 473.19 1552.79 473.524 1551.79 474.588C1551.44 474.961 1549.45 479.233 1549.2 479.155C1544.51 477.662 1539.67 475.504 1534.85 474.514C1530.78 473.677 1529.6 472.637 1525.79 471.156C1524.31 470.581 1522.59 471.45 1521.67 472.744C1520.75 474.039 1520.45 475.659 1520.18 477.224C1519.07 483.539 1518.11 490.598 1521.74 495.883C1522.73 497.333 1524.02 498.552 1525.3 499.759C1530.12 504.304 1533.59 508.709 1540.4 509.838C1544.12 510.456 1547.92 510.15 1551.68 509.842C1557.89 509.333 1564.14 508.816 1570.14 507.142C1574.05 506.05 1577.9 504.459 1581.96 504.386C1586.3 504.306 1591.48 505.688 1594.37 502.453C1595.49 501.202 1595.95 499.51 1596.38 497.884C1597.03 495.39 1597.68 492.897 1598.34 490.401C1598.51 489.749 1598.68 489.059 1598.49 488.411C1598.15 487.256 1596.85 486.725 1595.7 486.373C1588.84 484.277 1581.75 482.979 1574.6 482.511C1572.52 482.376 1570.38 482.299 1568.46 481.481C1566.84 480.791 1565.48 479.616 1564.07 478.547C1561.9 476.89 1557.28 473.057 1554.43 473.049C1553.63 473.051 1553.28 473.029 1553.07 473.088Z" fill="#BCBEC0"></path><path d="M1816.52 405.875C1807.72 395.167 1789.53 364.436 1772.73 365.83C1770.33 366.031 1768.21 367.463 1766.41 369.067C1746.14 387.128 1757.63 423.484 1740.63 444.648C1731.13 456.477 1715.15 460.48 1700.34 463.779C1660.71 472.607 1624.96 473.743 1584.92 472.957C1577.75 472.816 1578.09 470.054 1575.13 477.081C1572.86 482.464 1574.38 492.704 1574.1 498.604C1573.89 502.797 1573.73 507.196 1572.63 511.27C1571.99 513.598 1568 519.454 1568.43 521.536C1569.38 526.115 1575.91 528.072 1579.79 529.577C1590.15 533.601 1601.34 534.91 1612.09 537.471C1644.66 545.226 1678.03 548.355 1711.33 551.036C1739.19 553.279 1759.76 570.464 1783.58 550.453C1805.28 532.218 1826.97 513.984 1848.68 495.748C1855.38 490.117 1862.66 483.281 1862.55 474.528C1862.49 468.919 1859.31 463.878 1856.18 459.219C1843.84 440.811 1830.59 423.003 1816.52 405.875Z" fill="#B7CCEA"></path><path d="M912.953 432.016C917.898 435.076 922.038 438.786 924.559 442.548C936.022 459.663 944.368 479.978 953.996 498.184C964.671 518.372 975.349 538.56 986.025 558.751C987.928 562.35 996.432 585.174 1000.56 586.228C1000.59 586.236 1057.56 600.811 1057.56 600.811L1067.33 662.72L954.077 676.529L858.218 517.253C853.557 480.952 861.674 452.978 869.379 436.565C877.301 419.7 898.543 423.1 912.953 432.016Z" fill="#587BC9"></path><path d="M740.964 1290.24C733.627 1291.12 726.753 1288.88 719.575 1288.45C718.595 1263.23 720.062 1238.91 724.192 1213.74C735.936 1225.47 744.907 1217.83 745.74 1240.99C746.011 1248.49 738.924 1278.91 740.964 1290.24Z" fill="#BCBEC0"></path><path d="M717.308 1276C708.778 1273.44 707.935 1293.54 708.116 1298.24C708.225 1301.07 708.711 1303.93 708.136 1306.7C707.504 1309.75 705.65 1312.38 703.843 1314.92C700.055 1320.23 696.269 1325.54 692.481 1330.85C690.779 1333.23 689.047 1335.68 688.214 1338.49C686.15 1345.45 690.574 1353.36 697.224 1356.29C720.293 1366.47 739.384 1337.9 743.303 1319.5C743.903 1316.68 744.299 1313.82 744.695 1310.96C745.514 1305.05 749.274 1292.06 746.653 1286.47C743.595 1279.94 735.64 1285.2 730.132 1282.97C725.019 1280.9 720.76 1277.04 717.308 1276Z" fill="#534741"></path><path d="M856.051 867.7C838.083 925.839 816.823 982.9 806.16 1043.33C792.986 1117.99 769.287 1191.36 759.06 1266.03C749.969 1266.8 740.821 1266.89 731.716 1266.29C721.277 1265.61 704.666 1263.68 700.329 1252.54C698.112 1246.85 699.649 1237.33 699.625 1231.3C699.552 1211.99 699.921 1192.67 700.331 1173.36C701.492 1118.74 701.357 1063.51 708.561 1009.33C716.139 952.346 723.259 895.188 729.57 838.274C732.833 808.859 737.214 779.566 742.968 750.533C744.452 743.053 759.933 665.939 763.787 666.347C809.516 671.19 852.726 683.988 893.448 705.345C897.405 707.421 901.253 709.938 902.8 713.923C904.347 717.906 903.319 721.461 902.275 725.205C892.307 760.899 878.289 794.616 867.534 830.215C863.789 842.598 859.982 854.984 856.051 867.7Z" fill="#595958"></path><path d="M863.879 1289.86C870.904 1292.15 878.081 1291.31 885.203 1292.29C891.111 1267.75 894.443 1243.62 895.332 1218.12C881.515 1227.33 874.219 1218.07 868.856 1240.63C867.12 1247.93 868.101 1279.15 863.879 1289.86Z" fill="#BCBEC0"></path><path d="M892.031 1284.64C892.763 1298.31 904.291 1312.47 910.889 1324.45C911.664 1325.85 912.458 1327.32 912.571 1328.93C912.738 1331.31 911.392 1333.51 910.095 1335.51C908.296 1338.3 906.333 1341.24 903.311 1342.61C900.34 1343.95 896.902 1343.53 893.687 1343C888.305 1342.11 882.962 1340.98 877.682 1339.6C876.368 1339.26 875.024 1338.88 873.924 1338.09C872.622 1337.14 871.793 1335.69 871.001 1334.29C866.943 1327.09 863.547 1322.01 863.314 1313.77C863.074 1305.25 863.686 1296.38 861.692 1288.04C860.71 1283.99 859.417 1278.82 862.801 1276.39C865.418 1274.51 870.5 1276.64 873.473 1276.97C878.718 1277.54 883.508 1276.97 888.44 1279.45C889.444 1279.96 890.43 1280.58 891.08 1281.49C891.738 1282.42 891.969 1283.5 892.031 1284.64Z" fill="#534741"></path><path d="M833.908 852.948C840.122 913.483 849.775 973.604 848.379 1034.96C846.653 1110.75 855.5 1187.34 850.883 1262.56C859.646 1265.1 868.599 1266.98 877.645 1268.19C888.014 1269.57 904.685 1270.93 911.121 1260.86C914.41 1255.72 914.772 1246.08 915.977 1240.17C919.836 1221.25 923.262 1202.23 926.649 1183.22C936.227 1129.42 947.191 1075.29 950.754 1020.76C954.502 963.394 958.732 905.949 963.707 848.904C966.278 819.42 967.727 789.838 967.779 760.239C967.793 752.614 967.735 673.96 963.878 673.604C918.087 669.385 873.205 673.457 829.086 686.412C824.799 687.67 820.532 689.386 818.233 692.987C815.935 696.59 816.245 700.277 816.535 704.152C819.309 741.107 826.439 776.92 830.005 813.936C831.245 826.815 832.55 839.707 833.908 852.948Z" fill="#595958"></path><path d="M802.348 419.278C801.609 419.511 800.875 419.757 800.145 420.016C787.946 424.343 777.589 432.171 767.454 439.874C752.233 451.446 744.734 456.517 738.904 473.714C733.468 489.753 730.09 506.7 726.785 523.236C709.822 608.13 706.804 692.723 694.722 778.274C691.433 801.562 688.93 828.942 707.265 845.012C739.6 821.335 780.353 820.106 819.679 820.215C847.296 820.291 874.265 811.953 901.959 814.96C928.427 817.833 951.512 811.681 978.367 813.425C984.842 813.846 993.089 813.809 995.621 808.193C986.229 781.899 986.283 753.655 984.074 726.035C978.361 654.587 953.005 585.956 942.608 514.974C939.075 490.847 937.084 450.814 917.21 432.491C895.612 412.579 846.517 411.997 818.872 415.778C813.276 416.544 807.701 417.588 802.348 419.278Z" fill="#587BC9"></path><path d="M920.236 334.962C918.473 321.208 915.245 307.649 911.032 294.794C901.639 266.122 879.846 242.987 854.058 236.761C811.968 226.596 778.984 263.415 766.988 300.282C753.95 340.349 774.65 389.663 807.985 413.21C809.475 414.261 811.063 415.303 812.871 415.54C815.303 415.858 817.643 414.679 819.888 413.693C832.608 408.097 846.978 407.922 860.869 408.328C877.663 408.819 877.744 408.111 894.437 410.026C904.957 386.004 923.587 361.092 920.236 334.962Z" fill="#99704A"></path><path d="M823.795 425.669C824.28 426.661 824.936 427.614 825.825 428.522C829.325 432.109 834.226 434.199 839.118 434.995C845.564 436.044 852.156 435.098 858.592 433.998C867.289 432.513 867.08 427.433 868.488 419.59C869.258 415.307 869.769 410.985 870.176 406.652C871.077 397.086 870.316 391.801 879.218 385.782C883.037 383.199 886.7 380.379 890.174 377.347C892.85 375.01 895.463 372.485 897.115 369.342C898.38 366.936 899.032 364.261 899.623 361.607C903.17 345.678 903.54 329.347 906.371 313.467C908.646 300.708 905.826 284.256 896.3 274.666C886.909 265.211 873.008 261.696 860.236 259.814C843.323 257.321 825.688 260.087 810.87 268.804C804.887 272.324 799.19 276.929 795.574 283.341C789.998 293.228 790.167 305.707 790.521 317.377C790.847 328.15 791.175 338.923 791.501 349.696C791.877 362.086 793.144 376.38 802.29 383.272C807.146 386.931 813.571 387.818 817.697 392.469C822.866 398.295 822.359 406.879 822.441 414.142C822.491 418.292 822.103 422.213 823.795 425.669Z" fill="#F9CBB7"></path><path d="M837.409 289.024C853.487 295.23 869.774 300.181 875.587 304.74C883.691 311.097 888.042 321.302 889.432 331.506C890.824 341.711 889.577 352.07 888.332 362.295C887.209 371.519 886.708 380.451 886.356 389.571C886.187 393.964 883.671 418.371 879.567 420.219C890.871 415.069 898.115 403.902 903.812 392.864C915.532 370.157 923.489 344.892 922.262 319.367C921.035 293.842 909.674 268.084 888.865 253.251C880.697 247.427 871.393 243.43 862.171 239.479C843.917 231.659 823.481 229.493 807.613 244.1C784.816 265.086 810.828 278.766 837.409 289.024Z" fill="#A67C52"></path><path d="M800.444 298.499C791.116 309.341 785.238 321.854 785.66 339.486C786.052 355.86 792.178 371.666 801.525 384.98C809.781 396.74 813.517 406.477 819.178 419.576C812.571 416.172 804.599 416.433 797.735 413.685C787.573 409.617 777.885 403.659 768.993 397.326C760.888 391.554 758.572 383.159 755.985 373.597C749.763 350.607 750.06 325.933 756.371 302.997C764.229 274.441 782.522 242.074 816.236 241.533C825.42 241.386 838.281 246.021 840.685 256.019C843.495 267.706 828.554 273.413 821.214 279.335C813.412 285.63 806.258 291.74 800.444 298.499Z" fill="#A67C52"></path><path d="M566.52 397.39C566.152 397.187 565.931 397.517 564.233 397.561C561.149 397.64 560.761 398.724 557.793 397.408C548.662 393.357 547.526 386.31 542.633 378.657C541.43 376.778 540.193 374.859 538.435 373.485C532.904 369.166 528.853 375.416 525.668 379.51C521.508 384.857 517.452 392.071 518.985 399.1C520.357 405.383 522.081 411.764 525.817 416.999C528.366 420.572 531.747 423.456 535.089 426.301C541.422 431.692 549 435.06 555.267 439.848C561.35 444.495 564.507 454.174 568.508 460.702C578.647 477.25 590.472 492.761 603.752 506.913C604.166 507.352 604.637 507.819 605.238 507.871C605.938 507.931 606.538 507.41 607.045 506.925C614.319 499.971 621.59 493.018 628.864 486.064C619.403 472.235 609.24 458.885 598.433 446.08C590.031 436.124 572.809 423.889 571.065 410.925C570.642 407.777 570.005 400.838 567.667 398.479C567.009 397.817 566.738 397.511 566.52 397.39Z" fill="#F9CBB7"></path><path d="M811.622 529.491C815.939 523.301 820.134 517.022 824.324 510.752C827.442 506.086 830.629 501.246 831.633 495.726C832.462 491.165 831.727 486.458 830.579 481.966C826.803 467.201 818.44 453.642 806.939 443.64C803.591 440.727 799.924 438.076 795.754 436.551C786.148 433.036 775.266 436.002 766.382 441.073C751.924 449.323 741.145 462.607 730.72 475.586C724.53 483.291 718.34 490.996 712.152 498.703C707.348 504.684 705.559 510.49 698.323 507.241C690.391 503.68 682.626 495.587 675.653 490.409C663.049 481.052 650.446 471.694 637.842 462.337C623.998 472.342 610.155 482.35 596.314 492.356C593.268 494.559 588.06 496.989 585.769 499.977C583.797 502.552 583.393 500.942 583.602 504.569C583.779 507.651 588.863 513.115 590.633 515.626C601.013 530.354 614.084 542.925 627.017 555.368C647.835 575.399 668.654 595.432 689.472 615.464C692.318 618.202 695.239 620.991 698.836 622.622C712.723 628.917 735.084 605.555 745.249 597.868C760.776 586.125 775.719 573.488 788.729 558.959C797.035 549.681 804.493 539.71 811.622 529.491Z" fill="#587BC9"></path><path d="M480.563 891.456L498.586 887.678C502.26 883.651 508.633 873.29 515.038 876.101C518.032 877.416 519.609 881.279 518.392 884.314C517.042 887.68 529.925 882.625 529.702 882.613C540.599 883.22 544.134 891.579 539.843 901.467C536.618 908.894 529.995 913.05 522.286 914.088C514.004 915.203 506.967 910.268 499.17 910.538L480.426 911.185L480.563 891.456Z" fill="#BCBEC0"></path><path d="M404.205 881.671C404.638 881.724 405.072 881.776 405.505 881.826C423.353 883.908 441.264 885.467 459.204 886.509C468.054 887.024 477.364 886.505 486.133 887.684C491.649 888.425 491.818 887.202 494.037 892.285C495.597 895.86 495.114 901.398 494.9 905.203C494.321 915.446 493.444 915.678 484.166 917.995C468.659 921.868 451.875 923.123 435.979 924.384C395.905 927.561 362.832 935.332 329.864 904.227C323.523 898.244 315.226 893.685 311.756 885.669C308.368 877.843 307.59 867.951 307.564 859.53C307.507 841.833 312.842 824.059 323.126 809.607C327.301 803.741 334.169 797.864 340.908 800.399C345.457 802.111 347.83 806.992 349.876 811.405C359.672 832.539 371.857 852.567 386.126 870.981C388.498 874.043 391.018 877.137 394.408 879.016C397.384 880.669 400.806 881.249 404.205 881.671Z" fill="#CAE4F0"></path><path d="M339.278 1281.07C339.795 1290.71 340.996 1300.54 341.217 1310.06C341.271 1312.38 341.106 1314.79 342.048 1316.91C343.269 1319.65 346.178 1321.34 349.131 1321.87C352.084 1322.39 355.116 1321.93 358.073 1321.43C369.661 1319.44 381.132 1316.78 392.408 1313.45C393.625 1310.22 394.289 1306.69 393.607 1303.31C392.925 1299.93 390.724 1296.74 387.511 1295.49C381.589 1293.19 377.038 1300.98 372.093 1293.87C370.836 1292.07 370.713 1289.74 370.631 1287.54C370.429 1282.05 370.224 1276.55 370.021 1271.06C359.542 1269.68 348.759 1268.31 338.513 1270.9C338.855 1274.37 339.099 1277.74 339.278 1281.07Z" fill="#3A3029"></path><path d="M325.965 1010.92L390.984 1149.73L373.045 1288.23L339.105 1288.53L314.805 1179.56L217.351 1059.55L325.965 1010.92Z" fill="#BFAE93"></path><path d="M758.316 762.411C711.838 758.016 652.989 782.553 638.527 822.743C625.048 782.225 553.971 756.557 507.398 759.862C384.497 768.583 341.246 907.178 392.163 1001.32C419.569 1051.99 459.297 1096.47 502.742 1136.51C539.123 1170.03 633.149 1241.34 633.441 1241.1C633.727 1241.35 729.459 1172.27 766.646 1139.6C811.053 1100.6 851.851 1057.05 880.48 1007.04C933.676 914.122 880.971 774.009 758.316 762.411Z" fill="#7DB5DB"></path><g opacity="0.12"><path d="M860.667 1016.5C829.61 1053.7 793.75 1088.53 754.914 1118.35C717.359 1147.18 673.461 1172.17 625.386 1180.13C602.293 1183.95 579.736 1183.12 558.442 1177.88C597.23 1209.04 639.412 1240.93 639.607 1240.77C639.893 1241.01 735.625 1171.93 772.812 1139.27C817.219 1100.26 858.017 1056.72 886.646 1006.71C895.91 990.528 901.952 972.912 904.983 954.796C891.979 976.442 876.946 997.006 860.667 1016.5Z" fill="#000100"></path></g><path d="M424.423 935.441L443.14 932.504L450.966 924.759L466.511 922.322C466.511 922.322 469.132 931.104 467.919 931.295C465.32 931.705 462.083 934.027 460.9 936.209C465.583 938.453 470.981 938.889 476.103 938.76C480.565 938.646 486.847 936.789 485.582 943.912C485.242 945.824 484.192 947.54 482.969 949.05C479.881 952.865 475.544 955.657 470.792 956.888C467.044 957.858 462.926 957.94 459.709 960.093C459.18 960.447 458.665 960.863 458.043 961.004C456.537 961.346 450.906 958.506 449.15 957.987C447.204 957.411 444.583 956.063 442.541 956.029C442.537 956.029 423.248 955.709 423.248 955.709L424.423 935.441Z" fill="#F9CBB7"></path><path d="M344.71 917.138C345.181 917.562 345.692 917.953 346.241 918.309C354.179 923.457 367.328 924.69 376.453 926.303C394.913 929.568 413.632 930.248 432.146 932.952C434.003 940.905 434.192 949.283 432.669 957.31C430.702 967.679 429.776 967.799 420.001 968.914C403.662 970.779 386.373 969.801 369.989 968.948C341.28 967.454 300.142 972.911 282.453 944.184C260.78 908.986 255.21 863.531 269.264 824.602C271.273 819.038 273.667 813.616 276.442 808.392C278.922 803.728 281.855 799.037 286.368 796.295C294.577 791.308 305.264 794.237 313.822 798.594C320.879 802.187 327.369 806.678 333.368 811.836C340.385 817.869 339.964 822.071 340.173 831.303C340.588 849.608 340.707 867.931 339.741 886.22C339.24 895.705 337.214 910.413 344.71 917.138Z" fill="#CAE4F0"></path><g opacity="0.08"><path d="M344.649 796.987C344.307 797.834 343.965 798.711 343.987 799.617C344.005 800.351 344.261 801.055 344.524 801.739C345.17 803.425 345.87 805.091 346.623 806.734C346.808 807.138 347.019 807.565 347.411 807.792C348.168 808.231 349.196 807.637 349.54 806.839C349.884 806.042 349.763 805.143 349.698 804.284C349.548 802.322 349.735 800.333 350.246 798.424C350.555 797.269 351.364 795.901 352.567 796.082C353.324 796.197 353.814 796.899 354.185 797.553C355.243 799.415 356.088 801.391 356.705 803.435C356.89 804.046 357.468 804.823 357.995 804.441C358.138 804.338 358.214 804.171 358.275 804.01C359.121 801.777 358.089 799.313 356.836 797.289C355.313 794.825 353.913 792.841 354.018 789.984C354.054 789.011 355.438 789.254 355.038 787.588C354.802 786.603 353.66 785.581 352.7 785.319C348.077 784.056 345.862 793.982 344.649 796.987Z" fill="black"></path></g><g opacity="0.08"><path d="M319.387 804.051C319.643 805.421 319.936 806.813 320.634 808.024C320.745 808.217 320.87 808.418 320.866 808.641C320.858 809.124 320.299 809.384 319.856 809.603C318.033 810.496 316.957 812.413 316.418 814.329C315.879 816.246 315.768 818.254 315.259 820.177C315.211 820.358 315.144 820.557 314.975 820.647C314.666 820.806 314.338 820.476 314.181 820.173C313.04 817.976 313.555 815.332 314.098 812.912C314.971 809.012 315.844 805.113 316.716 801.214C316.784 800.91 316.854 800.598 316.804 800.291C316.615 799.126 314.841 798.885 313.875 799.605C312.909 800.325 312.523 801.54 312.038 802.628C311.553 803.715 310.755 804.855 309.554 805.008C309.612 803.367 310.338 801.753 311.539 800.595C312.052 800.1 312.7 799.385 312.286 798.814C311.694 797.995 310.105 799.12 309.389 798.402C311.077 796.261 312.465 793.897 313.499 791.393C313.891 790.447 314.243 789.464 314.885 788.657C318.156 784.557 317.736 791.976 317.909 793.741C318.253 797.199 318.745 800.639 319.387 804.051Z" fill="black"></path></g><path d="M1531.42 84.2031C1466.27 63.4402 1374.39 80.2402 1341.18 133.261C1334.5 71.0697 1240.76 12.1991 1173.07 2.42614C994.438 -23.3594 889.376 161.552 932.946 312.151C956.398 393.208 999.409 469.253 1049.13 540.086C1090.77 599.402 1203.15 730.739 1203.64 730.493C1203.97 730.928 1362.51 661.859 1425.9 626.684C1501.61 584.679 1573.57 535.059 1630.12 472.39C1735.18 355.954 1703.37 138.997 1531.42 84.2031Z" fill="#7DB5DB"></path><g opacity="0.12"><path d="M1591.57 476.534C1535.54 520.1 1473.36 558.795 1408.49 589.38C1345.76 618.958 1275.15 641.059 1203.85 637.48C1169.61 635.76 1137.58 627.545 1108.73 613.42C1154.55 670.097 1205 728.876 1205.33 728.711C1205.66 729.147 1364.2 660.078 1427.59 624.903C1503.3 582.898 1575.25 533.277 1631.8 470.609C1650.1 450.331 1664.23 427.001 1674.21 402.013C1648.86 428.944 1620.94 453.698 1591.57 476.534Z" fill="#000100"></path></g><path d="M1776.61 638.643C1735.59 640.647 1687.44 669.393 1679.89 706.197C1663.07 672.615 1597.97 659.183 1557.84 667.902C1451.94 690.912 1431.67 817 1487.81 892.569C1518.02 933.242 1558.19 966.989 1601.04 996.394C1636.92 1021.02 1727.72 1071.3 1727.94 1071.06C1728.22 1071.23 1802.9 999.082 1831.18 965.979C1864.94 926.45 1895 883.423 1913.65 836.292C1948.31 748.723 1884.85 633.354 1776.61 638.643Z" fill="#7DB5DB"></path><g opacity="0.12"><path d="M1897.59 847.015C1875.22 883.292 1848.37 918.116 1818.3 948.947C1789.22 978.761 1754.14 1006.02 1713.28 1018.98C1693.66 1025.21 1673.92 1027.31 1654.72 1025.43C1692.4 1047.69 1733.12 1070.16 1733.27 1070C1733.55 1070.17 1808.23 998.02 1836.51 964.917C1870.27 925.388 1900.33 882.361 1918.98 835.23C1925.02 819.979 1928.07 803.887 1928.43 787.735C1919.83 808.21 1909.32 827.998 1897.59 847.015Z" fill="#000100"></path></g><path d="M558.685 127.852C521.677 125.369 475.471 146.13 464.855 178.362C453.272 146.476 396.267 127.628 359.35 131.26C261.931 140.847 230.58 251.857 273.058 325.521C295.92 365.168 328.435 399.641 363.806 430.497C393.428 456.336 469.647 510.932 469.874 510.739C470.106 510.924 544.641 453.988 573.467 427.24C607.89 395.3 639.351 359.835 661.005 319.496C701.24 244.546 656.35 134.41 558.685 127.852Z" fill="#7DB5DB"></path><g opacity="0.12"><path d="M638.496 327.438C614.635 357.65 586.909 386.092 556.711 410.613C527.51 434.326 493.186 455.123 455.176 462.484C436.918 466.02 418.985 465.847 401.96 462.148C433.44 486.057 467.631 510.47 467.784 510.339C468.017 510.526 542.552 453.588 571.378 426.842C605.803 394.902 637.261 359.437 658.915 319.099C665.922 306.047 670.34 291.927 672.355 277.472C662.498 294.944 651.003 311.602 638.496 327.438Z" fill="#000100"></path></g><path d="M0.287065 1240.71C0.959144 1252.67 1.63321 1264.64 2.30529 1276.6C2.56975 1281.31 2.86801 1286.15 4.88623 1290.41C6.90446 1294.67 11.0881 1298.26 15.8006 1298.12C17.3833 1298.07 18.9721 1297.6 20.2387 1296.64C23.1656 1294.44 23.7959 1290.26 23.261 1286.63C22.7282 1283.01 21.2866 1279.55 20.9903 1275.9C20.2327 1266.56 27.9477 1261.46 32.1929 1254.34C36.3348 1247.41 37.8599 1246.76 35.1656 1239.13C32.7656 1232.34 30.7732 1225.08 28.7271 1218.41C24.5873 1221.43 19.6143 1223.22 14.5041 1223.62C10.2768 1223.96 5.42708 1223.58 2.46038 1226.61C-0.164305 1229.29 -0.122546 1233.52 0.088224 1237.26C0.157818 1238.41 0.221448 1239.56 0.287065 1240.71Z" fill="#3A3029"></path><path d="M36.3011 1254.16C35.3686 1254.43 34.434 1254.7 33.4995 1254.97C32.6842 1255.21 31.8213 1255.45 31.1094 1255.23C30.0377 1254.9 29.6519 1253.66 29.3656 1252.53C26.4506 1240.97 24.1003 1229.12 22.3267 1217.04C47.0783 1200.35 71.8299 1183.65 96.5815 1166.96C101.932 1163.35 107.396 1159.64 111.717 1154.64C117.315 1148.15 120.432 1140.17 123.526 1132.49C131.838 1111.83 141.126 1091.36 151.336 1071.2C158.101 1057.85 165.664 1044.12 177.036 1034.12C186.193 1026.07 197.063 1021.13 206.739 1013.9C211.056 1010.67 215.386 1006.86 220.178 1005.68C225.736 1004.31 226.348 1007.75 228.814 1010.64C231.765 1014.1 234.835 1018.08 239.192 1021.35C249.694 1029.24 259.996 1037.38 270.093 1045.76C273.951 1048.96 288.442 1056.71 288.945 1062.16C289.452 1067.66 275.355 1082.43 271.557 1087.5C243.924 1124.37 215.09 1160.42 185.153 1195.53C183.029 1198.02 180.878 1200.53 178.382 1202.59C175.718 1204.79 172.743 1206.42 169.79 1207.97C157.9 1214.22 145.796 1219.7 133.59 1224.37C117.76 1230.41 101.799 1235.07 85.862 1239.71C69.3404 1244.52 52.8208 1249.34 36.3011 1254.16Z" fill="#BFAE93"></path><path d="M347.257 1032.18C345.153 991.45 337.068 959.393 344.528 919.295C348.416 898.401 365.792 869.289 371.495 848.954C374.611 837.844 374.026 826.357 371.754 815.203C369.411 803.706 368.429 790.234 361.682 780.29C356.314 772.376 348.74 769.77 340.196 766.765C326.209 761.844 310.815 758.376 296.572 764.377C262.243 778.841 234.329 812.085 214.201 842.479C193.875 873.168 180.078 907.802 170.627 943.261C165.857 961.161 162.184 979.345 159.369 997.65C157.301 1011.09 149.415 1036.45 157.615 1048.72C159.168 1051.05 161.455 1052.79 163.841 1054.25C176.729 1062.14 188.92 1059.87 203.002 1061.11C217.329 1062.37 231.432 1063.34 245.958 1063.55C280.58 1064.04 315.208 1064.12 349.83 1063.76C348.656 1053.22 347.799 1042.69 347.257 1032.18Z" fill="#CAE4F0"></path><path d="M301.291 694.461C300.11 690.583 299.913 686.418 300.764 682.453C301.456 679.232 302.532 675.531 305.588 674.3C307.847 673.39 310.512 674.249 312.375 675.818C314.091 677.263 315.266 679.279 316.497 681.103C322.563 677.742 325.265 666.659 330.738 661.696C334.494 658.29 339.284 656.063 344.04 653.971C347.158 652.599 350.355 651.245 353.815 650.849C367.099 649.326 380.7 654.878 390.533 663.583C411.365 682.033 400.194 708.602 395.673 731.354C392.074 749.464 385.256 766.294 363.556 767.238C357.997 767.481 351.339 768.809 347.237 772.744C345.01 774.88 343.445 777.578 341.986 780.276C340.9 782.284 339.777 784.406 337.84 785.657C334.468 787.836 329.96 786.665 326.091 785.422C321.376 783.911 316.033 781.813 314.484 777.204C312.506 771.312 316.558 764.56 315.546 758.418C314.711 753.339 311.848 749.42 310.05 744.811C308.205 740.079 306.849 735.038 305.002 730.256C302.568 723.955 300.446 717.035 303.584 710.666C304.692 708.417 306.312 706.089 305.759 703.643C305.489 702.446 304.721 701.434 304.053 700.404C302.852 698.559 301.928 696.551 301.291 694.461Z" fill="#F9CBB7"></path><path d="M316.122 642.311C323.044 637.29 331.204 633.828 339.689 632.174C346.37 630.872 353.281 629.993 359.957 631.323C372.36 633.795 397.118 657.103 407.378 644.916C411.206 640.37 420.233 642.114 422.144 647.765C422.712 649.447 422.72 651.267 423.327 652.939C423.931 654.611 425.464 656.224 427.272 656.063C429.648 655.852 430.759 652.887 433.048 652.261C435.894 651.483 438.371 654.947 438.021 657.799C437.82 659.441 436.428 660.867 436.249 662.368C436.112 663.517 436.756 664.221 436.723 665.345C436.649 667.882 436.762 670.083 434.442 671.819C433.519 672.509 432.406 672.956 431.569 673.742C429.96 675.253 429.722 677.633 429.026 679.703C427.495 684.26 423.573 687.519 419.253 689.987C419.133 694.956 418.485 699.983 416.489 704.22C413.166 711.271 404.536 717.419 399.104 722.957C398.476 720.366 399.086 717.659 399.379 715.009C399.997 709.404 399.14 703.641 396.917 698.457C395.825 695.908 394.423 693.486 393.509 690.872C393.191 690.834 392.869 690.792 392.56 690.762C390.614 690.571 388.623 690.369 386.854 689.537C380.837 686.712 374.444 684.901 368.103 682.278C361.545 679.566 354.751 676.981 347.656 676.83C340.562 676.679 333.018 679.399 329.132 685.336C327.385 688.006 326.122 691.478 323.09 692.472C312.527 695.938 314.987 679.12 307.312 679.347C301.706 679.512 302.18 688.655 303.068 692.466C303.858 695.851 305.538 698.98 306.274 702.375C307.009 705.771 306.544 709.795 303.816 711.947C303.174 712.454 302.325 712.844 301.551 712.577C300.633 712.263 300.239 711.203 299.97 710.271C296.198 697.143 294.19 683.129 297.298 669.828C299.992 658.312 306.974 648.948 316.122 642.311Z" fill="#A67C52"></path><path d="M1866.98 753.616C1867 753.999 1867.36 754.013 1868.21 755.318C1868.51 755.775 1872.43 758.913 1872.29 759.147C1869.56 763.637 1866.11 768.099 1863.87 772.845C1861.98 776.856 1860.61 777.82 1858.12 781.388C1857.15 782.775 1857.62 784.782 1858.73 786.058C1859.84 787.335 1861.44 788.051 1862.99 788.727C1869.26 791.465 1876.33 794.237 1882.72 791.805C1884.47 791.139 1886.05 790.109 1887.63 789.087C1893.55 785.239 1898.98 782.744 1901.86 775.981C1903.44 772.281 1904.08 768.264 1904.71 764.295C1905.74 757.736 1906.78 751.126 1906.55 744.491C1906.4 740.164 1905.72 735.776 1906.67 731.55C1907.68 727.037 1910.41 722.018 1907.78 718.208C1906.77 716.735 1905.13 715.832 1903.55 714.983C1901.13 713.679 1898.71 712.376 1896.3 711.072C1895.66 710.732 1894.99 710.38 1894.27 710.416C1892.99 710.477 1892.11 711.692 1891.46 712.796C1887.57 719.371 1884.44 726.394 1882.16 733.682C1881.49 735.803 1880.88 737.999 1879.55 739.782C1878.42 741.292 1876.86 742.407 1875.4 743.594C1873.14 745.431 1868.01 749.251 1867.28 752.202C1867.08 753.029 1866.97 753.389 1866.98 753.616Z" fill="#F9CBB7"></path><path d="M1845.64 447.502C1843.89 451.783 1842.73 456.056 1842.29 460.15C1841.72 465.467 1841.85 470.923 1843.37 476.053C1845.89 484.633 1852.01 491.614 1857.97 498.293C1875.91 518.438 1893.85 538.58 1911.79 558.725C1913.85 561.035 1916.01 563.564 1916.33 566.642C1917.23 575.304 1909.13 588.952 1906.55 597.15C1902.37 610.411 1898.19 623.672 1894.01 636.93C1888.63 653.997 1883.24 671.061 1877.86 688.128C1876.11 693.683 1868.8 707.429 1870.17 712.961C1871.53 718.481 1883.57 724.748 1888.22 727.709C1899.44 734.867 1912.09 739.772 1925.21 742.051C1925.79 742.151 1926.41 742.24 1926.93 741.988C1927.62 741.657 1927.92 740.864 1928.16 740.144C1937.08 713.617 1946.86 687.762 1956.78 661.612C1967.77 632.643 1978.75 603.676 1989.74 574.707C1996.73 556.267 2004.16 535.566 1993.91 517.449C1973.18 480.793 1952.8 441.662 1921.13 413.037C1895.46 389.816 1857.34 418.809 1845.64 447.502Z" fill="#B7CCEA"></path></svg>