<svg xmlns="http://www.w3.org/2000/svg" width="2678" height="1408" viewBox="0 0 2678 1408" fill="none"><path d="M171.266 1404.13C171.266 1404.13 -140.315 1069.59 118.573 707.403C348.275 386.047 616.086 408.015 812.573 538.422C896.259 593.965 1137.54 545.268 1342.9 218.276C1622.95 -227.651 2593.71 42.805 2416.71 728.876C2331.06 1060.88 2677.4 1072.95 2500.92 1404.83L171.266 1404.13Z" fill="#D7E8F4"></path><path d="M2423.44 1400.39H2324.72C2319.43 1395.9 2328.38 1385.71 2337.73 1385.03C2341.8 1384.72 2346.93 1385.57 2352.8 1386.81C2354.16 1368.77 2361.92 1287.65 2391.16 1290.91C2424.03 1294.56 2391.16 1326.63 2381.86 1345.62C2374.98 1359.69 2367.72 1379.86 2364.4 1389.37C2367.07 1389.95 2369.83 1390.52 2372.65 1391.04C2377.01 1377.66 2393.22 1332.66 2413.84 1335.28C2438.05 1338.35 2428.32 1356.39 2411.16 1367.1C2398.57 1374.98 2383.11 1386.17 2375.77 1391.58C2381.99 1392.6 2388.49 1393.28 2395.08 1393.13C2411.99 1392.73 2420.24 1397.71 2423.44 1400.39Z" fill="#82B378"></path><path d="M271.497 1396.87C267.576 1390.72 255.777 1374.73 240.061 1376.85C222.938 1379.15 258.973 1390.44 270.005 1396.92C267.555 1396.95 265.448 1396.76 263.902 1396.21C256.526 1393.58 243.894 1398.62 239.856 1400.39H310.073C309.588 1398.71 308.322 1395.97 305.052 1393.97C303.899 1393.26 301.581 1393.17 298.589 1393.39C302.765 1388.47 305.664 1372.75 294.041 1376.79C285.55 1379.75 285.573 1389.36 286.407 1395.04C284.6 1395.32 282.768 1395.61 280.959 1395.87C277.463 1378.05 265.098 1325.84 240.035 1324.44C214.629 1323.03 261.581 1378.6 277.214 1396.37C275.211 1396.61 273.282 1396.79 271.497 1396.87Z" fill="#82B378"></path><path d="M2058.97 1278.86L2051.33 1310.98L2041.2 1353.57H2009.54L2007.66 1312.77L2006.2 1281.3L2058.97 1278.86Z" fill="#F9CBB7"></path><path d="M2159.29 579.782C2159.29 579.782 2184.34 552.978 2200.62 573.997C2216.91 595.015 2234.96 609.203 2259.96 625.367C2284.95 641.531 2237.87 768.236 2206.56 765.632C2175.26 763.028 2047.51 663.136 2159.29 579.782Z" fill="#587BC9"></path><path d="M2034.56 567.037C2040.81 562.363 2098.38 542.598 2154.51 562.037C2210.65 581.477 2111.04 635.629 2111.04 635.629L2078.75 637.019L2034.56 567.037Z" fill="#4A75CB"></path><path d="M1997.02 1400.36C1997.02 1400.36 1997.02 1384.86 1999.23 1379.71C2001.44 1374.55 2009.54 1353.57 2009.54 1353.57H2041.2C2041.2 1353.57 2047.09 1372.71 2047.46 1378.97C2047.83 1385.23 2047.46 1400.36 2047.46 1400.36H1997.02Z" fill="#233862"></path><path d="M2198.04 1400.36C2198.04 1400.36 2198.04 1384.86 2195.83 1379.71C2193.62 1374.55 2185.52 1353.57 2185.52 1353.57H2153.86C2153.86 1353.57 2147.97 1372.71 2147.6 1378.97C2147.24 1385.23 2147.6 1400.36 2147.6 1400.36H2198.04Z" fill="#233862"></path><path d="M2071.2 530.429C2071.2 530.429 2070.09 564.942 2065.67 580.403L2030.71 655.763L2162.31 624.487L2130.93 581.121C2130.93 581.121 2121.45 534.848 2126.42 517.728C2131.39 500.611 2071.2 530.429 2071.2 530.429Z" fill="#F9CBB7"></path><path d="M2071.01 535.194C2071.01 535.183 2081.42 560.247 2101.02 559.695C2120.62 559.142 2125.08 536.975 2125.08 536.975L2071.01 535.194Z" fill="#ED985F"></path><path d="M2059.31 514.91C2059.31 514.91 2052.98 483.307 2048.56 473.736C2044.14 464.164 2040.46 421.462 2089.42 419.252C2089.42 419.252 2108.2 421.462 2118.51 415.204C2118.51 415.204 2118.51 421.462 2115.93 423.67C2115.93 423.67 2132.86 419.621 2146.12 434.346C2159.37 449.072 2137.28 500.612 2138.39 512.758L2059.31 514.91Z" fill="#2C3A64"></path><path d="M2098.77 550.015C2084.57 549.764 2058.43 530.85 2058.43 507.429V470.879C2058.43 462.327 2064.39 455.329 2071.68 455.329H2125.87C2133.16 455.329 2139.12 462.327 2139.12 470.879V505.359C2139.12 529.92 2115.06 550.302 2098.77 550.015Z" fill="#F9CBB7"></path><path d="M2058.43 490.395C2058.43 490.395 2058.5 468.434 2075.9 465.057C2093.29 461.681 2132.22 475.761 2137.74 459.747C2143.26 443.733 2062.5 444.01 2058.43 454.225C2054.36 464.44 2058.43 490.395 2058.43 490.395Z" fill="#2C3A64"></path><path d="M2119.07 870.978C2127.79 843.858 2127.61 983.237 2092.64 1140.01C2087.3 1163.94 2075.35 1221.64 2066.77 1277.48H1995.11C1994.12 1232.38 1989.28 1169.44 1986.24 1122.29C1976.7 974.507 2000.99 863.604 2000.99 863.604L2119.07 870.978Z" fill="#2B478B"></path><path d="M2211.03 1122.29C2210.24 1167.47 2201.06 1227.5 2200.23 1271.5H2127.53C2122.65 1239.56 2114.89 1206.67 2109.32 1180.14C2105.35 1161.3 2102.49 1145.67 2102.53 1135.85C2102.61 1116.65 2090.47 1061.31 2083.24 1012.51C2083.23 1012.44 2083.22 1012.38 2083.21 1012.32C2082.93 1010.44 2082.66 1008.57 2082.4 1006.71C2072.71 938.116 2076.13 870.978 2076.13 870.978L2198.79 863.313C2198.79 863.313 2213.13 1001.78 2211.03 1122.29Z" fill="#2B478B"></path><path d="M1991.27 920.444C1991.27 920.444 2018.87 953.882 2093.85 949.056C2168.83 944.228 2204.6 931.18 2204.6 931.18L1991.27 920.444Z" fill="#233862"></path><path d="M2204.6 931.181C2180.11 934.513 2013.49 943.167 1991.27 920.445C1969.06 897.711 2027.54 587.667 2027.54 587.667C2027.54 587.667 2034.16 585.751 2045.33 583.647C2051.03 582.575 2057.9 581.459 2065.68 580.523C2065.78 582.939 2067.7 619.492 2098.05 634.592C2098.05 634.592 2134.5 619.991 2130.93 581.116C2130.88 580.658 2130.83 580.22 2130.77 579.782C2135.63 580.304 2140.56 580.98 2145.51 581.834C2155.5 583.553 2165.63 585.98 2175.66 589.302C2175.66 589.302 2229.1 927.859 2204.6 931.181Z" fill="#739AF0"></path><path d="M1992.68 771.111C1991.69 772.4 1998.34 781.94 2007.71 794.21C2026.99 819.408 2057.83 856.082 2057.83 856.082C2057.41 868.513 2055.68 876.533 2055.68 876.533C2013.32 856.515 1984.67 837.794 1965.69 822.758C1938.99 801.61 1931.34 787.736 1931.34 787.736C1974.14 606.679 2029.05 587.827 2029.05 587.827L2046.97 696.93C2046.97 696.93 1995.68 767.186 1992.68 771.111Z" fill="#739AF0"></path><path d="M2145.51 581.834L2134.47 615.409L2119.75 637.018L2098.63 648.473L2078.75 637.018L2045.33 583.646C2051.03 582.574 2057.9 581.458 2065.68 580.522C2065.78 582.938 2067.71 619.491 2098.05 634.591C2098.05 634.591 2134.5 619.99 2130.93 581.115C2130.89 580.657 2130.83 580.219 2130.77 579.781C2135.63 580.304 2140.56 580.981 2145.51 581.834Z" fill="#587BC9"></path><path d="M2057.83 856.086C2057.82 856.44 2057.81 856.784 2057.79 857.127C2057.7 859.418 2057.56 861.564 2057.39 863.511C2056.33 864.979 2055.16 866.365 2053.87 867.657C2051.93 869.625 2049.82 871.28 2047.68 872.676C2046.61 872.166 2045.53 871.635 2044.48 871.114C2008.2 853.15 1982.96 836.435 1965.69 822.762C1976.64 819.388 1991.99 811.681 2007.71 794.206C2026.98 819.408 2057.83 856.086 2057.83 856.086Z" fill="#F9CBB7"></path><path d="M2268.21 781.079C2268.21 781.079 2260.82 795.097 2234.54 816.752C2215.85 832.148 2187.56 851.415 2145.59 872.24C2145.59 872.24 2143.7 864.254 2143.05 851.833C2143.05 851.833 2173.18 814.576 2191.98 789.015C2201.11 776.568 2207.57 766.903 2206.56 765.632C2204.18 762.63 2172.03 720.341 2157.68 701.48C2153.52 696.001 2150.86 692.503 2150.86 692.503L2169.02 585.235C2169.02 585.235 2221.95 600.875 2268.21 781.079Z" fill="#739AF0"></path><path d="M2234.53 816.752C2217.48 830.791 2192.44 848.057 2156.31 866.802C2155.42 867.26 2154.51 867.729 2153.6 868.198C2148.98 862.626 2146.18 855.993 2144.47 850.077C2145.08 849.328 2145.86 848.339 2146.82 847.161C2155.47 836.362 2177.22 809.079 2191.97 789.01C2208.01 806.182 2223.52 813.587 2234.53 816.752Z" fill="#F9CBB7"></path><path d="M2130.77 579.782C2106.46 577.18 2083.66 578.366 2065.68 580.522C2065.67 580.438 2065.67 580.397 2065.67 580.397C2065.67 580.397 2125.92 543.137 2130.77 579.782Z" fill="#F9CBB7"></path><path d="M2070.35 685.161H2069.11L2068.2 627.09H2071.33L2070.35 685.161Z" fill="#BBD4FF"></path><path d="M2068.99 683.653C2067.86 685.351 2065.33 690.966 2067.01 691.558C2068.69 692.152 2071.64 692.186 2072.43 691.396C2073.22 690.606 2071.12 680.445 2068.99 683.653Z" fill="#587BC9"></path><path d="M2127.38 685.161H2126.14L2125.23 627.09H2128.35L2127.38 685.161Z" fill="#BBD4FF"></path><path d="M2126.02 683.653C2124.89 685.351 2122.36 690.966 2124.04 691.558C2125.72 692.152 2128.67 692.186 2129.46 691.396C2130.25 690.606 2128.14 680.445 2126.02 683.653Z" fill="#587BC9"></path><path d="M2078.75 637.019L2027.54 587.666C2027.54 587.666 2016.01 579.481 2034.23 567.244C2052.46 555.009 2078.75 637.019 2078.75 637.019Z" fill="#4A75CB"></path><path d="M2119.75 637.019L2170.96 587.666C2170.96 587.666 2182.49 579.481 2164.27 567.244C2146.04 555.009 2119.75 637.019 2119.75 637.019Z" fill="#4A75CB"></path><path d="M2184.03 877.278C2174.05 878.122 2165.73 875.622 2159.3 869.884C2158.22 868.914 2157.23 867.884 2156.31 866.801C2151.25 860.886 2148.41 853.44 2146.82 847.159C2144.98 839.985 2144.79 834.341 2144.79 834.225L2144.75 832.778H2062.03L2062.08 834.32C2062.4 843.213 2060.97 850.846 2057.79 857.126C2056.22 860.271 2054.21 863.073 2051.77 865.53C2049.52 867.8 2047.03 869.633 2044.48 871.112C2033.41 877.526 2021.09 877.277 2020.93 877.277L2019.4 877.225V912.173H2185.64V877.141L2184.03 877.278Z" fill="#678FE5"></path><path d="M2206.56 765.632C2206.56 765.632 2160.45 705.128 2196.95 687.513C2211.44 680.52 2231.84 763.548 2220.9 771.358C2209.97 779.17 2191.97 789.009 2191.97 789.009L2206.56 765.632Z" fill="#678FE5"></path><path d="M1997.99 755.656C1997.99 755.656 2014.01 679.688 1999.95 687.512C1985.89 695.335 1965.06 763.547 1976 771.357C1986.93 779.169 2004.93 789.008 2004.93 789.008L1997.99 755.656Z" fill="#678FE5"></path><path d="M2200.1 765.455C2179.04 739.316 2171.17 696.871 2172.25 653.071C2173.06 620.181 2177.56 590.501 2177.86 589.461L2195.13 602.912C2195.06 603.159 2185.22 621.154 2184.45 653.159C2183.76 682.427 2182.37 704.709 2198.91 755.656L2200.1 765.455Z" fill="#587BC9"></path><path d="M2040.22 1293.64L2003.12 1293.62C1999.84 1293.99 1994.7 1289.18 1994.7 1282.3C1994.7 1282.3 1994.62 1265.82 1993.53 1262.89C1988.76 1250.05 1995.86 1249.36 2002.73 1249.36H2070.42C2077.29 1249.36 2066.77 1270.6 2066.77 1277.47L2069.2 1286.48C2069.2 1293.36 2047.09 1293.64 2040.22 1293.64Z" fill="#233862"></path><path d="M2051.33 1310.98L2041.2 1353.57H2009.54L2007.66 1312.77C2012.37 1314.5 2028.26 1318.92 2051.33 1310.98Z" fill="#233862"></path><path d="M2136.16 1278.86L2143.79 1310.49L2153.92 1352.45H2185.58L2187.46 1312.26L2188.92 1281.26L2136.16 1278.86Z" fill="#F9CBB7"></path><path d="M2154.9 1293.64L2192 1293.62C2195.28 1293.99 2200.42 1289.18 2200.42 1282.3C2200.42 1282.3 2200.5 1265.82 2201.59 1262.89C2206.36 1250.05 2199.26 1249.36 2192.39 1249.36H2124.7C2117.83 1249.36 2128.36 1270.6 2128.36 1277.47L2125.92 1286.48C2125.92 1293.36 2148.03 1293.64 2154.9 1293.64Z" fill="#233862"></path><path d="M2143.79 1310.98L2153.92 1353.57H2185.58L2187.46 1312.77C2182.75 1314.5 2166.87 1318.92 2143.79 1310.98Z" fill="#233862"></path><path d="M569.578 449.829C567.084 447.118 561.514 444.046 554.179 441.541C567.063 435.745 578.026 428.914 570.445 424.739C567.168 422.933 563.253 423.187 559.129 424.687C565.475 418.269 568.528 412.744 562.343 411.295C552.943 409.096 543.157 421.209 536.326 432.377C540.757 422.799 543.041 413.307 534.78 413.165C525.259 413.002 523.399 425.639 523.564 436.562C522.775 436.566 521.986 436.58 521.195 436.608C518.511 424.525 513.308 409.496 504.435 413.509C499.969 415.53 500.128 419.864 502.468 424.876C498.273 421.657 494.121 420.544 490.823 423.952C485.799 429.15 491.977 435.315 500.142 440.471C494.359 442.571 488.892 445.611 484.065 449.827C456.341 474.036 486.569 528.86 486.569 528.86L565.718 526.832C590.519 487.354 578.558 459.591 569.578 449.829Z" fill="#2C3A64"></path><path d="M488.851 827.19L441.581 833.148C410.499 837.066 382.405 819.148 379.15 793.331L361.169 650.673C357.913 624.856 371.519 604.506 402.77 603.224C421.289 602.464 452.193 598.384 485.436 587.322C514.912 577.513 518.211 604.65 521.465 630.468L539.447 773.125C542.702 798.942 519.934 823.272 488.851 827.19Z" fill="#7DB5DB"></path><path d="M426.342 1404.69C426.342 1404.69 426.342 1389.49 428.509 1384.43C430.676 1379.38 438.619 1358.79 438.619 1358.79H469.672C469.672 1358.79 475.448 1377.57 475.81 1383.71C476.172 1389.85 475.81 1404.69 475.81 1404.69H426.342V1404.69Z" fill="#233862"></path><path d="M623.506 1404.69C623.506 1404.69 623.506 1389.49 621.339 1384.43C619.173 1379.38 611.229 1358.79 611.229 1358.79H580.177C580.177 1358.79 574.399 1377.57 574.037 1383.71C573.677 1389.85 574.037 1404.69 574.037 1404.69H623.506V1404.69Z" fill="#233862"></path><path d="M499.1 551.421C499.1 551.421 498.006 585.273 493.673 600.438L459.382 624.36L588.466 643.677L557.682 601.142C557.682 601.142 548.387 555.754 553.262 538.965C558.137 522.174 499.1 551.421 499.1 551.421Z" fill="#F9CBB7"></path><path d="M498.911 556.096C498.912 556.086 509.12 580.669 528.347 580.127C547.575 579.586 551.95 557.843 551.95 557.843L498.911 556.096Z" fill="#99592E"></path><path d="M526.144 570.633C512.211 570.386 486.57 551.836 486.57 528.862V493.012C486.57 484.624 492.42 477.761 499.568 477.761H552.72C559.87 477.761 565.719 484.624 565.719 493.012V526.833C565.719 550.923 542.122 570.914 526.144 570.633Z" fill="#F9CBB7"></path><path d="M430.233 878.213C430.233 878.213 435.668 1044.12 427.543 1138.78C419.42 1233.44 427.603 1365.18 427.603 1365.18C427.603 1365.18 453.584 1379.5 481.749 1365.18C481.749 1365.18 512.637 1182.3 512.44 1138.78C512.233 1092.43 546.06 885.445 546.06 885.445L430.233 878.213Z" fill="#587BC9"></path><path d="M622.384 1365.17C622.384 1365.17 596.407 1379.5 568.243 1365.17C568.243 1365.17 537.359 1182.3 537.554 1138.78C537.641 1119.2 531.661 1070.97 524.717 1021.79C515.218 954.507 503.93 885.45 503.93 885.45L624.245 877.931C624.245 877.931 614.322 1044.12 622.447 1138.78C630.572 1233.44 622.384 1365.17 622.384 1365.17Z" fill="#587BC9"></path><path d="M601.564 609.168L601.566 609.241C585.948 605.309 571.26 602.721 557.682 601.141C545.702 617.054 537.1 620.748 526.148 625.081C508.524 622.644 493.673 600.935 493.673 600.437C468.087 603.059 453.604 608.443 453.604 608.443C443.866 612.526 431.083 688.602 429.09 730.86C428.841 736.168 428.755 740.934 428.873 744.963C429.913 781.208 431.376 816.435 426.707 855.453C420.564 906.723 430.964 905.812 430.964 905.812C430.964 905.812 444.959 908.553 464.48 911.142C482.136 913.503 504.31 915.746 524.718 915.746C571.515 915.746 622.806 905.812 622.806 905.812C637.571 905.997 618.667 813.942 615.906 758.556C615.266 745.694 614.67 733.951 614.113 723.221C631.845 738.498 684.027 766.338 685.214 769.893C685.214 769.893 673.827 790.677 670.368 801.756C657.084 844.295 634.238 872.419 634.238 872.419C637.346 884.216 636.476 889.444 636.476 889.444C672.614 861.051 695.914 836.896 710.786 818.373C731.693 792.321 735.982 777.383 735.982 777.383C655.519 613.6 601.564 609.168 601.564 609.168Z" fill="#305399"></path><path d="M464.479 911.144C444.959 908.555 430.963 905.814 430.963 905.814C430.963 905.814 420.564 906.724 426.706 855.455C431.375 816.437 429.912 781.21 428.872 744.965C428.754 740.936 428.84 736.169 429.089 730.862C432.079 735.649 465.399 789.464 474.368 829.458C480.901 858.628 471.054 892.988 464.479 911.144Z" fill="#587BC9"></path><path d="M537.555 1138.78C537.642 1119.2 531.662 1070.97 524.718 1021.79C531.922 992.409 549.471 964.137 549.471 964.137C571.676 1026.42 537.555 1138.78 537.555 1138.78Z" fill="#305399"></path><path d="M634.237 872.421C634.237 872.421 614.738 854.367 606.795 864.478C598.851 874.587 597.406 890.476 603.546 889.392C609.684 888.309 622.321 882.532 624.127 885.42C625.933 888.309 634.021 893.83 636.476 889.444C638.931 885.059 634.237 872.421 634.237 872.421Z" fill="#F9CBB7"></path><path d="M634.237 872.421C637.345 884.218 636.472 889.446 636.472 889.446C672.609 861.053 695.909 836.898 710.782 818.375C699.57 817.54 689.204 815.038 670.367 801.758C654.814 849.202 634.237 872.421 634.237 872.421Z" fill="#F9CBB7"></path><path d="M680.708 766.227C677.815 763.822 631.472 738.302 613.923 723.061C613.923 723.061 631.439 709.932 642.272 729.073C653.103 748.213 680.708 766.227 680.708 766.227Z" fill="#587BC9"></path><path d="M735.982 777.385C735.982 777.385 731.693 792.324 710.786 818.375C686.587 818.038 735.982 777.385 735.982 777.385Z" fill="#587BC9"></path><path d="M486.569 507.55C486.569 507.55 496.238 478.032 527.923 482.636C559.608 487.24 562.35 494.01 565.718 501.863C569.085 509.717 575.585 473.157 575.585 473.157L538.213 462.054C538.213 462.054 492.988 467.2 489.738 474.782C486.489 482.365 486.489 482.365 486.489 482.365L486.569 507.55Z" fill="#2C3A64"></path><path d="M429.395 822.033L429.938 796.873C465.794 769.647 480.38 737.379 481.762 681.569C482.809 639.249 468.592 604.738 468.492 604.393C468.492 604.393 474.836 602.873 476.995 602.499C479.326 602.096 486.458 601.281 486.458 601.281C486.892 602.76 496.339 637.163 495.305 681.523C493.919 740.988 468.226 792.549 429.395 822.033Z" fill="#2B478B"></path><path d="M528.805 814.753C516.695 816.575 454.638 830.978 410.41 836.56C385.479 839.705 366.213 840.059 364.725 833.779C360.611 816.357 374.607 705.376 396.852 660.711C419.095 616.034 460.323 606.387 460.323 606.387L472.051 677.112L412.432 795.852L426.95 796.112L526.579 797.883L528.805 814.753Z" fill="#305399"></path><path d="M560.049 821.072H537.621C534.904 821.072 532.683 818.85 532.683 816.134V775.564C532.683 772.848 534.905 770.626 537.621 770.626H560.049C562.764 770.626 564.987 772.849 564.987 775.564V816.134C564.986 818.851 562.764 821.072 560.049 821.072Z" fill="#233862"></path><path d="M560.049 825.134H537.621C534.904 825.134 532.683 822.912 532.683 820.196V779.626C532.683 776.91 534.905 774.688 537.621 774.688H560.049C562.764 774.688 564.987 776.911 564.987 779.626V820.196C564.986 822.912 562.764 825.134 560.049 825.134Z" fill="#2B478B"></path><path d="M514.927 801.781C514.927 801.781 547.703 779.195 558.451 787.038C569.2 794.879 570.055 813.574 525.491 815.121L514.927 801.781Z" fill="#F9CBB7"></path><path d="M528.805 814.753C516.695 816.575 454.638 830.978 410.41 836.56C414.284 817.69 420.376 804.85 426.948 796.112L526.577 797.883L528.805 814.753Z" fill="#F9CBB7"></path><path d="M560.874 510.776C559.195 508.726 556.428 507.549 553.28 507.549H537.325C534.291 507.549 532.171 508.422 531.026 510.142C530.493 510.942 530.227 511.854 530.128 512.788C527.451 512.121 524.845 512.46 523.034 512.913C522.946 511.934 522.678 510.977 522.124 510.142C520.979 508.422 518.858 507.549 515.825 507.549H499.869C496.723 507.549 493.954 508.726 492.274 510.776C490.751 512.637 490.236 515.064 490.788 517.796C492.604 526.813 502.988 527.966 508.176 527.966C509.777 527.966 510.883 527.856 511.09 527.833C515.945 527.822 519.364 525.052 521.847 519.118C522.271 518.105 522.947 516.202 523.056 514.218C524.78 513.758 527.43 513.343 530.088 514.074C530.171 516.11 530.869 518.082 531.303 519.119C533.787 525.053 537.206 527.823 542.061 527.834C542.267 527.856 543.373 527.967 544.975 527.967C550.162 527.967 560.546 526.814 562.363 517.797C562.913 515.065 562.398 512.638 560.874 510.776ZM520.879 518.713C518.575 524.22 515.455 526.784 511.061 526.784L510.998 526.788C510.954 526.793 506.656 527.293 502.146 526.374C496.223 525.169 492.748 522.213 491.815 517.588C491.329 515.176 491.768 513.052 493.086 511.44C494.565 509.634 497.037 508.599 499.868 508.599H515.824C518.485 508.599 520.31 509.314 521.248 510.724C521.732 511.451 521.946 512.316 522 513.207C521.187 513.465 520.669 513.694 520.599 513.726C520.284 513.87 520.145 514.243 520.289 514.558C520.395 514.788 520.623 514.924 520.861 514.924C520.948 514.924 521.036 514.906 521.122 514.867C521.135 514.861 521.452 514.721 521.976 514.542C521.804 516.329 521.174 518.01 520.879 518.713ZM561.334 517.589C560.401 522.213 556.927 525.169 551.003 526.374C546.492 527.292 542.195 526.793 542.151 526.788L542.088 526.784C537.694 526.784 534.575 524.219 532.27 518.713C531.97 517.994 531.322 516.26 531.167 514.435C531.472 514.557 531.774 514.695 532.074 514.853C532.382 515.016 532.762 514.9 532.923 514.592C533.086 514.286 532.969 513.907 532.664 513.743C532.165 513.479 531.661 513.276 531.156 513.098C531.22 512.246 531.435 511.42 531.9 510.724C532.839 509.314 534.663 508.599 537.325 508.599H553.28C556.112 508.599 558.584 509.634 560.062 511.44C561.38 513.052 561.82 515.176 561.334 517.589Z" fill="#2C3A64"></path><path d="M513.397 547.458C513.397 547.458 530.927 545.549 539.085 547.458C539.085 547.458 534.745 554.574 527.629 554.574C520.513 554.574 515.132 551.97 513.397 547.458Z" fill="#FFF0E6"></path><path d="M1318.36 492.339C1309.81 489.526 1300.53 490.901 1294.17 492.577C1295.49 490.536 1298.61 489.257 1298.61 489.257C1294.51 489.468 1286.41 495.215 1286.41 495.215C1226.66 485.025 1234.4 568.421 1239.39 587.153C1244.37 605.884 1215.51 660.185 1195.59 686.676C1139.72 761.008 1229.06 838.413 1229.06 838.413C1301.49 899.245 1268.58 781.285 1268.58 781.285C1264.09 766.24 1318.51 671.102 1350.52 639.442C1356.83 624.408 1355.32 600.406 1355.19 598.52C1357.37 617.352 1356.29 628.38 1354.64 634.801C1380.09 599.75 1341.01 499.79 1318.36 492.339Z" fill="#163560"></path><path d="M1467.06 766.395C1467.06 774.454 1463.01 784.774 1457.21 795.403C1442.81 821.896 1417.62 850.299 1417.62 850.299L1403.02 829.512C1403.02 829.512 1411.89 807.489 1417.78 789.331C1421.32 778.414 1423.77 768.898 1422.58 766.394C1419.38 759.718 1356.17 684.938 1356.17 684.938L1338.99 627.078C1338.99 627.078 1381.04 629.303 1398.95 655.519C1416.86 681.743 1467.06 744.679 1467.06 766.395Z" fill="#678FE5"></path><path d="M1457.21 795.403C1442.81 821.896 1417.62 850.299 1417.62 850.299L1403.02 829.512C1403.02 829.512 1411.89 807.489 1417.78 789.331C1424.86 793.522 1437.12 797.513 1457.21 795.403Z" fill="#F9CBB7"></path><path d="M1282.48 1287.88L1297.61 1351.6L1320.27 1351.47L1321.1 1287.88H1282.48Z" fill="#F9CBB7"></path><path d="M1473.09 1290.6L1516.14 1351.6L1532.91 1330.06L1507.01 1282.21L1473.09 1290.6Z" fill="#F9CBB7"></path><path d="M1342 645.761C1342.19 645.846 1323.83 655.379 1310.02 651.602C1297.03 648.059 1288.54 631.215 1288.72 631.177C1294.22 630.085 1295.81 622.525 1295.69 590.037L1298.18 590.527L1339.99 598.807C1339.99 598.807 1339.04 611.968 1339.01 624.366C1338.99 634.776 1339.62 644.65 1342 645.761Z" fill="#F9CBB7"></path><path d="M1274.92 515.006C1274.92 515.006 1290.81 489.399 1320.31 504.71C1320.31 504.71 1305.02 505.132 1274.92 515.006Z" fill="#5FABB7"></path><path d="M1339.99 598.808C1339.99 598.808 1339.04 611.969 1339.02 624.367C1315.62 623.707 1303.25 602.36 1298.18 590.528L1339.99 598.808Z" fill="#EF9E67"></path><path d="M1289.57 591.994C1289.57 591.994 1273.72 575.421 1267.56 559.761C1263.16 548.58 1260.4 504.408 1304.84 501.892C1304.84 501.892 1317.64 500.6 1331.04 506.188C1341.69 510.631 1357.98 521.577 1350.41 562.134L1349.03 575.597L1289.57 591.994Z" fill="#163560"></path><path d="M1528.88 1316.12C1528.88 1316.12 1517.76 1318.04 1508.64 1318.73C1506.61 1318.89 1504.69 1318.98 1503 1318.98C1498.61 1318.98 1490.69 1317.32 1485.38 1316.08L1484.98 1315.99C1482.65 1315.44 1480.87 1314.99 1480.2 1314.82L1479.93 1314.75C1479.93 1314.75 1424.5 1253.04 1393.41 1154.13C1392.69 1151.82 1391.92 1149.5 1391.11 1147.15C1374.09 1097.53 1338.82 1035.26 1320.24 978.893C1317.28 969.922 1314.62 961.466 1312.24 953.471C1311.47 950.911 1310.73 948.398 1310.03 945.919C1296.33 898.321 1292.36 867.074 1288.71 833.685L1400.47 862.119C1400.47 862.119 1447.39 1065.53 1528.88 1316.12Z" fill="#678FE5"></path><path d="M1347.31 605.422C1347.31 605.422 1293.22 617.257 1286.37 583.456C1279.52 549.654 1267.92 528.418 1302.17 519.433C1336.42 510.448 1345.76 521.981 1350.79 532.707C1355.82 543.432 1361.21 601.471 1347.31 605.422Z" fill="#F9CBB7"></path><path d="M1326.72 513.622C1326.72 513.622 1319.85 556.281 1298.23 566.742C1276.61 577.204 1265.48 573.088 1265.48 573.088C1265.48 573.088 1280.18 555.665 1278.92 530.676C1278.92 530.676 1311.7 497.003 1326.72 513.622Z" fill="#163560"></path><path d="M1323.69 517.584C1323.69 517.584 1336.57 524.203 1341.01 532.267C1345.45 540.332 1350.24 557.808 1355.28 556.165C1355.28 556.165 1361.05 526.947 1345.39 514.233C1328.79 500.752 1323.69 517.584 1323.69 517.584Z" fill="#163560"></path><path d="M1296.85 1348.04C1296.85 1348.04 1298.67 1360.66 1293.96 1374.16C1293.96 1374.16 1290.25 1391.06 1306.9 1391.37C1323.54 1391.68 1327.62 1390.11 1325.74 1379.75C1323.85 1369.39 1320.27 1351.47 1320.27 1351.47L1296.85 1348.04Z" fill="#F9CBB7"></path><path d="M1293.96 1374.16C1293.96 1374.16 1290.27 1391.91 1292.15 1400.39C1292.15 1400.39 1297.79 1402.36 1309.88 1402.36C1321.34 1402.36 1328.08 1400.39 1328.08 1400.39C1328.08 1400.39 1327.66 1381.11 1324.6 1373.73C1324.6 1373.73 1312.8 1391.43 1293.96 1374.16Z" fill="#305399"></path><path d="M1573.02 1381.44C1573.02 1381.44 1542.33 1347.39 1532.91 1330.06L1510.1 1341.74L1561.1 1389.64L1573.03 1388.07L1573.02 1381.44Z" fill="#F9CBB7"></path><path d="M1592.51 1401.41C1592.51 1401.41 1559.53 1401.41 1553.88 1400.78C1548.23 1400.15 1543.68 1391.99 1537.56 1379.74C1535.05 1374.73 1529.43 1371.97 1523.66 1370.45L1523.77 1400.39H1514.7L1506.7 1368.67C1501.27 1358.68 1506.27 1349.63 1510.09 1341.74C1514.54 1341.73 1526.51 1344.78 1549.17 1370.32C1556.62 1378.7 1564.85 1381.7 1573.02 1381.44C1573.13 1381.52 1573.24 1381.58 1573.36 1381.62C1592.2 1390.1 1592.51 1401.41 1592.51 1401.41Z" fill="#305399"></path><path d="M1508.64 1318.73C1506.61 1318.89 1504.69 1318.98 1503 1318.98C1498.61 1318.98 1490.69 1317.32 1485.38 1316.08L1484.98 1315.99L1480.2 1314.82L1479.93 1314.74C1479.93 1314.74 1424.5 1253.04 1393.41 1154.13C1392.69 1151.82 1391.92 1149.5 1391.11 1147.15C1374.09 1097.53 1338.82 1035.26 1320.24 978.893C1317.28 969.922 1314.62 961.466 1312.24 953.471C1311.47 950.911 1310.73 948.398 1310.03 945.919L1329.79 930.915C1329.79 930.915 1389.13 1027.01 1407.5 1117.44C1422.73 1192.39 1488.29 1289.57 1508.64 1318.73Z" fill="#2B478B"></path><path d="M1331.86 1125.86C1332.19 1169.84 1329.97 1270.94 1324.24 1312.8C1324.24 1312.8 1318.81 1317.61 1305.34 1317.66C1291.55 1317.72 1285.38 1312.63 1285.38 1312.63C1271.01 1239.85 1260.79 1179.64 1253.35 1127.75C1247.24 1085.17 1241.82 1048.66 1237.65 1017.23C1233.95 989.384 1231.24 965.517 1229.93 944.943C1229.76 942.149 1229.61 939.417 1229.48 936.749C1229.32 933.223 1229.19 929.795 1229.13 926.476C1229.07 923.13 1229.05 919.874 1229.07 916.717L1229.55 916.672L1257.32 913.968L1345.04 905.412C1343.58 982.466 1331.67 1100.31 1331.86 1125.86Z" fill="#678FE5"></path><path d="M1305.34 1317.66C1293.61 1318.34 1285.38 1312.63 1285.38 1312.63C1271.01 1239.85 1260.79 1179.64 1253.35 1127.75C1247.24 1085.17 1241.82 1048.66 1237.65 1017.23C1233.95 989.384 1231.24 965.517 1229.93 944.943C1229.78 934.804 1229.67 925.091 1229.55 916.672C1229.43 908.135 1229.29 900.908 1229.06 895.881L1257.32 913.968L1287.06 932.988C1287.06 932.988 1244.87 971.361 1255.24 1043.9C1265.6 1116.44 1290.92 1307.39 1305.34 1317.66Z" fill="#2B478B"></path><path d="M1415.9 925.101C1382.24 933.846 1225.21 951.112 1223.85 911.78C1223.51 902.184 1223.85 890.599 1224.61 878.055C1226.95 839.203 1233.33 791.19 1236.38 764.772C1237.78 752.663 1233.13 698.426 1236.7 668.871C1237.22 664.494 1237.93 660.65 1238.87 657.575C1245.65 635.273 1276.13 629.223 1291.78 628.69L1338.98 627.08C1338.98 627.08 1387.74 681.542 1394.52 698.273C1401.3 715.004 1403.52 772.279 1408.79 800.016C1414.07 827.753 1432.26 920.851 1415.9 925.101Z" fill="#678FE5"></path><path d="M1323.15 792.175C1323.15 792.175 1296.9 872.782 1224.61 878.055C1226.95 839.203 1233.32 791.19 1236.38 764.772C1237.78 752.663 1233.13 698.426 1236.7 668.871C1237.64 669.07 1238.49 669.596 1239.47 669.785C1319.09 685.159 1330.38 775.371 1323.15 792.175Z" fill="#305399"></path><path d="M1387.24 710.836L1303.4 701.907L1289.81 829.519L1373.65 838.448L1387.24 710.836Z" fill="#2B478B"></path><path d="M1303.36 701.898L1297.98 701.472L1285.34 828.979L1289.77 829.508L1303.36 701.898Z" fill="#163560"></path><path d="M1232.66 758.394C1232.66 758.394 1291.81 776.474 1348.35 784.556C1348.35 784.556 1367.01 792.623 1358.25 794.832C1356 795.398 1242.78 820.084 1226 804.067L1232.66 758.394Z" fill="#F9CBB7"></path><path d="M1291.78 628.69C1291.78 628.69 1260.67 628.86 1247.39 644.012C1223.15 671.668 1218.35 789.298 1226 804.068C1229.29 810.42 1254.52 810.935 1265.17 780.174C1270.69 764.22 1294.81 657.695 1291.78 628.69Z" fill="#678FE5"></path><path d="M1342.78 783.73C1342.78 783.73 1349.73 783.082 1351.05 780.861C1353.69 776.42 1357.86 776.475 1361.33 775.889C1364.81 775.303 1368.72 771.496 1369.41 772.262C1370.1 773.028 1366.84 777.223 1365.03 778.787C1365.03 778.787 1368.75 779.014 1371.22 777.838C1373.69 776.661 1381.22 766.938 1382.4 771.028C1385.52 781.789 1382.28 792.131 1373.65 792.97C1364.34 793.875 1341.23 798.335 1341.23 798.335L1342.78 783.73Z" fill="#F9CBB7"></path><path d="M1633.43 833.686C1589.24 822.441 1540.67 753.888 1540.67 753.888L1553.11 743.096C1566 758.282 1619.55 784.439 1619.55 784.439C1619.27 770.542 1619.63 757.865 1620.51 746.327C1626.45 667.91 1656.01 641.784 1664.08 636.052C1665.38 635.121 1666.13 634.733 1666.13 634.733C1666.13 634.733 1666.16 635.301 1666.21 636.381C1666.32 638.711 1666.54 643.406 1666.76 649.849C1668.4 697.844 1670.36 843.092 1633.43 833.686Z" fill="#587BC9"></path><path d="M1553.11 743.096C1552.93 741.243 1551.68 714.303 1546.33 709.174C1540.98 704.045 1530.41 697.06 1527.37 697.624C1524.34 698.19 1514.02 715.344 1518.89 727.159C1523.76 738.974 1540.67 753.888 1540.67 753.888L1553.11 743.096Z" fill="#587BC9"></path><path d="M1564.09 746.229L1534.99 747.446C1534.02 747.486 1533.21 746.736 1533.17 745.77L1530.85 690.279C1530.81 689.312 1531.56 688.497 1532.52 688.458L1561.63 687.24C1562.59 687.199 1563.41 687.95 1563.45 688.915L1565.77 744.407C1565.81 745.372 1565.06 746.188 1564.09 746.229Z" fill="#7DB5DB"></path><path d="M1556.53 746.544L1530.13 747.648C1528.42 747.719 1526.97 746.389 1526.9 744.676L1524.7 691.889C1524.62 690.177 1525.95 688.731 1527.67 688.658L1554.06 687.554C1555.78 687.482 1557.22 688.812 1557.29 690.525L1559.5 743.312C1559.57 745.026 1558.24 746.473 1556.53 746.544Z" fill="#2B478B"></path><path d="M1525.17 699.684C1525.17 699.684 1533.1 690.827 1541.03 697.595C1548.97 704.364 1540.51 718.818 1533.62 722.769C1526.74 726.72 1524.54 728.78 1524.54 728.78L1525.17 699.684Z" fill="#587BC9"></path><path d="M1729.65 1289.6C1726.96 1300.3 1724 1310.49 1720.98 1319.98C1720.33 1322.01 1719.7 1324.01 1719.05 1325.96C1718.72 1326.94 1718.4 1327.9 1718.09 1328.85C1717.45 1330.73 1716.82 1332.57 1716.2 1334.37C1715.38 1336.72 1714.57 1339.01 1713.76 1341.22C1713.17 1342.86 1712.58 1344.47 1712 1346.04C1703.03 1370.08 1695.53 1385.31 1695.53 1385.31L1677.67 1384.08C1677.67 1384.08 1684.38 1352.19 1685.72 1306.51C1685.76 1304.88 1685.81 1303.24 1685.84 1301.58C1685.91 1298.03 1685.95 1294.43 1685.95 1290.74C1685.95 1289.23 1685.94 1287.7 1685.93 1286.16C1685.57 1246.82 1680.7 1200.33 1665.16 1155.94C1652.52 1119.85 1643.36 1086.09 1636.74 1055.58C1615.35 957.076 1620.38 892.364 1620.38 892.364L1720.82 904.117L1725.5 904.665C1725.93 950.797 1727.11 1013.43 1728.15 1062.4C1728.33 1070.9 1728.5 1078.99 1728.66 1086.51C1729.36 1117.95 1729.88 1139.45 1729.88 1139.45C1749.2 1181.03 1742.19 1239.73 1729.65 1289.6Z" fill="#E5AA90"></path><path d="M1700.9 547.497C1700.9 547.497 1724.66 567.729 1702.87 591.018C1702.87 591.018 1721.03 592.799 1727.17 587.772C1727.17 587.772 1725.96 590.223 1724.84 591.326C1724.84 591.326 1745.14 592.055 1753.52 585.724C1761.9 579.392 1756.52 475.541 1700.18 487.152C1700.18 487.152 1652.43 483.547 1656.88 538.799C1661.32 594.051 1643.3 594.052 1643.3 594.052C1643.3 594.052 1648.31 596.525 1650.73 596.525C1650.73 596.525 1654.27 595.174 1654.97 593.218C1654.97 593.218 1654.27 596.291 1653.36 597.268C1653.36 597.268 1672.82 599.112 1682.54 591.766C1692.26 584.42 1703.67 558.896 1700.9 547.497Z" fill="#233862"></path><path d="M1777.58 881.093C1758.6 838.523 1749.52 826.485 1749.2 813.09C1748.95 802.497 1754.17 791.069 1764.31 763.045C1766.7 756.442 1768.35 749.652 1769.37 742.787C1777.39 688.762 1746.15 630.359 1726.73 626.381C1721.33 624.953 1712.17 605.44 1712.28 573.997L1709.85 574.476L1668.96 582.573C1668.96 582.573 1669.9 595.44 1669.92 607.561C1669.95 617.663 1669.4 627.941 1667.12 629.146C1664.17 629.413 1661.5 629.949 1661.5 629.949C1661.5 629.949 1626.89 654.25 1624.66 687.209C1621.68 731.235 1652.71 783.426 1625.19 871.42C1597.08 961.289 1788.06 904.617 1777.58 881.093Z" fill="#587BC9"></path><path d="M1668.96 582.572C1668.96 582.572 1669.9 595.439 1669.92 607.56C1692.8 606.914 1704.9 586.043 1709.85 574.475L1668.96 582.572Z" fill="#F9CBB7"></path><path d="M1714.07 570.025C1714.07 570.025 1726.06 551.081 1728.94 534.882C1731 523.316 1725.11 480.448 1682.03 486.621C1682.03 486.621 1669.51 487.854 1657.75 495.798C1648.4 502.114 1634.9 515.752 1650 553.161L1653.92 565.798L1714.07 570.025Z" fill="#233862"></path><path d="M1661.32 594.051C1661.32 594.051 1715.46 594.944 1715.49 561.223C1715.53 527.504 1722.54 504.91 1687.98 502.914C1653.42 500.919 1646.69 513.778 1643.94 525.03C1641.19 536.281 1647.24 592.948 1661.32 594.051Z" fill="#F9CBB7"></path><path d="M1663.33 502.089C1663.33 502.089 1678.15 541.649 1700.9 547.497C1723.64 553.346 1733.51 547.252 1733.51 547.252C1733.51 547.252 1716.06 533.392 1712.44 509.198C1712.44 509.198 1674.51 483.26 1663.33 502.089Z" fill="#233862"></path><path d="M1667 505.3C1667 505.3 1655.93 514.131 1653.23 522.719C1650.54 531.306 1649.32 548.982 1644.17 548.381C1644.17 548.381 1633 521.492 1645.55 506.281C1658.86 490.153 1667 505.3 1667 505.3Z" fill="#233862"></path><path d="M1847.98 926.311L1831.73 931.185C1831.73 931.185 1778.12 842.239 1773.25 819.094C1771.66 811.559 1767.76 796.481 1763.21 779.588C1753.8 744.603 1741.65 701.794 1741.65 701.794L1737.65 684.464L1724 625.367C1724 625.367 1750.13 628.036 1765.41 634.427C1770.47 636.538 1774.33 639.059 1775.68 642.018C1786.91 666.704 1798.12 729.011 1806 773.457C1810.39 798.228 1813.74 817.456 1815.49 821.53C1820.36 832.898 1835.25 895.445 1847.98 926.311Z" fill="#587BC9"></path><path d="M1664.94 506.636C1664.94 506.636 1675.51 548.063 1704.2 561.33C1704.2 561.33 1675.51 535.879 1673.07 508.532C1670.63 481.186 1664.94 506.636 1664.94 506.636Z" fill="#233862"></path><path d="M1787.27 1280.95C1781.49 1342.58 1756.06 1382.44 1756.06 1382.44L1747.38 1390.34C1747.38 1390.34 1739.47 1345.21 1733.76 1293.55C1728.32 1244.45 1720.86 1192.48 1712.42 1176.62C1699.81 1152.92 1690.51 1104.45 1683.82 1053.25C1672.76 968.516 1668.84 876.262 1668.84 876.262L1770.68 871.212C1780.92 888.429 1785.38 916.674 1786.44 948.784C1787.56 982.548 1784.9 1020.59 1781.21 1054.59C1776.06 1102.19 1768.89 1141.86 1767.23 1150.78C1767.23 1150.79 1767.23 1150.8 1767.21 1150.82C1766.99 1151.99 1767.34 1153.17 1767.89 1154.23C1788.15 1194.34 1791.08 1240.23 1787.27 1280.95Z" fill="#F9CBB7"></path><path d="M1668.42 739.576C1666.13 795.517 1657.77 850.912 1633.41 847.348C1603.56 842.99 1595.78 815.125 1594.19 794.411C1593.21 781.518 1594.63 771.395 1594.63 771.395C1594.63 771.395 1609.32 771.328 1611.7 769.138C1622.98 758.714 1619.63 656.484 1625.22 645.869C1630.81 635.255 1667.05 628.439 1667.05 628.439C1667.05 628.439 1670.7 684.281 1668.42 739.576Z" fill="#587BC9"></path><path d="M1668.42 739.576C1666.13 795.517 1657.77 850.912 1633.41 847.348C1603.56 842.99 1595.78 815.125 1594.19 794.411C1601.52 794.042 1614.43 792.255 1619.55 784.434C1626.89 773.239 1649.8 701.175 1649.8 701.175C1649.8 701.175 1658.8 717.353 1668.42 739.576Z" fill="#305399"></path><path d="M1729.65 1289.6C1726.96 1300.3 1724 1310.49 1720.98 1319.98C1720.33 1322.01 1719.7 1324.01 1719.05 1325.97C1718.72 1326.94 1718.4 1327.9 1718.09 1328.85C1717.45 1330.73 1716.82 1332.57 1716.2 1334.37C1715.38 1336.72 1714.57 1339.01 1713.76 1341.22C1713.17 1342.86 1712.58 1344.47 1712 1346.04C1703.03 1370.08 1695.53 1385.31 1695.53 1385.31L1677.67 1384.08C1677.67 1384.08 1684.38 1352.19 1685.72 1306.51C1685.76 1304.88 1685.81 1303.24 1685.84 1301.58C1685.91 1298.03 1685.95 1294.43 1685.95 1290.74C1685.95 1289.23 1685.94 1287.7 1685.93 1286.16C1685.57 1246.82 1680.7 1200.33 1665.16 1155.94C1652.52 1119.85 1643.36 1086.09 1636.74 1055.58C1647.35 1057.76 1656.7 1055.53 1683.82 1053.25C1686.67 1053.01 1700.3 1069.89 1713.76 1092.22C1714.45 1123.66 1729.88 1139.45 1729.88 1139.45C1749.2 1181.03 1742.19 1239.73 1729.65 1289.6Z" fill="#233862"></path><path d="M1787.27 1280.95C1781.49 1342.58 1756.06 1382.44 1756.06 1382.44L1747.38 1390.34C1747.38 1390.34 1739.47 1345.22 1733.76 1293.55C1728.32 1244.45 1720.86 1192.49 1712.42 1176.62C1699.81 1152.92 1690.51 1104.45 1683.82 1053.25C1693.19 1057.15 1725.09 1067.28 1781.21 1054.59C1776.06 1102.19 1768.89 1141.86 1767.23 1150.78C1767.23 1150.79 1767.23 1150.8 1767.21 1150.82C1766.99 1151.99 1767.34 1153.17 1767.89 1154.23C1788.15 1194.34 1791.08 1240.23 1787.27 1280.95Z" fill="#2B478B"></path><path d="M1806.77 981.053C1806.77 981.053 1785.47 987.635 1754.08 991.977C1715.22 997.351 1660.89 999.289 1612.37 981.053C1612.37 981.053 1608.37 908.854 1619.87 871.218C1631.36 833.571 1636.74 815.565 1636.74 815.565C1636.74 815.565 1682.8 827.115 1729.58 818.159C1736.15 816.909 1742.73 815.243 1749.2 813.087C1749.2 813.087 1778.05 874.353 1785.99 900.607C1793.92 926.861 1806.77 981.053 1806.77 981.053Z" fill="#2B478B"></path><path d="M1806.77 981.053C1806.77 981.053 1785.47 987.635 1754.08 991.977C1696.52 959.34 1724.59 822.001 1724.59 822.001C1726.3 820.615 1727.96 819.335 1729.58 818.158C1736.15 816.908 1742.73 815.242 1749.2 813.086C1749.2 813.086 1778.05 874.352 1785.99 900.606C1793.92 926.86 1806.77 981.053 1806.77 981.053Z" fill="#233862"></path><path d="M1853.89 843.628C1853.89 857.683 1839.56 866.319 1824.17 870.52C1809.38 874.565 1793.63 874.508 1788.7 871.213C1780.2 865.515 1766.34 802.165 1762.3 782.881C1761.57 779.385 1761.16 777.339 1761.16 777.339C1761.16 777.339 1750.11 803.707 1749.76 806.165C1749.6 807.271 1749.47 808.791 1749.37 810.131C1749.26 811.751 1749.19 813.092 1749.19 813.092C1749.19 813.092 1689.23 843.36 1636.74 815.562C1636.74 815.562 1615.4 692.237 1624.66 671.009C1629.26 660.462 1653.27 638.696 1662.88 629.312C1665.04 627.2 1664.83 623.022 1663.99 619.201C1663.3 615.972 1666.2 613.134 1669.4 613.962C1675.57 615.57 1686.69 615.292 1698.6 611.38C1704.53 609.447 1710.66 606.609 1716.45 602.654C1718.14 601.504 1720.43 602.565 1720.69 604.587C1721.59 611.94 1723.82 625.368 1727.87 625.368C1733.46 625.335 1771.58 630.016 1774.38 634.731C1775.35 636.373 1785.26 658.796 1797.77 688.505C1797.77 688.505 1797.78 688.528 1797.79 688.583C1821.28 744.313 1853.89 825.651 1853.89 843.628Z" fill="#587BC9"></path><path d="M1761.16 777.339C1761.16 777.339 1750.11 803.707 1749.76 806.165C1749.6 807.271 1749.47 808.791 1749.37 810.131C1744.03 814.489 1737.57 817.796 1730.99 819.796C1712.3 825.46 1704.18 789.63 1705.29 771.753C1706.41 753.877 1732.85 702.852 1741.65 701.789C1750.44 700.739 1761.16 777.339 1761.16 777.339Z" fill="#305399"></path><path d="M1762.3 782.881C1761.57 779.385 1761.16 777.339 1761.16 777.339C1761.74 779.228 1762.12 781.071 1762.3 782.881Z" fill="#F9CBB7"></path><path d="M1685.65 829.155C1651.53 829.155 1637.46 817.412 1636.42 816.613L1634.22 800.543C1634.54 800.785 1680.33 828.277 1751.18 801.947L1749.68 814.122C1722.43 824.248 1703.37 829.155 1685.65 829.155Z" fill="#B64C41"></path><path d="M1853.89 843.628C1853.89 857.683 1839.56 866.319 1824.17 870.52C1845.38 845.27 1798.98 692.483 1797.79 688.583C1821.28 744.313 1853.89 825.651 1853.89 843.628Z" fill="#305399"></path><path d="M1727.88 625.367C1727.88 625.367 1699.33 643.445 1677.73 639.166C1677.73 639.166 1672.55 635.893 1679.7 632.597C1686.41 629.513 1702.03 620.385 1698.6 611.379C1704.53 609.446 1710.66 606.608 1716.46 602.653C1718.14 601.503 1720.43 602.564 1720.69 604.586C1721.6 611.939 1723.82 625.367 1727.88 625.367Z" fill="#305399"></path><path d="M1705.81 1400.28H1694.41C1690.59 1399.67 1687.78 1398.57 1683.86 1398.06C1677.91 1397.28 1675.18 1399.71 1674.63 1400.28C1674.56 1400.35 1674.53 1400.39 1674.53 1400.39H1626.11C1624.9 1398.65 1626.07 1394.62 1627.21 1391.66C1627.98 1389.64 1629.66 1388.12 1631.74 1387.51C1636.88 1386.03 1647 1384.7 1656.27 1376.31C1661.48 1371.6 1681.45 1358.99 1681.45 1358.99L1681.55 1358.96C1681.99 1358.97 1684.08 1359.61 1693.16 1367.28C1697.85 1371.24 1705.85 1361.69 1705.85 1361.69C1705.85 1361.69 1707.36 1362.93 1708.48 1365.25C1709.38 1367.08 1710.04 1369.59 1709.52 1372.68C1708.79 1377.04 1711.13 1385.15 1712.99 1390.63C1714.12 1393.96 1715.07 1396.31 1715.07 1396.31C1715.07 1396.31 1715.61 1399.05 1705.81 1400.28Z" fill="#233862"></path><path d="M1708.48 1365.25C1705.76 1367.17 1700.02 1370.94 1696.21 1371.44C1691.06 1372.11 1681.45 1358.99 1681.45 1358.99L1681.55 1358.96C1681.99 1358.97 1684.08 1359.61 1693.16 1367.28C1697.85 1371.24 1705.85 1361.69 1705.85 1361.69C1705.85 1361.69 1707.36 1362.94 1708.48 1365.25Z" fill="#466AA5"></path><path d="M1705.81 1400.28H1694.41C1690.59 1399.67 1687.78 1398.57 1683.86 1398.06C1677.91 1397.28 1675.18 1399.71 1674.63 1400.28C1674.56 1400.35 1674.53 1400.39 1674.53 1400.39H1626.11C1624.9 1398.65 1626.07 1394.62 1627.21 1391.66C1628.68 1390.35 1629.1 1397.34 1629.91 1398.45C1630.72 1399.56 1669.4 1398.85 1671.64 1397.23C1673.87 1395.6 1680.57 1392.76 1689.91 1395C1698.04 1396.94 1710.02 1391.96 1712.99 1390.63C1714.12 1393.96 1715.07 1396.31 1715.07 1396.31C1715.07 1396.31 1715.61 1399.05 1705.81 1400.28Z" fill="#466AA5"></path><path d="M1766.62 1400.28H1755.23C1751.41 1399.67 1748.59 1398.57 1744.67 1398.06C1738.73 1397.28 1735.99 1399.71 1735.45 1400.28C1735.37 1400.35 1735.34 1400.39 1735.34 1400.39H1686.93C1685.71 1398.65 1686.88 1394.62 1688.03 1391.66C1688.8 1389.64 1690.48 1388.12 1692.56 1387.51C1697.69 1386.03 1707.81 1384.7 1717.08 1376.31C1722.3 1371.6 1742.26 1358.99 1742.26 1358.99L1742.37 1358.96C1742.81 1358.97 1744.89 1359.61 1753.97 1367.28C1758.67 1371.24 1766.67 1361.69 1766.67 1361.69C1766.67 1361.69 1768.17 1362.93 1769.29 1365.25C1770.19 1367.08 1770.85 1369.59 1770.33 1372.68C1769.61 1377.04 1771.94 1385.15 1773.8 1390.63C1774.93 1393.96 1775.88 1396.31 1775.88 1396.31C1775.88 1396.31 1776.43 1399.05 1766.62 1400.28Z" fill="#233862"></path><path d="M1769.29 1365.25C1766.57 1367.17 1760.83 1370.94 1757.02 1371.44C1751.88 1372.11 1742.26 1358.99 1742.26 1358.99L1742.37 1358.96C1742.81 1358.97 1744.89 1359.61 1753.97 1367.28C1758.67 1371.24 1766.67 1361.69 1766.67 1361.69C1766.67 1361.69 1768.17 1362.94 1769.29 1365.25Z" fill="#466AA5"></path><path d="M1766.62 1400.28H1755.23C1751.41 1399.67 1748.59 1398.57 1744.67 1398.06C1738.73 1397.28 1735.99 1399.71 1735.45 1400.28C1735.37 1400.35 1735.34 1400.39 1735.34 1400.39H1686.93C1685.71 1398.65 1686.88 1394.62 1688.03 1391.66C1689.5 1390.35 1689.91 1397.34 1690.72 1398.45C1691.54 1399.56 1730.22 1398.85 1732.45 1397.23C1734.68 1395.6 1741.39 1392.76 1750.73 1395C1758.86 1396.94 1770.84 1391.96 1773.8 1390.63C1774.93 1393.96 1775.88 1396.31 1775.88 1396.31C1775.88 1396.31 1776.43 1399.05 1766.62 1400.28Z" fill="#466AA5"></path><path d="M1888.25 995.563C1887.12 989.905 1883.14 985.302 1877.73 983.296C1868.96 980.041 1854.6 977.107 1836.93 982.299C1807.12 991.063 1804.2 1009.39 1806.18 1022.57C1808.15 1035.75 1802.3 1056.75 1803.16 1071.7C1804.02 1086.64 1808.3 1124.19 1830.37 1122.22C1852.45 1120.25 1923.6 1101.12 1923.6 1101.12C1923.6 1101.12 1935.89 1077.73 1910.64 1043.84C1895.66 1023.74 1890.21 1005.43 1888.25 995.563Z" fill="#D37129"></path><path d="M1874.58 978.29L1868.68 978.823C1868.68 978.813 1868 974.74 1865.29 972.176C1863.21 970.209 1860.32 969.494 1856.73 970.08C1853.33 970.623 1850.89 972.184 1849.65 974.695C1847.9 978.228 1848.87 982.782 1848.88 982.831L1843.13 984.163C1843.05 983.85 1841.39 976.452 1844.41 970.236C1846.48 965.941 1850.18 963.468 1855.31 962.503C1860.6 961.656 1865.07 962.947 1868.61 966.344C1873.49 971.03 1874.54 978.001 1874.58 978.29Z" fill="#D37129"></path><path d="M1938.23 1097.78C1938.23 1097.78 1867.07 1116.95 1844.98 1118.88C1822.9 1120.89 1818.61 1083.35 1817.79 1068.35C1816.93 1053.45 1822.75 1032.43 1820.81 1019.22C1820.41 1016.73 1820.18 1013.95 1820.36 1011.16C1820.93 999.409 1827.51 986.051 1851.52 979.003C1869.23 973.785 1883.55 976.763 1892.36 980.017C1897.74 982.028 1901.77 986.611 1902.88 992.252C1903.14 993.403 1903.38 994.805 1903.69 996.185C1906.23 1006.67 1912.09 1022.95 1925.28 1040.56C1950.54 1074.4 1938.23 1097.78 1938.23 1097.78Z" fill="#F1A34F"></path><path opacity="0.4" d="M1828.54 1071.5L1871.43 1061.8C1871.43 1061.8 1881.41 1092.51 1861.14 1098.11C1840.87 1103.7 1832.46 1091.81 1828.54 1071.5Z" fill="#D86713"></path><path d="M1828.54 1071.5C1828.54 1071.5 1838.44 1081.04 1851.81 1077.68C1865.18 1074.32 1871.43 1061.8 1871.43 1061.8L1828.54 1071.5Z" fill="#D37129"></path><path opacity="0.4" d="M1880.14 1059.83L1923.02 1050.13C1923.02 1050.13 1933 1080.84 1912.73 1086.44C1892.47 1092.03 1884.06 1080.14 1880.14 1059.83Z" fill="#D86713"></path><path d="M1880.14 1059.83C1880.14 1059.83 1890.03 1069.37 1903.4 1066.01C1916.77 1062.65 1923.02 1050.13 1923.02 1050.13L1880.14 1059.83Z" fill="#D37129"></path><path opacity="0.4" d="M1902.88 992.252C1903.14 993.403 1903.38 994.805 1903.69 996.185C1898.02 1007.88 1887.28 1022.83 1869.08 1026.3C1838.15 1032.33 1820.36 1011.16 1820.36 1011.16C1820.93 999.409 1827.51 986.051 1851.52 979.003C1869.23 973.785 1883.55 976.763 1892.36 980.017C1897.74 982.027 1901.77 986.61 1902.88 992.252Z" fill="#D86713"></path><path d="M1869.52 1032.78C1867.58 1033.22 1865.64 1032 1865.2 1030.06L1864.48 1026.86C1864.04 1024.92 1865.27 1022.98 1867.2 1022.54C1869.14 1022.11 1871.08 1023.33 1871.52 1025.27L1872.25 1028.47C1872.68 1030.4 1871.46 1032.35 1869.52 1032.78Z" fill="#D86713"></path><path d="M1846.83 923.606C1846.83 923.606 1851.77 935.249 1856.91 938.498C1862.06 941.747 1866.95 949.544 1868.02 955.826C1869.98 967.356 1861.14 974.508 1854.64 974.508C1848.14 974.508 1841.93 965.648 1838.11 944.488C1837.9 943.324 1831.73 931.187 1831.73 931.187L1846.83 923.606Z" fill="#587BC9"></path><path d="M997.198 486.942C989.434 475.153 958.607 481.752 928.345 501.68C898.081 521.611 879.843 547.325 887.608 559.115C895.374 570.905 926.2 564.305 956.462 544.377C986.726 524.446 1004.96 498.732 997.198 486.942Z" fill="#233862"></path><path d="M839.101 925.004L845.074 925.362C845.021 925.229 847.398 821.019 856.54 778.858C873.571 700.304 918.083 638.812 918.572 638.286L907.877 634.858C907.35 635.426 898.906 648.502 886.953 672.627C875.937 694.859 858.223 731.893 850.402 775.024C842.681 817.617 838.88 924.442 839.101 925.004Z" fill="#587BC9"></path><path d="M947.08 486.017C947.08 486.017 908.026 477.685 889.282 509.447C870.537 541.211 869.496 596.405 856.999 614.455C844.502 632.506 822.46 708.693 845.89 725.741C869.323 742.788 1013.66 725.116 1021.77 717.343C1029.87 709.57 1021.28 629.56 1007.18 606.387C993.073 583.212 1027.44 474.213 947.08 486.017Z" fill="#305399"></path><path d="M1005.26 833.686C1049.44 822.441 1098.02 753.888 1098.02 753.888L1085.58 743.096C1072.69 758.282 1019.14 784.439 1019.14 784.439C1019.42 770.542 1019.06 757.865 1018.18 746.327C1012.24 667.91 982.676 641.784 974.608 636.052C973.305 635.121 972.558 634.733 972.558 634.733C972.558 634.733 972.528 635.301 972.482 636.381C972.365 638.711 972.15 643.406 971.93 649.849C970.29 697.844 968.331 843.092 1005.26 833.686Z" fill="#F9CBB7"></path><path d="M1085.57 743.096C1085.76 741.243 1087.01 714.303 1092.36 709.174C1097.71 704.045 1108.28 697.06 1111.31 697.624C1114.35 698.19 1124.66 715.344 1119.79 727.159C1114.92 738.974 1098.02 753.888 1098.02 753.888L1085.57 743.096Z" fill="#F9CBB7"></path><path d="M909.036 1289.6C911.729 1300.3 914.69 1310.49 917.707 1319.98C918.355 1322.01 918.991 1324.01 919.64 1325.96C919.964 1326.94 920.288 1327.9 920.601 1328.85C921.238 1330.73 921.864 1332.57 922.49 1334.37C923.305 1336.72 924.121 1339.01 924.926 1341.22C925.518 1342.86 926.11 1344.47 926.691 1346.04C935.652 1370.08 943.161 1385.31 943.161 1385.31L961.015 1384.08C961.015 1384.08 954.311 1352.19 952.97 1306.51C952.925 1304.88 952.881 1303.24 952.847 1301.58C952.78 1298.03 952.736 1294.43 952.736 1290.74C952.736 1289.23 952.747 1287.7 952.758 1286.16C953.115 1246.82 957.987 1200.33 973.529 1155.94C986.165 1119.85 995.327 1086.09 1001.95 1055.58C1023.34 957.076 1018.31 892.364 1018.31 892.364L917.866 904.117L913.185 904.665C912.759 950.797 911.575 1013.43 910.537 1062.4C910.357 1070.9 910.19 1078.99 910.023 1086.51C909.33 1117.95 908.804 1139.45 908.804 1139.45C889.484 1181.03 896.501 1239.73 909.036 1289.6Z" fill="#F9CBB7"></path><path d="M861.109 881.093C880.092 838.523 889.172 826.485 889.49 813.09C889.742 802.497 884.519 791.069 874.373 763.045C871.985 756.442 870.337 749.652 869.322 742.787C861.298 688.762 892.539 630.359 911.956 626.381C917.359 624.953 926.517 605.44 926.404 573.997L928.837 574.476L969.723 582.573C969.723 582.573 968.792 595.44 968.765 607.561C968.738 617.663 969.283 627.941 971.571 629.146C974.514 629.413 1006.61 635.149 1012.45 644.36C1018.18 653.416 1011.79 654.25 1014.03 687.209C1017.01 731.235 985.973 783.426 1013.5 871.42C1041.6 961.289 850.623 904.617 861.109 881.093Z" fill="#F9CBB7"></path><path d="M969.723 582.572C969.723 582.572 968.792 595.439 968.765 607.56C945.885 606.914 933.791 586.043 928.837 574.475L969.723 582.572Z" fill="#EF9E67"></path><path d="M977.363 594.051C977.363 594.051 923.231 594.944 923.194 561.223C923.156 527.504 916.144 504.91 950.705 502.914C985.266 500.919 991.995 513.778 994.745 525.03C997.495 536.281 991.443 592.948 977.363 594.051Z" fill="#F9CBB7"></path><path d="M975.359 502.089C975.359 502.089 960.538 541.649 937.793 547.497C915.047 553.346 905.181 547.252 905.181 547.252C905.181 547.252 922.627 533.392 926.248 509.198C926.248 509.198 964.18 483.26 975.359 502.089Z" fill="#305399"></path><path d="M971.686 505.3C971.686 505.3 982.755 514.131 985.454 522.719C988.153 531.306 989.367 548.982 994.519 548.381C994.519 548.381 1005.68 521.492 993.136 506.281C979.828 490.153 971.686 505.3 971.686 505.3Z" fill="#305399"></path><path d="M790.708 926.311L806.96 931.185C806.96 931.185 860.567 842.239 865.442 819.094C867.032 811.559 870.929 796.481 875.479 779.588C884.891 744.603 897.04 701.794 897.04 701.794L901.039 684.464L914.686 625.367C914.686 625.367 888.556 628.036 873.273 634.427C868.212 636.538 864.352 639.059 863.004 642.018C851.775 666.704 840.566 729.011 832.688 773.457C828.298 798.228 824.949 817.456 823.2 821.53C818.326 832.898 803.434 895.445 790.708 926.311Z" fill="#F9CBB7"></path><path d="M973.742 506.636C973.742 506.636 963.182 548.063 934.482 561.33C934.482 561.33 963.182 535.879 965.619 508.532C968.057 481.186 973.742 506.636 973.742 506.636Z" fill="#305399"></path><path d="M851.419 1280.95C857.196 1342.58 882.625 1382.44 882.625 1382.44L891.306 1390.34C891.306 1390.34 899.216 1345.21 904.926 1293.55C910.366 1244.45 917.829 1192.48 926.265 1176.62C938.879 1152.92 948.175 1104.45 954.868 1053.25C965.93 968.516 969.851 876.262 969.851 876.262L868.011 871.212C857.766 888.429 853.308 916.674 852.246 948.784C851.129 982.548 853.788 1020.59 857.474 1054.59C862.625 1102.19 869.798 1141.86 871.463 1150.78C871.463 1150.79 871.463 1150.8 871.474 1150.82C871.698 1151.99 871.352 1153.17 870.804 1154.23C850.536 1194.34 847.609 1240.23 851.419 1280.95Z" fill="#F9CBB7"></path><path d="M1044.49 794.414C1042.91 815.128 1035.13 842.995 1005.28 847.349C994.723 848.89 987.173 839.362 981.809 823.5C974.8 802.776 971.551 771.264 970.26 739.574C969.021 709.56 969.531 679.371 970.26 658.053C982.507 656.668 1004.98 646.295 1011.87 643.713C1012.07 643.921 1012.27 644.14 1012.45 644.359C1012.59 644.526 1012.73 644.704 1012.85 644.881C1013.09 645.213 1013.29 645.537 1013.47 645.87C1016.44 651.525 1016.88 683.256 1018.36 713.206C1019.64 739.419 1021.73 764.265 1026.98 769.14C1029.37 771.326 1044.05 771.4 1044.05 771.4C1044.05 771.4 1045.48 781.522 1044.49 794.414Z" fill="#587BC9"></path><path d="M970.264 739.576C972.554 795.517 980.922 850.912 1005.28 847.348C1035.13 842.99 1042.91 815.125 1044.5 794.411C1037.17 794.042 1024.26 792.255 1019.13 784.434C1011.79 773.239 988.889 701.175 988.889 701.175C988.889 701.175 979.884 717.353 970.264 739.576Z" fill="#2B478B"></path><path d="M1001.95 815.562C1001.95 815.562 942.041 830.594 889.49 813.09C889.49 813.09 860.636 874.352 852.697 900.608C844.759 926.863 784.796 1262.9 784.796 1262.9C784.796 1262.9 916.765 1301.06 1004.47 1268.1C1004.47 1268.1 1030.32 908.853 1018.82 871.212C1007.32 833.572 1001.95 815.562 1001.95 815.562Z" fill="#2B478B"></path><path d="M1018.36 712.975C1013.98 756.282 1001.95 815.027 1001.95 815.027C995.316 818.536 988.557 821.111 981.809 822.938C935.259 835.584 889.499 812.566 889.499 812.566C889.499 812.566 889.427 811.227 889.312 809.606C889.218 808.267 889.083 806.762 888.926 805.651C888.582 803.201 877.533 776.911 877.533 776.911C877.533 776.911 877.116 778.958 876.387 782.446C872.346 801.665 858.486 864.822 849.988 870.511C845.062 873.792 829.306 873.844 814.518 869.816C799.126 865.632 784.796 857.014 784.796 843.007C784.796 825.076 817.402 743.988 840.896 688.43C840.907 688.367 840.917 688.347 840.917 688.347C853.425 658.725 860.69 638.118 870.258 635.814C870.258 635.814 934.612 662.005 970.259 657.989C982.506 656.607 1004.98 646.265 1011.87 643.691C1012.07 643.898 1012.27 644.117 1012.45 644.335C1012.59 644.502 1012.73 644.677 1012.85 644.855C1012.99 645.047 1013.11 645.237 1013.23 645.426C1018.45 653.122 1017.62 665.888 1017.89 670.759C1018.41 680.276 1020.32 693.59 1018.36 712.975Z" fill="#587BC9"></path><path d="M877.53 777.339C877.53 777.339 888.579 803.707 888.926 806.165C889.082 807.271 889.216 808.791 889.316 810.131C894.657 814.489 901.115 817.796 907.696 819.796C926.387 825.46 934.51 789.63 933.393 771.753C932.275 753.877 905.841 702.852 897.036 701.789C888.244 700.739 877.53 777.339 877.53 777.339Z" fill="#2B478B"></path><path d="M876.39 782.881C877.117 779.385 877.531 777.339 877.531 777.339C876.948 779.228 876.569 781.071 876.39 782.881Z" fill="#F9CBB7"></path><path d="M953.564 826.988C987.685 826.988 1001.22 817.412 1002.26 816.613L1004.47 800.543C1004.14 800.785 958.36 828.277 887.505 801.947L889.007 814.122C916.255 824.248 935.841 826.988 953.564 826.988Z" fill="#163560"></path><path d="M784.796 843.628C784.796 857.683 799.13 866.319 814.516 870.52C793.31 845.27 839.71 692.483 840.895 688.583C817.409 744.313 784.796 825.651 784.796 843.628Z" fill="#2B478B"></path><path d="M932.882 1400.28H944.278C948.096 1399.67 950.914 1398.57 954.83 1398.06C960.775 1397.28 963.514 1399.71 964.058 1400.28C964.131 1400.35 964.164 1400.39 964.164 1400.39H1012.57C1013.79 1398.65 1012.62 1394.62 1011.48 1391.66C1010.71 1389.64 1009.02 1388.12 1006.95 1387.51C1001.81 1386.03 991.691 1384.7 982.424 1376.31C977.209 1371.6 957.242 1358.99 957.242 1358.99L957.138 1358.96C956.699 1358.97 954.612 1359.61 945.53 1367.28C940.835 1371.24 932.835 1361.69 932.835 1361.69C932.835 1361.69 931.332 1362.93 930.211 1365.25C929.31 1367.08 928.651 1369.59 929.171 1372.68C929.895 1377.04 927.563 1385.15 925.703 1390.63C924.573 1393.96 923.624 1396.31 923.624 1396.31C923.624 1396.31 923.077 1399.05 932.882 1400.28Z" fill="#233862"></path><path d="M930.209 1365.25C932.93 1367.17 938.673 1370.94 942.482 1371.44C947.625 1372.11 957.241 1358.99 957.241 1358.99L957.137 1358.96C956.698 1358.97 954.611 1359.61 945.529 1367.28C940.834 1371.24 932.834 1361.69 932.834 1361.69C932.834 1361.69 931.33 1362.94 930.209 1365.25Z" fill="#466AA5"></path><path d="M932.882 1400.28H944.278C948.096 1399.67 950.914 1398.57 954.83 1398.06C960.775 1397.28 963.514 1399.71 964.058 1400.28C964.131 1400.35 964.164 1400.39 964.164 1400.39H1012.57C1013.79 1398.65 1012.62 1394.62 1011.48 1391.66C1010.01 1390.35 1009.59 1397.34 1008.78 1398.45C1007.97 1399.56 969.288 1398.85 967.054 1397.23C964.82 1395.6 958.118 1392.76 948.778 1395C940.648 1396.94 928.666 1391.96 925.702 1390.63C924.572 1393.96 923.623 1396.31 923.623 1396.31C923.623 1396.31 923.077 1399.05 932.882 1400.28Z" fill="#466AA5"></path><path d="M872.066 1400.28H883.462C887.28 1399.67 890.098 1398.57 894.014 1398.06C899.959 1397.28 902.698 1399.71 903.241 1400.28C903.314 1400.35 903.347 1400.39 903.347 1400.39H951.759C952.977 1398.65 951.807 1394.62 950.661 1391.66C949.89 1389.64 948.209 1388.12 946.13 1387.51C940.996 1386.03 930.874 1384.7 921.607 1376.31C916.392 1371.6 896.426 1358.99 896.426 1358.99L896.322 1358.96C895.883 1358.97 893.795 1359.61 884.714 1367.28C880.019 1371.24 872.019 1361.69 872.019 1361.69C872.019 1361.69 870.516 1362.93 869.395 1365.25C868.494 1367.08 867.835 1369.59 868.355 1372.68C869.079 1377.04 866.748 1385.15 864.887 1390.63C863.757 1393.96 862.807 1396.31 862.807 1396.31C862.807 1396.31 862.262 1399.05 872.066 1400.28Z" fill="#233862"></path><path d="M869.394 1365.25C872.115 1367.17 877.857 1370.94 881.667 1371.44C886.81 1372.11 896.426 1358.99 896.426 1358.99L896.322 1358.96C895.883 1358.97 893.795 1359.61 884.714 1367.28C880.019 1371.24 872.019 1361.69 872.019 1361.69C872.019 1361.69 870.515 1362.94 869.394 1365.25Z" fill="#466AA5"></path><path d="M872.066 1400.28H883.462C887.28 1399.67 890.098 1398.57 894.014 1398.06C899.959 1397.28 902.698 1399.71 903.241 1400.28C903.314 1400.35 903.347 1400.39 903.347 1400.39H951.759C952.977 1398.65 951.807 1394.62 950.661 1391.66C949.191 1390.35 948.777 1397.34 947.966 1398.45C947.153 1399.56 908.473 1398.85 906.237 1397.23C904.004 1395.6 897.302 1392.76 887.962 1395C879.832 1396.94 867.85 1391.96 864.886 1390.63C863.756 1393.96 862.806 1396.31 862.806 1396.31C862.806 1396.31 862.262 1399.05 872.066 1400.28Z" fill="#466AA5"></path><path d="M791.86 923.606C791.86 923.606 786.919 935.249 781.774 938.498C776.63 941.747 771.742 949.544 770.672 955.826C768.713 967.356 777.549 974.508 784.048 974.508C790.546 974.508 796.757 965.648 800.577 944.488C800.787 943.324 806.954 931.187 806.954 931.187L791.86 923.606Z" fill="#F9CBB7"></path><path d="M1110.15 683.02L1109.39 690.829L1107 715.428L1105.47 731.184H1074.06L1072.13 715.428L1069.11 690.829L1068.15 683.02H1110.15Z" fill="#587BC9"></path><path d="M1112.38 683.02H1065.68L1066.59 678.333H1111.24L1112.38 683.02Z" fill="#7DB5DB"></path><path d="M1109.39 690.829L1107 715.428H1072.13L1069.11 690.829H1109.39Z" fill="#7DB5DB"></path><path d="M1113.52 699.684C1113.52 699.684 1105.59 690.827 1097.66 697.595C1089.72 704.364 1098.18 718.818 1105.06 722.769C1111.95 726.72 1114.15 728.78 1114.15 728.78L1113.52 699.684Z" fill="#F9CBB7"></path><path d="M933.494 925.484L927.528 925.036C927.597 924.91 939.206 820.632 935.798 777.339C929.446 696.678 893.576 629.331 893.163 628.738L904.22 626.761C904.667 627.399 911.281 641.583 919.894 667.263C927.832 690.926 940.424 730.261 942.393 774.343C944.338 817.873 933.79 924.953 933.494 925.484Z" fill="#587BC9"></path><path d="M861.168 902.549C861.168 902.549 866.967 888.276 876.186 884.714L923.261 893.586C923.261 893.586 911.64 904.643 910.546 911.855L861.168 902.549Z" fill="#D2E4FF"></path><path d="M920.27 983.099L839.811 967.936C836.03 967.223 833.543 963.581 834.255 959.801L844.307 906.46C845.02 902.679 848.663 900.192 852.443 900.904L932.903 916.068C936.683 916.779 939.171 920.422 938.459 924.203L928.406 977.543C927.693 981.324 924.051 983.812 920.27 983.099Z" fill="#7DB5DB"></path><path d="M891.301 873.349L852.825 873.01L852.391 922.334L890.867 922.673L891.301 873.349Z" fill="#F9CBB7"></path><path d="M889.176 873.253L850.7 872.919L850.271 922.243L888.747 922.577L889.176 873.253Z" fill="#587BC9"></path><path d="M912.549 902.727L881.994 879.34L852.015 918.508L882.57 941.895L912.549 902.727Z" fill="#578E9B"></path><path d="M909.1 900.115L878.546 876.73L848.567 915.897L879.121 939.283L909.1 900.115Z" fill="#74ACBE"></path><path d="M900.613 979.395L823.575 964.876C818.85 963.985 815.741 959.433 816.631 954.707L826.039 904.788C826.93 900.062 831.483 896.954 836.208 897.845L913.247 912.364C917.972 913.255 921.081 917.807 920.19 922.532L910.782 972.452C909.892 977.177 905.339 980.285 900.613 979.395Z" fill="#587BC9"></path><path d="M882.401 529.846C882.401 529.846 857.773 480.825 892.189 461.446C926.604 442.068 951.794 449.678 970.729 473.376L882.401 529.846Z" fill="#233862"></path><path d="M1021.05 467.988C1013.97 456.637 989.184 458.47 959.275 470.717C947.58 475.497 935.126 481.88 922.628 489.67C907.08 499.365 893.543 509.978 882.92 520.36C863.112 539.729 853.449 558.266 859.863 568.555C861.832 571.69 864.768 573.721 869.183 574.898C873.568 565.453 886.157 556.607 889.719 549.249C894.755 538.846 907.496 519.995 930.813 505.447C948.725 494.273 966.543 487.701 978.801 486.91C985.934 486.452 991.193 487.941 993.505 491.649C995.307 494.543 995.119 498.459 993.255 502.989C995.004 505.926 996.984 510.071 998.618 515.569C1018.01 496.43 1027.4 478.164 1021.05 467.988Z" fill="#2B478B"></path><path d="M1831.73 126.145C1752.49 126.145 1688.03 190.611 1688.03 269.851C1688.03 349.09 1752.49 413.555 1831.73 413.555C1910.97 413.555 1975.44 349.09 1975.44 269.851C1975.44 190.611 1910.97 126.145 1831.73 126.145ZM1831.73 404.184C1757.66 404.184 1697.4 343.922 1697.4 269.851C1697.4 195.779 1757.66 135.517 1831.73 135.517C1905.81 135.517 1966.07 195.779 1966.07 269.851C1966.07 343.922 1905.81 404.184 1831.73 404.184Z" fill="#587BC9"></path><path d="M1831.73 160.908C1834.9 160.908 1837.46 158.344 1837.46 155.18C1837.46 152.016 1834.9 149.452 1831.73 149.452C1828.57 149.452 1826.01 152.016 1826.01 155.18C1826.01 158.343 1828.57 160.908 1831.73 160.908Z" fill="#587BC9"></path><path d="M1831.73 380.642C1828.57 380.642 1826.01 383.207 1826.01 386.37C1826.01 389.534 1828.57 392.097 1831.73 392.097C1834.9 392.097 1837.46 389.534 1837.46 386.37C1837.46 383.207 1834.9 380.642 1831.73 380.642Z" fill="#587BC9"></path><path d="M1941.6 265.047C1938.44 265.047 1935.87 267.611 1935.87 270.775C1935.87 273.938 1938.44 276.503 1941.6 276.503C1944.76 276.503 1947.33 273.939 1947.33 270.775C1947.33 267.611 1944.76 265.047 1941.6 265.047Z" fill="#587BC9"></path><path d="M1885.19 361.74C1883.01 364.029 1883.1 367.655 1885.39 369.838C1887.67 372.022 1891.3 371.935 1893.48 369.646C1895.67 367.357 1895.58 363.731 1893.29 361.549C1891 359.365 1887.38 359.451 1885.19 361.74Z" fill="#587BC9"></path><path d="M1922.68 326.105C1920.5 328.395 1920.59 332.021 1922.87 334.204C1925.16 336.387 1928.79 336.301 1930.97 334.012C1933.16 331.723 1933.07 328.097 1930.78 325.914C1928.49 323.731 1924.86 323.816 1922.68 326.105Z" fill="#587BC9"></path><path d="M1929.31 221.262C1932.16 219.89 1933.36 216.467 1931.99 213.616C1930.62 210.766 1927.19 209.569 1924.34 210.941C1921.49 212.314 1920.3 215.737 1921.67 218.587C1923.04 221.438 1926.46 222.635 1929.31 221.262Z" fill="#587BC9"></path><path d="M1892.44 172.373C1889.79 170.657 1886.24 171.421 1884.53 174.079C1882.81 176.737 1883.57 180.282 1886.23 181.997C1888.89 183.713 1892.43 182.949 1894.15 180.291C1895.87 177.633 1895.1 174.088 1892.44 172.373Z" fill="#587BC9"></path><path d="M1730.17 263.129C1727 263.129 1724.44 265.693 1724.44 268.857C1724.44 272.02 1727 274.585 1730.17 274.585C1733.33 274.585 1735.9 272.021 1735.9 268.857C1735.9 265.692 1733.33 263.129 1730.17 263.129Z" fill="#587BC9"></path><path d="M1778.48 359.629C1776.19 361.813 1776.1 365.438 1778.29 367.728C1780.47 370.017 1784.1 370.103 1786.38 367.92C1788.67 365.737 1788.76 362.111 1786.58 359.822C1784.39 357.532 1780.77 357.446 1778.48 359.629Z" fill="#587BC9"></path><path d="M1740.99 323.994C1738.7 326.177 1738.61 329.802 1740.8 332.092C1742.98 334.381 1746.6 334.468 1748.89 332.284C1751.18 330.101 1751.27 326.475 1749.09 324.186C1746.9 321.898 1743.28 321.812 1740.99 323.994Z" fill="#587BC9"></path><path d="M1742.45 219.343C1745.31 220.715 1748.73 219.518 1750.1 216.668C1751.47 213.818 1750.28 210.395 1747.43 209.022C1744.58 207.649 1741.15 208.847 1739.78 211.697C1738.41 214.548 1739.6 217.97 1742.45 219.343Z" fill="#587BC9"></path><path d="M1779.32 170.454C1776.67 172.169 1775.9 175.715 1777.62 178.373C1779.33 181.031 1782.88 181.794 1785.54 180.079C1788.19 178.363 1788.96 174.818 1787.24 172.161C1785.53 169.502 1781.98 168.738 1779.32 170.454Z" fill="#587BC9"></path><path d="M1885.72 227.836L1838.91 260.189C1838.74 260.085 1838.57 259.989 1838.39 259.902L1833.36 171.457V259.911C1831.47 260.845 1830.16 262.791 1830.16 265.048C1830.16 268.212 1832.72 270.776 1835.89 270.776C1839.05 270.776 1841.61 268.211 1841.61 265.048C1841.61 264.759 1841.59 264.476 1841.55 264.198L1885.72 227.836Z" fill="#587BC9"></path><path d="M2674.66 1407.49H3.034C1.365 1407.49 0 1406.13 0 1404.46V1403.42C0 1401.76 1.365 1400.39 3.034 1400.39H2674.66C2676.33 1400.39 2677.7 1401.76 2677.7 1403.42V1404.46C2677.7 1406.13 2676.33 1407.49 2674.66 1407.49Z" fill="#2E3552"></path></svg>