<svg xmlns="http://www.w3.org/2000/svg" width="1113" height="724" viewBox="0 0 1113 724" fill="none"><path d="M503.648 617.285C471.499 617.369 439.35 618.047 407.257 621.177C395.157 622.357 383.31 624.953 371.182 626C346.957 628.092 323.166 631.993 298.854 633.793C279.277 635.242 259.617 636.098 240.097 637.936C221.796 639.66 201.535 639.262 183.374 636.414C169.93 634.305 156.424 633.118 143.205 629.731C128.418 625.942 112.353 623.234 96.9474 623.331C74.9774 623.47 53.5825 623.486 32.5575 630.176C25.1765 632.524 16.1414 636.385 10.5374 641.313C-2.29255 652.595 -4.02855 680.745 8.78145 692.446C30.3585 712.139 76.4095 719.866 106.653 720.231C139.794 720.631 171.99 718.473 205.18 717.205C236.021 716.026 266.784 714.349 297.676 714.408C360.769 714.529 423.871 714.408 486.85 710.712C546.02 707.24 605.34 708.432 664.64 708.432C725.45 708.432 785.849 708.851 846.22 715.938C872.525 719.026 899.323 720.107 925.759 722.27C949.435 724.208 972.187 722.232 995.769 720.441C1015.57 718.937 1035.24 714.477 1053.23 706.938C1067.47 700.97 1092.86 682.431 1097.23 668.186C1109.47 628.251 924.691 629.211 896.32 629.301C864.583 629.402 832.593 630.317 800.881 629.256C787.541 628.81 774.398 626.523 761.378 624.018C748.41 621.523 735.344 622.157 722.193 621.108C667.352 616.734 612.389 617.374 557.373 617.374C539.473 617.376 521.561 617.238 503.648 617.285Z" fill="#23364D"></path><path d="M527.502 182.518C527.236 182.694 526.983 182.89 526.749 183.111C524.572 185.174 525.4 188.053 524.042 190.346C523.436 191.369 520.084 192.549 521.304 194.097C521.759 194.664 523.127 196.707 524.627 198.669C526.814 201.531 526.48 205.358 526.456 208.705C526.424 213.205 526.393 217.704 526.361 222.204C526.334 226.119 526.304 230.055 525.637 233.913C524.027 243.222 518.935 250.541 514.398 258.462C509.586 266.863 504.378 275.576 500.804 284.588C499.541 287.774 498.522 291.186 498.931 294.589C499.958 303.119 507.88 304.168 513.711 299.294C516.159 297.248 518.055 294.627 519.823 291.971C524.587 284.81 528.616 277.16 531.825 269.18C533.321 265.46 534.639 261.672 535.956 257.885C539.352 248.121 541.086 238.976 541.516 228.656C541.309 223.812 540.578 219.016 539.957 214.214C539.578 211.281 537.428 204.871 540.125 202.713C540.568 202.359 541.09 202.102 541.48 201.691C541.92 201.227 542.154 200.609 542.359 200.004C543.111 197.785 543.703 195.449 543.919 193.108C544.303 188.922 539.194 184.764 536.502 182.229C535.832 181.598 535.117 180.967 534.239 180.689C532.812 180.237 531.283 180.804 529.894 181.362C529.074 181.691 528.236 182.032 527.502 182.518Z" fill="#F2D3B6"></path><path d="M533.365 289.717C539.056 275.976 542.784 261.505 544.499 247.539C538.745 245.569 532.991 243.599 527.237 241.629C526.453 241.361 525.586 241.093 524.818 241.402C524.187 241.656 523.765 242.245 523.383 242.807C518.418 250.119 514.1 258.11 507.691 264.308C503.171 268.679 498.494 272.445 494.121 277.038C486.973 284.544 479.515 291.795 472.525 299.449C466.253 306.317 459.807 313.48 456.977 322.34C450.935 341.258 470.937 358.092 488.229 346.998C508.665 333.887 523.791 312.835 533.365 289.717Z" fill="#D7E8F4"></path><path d="M814.626 389.463L823.421 393.115L831.052 389.722L832.595 391.004L831.132 392.983L838.275 392.013L843.263 395.164L843.805 403.056L839.31 409.797L831.536 409.45L823.697 404.398L811.45 399.927L814.626 389.463Z" fill="#AD6F59"></path><path d="M821.078 387.511L778.83 349.104L746.622 273.351L720.312 277.737L739.463 336.669L764.146 387.052L820.375 407.267L821.078 387.511Z" fill="#305399"></path><path d="M337.436 143.522L322.967 149.756C316.064 152.73 312.88 160.737 315.854 167.64L339.908 223.466C342.882 230.369 350.889 233.553 357.792 230.579L372.261 224.345L337.436 143.522Z" fill="#7DB5DB"></path><path d="M739.167 18.3442C604.217 -17.0448 434.532 62.7472 434.532 62.7472L434.494 62.6592L323.249 110.591L386.45 257.275L497.695 209.343L497.657 209.255C497.657 209.255 672.198 140.733 739.167 18.3442Z" fill="#BCBEC0"></path><path d="M434.492 62.6592C434.492 62.6592 390.301 2.58622 294.497 43.8652L246.595 64.5042L255.944 86.2012C255.944 86.2012 328.267 58.9182 346.259 100.676L434.492 62.6592Z" fill="#587BC9"></path><path d="M497.694 209.344C497.694 209.344 511.003 282.723 415.199 324.002L367.297 344.641L357.949 322.944C357.949 322.944 427.453 289.119 409.461 247.361L497.694 209.344Z" fill="#587BC9"></path><path d="M577.468 119.333C582.204 90.1873 562.417 62.7203 533.271 57.9838C504.126 53.2472 476.659 73.0348 471.922 102.18C467.186 131.326 486.973 158.793 516.119 163.53C545.264 168.266 572.731 148.479 577.468 119.333Z" fill="#F7F7F7"></path><path d="M564.345 119.511C569.184 97.6167 555.358 75.9452 533.464 71.1063C511.57 66.2673 489.898 80.0933 485.059 101.987C480.22 123.882 494.046 145.553 515.941 150.392C537.835 155.231 559.506 141.405 564.345 119.511Z" fill="#7DB5DB"></path><path d="M392.67 80.6857L376.417 87.6888L439.618 234.377L455.872 227.373L392.67 80.6857Z" fill="#F7F7F7"></path><path d="M339.907 223.466L327.88 195.553L315.853 167.64C315.853 167.64 247.089 163.318 219.128 242.411C295.818 276.412 339.907 223.466 339.907 223.466Z" fill="#D7E8F4"></path><path d="M335.928 214.233L327.88 195.553L319.832 176.873C319.832 176.873 273.814 173.981 255.102 226.91C306.423 249.665 335.928 214.233 335.928 214.233Z" fill="#305399"></path><path d="M629.42 135.38C671.212 105 713.245 65.7142 739.166 18.3442C686.934 4.64721 629.51 8.21321 578.725 17.7222L629.42 135.38Z" fill="#587BC9"></path><path d="M497.695 209.344L497.656 209.256C497.656 209.256 530.06 196.527 572.291 172.265C439.463 194.041 365.779 157.829 333.25 133.804L386.45 257.276L497.695 209.344Z" fill="#B8B7B5"></path><path d="M411.585 169.331L439.608 234.371L455.862 227.368L432.802 173.848C425.345 172.538 418.271 171.02 411.585 169.331Z" fill="#DBDAD8"></path><g opacity="0.13"><path d="M589.526 24.5982C589.526 24.5982 675.758 6.44022 727.239 23.4832C727.239 23.4832 656.527 19.7342 596.241 40.1822L589.526 24.5982Z" fill="white"></path></g><path d="M555.129 137.654C534.499 138.064 503.231 136.496 484.578 116.82C485.09 120.182 486.031 123.535 487.44 126.804C496.313 147.397 520.201 156.899 540.794 148.026C546.467 145.581 551.292 141.993 555.129 137.654Z" fill="#6694AD"></path><path d="M339.908 223.466C342.882 230.369 350.889 233.553 357.792 230.579L372.261 224.345V224.344C372.244 224.336 340.894 209.021 314.77 162.872C314.842 164.471 315.184 166.083 315.855 167.64L339.908 223.466Z" fill="#6694AD"></path><path d="M415.199 324.001C418.503 322.577 421.665 321.112 424.714 319.617C401.758 322.699 380.023 322.141 362.592 320.48C359.71 322.086 357.948 322.944 357.948 322.944L367.296 344.641L415.199 324.001Z" fill="#4A6EAF"></path><path d="M722.011 674.715L721.899 682.088L740.664 691.831L750.262 682.52L740.952 672.922L739.732 672.903L739.396 674.979L722.011 674.715Z" fill="#305399"></path><path d="M675.476 671.925L674.169 671.905L664.572 681.216L673.882 690.814L692.935 681.647L693.047 674.274L675.661 674.009L675.476 671.925Z" fill="#305399"></path><path d="M679.972 394.169C682.653 381.612 684.775 370.018 685.049 363.717C685.874 344.765 689.213 282.183 689.213 282.183L701.15 258.408L703.286 258.461C703.133 258.44 702.979 258.419 702.826 258.399C703.328 258.467 702.655 253.767 702.482 253.35C692.425 252.854 679.372 258.332 672.905 266.143C668.12 271.923 665.219 279.033 662.392 286.019C654.431 305.69 650.678 323.969 646.54 344.717C643.901 357.947 641.449 371.118 639.477 384.261C637.292 398.817 635.687 413.34 635.067 427.793C634.998 429.391 634.614 433.855 634.355 439.193C633.813 450.373 633.824 465.337 638.446 465.967C639.311 466.085 640.154 465.707 640.922 465.342C646.924 462.49 651.676 458.718 656.98 455.441L658.151 397.099L679.972 394.169Z" fill="#305399"></path><path d="M785.495 455.755C784.5 443.321 783.459 430.889 782.145 418.485C779.525 393.744 775.822 369.046 769.286 345.034C766.789 335.861 763.885 326.809 760.983 317.761C757.448 306.742 753.914 295.724 750.379 284.705C745.986 271.01 738.368 261.294 724.844 256.321C722.429 255.433 719.882 254.737 717.255 254.216C717.186 254.497 717.124 254.781 717.083 255.081C716.905 256.387 716.516 257.833 715.688 258.769L724.609 258.991C724.609 258.991 748.424 348.851 749.114 364.286C749.376 370.153 750.351 382.968 751.447 396.469L765.086 398.724L764.888 450.297C765.65 450.532 766.408 450.76 767.161 450.976C771.481 452.213 774.961 455.481 778.526 458.058C783.794 461.865 786.105 463.375 785.495 455.755Z" fill="#305399"></path><path d="M751.448 396.47C753.183 417.836 755.221 440.922 755.221 440.922C755.221 440.922 744.164 441.019 728.156 441.988C729.339 441.978 730.522 441.964 731.703 441.972C742.826 442.041 754.289 447.022 764.89 450.299L765.089 398.726L751.448 396.47Z" fill="#5D6C7E"></path><path d="M676.021 447.684C668.39 447.972 667.465 446.521 667.465 446.521C667.465 446.521 674.77 418.532 679.971 394.168L658.15 397.096L656.979 455.438C658.844 454.286 660.776 453.193 662.856 452.224C667.026 450.285 671.468 448.825 676.021 447.684Z" fill="#5D6C7E"></path><path d="M764.889 450.299C754.288 447.022 742.826 442.041 731.703 441.972C730.522 441.965 729.338 441.978 728.155 441.988C727.164 442.048 726.155 442.111 725.127 442.178C717.665 442.664 709.279 443.337 700.522 444.265C700.092 444.311 699.664 444.354 699.232 444.402C688.013 446.665 680.739 447.506 676.022 447.684C671.47 448.824 667.026 450.284 662.858 452.225C660.777 453.194 658.845 454.286 656.98 455.439L656.736 467.588L674.911 674.278L692.39 674.544L692.358 676.645L692.458 676.647L713.784 538.519L713.876 537.741L722.285 677.102L722.385 677.103L722.417 675.002L739.981 675.27L764.619 520.601L764.889 450.299Z" fill="#587BC9"></path><path d="M751.447 396.47C750.351 382.969 749.376 370.155 749.114 364.287C748.424 348.852 724.61 258.992 724.61 258.992L715.688 258.77C715.588 258.883 715.485 258.992 715.372 259.088C715.093 259.327 714.772 259.514 714.404 259.631C713.671 259.864 712.882 259.763 712.121 259.66C709.177 259.26 706.232 258.86 703.287 258.461L701.151 258.408L689.214 282.183C689.214 282.183 685.874 344.765 685.05 363.717C684.776 370.019 682.653 381.613 679.973 394.169C674.771 418.533 667.466 446.522 667.466 446.522C667.466 446.522 668.392 447.972 676.023 447.684C680.74 447.506 688.015 446.665 699.233 444.402C699.665 444.355 700.093 444.311 700.523 444.265C709.281 443.337 717.667 442.664 725.128 442.178C726.155 442.111 727.165 442.048 728.156 441.988C744.164 441.019 755.221 440.922 755.221 440.922C755.221 440.922 753.182 417.836 751.447 396.47Z" fill="white"></path><path d="M730.169 199.42C732.784 203.937 734.086 209.16 734.385 214.389C734.464 215.779 734.58 217.384 735.697 218.192C736.893 219.057 735.879 220.998 736.763 219.811C737.647 218.624 740.649 214.503 740.766 213.017C741.04 209.537 740.988 206.029 740.608 202.558C740.278 199.539 739.626 196.388 737.649 194.107C736.477 192.755 734.924 191.813 733.396 190.9C731.18 189.576 728.896 188.241 726.365 187.794C722.002 187.022 719.355 188.642 723.237 191.681C726.017 193.857 728.377 196.325 730.169 199.42Z" fill="#3B455A"></path><path d="M703.948 259.11C709.942 259.607 715.936 260.103 721.931 260.6C722.769 255.331 723.23 249.983 723.307 244.625C728.508 243.653 734.617 241.865 736.322 236.289C736.859 234.533 736.853 232.63 736.841 230.769C736.79 223.074 736.74 215.38 736.689 207.685C736.671 205.024 736.64 202.281 735.709 199.823C734.077 195.509 730.046 192.975 726.105 191.397C716.049 187.37 704.397 187.676 695.249 193.686C692.814 195.286 690.524 197.333 689.147 200.091C687.024 204.344 687.37 209.559 687.776 214.431C688.151 218.929 688.526 223.427 688.9 227.924C689.331 233.097 690.178 239.048 694.17 241.735C696.289 243.161 699.006 243.395 700.841 245.252C704.078 248.528 702.702 254.44 703.948 259.11Z" fill="#AD6F59"></path><path d="M738.633 227.679C738.529 226.253 737.858 222.08 735.784 224.733C735.242 225.427 735.119 226.399 735.098 227.315C735.077 228.23 735.131 229.171 734.859 230.036C734.235 232.021 732.096 232.946 730.179 232.935C729.417 232.931 728.638 232.812 727.959 232.43C727.299 232.059 726.772 231.463 726.257 230.878C725.007 229.457 723.757 228.037 722.507 226.616C720.358 224.174 716.179 225.291 713.334 225.704C710.056 226.18 706.785 227.227 704.132 229.456C703.864 229.681 703.603 229.917 703.342 230.153C702.703 230.728 702.06 231.298 701.314 231.679C698.795 232.965 695.636 231.693 693.826 229.365C692.996 228.298 692.217 226.922 690.95 226.757C689.958 226.628 689.004 227.361 688.51 228.309C688.015 229.257 687.894 230.382 687.841 231.474C687.646 235.451 688.241 239.543 689.983 243.047C693.762 250.647 700.877 251.499 708.013 251.242C710.833 251.14 713.654 251.038 716.475 250.937C721.631 250.751 727.081 250.468 731.384 247.366C735.18 244.63 737.395 240.029 738.263 235.229C738.707 232.753 738.817 230.199 738.633 227.679ZM719.91 238.741C717.219 240.631 714.227 240.767 711.186 239.877C709.894 239.498 710.41 237.296 711.704 237.675C714.223 238.413 716.592 238.364 718.832 236.791C719.959 235.999 721.031 237.954 719.91 238.741Z" fill="#3B455A"></path><path d="M739.135 185.976C739.608 184.106 739.95 182.201 740.158 180.28C738.421 180.924 736.522 181.112 734.693 180.823C734.673 179.717 734.654 178.611 734.634 177.504C734.613 176.584 722.363 176.087 721.367 176.016C712.044 175.352 703.518 174.716 695.167 179.899C688.034 184.327 683.512 190.865 682.524 199.316C681.581 207.39 684.32 217.887 688.997 224.522C688.941 222.376 687.657 217.329 688.127 215.283C688.404 213.235 689.071 211.256 690.004 209.425C691.867 205.769 694.789 202.676 698.182 200.453C703.592 196.909 709.912 194.993 716.238 194.019C722.034 193.126 729.099 192.282 734.858 193.777C737.626 194.496 738.093 195.194 739.724 192.343C740.012 191.84 742.266 185.985 742.037 185.985C741.071 185.982 740.103 185.979 739.135 185.976Z" fill="#3B455A"></path><path d="M615.148 390.145L615.251 399.667L621.373 405.348L620.801 407.27L618.406 406.704L622.108 412.889L621.174 418.715L614.131 422.319L606.165 420.838L603.426 413.554L604.986 404.36L604.279 391.341L615.148 390.145Z" fill="#AD6F59"></path><path d="M619.481 395.308L638.17 341.357L673.648 327.407L680.76 259.481L634.114 300.271L597.505 342.787L601.042 402.433L619.481 395.308Z" fill="#305399"></path><path d="M868.149 244.748C868.351 245.023 868.558 245.309 868.669 245.619C869.708 248.513 868.516 250.644 868.722 253.703C868.814 255.067 871.888 256.773 869.601 258.482C868.757 259.113 866.469 260.368 864.657 261.695C862.014 263.631 859.835 267.682 858.699 271.218C854.233 285.11 853.673 299.832 853.575 314.413C853.569 315.244 853.576 316.112 853.955 316.852C854.632 318.177 856.238 318.673 857.672 319.071C864.323 320.915 870.803 323.379 876.999 326.42C882.528 329.133 887.958 332.415 891.776 337.247C895.595 342.079 897.562 348.736 895.526 354.548C894.002 358.901 890.256 362.408 885.812 363.643C874.793 366.706 864.427 353.602 857.006 347.196C849.985 341.135 843.389 334.583 837.285 327.601C836.531 326.739 835.767 325.839 835.413 324.75C835.036 323.589 835.162 322.333 835.295 321.12C837.015 305.499 840.105 290.118 843.522 274.72C844.461 270.489 847.505 267.289 848.338 263.368C848.869 260.866 847.487 258.521 847.466 256.049C847.445 253.604 848.042 250.388 848.924 248.11C850.664 243.617 855.468 242.317 859.554 240.768C860.571 240.382 861.257 240.119 862.269 240.245C863.914 240.45 865.063 241.578 866.242 242.655C866.941 243.293 867.591 243.99 868.149 244.748Z" fill="#FEE7DE"></path><path d="M854.072 355.453C846.574 348.948 840.127 341.175 834.586 333.094C833.25 331.146 831.962 329.077 831.558 326.749C831.223 324.82 831.517 322.844 831.812 320.909C833.528 309.645 835.243 298.38 836.959 287.116C837.204 285.509 837.667 283.619 839.191 283.054C840.111 282.713 841.131 282.989 842.072 283.267C862.267 289.231 851.691 290.194 857.971 305.001C863.837 318.83 873.683 316.002 883.252 308.672C889.518 303.873 897.873 303.08 905.741 302.465C908.02 302.287 910.455 302.142 912.441 303.274C914.469 304.43 915.59 306.67 916.517 308.812C924.318 326.833 926.552 347.219 922.839 366.501C922.532 368.098 922.122 369.798 920.913 370.885C919.7 371.975 917.962 372.198 916.339 372.355C903.145 373.63 889.494 373.762 877.027 369.256C868.449 366.154 860.833 361.319 854.072 355.453Z" fill="#3B455A"></path><path d="M961.974 643.367L967.537 665.907L954.177 669.192L948.01 644.203L961.974 643.367Z" fill="#EDD3B8"></path><path d="M954.548 665.373L967.096 666.523L971.437 669.458L972.904 678.458L941.967 688.209C938.406 684.95 938.92 679.292 943.007 676.737L944.356 675.894L954.548 665.373Z" fill="#587BC9"></path><path d="M1050.74 542.82C1056.26 540.329 1061.44 536 1067.06 534.057C1067.82 538.514 1068.72 542.942 1069.56 547.383C1062.94 551.384 1056.02 554.73 1048.56 556.896C1049.29 552.23 1050.37 547.53 1050.74 542.82Z" fill="#EDD3B8"></path><path d="M1069.93 547.089C1069.47 546.56 1069.42 546.548 1068.94 545.254C1067.76 542.048 1064.6 533.149 1067.42 530.026C1067.88 529.519 1068.16 529.943 1068.63 530.11C1076.59 532.921 1082.5 536.499 1089.18 541.975C1092.03 544.317 1094.87 547.334 1095.44 551.116C1095.69 552.774 1095.13 554.139 1094.64 555.528C1093.91 557.578 1093 559.397 1091.95 561.208C1091.56 561.87 1091.26 562.595 1090.38 562.627C1088.61 562.692 1087.55 560.765 1087.04 559.144C1086.53 557.523 1086.18 555.523 1084.93 554.244C1084.37 553.671 1083.61 553.362 1082.97 553.081C1078.27 550.995 1073.56 551.234 1069.93 547.089Z" fill="#587BC9"></path><path d="M950.903 541.046C964.009 559.541 981.171 566.41 1001.38 570.446C1024.51 575.065 1043.42 569.255 1062.21 556.016C1061.86 549.318 1060.53 542.763 1060.38 536.458C1038.55 542.291 1027.75 542.63 1010.7 524.359C986.055 497.953 1003.16 453.517 993.619 419.511C992.522 415.602 991.023 411.753 988.636 408.469C960.891 370.314 921.393 401.859 920.04 439.585C918.83 473.345 931.356 513.461 950.903 541.046Z" fill="#BCBEC0"></path><path d="M979.5 417.782C976.708 405.576 972.493 394.164 968.133 385.727C949.085 389.081 928.306 396.091 910.574 404.18C893.243 412.086 882.819 418.674 887.259 438.425C895.43 474.768 888.412 508.967 890.374 545.266C891.514 566.361 901.866 583.066 913.032 600.259C925.809 619.933 937.526 640.295 948.114 661.228C954.407 659.73 960.701 658.231 966.994 656.733C966.725 627.307 957.422 598.835 951.306 570.05C947.056 550.047 944.37 529.19 947.357 508.807C950.641 486.4 964.123 491.89 974.66 476.895C984.903 462.316 984.323 438.865 979.5 417.782Z" fill="#BCBEC0"></path><path d="M939.055 278.109C941.412 279.422 943.565 281.112 945.693 282.786C947.599 284.286 949.505 285.786 951.412 287.286C958.016 292.482 962.187 301.027 965.799 308.399C984.811 347.194 997.923 402.391 996.073 446.23C964.919 453.757 927.171 451.354 895.018 451.841C891.892 451.888 888.318 451.729 886.325 449.32C885.117 447.86 884.789 445.885 884.504 444.011C880.398 416.984 881.693 387.069 882.998 359.612C883.549 348.025 884.639 336.454 886.553 325.01C888.579 312.895 890.947 299.786 898.467 289.711C906.514 278.93 923.939 271.561 936.899 277.051C937.64 277.363 938.356 277.72 939.055 278.109Z" fill="#3B455A"></path><path d="M936.476 284.312C936.488 280.55 936.499 276.787 936.511 273.025C937.222 272.542 937.889 272.026 938.499 271.492C950.386 261.083 965.608 212.588 928.976 207.821C895.715 203.493 904.037 247.077 913.036 264.41C914.576 267.376 916.448 270.115 918.944 272.358C920.652 273.892 920.925 273.51 921.026 275.572C921.125 277.569 919.505 280.091 919.375 282.233C919.236 284.517 919.787 286.94 921.355 288.606C922.315 289.627 923.593 290.303 924.916 290.765C927.019 291.5 929.368 291.725 931.469 290.985C933.968 290.106 936.468 287.007 936.476 284.312Z" fill="#FEE7DE"></path><path d="M903.034 248.989C905.872 254.523 909.45 259.677 913.643 264.27C911.819 253.509 911.482 242.497 912.645 231.645C912.734 230.817 912.801 229.885 912.263 229.25C911.76 228.657 910.904 228.537 910.128 228.489C896.267 227.629 898.088 239.341 903.034 248.989Z" fill="#66574D"></path><path d="M940.763 259.885C943.377 262.586 947.97 261.054 951.036 258.88C963.633 249.949 969.151 232.223 963.85 217.72C959.414 205.585 942.204 198.595 941.372 214.593C941.077 220.265 945.585 227.376 945.746 233.595C945.976 242.482 943.18 251.439 940.763 259.885Z" fill="#736357"></path><path d="M895.895 201.087C894.459 201.924 893 202.797 891.46 203.687C888.269 205.529 885.881 206.351 882.082 204.895C880.995 204.479 873.331 199.163 874.744 197.602C865.381 207.948 876.108 219.34 881.486 227.741C885.112 233.403 886.972 241.892 893.648 244.938C900.992 248.288 904.736 242.071 910.425 238.675C915.443 235.679 921.047 233.619 926.196 230.849C934.739 226.253 947.32 218.548 942.503 207.002C936.877 193.516 922.145 192.182 909.55 195.193C904.169 196.478 900.128 198.622 895.895 201.087Z" fill="#736357"></path><path d="M1044.62 276.652C1044.28 276.663 1043.92 276.677 1043.61 276.782C1040.69 277.754 1039.75 280.008 1037.22 281.736C1036.09 282.507 1032.85 281.144 1032.92 283.998C1032.95 285.051 1033.38 287.626 1033.45 289.87C1033.56 293.144 1031.72 297.361 1029.65 300.439C1025.71 306.265 1008.65 317.496 1012.15 325.841C1020.37 345.446 1039.74 306.708 1042.22 303.733C1043.86 301.769 1046.56 301.407 1048.51 299.896C1050.45 298.401 1052.61 295.945 1053.85 293.844C1056.31 289.699 1054.37 285.119 1053.06 280.95C1052.73 279.912 1052.52 279.21 1051.79 278.492C1050.61 277.325 1049.02 277.119 1047.44 276.858C1046.51 276.703 1045.56 276.622 1044.62 276.652Z" fill="#FEE7DE"></path><path d="M984.746 367.737C1003.11 355.914 1021.05 342.518 1036.32 327.208C1031.57 322.105 1025.55 313.475 1017.32 315.095C1004.91 317.537 998.404 331.962 983.429 326.031C970.283 320.824 966.215 303 953.565 296.682C952.264 296.032 950.79 295.511 949.374 295.841C948.372 296.075 947.514 296.711 946.738 297.386C924.24 313.353 948.881 350.843 955.714 367.693C957.485 372.06 960.031 377.063 964.698 377.716C967.696 378.136 970.57 376.539 973.159 374.969C977.025 372.626 980.895 370.216 984.746 367.737Z" fill="#3B455A"></path><path d="M494.565 281.619C491.924 286.413 487.905 290.274 484.536 294.589C481.259 298.787 479.901 302.705 478.737 307.768C477.896 311.425 476.359 314.218 471.856 314.519C463.363 315.087 466.283 308.322 464.751 303.128C462.999 297.191 458.686 292.282 455.818 286.886C447.531 271.293 452.407 242.057 472.406 237.231C494.273 231.956 502.579 267.07 494.565 281.619Z" fill="#F2D3B6"></path><path d="M461.598 264.671C459.166 264.588 456.486 264.581 454.566 266.076C452.647 267.57 452.577 271.136 454.922 271.697C457.048 272.205 460.001 270.168 461.194 271.905C461.891 272.92 461.112 274.271 460.446 275.348C457.889 279.48 456.848 284.414 457.55 289.072C456.604 289.826 455.286 288.872 454.572 287.96C451.027 283.431 448.38 278.253 446.803 272.762C445.931 273.998 444.712 275.014 443.314 275.67C444.268 273.721 443.923 271.484 443.579 269.397C442.316 261.728 441.731 252.809 447.451 247.045C450.511 243.961 454.933 242.385 459.297 241.909C463.661 241.434 468.034 241.954 472.357 242.473C474.207 242.695 476.464 243.266 476.782 245.016C472.59 246.345 468.141 249.211 465.816 252.913C465.101 254.049 461.845 264.679 461.598 264.671Z" fill="#3B455A"></path><path d="M471.549 247.212C471.393 247.309 471.239 247.406 471.087 247.505C469.137 248.772 467.28 250.351 465 250.808C461.714 251.466 458.372 249.657 455.122 250.517C451.489 251.479 448.845 255.54 446.072 257.855C441.526 261.65 436.044 264.28 430.273 265.577C427.325 266.239 424.299 266.556 421.278 266.502C419.909 266.477 418.065 266.6 416.762 266.143C415.013 265.529 415.135 264.723 417.082 264.255C423.187 262.789 425.68 254.554 425.643 248.969C425.614 244.561 424.444 239.869 426.418 235.927C427.926 232.916 430.787 231.517 433.569 229.937C436.638 228.195 439.767 228.959 443.156 228.264C446.691 227.539 449.715 225.023 453.298 224.591C457.082 224.134 460.686 226.065 464.364 227.068C467.402 227.897 470.611 228.096 473.728 227.65C476.521 227.25 479.286 226.337 482.098 226.573C486.245 226.921 489.868 229.795 492.039 233.346C495.109 238.369 496.716 246.691 495.041 252.877C495.301 251.917 492.286 248.144 491.668 247.334C490.364 245.626 488.758 243.996 486.605 243.576C481.729 242.624 475.717 244.635 471.549 247.212Z" fill="#3B455A"></path><path d="M297.885 636.625C298.976 639.656 300.793 642.262 302.234 645.092C331.958 635.001 361.381 620.085 390.163 607.23C386.782 599.908 383.401 592.587 380.021 585.265C366.46 596.707 351.811 606.856 336.34 615.542C333.888 616.918 297.729 636.193 297.885 636.625Z" fill="#F2D3B6"></path><path d="M308.243 643.745C309.308 645.46 308.92 646.877 308.286 648.557C307.918 649.532 307.187 650.387 307.063 651.435C306.939 652.484 307.185 653.366 307.49 654.432C309.098 660.045 314.279 672.388 302.614 669.362C292.02 666.614 288.916 649.339 287.464 639.223C287.369 638.558 287.204 637.88 287.497 637.249C287.789 636.617 288.339 636.05 288.957 635.585C292.394 632.995 296.636 629.635 300.142 633.733C301.638 635.481 301.041 637.878 302.637 639.723C303.943 641.235 307.178 642.03 308.243 643.745Z" fill="#587BC9"></path><path d="M401.237 482.362C399.152 489.505 400.942 495.596 402.27 504.466C403.434 512.244 403.911 520.124 403.694 527.985C403.508 534.729 402.781 541.583 400.107 547.777C395.777 557.806 387.263 562.943 380.232 570.657C374.357 577.102 368.47 582.837 361.479 588.303C346.526 599.993 330.625 610.371 315.099 621.267C319.53 629.448 322.043 632.136 326.475 640.316C327.256 641.758 353.566 636.243 355.275 635.9C361.054 634.74 366.718 633.012 372.163 630.757C382.611 626.429 392.867 620.364 402.751 614.945C425.535 602.454 445.031 583.986 458.625 561.833C467.447 547.457 473.771 531.717 480.051 516.062C483.155 508.326 487.09 500.499 489.255 492.447C490.671 487.18 494.152 480.018 492.565 474.619C491.192 469.644 487.826 466.43 483.212 463.294C470.868 454.903 454.974 440.808 439.003 444.592C430.507 446.605 427.003 451.751 420.946 457.075C414.484 462.756 408.644 468.107 404.22 475.638C402.812 478.039 401.855 480.247 401.237 482.362Z" fill="#3B455A"></path><path d="M536.654 677.029C539.314 683 542.836 677.464 545.789 679.569C554.885 643.948 554.925 619.462 547.601 583.56C539.927 585.279 532.33 587.301 524.675 589.022C532.526 605.63 536.9 617.357 539.064 637.736C539.406 640.966 536.275 676.179 536.654 677.029Z" fill="#F2D3B6"></path><path d="M547.947 673.555C549.965 673.392 550.705 674.484 551.684 675.906C552.253 676.733 552.431 677.82 553.153 678.538C553.875 679.255 554.821 679.494 555.839 679.769C561.196 681.219 574.34 683.267 565.968 691.321C558.365 698.635 542.437 693.093 533.32 689.096C532.721 688.834 531.98 688.656 531.599 688.068C531.218 687.481 530.988 686.818 530.944 686.028C530.699 681.633 530.33 677.191 535.375 675.823C537.527 675.239 539.332 677.053 541.675 676.461C543.594 675.975 545.929 673.717 547.947 673.555Z" fill="#587BC9"></path><path d="M476.581 528.427C486.633 535.936 496.685 543.445 506.737 550.954C510.048 553.428 513.429 555.973 515.702 559.425C517.768 562.562 518.789 566.255 519.742 569.888C524.984 589.869 529.078 610.15 532.002 630.598C532.718 635.606 533.364 640.624 533.939 645.65C534.433 649.961 532.494 655.341 535.908 657.98C539.839 661.019 552.578 660.668 557.62 661.483C559.892 634.21 562.163 606.936 564.435 579.663C564.84 574.798 565.242 569.863 564.34 565.065C563.516 560.685 561.635 556.585 559.771 552.536C541.9 513.716 520.631 478.089 494.682 444.003C493.592 442.571 492.454 441.106 490.894 440.208C488.722 438.959 486.072 438.99 483.567 439.056C474.047 439.307 459.39 436.896 450.723 440.957C439.578 446.18 430.897 453.58 423.546 463.46C418.645 470.046 421.76 482.548 426.266 488.885C429.209 493.024 433.347 496.133 437.416 499.172C450.471 508.924 463.526 518.675 476.581 528.427Z" fill="#3B455A"></path><path d="M435.956 317.938C432.674 320.25 429.658 322.855 427.06 325.664C418.352 335.079 411.403 346.135 406.403 357.931C394.947 384.956 392.744 414.626 390.679 443.709C389.992 453.388 389.305 463.067 388.617 472.747C387.94 482.27 388.615 484.387 398.698 483.943C417.384 483.122 436.914 480.733 454.281 473.573C462.545 470.166 470.359 465.649 478.953 463.136C491.452 459.481 503.8 462.599 516.059 460.556C513.652 450.738 509.675 441.628 508.231 431.416C506.786 421.194 506.479 410.841 506.507 400.525C506.546 386.029 505.933 371.545 505.661 357.054C505.45 345.791 505.494 332.57 498.57 323.01C496.248 319.803 492.992 316.875 489.322 315.3C486.627 314.143 481.741 313.397 480.151 310.571C480.005 310.312 479.997 310.002 479.991 309.705C479.918 306.114 481.043 302.859 477.543 301.575C475.593 300.86 472.812 300.934 470.753 300.807C467.845 300.628 460.515 299.925 459.68 304.008C459.459 305.09 459.484 306.23 459.081 307.258C458.981 307.513 458.849 307.766 458.64 307.943C458.37 308.171 458.007 308.246 457.661 308.318C450.167 309.86 442.527 313.31 435.956 317.938Z" fill="#D7E8F4"></path><path d="M590.767 235.146C590.448 235.151 590.129 235.179 589.814 235.239C586.868 235.799 586.01 238.67 583.629 239.866C582.567 240.4 579.108 239.583 579.299 241.545C579.376 242.268 579.424 244.726 579.627 247.188C579.922 250.778 577.575 253.818 575.747 256.623C573.291 260.393 570.834 264.163 568.378 267.933C566.241 271.213 564.091 274.51 561.446 277.397C555.064 284.363 546.826 287.773 538.731 291.991C530.145 296.464 521.056 300.985 513.182 306.64C510.398 308.64 507.699 310.96 506.206 314.046C502.464 321.78 508.565 326.941 516.104 325.987C519.27 325.586 522.281 324.405 525.203 323.123C533.08 319.668 540.602 315.405 547.612 310.421C550.88 308.098 554.035 305.621 557.188 303.144C565.318 296.759 571.716 289.999 577.651 281.545C580.092 277.356 582.067 272.925 584.137 268.548C585.401 265.875 587.054 259.319 590.489 258.958C591.053 258.899 591.631 258.965 592.182 258.829C592.803 258.677 593.333 258.283 593.833 257.884C595.664 256.422 597.424 254.776 598.87 252.922C601.453 249.606 599.398 243.347 598.502 239.761C598.279 238.868 598.018 237.951 597.429 237.243C596.472 236.092 594.879 235.743 593.408 235.464C592.536 235.299 591.647 235.133 590.767 235.146Z" fill="#F2D3B6"></path><path d="M535.556 326.512C538.073 325.06 540.551 323.543 542.952 321.906C551.874 315.821 559.663 308.081 565.806 299.198C563.115 292.922 559.862 286.888 556.098 281.19C531.632 291.796 506.901 297.073 481.354 303.878C472.367 306.272 463.073 308.82 455.908 314.749C442.701 325.676 446.791 348.019 464.034 351.882C484.898 356.556 509.488 340.673 527.104 331.175C529.935 329.648 532.769 328.119 535.556 326.512Z" fill="#D7E8F4"></path><path d="M960.495 304.579C960.248 304.678 960 304.795 959.747 304.871C946.585 308.812 932.261 311.51 918.327 313.697C908.496 315.233 898.481 316.729 888.483 316.98C872.834 317.373 864.562 310.51 861.145 296.359C856.961 279.053 860.584 260.616 862.083 243.242C862.366 239.984 862.707 212.026 865.65 211.402C856.039 213.435 851.113 203.333 841.389 204.678C839.514 204.935 837.541 205.291 835.494 205.673C835.03 201.684 833.376 197.768 830.489 194.44C822.241 184.495 808.75 172.049 813.542 158.466C815.85 156.523 818.172 154.628 820.383 152.7C828.311 145.768 834.863 137.376 839.943 128.168C841.641 125.086 843.506 122.326 845.385 119.902C850.751 112.966 856.212 108.726 858.237 107.269C857.995 109.639 858.433 111.988 859.86 113.997C862.951 118.34 869.559 119.789 874.293 117.742C874.532 117.637 874.756 117.527 874.986 117.409C876.964 116.354 876.081 115.564 874.637 114.998C873.095 114.389 871.328 113.727 870.798 111.97C869.42 107.372 881.743 106.244 883.989 105.919C906.101 102.718 922.002 131.125 927.47 136.881C927.47 136.881 925.801 147.133 929.54 151.178C930.336 152.044 930.84 152.845 931.137 153.585C930.315 154.875 929.637 156.427 929.171 158.279C929.165 158.287 929.165 158.287 929.165 158.287C921.498 160.491 929.613 169.764 924.755 174.023C922.889 175.655 920.369 176.231 918.408 177.743C918.04 178.029 917.676 178.343 917.507 178.776C917.219 179.467 917.528 180.29 918.058 180.827C920.226 183.032 923.487 183.145 926.632 182.45C927.285 192.514 930.541 202.773 938.987 210.482C938.118 218.418 935.911 230.61 926.642 232.664C925.302 232.957 923.923 233.178 922.718 233.825C916.706 237.08 923.859 245.023 927.824 245.945C933.759 247.322 940.439 245.81 946.831 244.885L946.838 244.884C948.268 244.677 949.025 246.735 945.566 249.839C936.396 258.08 926.423 270.031 929.429 283.486C931.64 293.395 939.545 299.718 948.599 302.71C952.406 303.961 956.399 304.354 960.495 304.579Z" fill="#D7E8F4"></path><path d="M833.089 192.964C824.522 182.633 811.752 169.914 816.729 155.802C809.654 161.742 801.48 167.86 798.257 176.664C794.66 186.489 797.399 198.284 806.664 203.884C815.608 209.29 827.897 207.123 838.372 205.152C837.892 201.005 836.092 196.421 833.089 192.964Z" fill="#7DB5DB"></path><path d="M802.612 183.66C802.319 181.636 803.722 179.758 805.746 179.465C807.77 179.172 809.648 180.575 809.941 182.599C810.234 184.623 808.831 186.501 806.807 186.794C804.783 187.087 802.905 185.684 802.612 183.66Z" fill="#3B3F54"></path><path d="M859.761 86.0652C854.409 94.2012 847.973 101.551 840.688 107.879C843.443 115.06 845.385 119.9 845.385 119.9C850.751 112.964 856.212 108.724 858.237 107.267C858.674 102.978 861.337 98.6142 864.374 96.0572C865.003 95.5292 865.667 95.0452 866.372 94.6042C864.498 92.1582 862.243 89.2372 859.761 86.0652Z" fill="#3B455A"></path><path d="M834.916 56.2892C829.426 50.4142 825.012 46.5382 823.252 46.9842C821.121 47.5252 822.802 55.6372 826.012 66.2662C829.307 63.3662 832.304 60.0772 834.916 56.2892Z" fill="#D7E8F4"></path><path d="M834.916 56.2892C832.304 60.0772 829.307 63.3662 826.011 66.2662C827.311 70.5722 828.861 75.2882 830.511 80.0852C835.31 76.0362 839.492 71.1652 842.834 65.2172C840.072 61.9772 837.386 58.9312 834.916 56.2892Z" fill="#7DB5DB"></path><path d="M842.834 65.2172C839.492 71.1652 835.311 76.0362 830.511 80.0852C832.083 84.6542 833.745 89.2932 835.366 93.7132C841.639 88.7492 847.27 82.9702 852.029 76.3332C849.002 72.5812 845.873 68.7822 842.834 65.2172Z" fill="#587BC9"></path><path d="M852.03 76.3332C847.27 82.9692 841.639 88.7492 835.367 93.7132C837.267 98.8922 839.111 103.77 840.688 107.88C847.973 101.552 854.408 94.2022 859.761 86.0662C857.355 82.9922 854.732 79.6812 852.03 76.3332Z" fill="#305399"></path><path d="M996.391 179.703C996.201 178.944 995.654 178.227 994.89 178.055C994.017 177.858 993.163 178.395 992.427 178.905C988.908 181.351 985 185.542 980.35 183.732C975.299 181.767 972.893 175.272 972.114 170.357C970.67 161.243 971.828 154.112 966.899 146.19C964.842 142.885 959.497 137.83 953.802 138.369C957.73 137.967 953.782 118.937 952.787 116.311C948.897 106.045 938.526 98.5682 929.184 93.6852C909.962 83.6372 885.065 82.9172 866.371 94.6042C865.665 95.0452 865.002 95.5292 864.373 96.0572C861.336 98.6132 858.673 102.978 858.235 107.267C857.993 109.637 858.432 111.986 859.858 113.995C862.949 118.338 869.557 119.787 874.291 117.74C874.53 117.635 874.754 117.525 874.984 117.407C876.962 116.352 876.079 115.562 874.635 114.996C873.093 114.387 871.326 113.725 870.796 111.968C869.418 107.37 881.741 106.242 883.987 105.917C900.808 103.482 914.033 119.337 921.807 129.598C924.434 133.313 932.064 146.424 925.398 165.884C923.179 172.361 918.832 174.436 916.549 176.493C916.121 176.882 915.699 177.31 915.51 177.913C915.19 178.872 915.583 180.036 916.229 180.805C918.875 183.964 922.754 184.226 926.469 183.351C926.549 183.332 926.628 183.308 926.707 183.288C927.516 193.538 930.799 203.943 938.862 211.927C937.895 219.85 935.483 231.081 926.692 233.029C925.352 233.322 924.026 233.912 922.822 234.559C916.81 237.814 923.856 245.019 927.821 245.94C933.756 247.317 940.437 245.805 946.835 244.879C947.152 244.833 947.462 244.754 947.769 244.66C947.657 245.681 946.969 246.903 945.349 248.357C936.179 256.598 926.202 269.435 929.208 282.891C931.419 292.801 939.488 299.344 948.542 302.336C952.35 303.591 956.397 304.353 960.493 304.578C969.474 305.069 978.671 303.011 986.048 298.021C991.041 294.646 996.061 289.94 997.708 283.924C998.122 282.397 998.43 280.582 997.984 279.016C997.446 277.104 995.728 276.055 994.5 278.441C992.848 281.65 989.877 283.449 986.349 284.171C978.968 285.67 972.657 280.277 974.987 272.49C975.494 270.78 976.427 269.234 977.388 267.733C980.822 262.361 985.729 257.658 988.535 251.946C991.109 246.727 992.53 240.682 991.833 234.941C990.877 227.072 986.326 217.832 977.671 216.129C977.526 216.101 977.382 216.079 977.237 216.058C978.932 210.457 979.159 204.328 978.423 198.544C984.82 198.86 992.215 192.474 994.87 187.178C995.867 185.197 996.955 181.948 996.391 179.703Z" fill="#587BC9"></path><path d="M905.008 127.42C900.933 127.202 892.508 119.242 893.376 115.255C895.516 105.425 904.707 91.4272 903.864 85.6052C902.685 77.4612 917.566 79.5392 917.069 95.6022C916.573 111.665 916.688 126.2 909.833 127.206C908.119 127.458 906.489 127.499 905.008 127.42Z" fill="#7DB5DB"></path><path d="M862.585 154.814C863.058 158.08 860.794 161.111 857.528 161.584C854.262 162.057 851.231 159.793 850.759 156.527C850.286 153.261 852.551 150.23 855.816 149.758C859.081 149.284 862.112 151.548 862.585 154.814Z" fill="#3B3F54"></path><path d="M909.832 127.206C916.687 126.199 916.572 111.665 917.068 95.6022C917.273 88.9742 914.859 84.7332 912.036 82.6032C912.053 82.7952 915.405 120.696 901.297 125.955L902.757 126.76C903.582 127.147 904.351 127.385 905.007 127.42C906.488 127.499 908.118 127.458 909.832 127.206Z" fill="#305399"></path><path d="M1043.75 190.281L1064.59 229.373C1064.94 230.016 1065.58 230.45 1066.3 230.533L1110.43 235.575C1112.26 235.784 1113.05 237.992 1111.78 239.311L1080.91 271.156C1080.4 271.68 1080.19 272.419 1080.33 273.133L1089.15 316.523C1089.51 318.321 1087.65 319.756 1086 318.952L1046.08 299.541C1045.42 299.222 1044.65 299.245 1044.01 299.603L1005.33 321.378C1003.73 322.28 1001.79 320.959 1002.04 319.143L1008.24 275.301C1008.34 274.58 1008.08 273.855 1007.54 273.362L974.818 243.429C973.462 242.189 974.122 239.937 975.934 239.619L1019.68 231.934C1020.4 231.808 1021.01 231.336 1021.32 230.674L1039.77 190.4C1040.54 188.732 1042.89 188.662 1043.75 190.281Z" fill="#7DB5DB"></path><path d="M1042.04 199.507L1025.54 233.839C1024.68 235.64 1022.95 236.876 1020.96 237.118L983.047 241.721L1023.27 242.385C1025.83 242.427 1028.11 240.816 1028.93 238.401L1042.04 199.507Z" fill="#B6DAEF"></path><path d="M1002.76 314.099L1002.04 319.144C1001.79 320.96 1003.73 322.281 1005.33 321.379L1044.01 299.604C1044.65 299.246 1045.42 299.223 1046.08 299.542L1086 318.953C1087.65 319.757 1089.51 318.322 1089.15 316.524L1080.33 273.134C1080.19 272.42 1080.4 271.681 1080.91 271.157L1111.77 239.312C1113.05 237.993 1112.26 235.785 1110.43 235.576L1095.65 233.887C1073.13 277.179 1037.35 300.691 1002.76 314.099Z" fill="#6E9FBA"></path><path d="M832.756 498.563H611.042V359.557C611.042 354.579 615.077 350.544 620.055 350.544H823.744C828.721 350.544 832.757 354.579 832.757 359.557L832.756 498.563Z" fill="#3B455A"></path><path d="M823.977 360.798H619.881V490.392H823.977V360.798Z" fill="#D7E8F4"></path><path d="M832.736 517.69L611.019 517.025C605.623 517.01 600.624 514.184 597.828 509.569L845.97 510.309C843.147 514.908 838.132 517.705 832.736 517.69Z" fill="#969999"></path><path d="M843.02 511.546H600.778C598.971 511.546 597.505 510.081 597.505 508.273V501.471C597.505 499.664 598.97 498.198 600.778 498.198H843.02C844.828 498.198 846.293 499.663 846.293 501.471V508.273C846.293 510.081 844.827 511.546 843.02 511.546Z" fill="#BCBEC0"></path><g opacity="0.14"><path d="M740.182 506.843H703.616C702.38 506.843 701.379 505.841 701.379 504.606V504.359C701.379 503.123 702.381 502.122 703.616 502.122H740.182C741.418 502.122 742.419 503.124 742.419 504.359V504.606C742.419 505.842 741.417 506.843 740.182 506.843Z" fill="#000100"></path></g><path d="M620.53 476.56H822.199L823.327 416.352L792.18 370.893L762.459 422.708L727.259 394.267L682.287 437.406L654.19 420.091L620.53 457.154V476.56Z" fill="#F2F2F2"></path><g opacity="0.04"><path d="M727.26 394.267L755.221 476.56L762.46 422.708L727.26 394.267Z" fill="black"></path></g><path d="M87.8475 221.43C88.0585 221.679 88.2744 221.937 88.4004 222.226C89.5824 224.916 88.5885 227.027 88.9875 229.929C89.1655 231.223 92.2085 232.646 90.1425 234.427C89.3795 235.084 87.2824 236.433 85.6434 237.818C83.2524 239.839 81.4445 243.845 80.5955 247.291C77.2605 260.83 77.7024 274.902 78.5764 288.808C78.6264 289.601 78.6904 290.427 79.1004 291.108C79.8334 292.327 81.3985 292.693 82.7915 292.977C89.2545 294.294 95.5944 296.213 101.702 298.701C107.152 300.921 112.547 303.689 116.508 308.041C120.469 312.394 122.786 318.609 121.231 324.285C120.067 328.535 116.728 332.127 112.575 333.6C102.274 337.252 91.5225 325.447 84.0245 319.833C76.9295 314.521 70.2065 308.713 63.9245 302.462C63.1485 301.69 62.3605 300.883 61.9505 299.868C61.5135 298.787 61.5504 297.581 61.5974 296.415C62.2004 281.41 64.1254 266.542 66.3614 251.637C66.9754 247.541 69.6654 244.289 70.1994 240.496C70.5404 238.076 69.0664 235.932 68.8824 233.577C68.7004 231.247 69.0555 228.142 69.7455 225.912C71.1055 221.513 75.5994 219.955 79.3914 218.208C80.3354 217.773 80.9724 217.476 81.9454 217.529C83.5274 217.616 84.6965 218.614 85.8925 219.563C86.5995 220.123 87.2665 220.744 87.8475 221.43Z" fill="#EACDB0"></path><path d="M81.6725 326.706C79.4275 324.567 77.3125 322.317 75.3465 319.962C69.4175 312.859 63.4885 305.755 57.5595 298.652C57.0295 298.017 56.4895 297.366 56.2015 296.591C55.7075 295.263 56.0185 293.789 56.3175 292.404C58.6185 281.761 59.9325 270.904 60.2385 260.02C66.9505 262.835 74.3455 264.004 81.5985 263.398C81.6135 270.694 81.6275 277.99 81.6425 285.286C81.6445 286.114 81.6595 286.993 82.1055 287.691C82.5275 288.352 83.2625 288.735 83.9675 289.079C101.065 297.399 119.794 300.733 137.915 306.169C146.671 308.798 155.724 311.587 162.581 317.633C177.223 330.542 168.846 354.836 148.662 354.203C124.81 353.454 99.2605 343.466 81.6725 326.706Z" fill="#7DB5DB"></path><path d="M152.974 652.177L153.288 674.36L137.907 674.535L137.559 649.942L152.974 652.177Z" fill="#EACDB0"></path><path d="M139.076 671.06L150.509 674.839L153.917 678.508L153.34 687.203L122.436 689.604C119.825 685.802 121.524 680.645 125.88 679.149L127.318 678.655L139.076 671.06Z" fill="#587BC9"></path><path d="M247.706 630.912L256.412 651.318L244.316 656.467L234.664 633.844L247.706 630.912Z" fill="#EACDB0"></path><path d="M242.306 656.849C242.74 656.37 243.245 655.914 243.831 655.486C245.285 654.424 257.003 648.214 258.009 651.013C258.172 651.468 258.12 651.968 258.063 652.447C257.098 660.5 255.209 668.442 252.444 676.067C251.261 679.329 249.467 682.942 246.093 683.755C244.614 684.112 243.062 683.849 241.579 683.512C239.391 683.016 237.238 682.363 235.143 681.56C234.377 681.266 233.563 680.904 233.166 680.187C232.371 678.75 233.758 677.048 235.206 676.274C236.655 675.5 238.423 674.944 239.131 673.461C239.448 672.797 239.493 672.039 239.533 671.304C239.828 665.848 238.902 660.608 242.306 656.849Z" fill="#587BC9"></path><path d="M162.882 549.376C167.195 569.097 179.523 583.264 192.693 597.766C207.764 614.361 221.94 631.768 235.14 649.886C240.846 647.507 246.551 645.127 252.257 642.748C247.487 615.035 234.342 589.609 224.155 563.398C217.076 545.184 211.341 525.925 211.03 506.241C210.875 496.452 213.247 487.5 214.517 477.98C216.09 466.187 216.18 454.099 217.602 442.25C218.079 438.277 218.35 433.578 215.295 430.994C213.935 429.844 212.142 429.359 210.394 429.021C145.515 416.457 154.681 511.877 162.882 549.376Z" fill="#305399"></path><path d="M215.735 445.962C215.77 433.997 214.309 422.464 212.071 413.669C193.616 412.681 172.759 414.723 154.507 418.426C136.668 422.046 125.542 425.929 125.413 445.273C125.176 480.868 111.264 511.19 105.256 545.404C101.765 565.287 107.797 583.072 114.481 601.486C122.129 622.558 128.643 644.041 133.982 665.813C140.164 665.776 146.346 665.739 152.527 665.702C158.627 638.251 156.111 609.738 156.629 581.623C156.989 562.085 158.99 542.09 166.169 523.76C174.061 503.61 185.428 511.63 198.472 499.945C211.154 488.585 215.675 466.629 215.735 445.962Z" fill="#305399"></path><path d="M194.778 308.975C196.816 310.554 198.607 312.46 200.377 314.347C201.962 316.038 203.548 317.729 205.133 319.42C210.625 325.278 213.338 333.949 215.692 341.433C228.08 380.815 232.538 434.845 224.493 475.995C193.98 478.631 158.664 470.938 128.218 466.779C125.258 466.375 121.904 465.711 120.368 463.149C119.437 461.596 119.41 459.683 119.41 457.872C119.413 431.749 124.934 403.673 130.112 377.921C132.297 367.054 134.989 356.279 138.441 345.742C142.095 334.588 146.216 322.544 154.767 314.105C163.918 305.076 181.438 300.617 192.894 307.666C193.548 308.066 194.174 308.506 194.778 308.975Z" fill="#7DB5DB"></path><path d="M182.957 307.057C182.773 307.438 182.524 307.805 182.187 308.155C180.856 309.537 178.983 310.349 177.111 310.666C174.644 311.084 172.118 310.737 169.649 310.331C166.314 309.783 166.382 307.837 165.824 304.836C165.519 303.197 165.312 301.542 165.146 299.883C165.055 298.974 165.324 295.703 164.727 295.08C164.322 294.657 162.721 294.844 162.009 294.495C160.88 293.942 159.922 292.894 159.226 291.87C158.104 290.219 157.46 288.298 156.83 286.404C155.733 283.109 154.637 279.814 153.54 276.519C152.42 273.152 151.293 269.757 150.87 266.234C150.233 260.924 150.901 253.387 154.82 249.392C158.394 245.748 163.71 244.368 168.598 243.616C175.07 242.62 181.832 243.637 187.528 246.94C189.828 248.274 192.022 250.024 193.422 252.471C195.582 256.244 195.547 261.025 195.439 265.496C195.34 269.623 195.24 273.75 195.141 277.878C195.027 282.625 194.576 288.103 191.09 290.765C189.239 292.178 186.781 292.533 185.211 294.325C183.245 296.569 183.46 299.855 183.446 302.638C183.439 304.229 183.597 305.729 182.957 307.057Z" fill="#EACDB0"></path><path d="M161.04 254.297C160.826 254.69 160.65 255.095 160.516 255.516C159.815 257.721 160.389 260.175 159.706 262.385C158.623 265.889 154.622 268.081 154.103 271.712C153.679 274.681 155.771 277.441 156.018 280.43C156.288 283.696 154.272 286.845 154.68 290.065C155.034 292.862 156.914 296.758 158.645 298.962C158.108 298.279 153.42 298.647 152.183 297.934C150.288 296.842 150.057 296.129 149.452 294.199C148.851 292.283 149.23 290.369 148.32 288.413C147.204 286.014 144.993 284.288 144.168 281.72C143.043 278.216 144.826 274.443 144.586 270.77C144.222 265.211 139.279 260.092 140.889 254.759C141.834 251.63 144.796 249.57 146.418 246.733C147.65 244.579 148.061 242.067 148.894 239.729C149.727 237.392 151.202 235.036 153.564 234.273C154.876 233.849 156.302 233.973 157.65 233.686C159.981 233.19 161.886 231.524 164.123 230.703C167.323 229.528 173.102 232.647 175.056 235.335C176.996 238.003 176.111 240.336 174.26 242.786C171.181 246.869 163.552 249.683 161.04 254.297Z" fill="#3B455A"></path><path d="M204.098 236.75C206.069 238.12 208.484 239.084 210.293 240.698C213.82 243.844 214.607 248.999 214.852 253.719C215.07 257.921 217.006 261.611 216.662 266.006C216.431 268.957 215.256 271.966 212.905 273.765C209.977 276.006 205.303 276.48 204.06 279.951C202.71 283.721 206.697 288.324 204.432 291.627C203.183 293.449 200.651 293.777 198.829 295.026C196.796 296.42 195.795 298.843 194.587 300.991C193.378 303.139 191.537 305.308 189.074 305.424C188.879 301.679 188.692 298.713 190.205 295.245C191.086 293.225 193.738 289.472 191.574 287.364C190.198 285.601 187.044 285.097 186.906 282.865C186.841 281.817 187.55 280.905 188.106 280.014C190.255 276.564 190.367 272.038 188.755 268.307C187.143 264.576 183.943 261.645 180.241 259.967C175.902 258.001 176.566 256.937 175.216 252.865C173.973 249.118 171.808 248.287 168.374 246.998C165.29 245.84 164.29 245.095 163.091 242.268C162.213 240.199 161.135 237.722 162.27 235.358C163.173 233.48 164.849 232.11 166.473 230.805C169.866 228.078 173.684 225.205 178.032 225.406C180.447 225.518 182.744 226.593 185.16 226.668C186.772 226.718 188.363 226.321 189.973 226.226C192.717 226.064 195.636 226.825 197.901 228.403C200.187 229.995 200.167 231.723 201.474 234.032C202.112 235.164 203.041 236.015 204.098 236.75Z" fill="#3B455A"></path><path d="M193.986 221.591C193.497 218.991 193.681 215.582 196.152 214.637C197.506 214.119 199.05 214.609 200.463 214.284C203.473 213.591 204.41 209.9 205.929 207.211C206.156 206.808 206.429 206.399 206.846 206.2C207.443 205.915 208.142 206.137 208.8 206.2C211.82 206.49 214.033 203.46 216.841 202.31C220.317 200.887 224.79 202.968 225.939 206.544C226.411 208.013 226.376 209.606 226.822 211.083C228.629 217.069 237.523 219.408 237.905 225.649C238.164 229.866 234.136 234.016 235.842 237.882C236.933 240.354 240.191 241.975 239.891 244.661C239.699 246.389 237.895 247.608 236.157 247.628C234.419 247.648 232.798 246.735 231.46 245.626C229.336 243.865 227.711 241.577 225.683 239.706C223.655 237.835 220.975 236.345 218.247 236.756C215.604 237.155 213.258 239.28 210.612 238.906C208.496 238.607 206.883 236.767 204.8 236.29C202.851 235.844 200.856 236.656 198.864 236.827C196.871 236.998 194.394 236.022 194.29 234.025C194.265 233.541 194.388 233.037 194.224 232.581C193.765 231.303 191.566 231.434 191.115 230.153C192.116 228.52 193.599 229.058 194.293 226.942C194.828 225.306 194.293 223.224 193.986 221.591Z" fill="#3B455A"></path><path d="M94.6625 241.079L97.2755 252.924C98.1245 256.771 101.854 259.219 105.607 258.391L135.957 251.695C139.71 250.867 142.064 247.077 141.215 243.23L138.602 231.384L94.6625 241.079Z" fill="#929293"></path><path d="M155.138 60.9572C145.945 19.2872 105.542 -7.22379 64.8985 1.74321C24.2535 10.7102 -1.24252 51.7602 7.95048 93.4302C11.2175 108.238 18.4285 121.128 28.1885 131.196L28.1855 131.197C56.4255 161.858 67.6595 190.28 67.6595 190.28L104.692 182.109L141.725 173.939C141.725 173.939 139.957 143.429 152.674 103.732L152.671 103.733C157.287 90.4932 158.405 75.7652 155.138 60.9572Z" fill="#D7E8F4"></path><path d="M66.8055 190.468L77.9065 240.784C78.3705 242.886 80.3685 244.232 82.3705 243.791L150.893 228.673C152.895 228.231 154.142 226.169 153.678 224.067L142.577 173.751L66.8055 190.468Z" fill="#BCBEC0"></path><path d="M150.714 47.1192C140.288 88.7102 116.754 154.6 67.5785 190.083C67.6265 190.2 67.6585 190.279 67.6585 190.279L104.691 182.109L141.724 173.939C141.724 173.939 139.956 143.429 152.673 103.732L152.67 103.733C157.288 90.4942 158.405 75.7662 155.138 60.9582C154.072 56.1262 152.57 51.5102 150.714 47.1192Z" fill="#BFCFD8"></path><path d="M21.3464 96.9832C13.3204 60.6042 35.5794 24.7662 71.0634 16.9372C91.8044 12.3612 112.47 18.3712 127.667 31.4172C112.216 14.1182 88.4885 5.41322 64.6655 10.6692C29.1814 18.4982 6.92245 54.3352 14.9485 90.7142C18.2835 105.829 26.3245 118.656 37.1265 127.929C29.5635 119.463 23.9834 108.937 21.3464 96.9832Z" fill="white"></path><path d="M90.3805 185.266L60.1575 90.6542L74.9165 98.5042L81.8715 78.5082L96.6165 93.1272L106.598 80.3122L119.003 178.952L122.804 178.113L109.268 70.4832L96.2195 87.2352L80.2225 71.3752L72.7375 92.8922L53.5415 82.6822L86.5795 186.105L90.3805 185.266Z" fill="#F6F7F7"></path><path d="M83.5655 176.67L86.5795 186.105L90.3805 185.266L86.6575 173.611C85.6405 174.644 84.6105 175.665 83.5655 176.67Z" fill="#EDECED"></path><path d="M113.894 138.338L119.001 178.952L122.802 178.113L117.119 132.924C116.07 134.739 114.995 136.544 113.894 138.338Z" fill="#EDECED"></path><path d="M145.319 186.25L69.5483 202.963L71.5979 212.255L147.368 195.541L145.319 186.25Z" fill="#A9A9AA"></path><path d="M149.696 206.093L73.9252 222.806L75.9748 232.098L151.745 215.384L149.696 206.093Z" fill="#A9A9AA"></path><path d="M115.481 213.64L149.711 206.088L147.383 195.536L126.267 200.195C122.734 205.175 119.113 209.638 115.481 213.64Z" fill="#96928D"></path><path d="M145.333 186.244L142.577 173.751L141.385 174.014C138.905 179.322 136.3 184.253 133.605 188.832L145.333 186.244Z" fill="#96928D"></path><path d="M82.3705 243.79L150.893 228.672C152.895 228.23 154.142 226.168 153.678 224.066L151.761 215.379L102.285 226.295C93.3935 233.675 84.9955 238.543 78.2435 241.706C79.0095 243.256 80.6835 244.163 82.3705 243.79Z" fill="#A9A9AA"></path><path d="M126.268 200.194L147.384 195.535L145.334 186.243L133.606 188.831C131.219 192.886 128.766 196.673 126.268 200.194Z" fill="#73726F"></path><path d="M102.285 226.295L151.761 215.379L149.711 206.087L115.481 213.639C111.056 218.515 106.613 222.703 102.285 226.295Z" fill="#73726F"></path><path d="M140.189 238.578C133.505 248.9 117.697 255.063 112.426 256.885L135.957 251.694C139.71 250.866 142.064 247.076 141.215 243.229L140.189 238.578Z" fill="#5D5A59"></path><path d="M91.1005 322.62L55.3145 300.424L13.3025 386.273C11.3575 390.13 12.6215 394.793 16.2175 397.023L57.7185 422.763C61.3145 424.993 66.0535 424.054 68.6445 420.598L126.887 344.815L91.1005 322.62Z" fill="#BCBEC0"></path><path d="M12.6865 392.273C13.2115 394.193 14.4245 395.911 16.2175 397.023L57.7185 422.763C61.3145 424.993 66.0535 424.054 68.6445 420.598L126.878 344.828L12.6865 392.273Z" fill="#9E9D9D"></path><path d="M55.3145 300.424L123.831 348.466L131.983 338.151L55.3145 300.424Z" fill="#9F9B93"></path><path d="M43.5485 323.758L111.211 365.724L77.5225 408.757L19.9655 373.058L43.5485 323.758Z" fill="#587BC9"></path><path d="M57.2169 291.543L52.5958 298.993L129.032 346.404L133.653 338.953L57.2169 291.543Z" fill="#3B455A"></path><path d="M133.035 320.908C133.022 319.5 132.302 318.207 131.123 317.476L104.524 300.979L77.9255 284.482C76.7465 283.751 75.2685 283.68 74.0015 284.294L61.9105 294.444L95.6125 315.347L129.315 336.25L133.035 320.908Z" fill="#305399"></path><path d="M53.7625 377.348C54.0595 377.213 54.3675 377.077 54.6795 377.034C57.5905 376.634 59.3475 378.169 62.2475 378.58C63.5405 378.764 65.7435 376.226 66.8895 378.702C67.3125 379.615 68.0345 382.002 68.9175 383.959C70.2065 386.812 73.5635 389.649 76.6455 391.41C88.7525 398.328 102.406 401.759 116.019 404.728C116.795 404.897 117.608 405.062 118.374 404.855C119.747 404.484 120.528 403.08 121.183 401.817C124.221 395.962 127.803 390.391 131.87 385.198C135.498 380.565 139.638 376.135 144.91 373.519C150.181 370.903 156.794 370.378 161.827 373.428C165.596 375.713 168.136 379.907 168.413 384.306C169.102 395.214 154.803 402.318 147.349 407.992C140.296 413.359 132.868 418.233 125.134 422.562C124.179 423.096 123.187 423.634 122.099 423.75C120.939 423.874 119.79 423.508 118.682 423.143C104.416 418.451 90.6455 412.526 76.9235 406.291C73.1525 404.578 70.7615 401.1 67.2605 399.547C65.0265 398.556 62.5605 399.386 60.2455 398.917C57.9555 398.454 55.0665 397.261 53.1105 395.987C49.2525 393.473 48.9855 388.725 48.3445 384.599C48.1845 383.572 48.0735 382.878 48.3915 381.957C48.9085 380.459 50.1895 379.608 51.4295 378.718C52.1645 378.191 52.9445 377.72 53.7625 377.348Z" fill="#EACDB0"></path><path d="M197.678 356.519C197.82 356.094 197.981 355.672 198.117 355.247C204.257 336.009 183.189 321.295 166.761 331.839C159.068 336.777 153.904 344.719 148.977 352.42C142.798 362.086 137.302 372.186 131.183 381.888C121.586 397.105 105.654 395.824 89.6555 392.1C86.4815 399.736 82.6695 407.107 78.2695 414.11C89.7455 419.391 101.348 424.714 113.726 427.238C126.104 429.761 139.514 429.266 150.664 423.327C159.445 418.65 166.211 410.987 172.479 403.261C183.748 389.367 194.351 374.036 197.678 356.519Z" fill="#7DB5DB"></path></svg>