<svg xmlns="http://www.w3.org/2000/svg" width="2278" height="1528" viewBox="0 0 2278 1528" fill="none"><path d="M2116.5 701.5C2116.5 701.5 1994.27 593.191 1963.5 565C1869.22 478.587 2011.69 273.473 1756.91 131.493C1493.39 -15.371 1217.29 62.0347 1070.43 132.571C923.566 203.108 718.409 104.702 588.49 131.493C-189.957 292.019 6.59102 1424.33 176.175 1523.11H2011.66C2012.47 1522.85 2013.26 1522.57 2014.07 1522.3H2137C2246.66 1522.3 2398.5 845 2116.5 701.5Z" fill="#D7E8F4"></path><path d="M986.786 360.004C986.786 360.004 902.123 434.634 918.445 512.627C918.445 512.627 992.663 451.853 986.786 360.004Z" fill="#587BC9"></path><path d="M846.837 365.344C846.837 365.344 918.333 412.798 914.11 473.236C914.11 473.236 851.915 435.139 846.837 365.344Z" fill="#587BC9"></path><path d="M888.506 256.622C888.506 256.622 946.738 208.656 937.963 133.524C937.963 133.524 879.202 154.408 867.487 195.886C867.487 195.886 846.311 132.846 788.357 112.336C788.357 112.336 786.652 193.807 831.697 238.349C831.697 238.349 757.223 227.567 715.402 249.607C715.402 249.607 792.534 323.373 888.506 256.622Z" fill="#ED2B47"></path><path d="M918.26 562.735L929.437 567.797C921.679 464.364 901.435 358.277 889.041 317.928C875.515 273.896 863.901 254.634 863.413 253.835L855.351 258.761L859.382 256.298L855.348 258.756C855.463 258.945 866.994 278.164 880.19 321.293C892.375 361.115 910.595 460.544 918.26 562.735Z" fill="#587BC9"></path><path d="M984.97 221.255C984.97 221.255 962.575 280.66 869.867 279.062C869.867 279.062 827.203 366.089 742.527 346.524C742.527 346.524 759.379 288.269 830.865 264.862C830.865 264.862 748.671 238.072 725.219 165.928C725.219 165.928 812.376 168.567 844.046 220.638C844.046 220.638 850.672 128.91 874.822 95.1801C874.822 95.1801 914.451 181.431 890.47 236.976C890.47 236.976 938.571 219.798 984.97 221.255Z" fill="#D8193D"></path><path d="M917.948 467.179C913.077 408.405 884.974 309.45 884.69 308.458L887.159 307.753C887.443 308.749 915.614 407.941 920.506 466.967L917.948 467.179Z" fill="#1D1D1B"></path><path d="M845.326 220.725L842.765 220.552C842.822 219.708 848.775 135.677 873.725 94.515L875.92 95.846C851.294 136.473 845.383 219.887 845.326 220.725Z" fill="#1D1D1B"></path><path d="M770.055 349.817C753.696 350.935 742.771 347.927 742.177 347.759L742.876 345.289C743.062 345.342 761.751 350.466 786.48 344.794C809.29 339.564 842.081 323.8 868.761 278.411L869.145 277.758L869.903 277.778C870.584 277.795 938.542 279.136 973.289 237.606L975.258 239.253C956.655 261.487 928.966 271.474 909.014 275.938C889.999 280.193 874.186 280.372 870.596 280.354C843.482 326.103 810.155 342.03 786.92 347.327C780.863 348.708 775.19 349.466 770.055 349.817Z" fill="#1D1D1B"></path><path d="M743.619 552.507C743.619 552.507 790.189 470.018 672.596 415.715C672.596 415.715 659.5 466.021 660.657 464.167C661.814 462.312 646.798 428.987 627.137 408.477C627.137 408.477 468.188 438.627 385.281 536.829C385.281 536.829 424.699 550.86 442.802 561.897L460.21 543.905L455.158 571.409L531.513 625.745L557.349 601.677L557.657 639.996C557.657 639.996 677.726 720.059 740.412 685.235C803.098 650.412 777.106 592.978 777.106 592.978C777.106 592.978 763.557 570.098 743.619 552.507Z" fill="#258D8C"></path><path d="M1417.58 508.615C1417.58 508.615 1371.38 505.094 1370.08 432.055C1368.77 359.016 1483.93 274.556 1612.52 295.338L1604.57 321.155L1635.83 295.554C1635.83 295.554 1710.9 319.393 1730.31 352.182C1730.31 352.182 1664.96 365.313 1621.6 441.016L1564.6 458.05L1610.84 467.526C1610.84 467.526 1497.69 623.062 1417.58 508.615Z" fill="#258D8C"></path><path d="M1386.63 487.868C1386.63 487.868 1352.64 509.527 1313.61 459.369C1274.58 409.212 1310.67 290.321 1411.02 237.681L1418.96 259.8L1427.36 225.664C1427.36 225.664 1492.05 203.084 1522.68 215.773C1522.68 215.773 1484.04 259.019 1493.37 334.344L1462.58 375.944L1499.71 358.412C1499.71 358.413 1502.12 525.724 1386.63 487.868Z" fill="#7FC6A6"></path><path d="M1520.84 497.605C1520.84 497.605 1472.38 471.47 1439.44 492.119C1439.44 492.119 1479.8 515.816 1520.84 497.605Z" fill="#587BC9"></path><path d="M1569.79 441.174C1569.79 441.174 1579.35 393.721 1624.53 375.991C1624.53 375.991 1630.46 415.562 1610.52 434.724C1610.52 434.724 1652.6 427.667 1681.72 454.276C1681.72 454.276 1636.12 479.853 1597.3 467.811C1597.3 467.811 1625.9 506.71 1626.06 537.042C1626.06 537.042 1561 515.664 1569.79 441.174Z" fill="#EAA859"></path><path d="M1405.43 508.771L1402.98 503.225C1463.87 476.37 1508.34 464.565 1534.93 459.392C1563.94 453.746 1578.35 454.501 1578.95 454.536L1578.6 460.588L1578.77 457.562L1578.6 460.588C1578.46 460.58 1564.1 459.859 1535.7 465.418C1509.47 470.551 1465.59 482.239 1405.43 508.771Z" fill="#587BC9"></path><path d="M1560.67 375.886C1560.67 375.886 1533.81 406.509 1562.72 458.504C1562.72 458.504 1526.35 508.945 1563 550.966C1563 550.966 1590.89 523.828 1582.54 476.292C1582.54 476.292 1622.54 514.725 1670.46 506.206C1670.46 506.206 1642.63 457.668 1603.59 455.471C1603.59 455.471 1653.51 424.009 1665.31 400.149C1665.31 400.149 1604.52 403.773 1580.32 434.128C1580.32 434.128 1575.51 401.71 1560.67 375.886Z" fill="#FEC786"></path><path d="M1547.02 524.727L1548.63 524.483C1543.07 487.674 1563.18 459.263 1563.38 458.981L1563.68 458.561L1563.43 458.108C1549.24 432.558 1549.44 411.674 1552.1 398.652C1554.98 384.584 1561.25 376.469 1561.31 376.389L1560.03 375.383C1559.76 375.724 1553.46 383.884 1550.51 398.325C1547.8 411.541 1547.57 432.671 1561.76 458.457C1559.24 462.194 1541.73 489.729 1547.02 524.727Z" fill="#1D1D1B"></path><path d="M1441.01 486.639L1441.76 488.085C1470.19 473.237 1544.37 458.535 1545.12 458.389L1544.8 456.789C1544.05 456.935 1469.64 471.683 1441.01 486.639Z" fill="#1D1D1B"></path><path d="M754.672 558.804C754.672 558.804 793.394 569.997 816.693 510.869C839.992 451.741 771.845 347.852 660.722 325.648L659.342 349.108L641.656 318.727C641.656 318.727 573.223 315.307 547.418 336.118C547.418 336.118 596.683 366.713 608.98 441.61L650.243 472.841L609.68 466.491C609.68 466.491 654.547 627.692 754.672 558.804Z" fill="#7FC6A6"></path><path d="M1605.15 764.428C1605.15 772.661 1604.95 780.843 1604.54 788.973C1596.88 939.873 1519.02 1072.26 1402.98 1154.11C1325.41 1208.82 1230.77 1240.96 1128.62 1240.96C1072.89 1240.96 1019.39 1231.39 969.673 1213.81C911.387 1193.19 858.321 1161.56 812.958 1121.41L812.951 1121.41C742.161 1058.77 690.146 975.393 666.402 880.794C657.059 843.554 652.097 804.572 652.097 764.428C652.097 717.176 658.977 671.534 671.775 628.443C688.322 572.789 714.756 521.384 749.056 476.286C817.765 385.906 918.025 320.813 1033.43 297.415C1044.2 295.232 1055.1 293.409 1066.12 291.968C1078.47 290.351 1090.96 289.204 1103.59 288.55C1111.88 288.124 1120.23 287.903 1128.62 287.903C1327.68 287.903 1498.23 409.943 1569.52 583.286C1579.81 608.294 1588.03 634.368 1593.96 661.302C1601.29 694.506 1605.15 729.019 1605.15 764.428Z" fill="#305399"></path><g opacity="0.5"><path d="M1569.47 583.233C1561.32 590.974 1555.5 585.916 1548.05 579.381C1530.84 564.267 1511.52 551.69 1496.83 533.555C1487.95 522.595 1480.25 502.262 1462.94 511.34C1444.68 520.918 1423.09 531.695 1420.36 557.305C1419.63 564.119 1420.87 571.162 1419.95 577.932C1419.13 583.96 1415.04 589.274 1408.52 588.334C1405.11 587.849 1401.31 583.446 1399.53 579.888C1395.43 571.67 1392.53 562.856 1389 554.351C1369.79 508.099 1297.62 518.133 1283.44 532.791C1269.99 546.707 1252.42 552.359 1236.06 560.423C1224.72 566.01 1218.77 561.173 1212.74 549.154C1199.06 521.919 1194.28 542.722 1213.77 575.933C1215.23 578.425 1221.94 578.234 1226.26 578.587C1235.87 579.381 1249.21 571.559 1254.25 581.755C1259.85 593.097 1247.86 602.801 1241.35 611.872C1232.64 624.009 1223.5 636.079 1212.94 646.576C1194.89 664.513 1187.23 683.742 1197.2 708.809C1199.97 715.778 1201.5 728.995 1197.78 731.884C1164.73 757.59 1166.22 804.063 1135.31 831.364C1102.28 860.54 1083.75 860.672 1068.64 821.381C1055.73 787.773 1032.41 754.796 1049.7 714.256C1053.37 705.626 1049.49 689.454 1043.1 681.691C1027.22 662.402 1036.31 633.924 1018.23 617.473C1000.26 601.117 978.431 605.873 956.496 611.166C915.845 620.965 883.016 583.255 883.699 541.604C884.405 498.498 912.654 473.975 932.686 443.204C946.572 421.879 970.668 431.045 989.722 425.437C1006.78 420.409 1024.78 413.411 1037.65 439.565C1042.82 450.077 1063.88 463.838 1085.16 450.915C1101.1 441.234 1117.33 457.097 1134.7 456.097C1150.55 455.186 1162.86 452.877 1165.09 435.742C1167.85 414.689 1150.63 423.341 1141.23 422.01C1131.82 420.679 1121.11 420.599 1118.33 410.344C1112 387.005 1106.37 392.466 1098.11 409.197C1092.05 421.48 1087.98 410.682 1084.53 406.698C1051.61 368.708 1012.19 369.237 978.093 408.8C967.677 420.885 955.533 425.163 941.537 417.592C929.253 410.947 937.148 398.987 936.663 389.298C936.611 388.21 937.391 386.108 937.472 386.13C971.889 392.503 964.494 354.344 983.489 342.759C1007.24 328.27 1028.16 311.907 1058.83 316.707C1080.12 320.037 1088.06 297.55 1103.54 288.494C1111.83 288.068 1120.18 287.847 1128.57 287.847C1327.63 287.85 1498.18 409.891 1569.47 583.233Z" fill="#5FBBBE"></path></g><g opacity="0.5"><path d="M1002.79 917.791C1013.7 904.692 1015.4 889.887 1002.37 878.978C987.439 866.489 968.099 867.077 949.589 870.841C943.686 872.046 944.304 877.479 945.745 881.992C948.296 889.968 951.383 882.323 954.257 882.308C969.4 882.249 994.114 888.968 981.919 902.552C961.086 925.759 1000.27 925.362 990.071 938.858C985.8 944.511 979.596 949.34 972.943 942.482C945.406 914.122 938.166 932.58 926.889 958.184C922.728 967.645 909.232 989.903 891.774 979.583C886.717 976.591 880.02 966.704 871.235 962.668C849.77 952.788 852.696 940.968 870.566 931.257C890.788 920.267 912.143 911.373 930.653 902.677C920.7 888.482 912.231 869.215 895.016 894.966C888.165 905.213 873.309 899.046 872.691 887.799C871.162 859.704 841.45 885.065 833.003 866.768C830.357 861.027 817.993 862.828 811.083 868.598C805.548 873.222 810.554 874.273 813.612 877.691C826.351 891.878 823.021 895.929 804.526 891.504C766.441 882.381 728.135 896.414 688.013 884.322C680.603 882.095 673.407 880.977 666.401 880.793C690.144 975.392 742.16 1058.77 812.95 1121.4L812.957 1121.41C822.587 1124.98 831.011 1130.45 836.201 1137.41C843.706 1126.89 833.158 1109.88 846.404 1102.49C871.066 1088.73 886.327 1064.89 908.159 1047.98C923.523 1036.08 954.264 1031.44 954.551 1019.55C955.301 988.697 974.105 997.342 989.946 993.262C1002.43 990.05 1021.78 987.616 1002.6 964.777C993.003 953.355 989.784 933.419 1002.79 917.791ZM947.964 1005.91C947.251 1005.82 946.67 1004.66 946.031 1003.97C946.825 1003.46 947.677 1002.49 948.391 1002.58C949.104 1002.67 949.685 1003.83 950.324 1004.52C949.53 1005.03 948.677 1006 947.964 1005.91Z" fill="#5FBBBE"></path></g><g opacity="0.5"><path d="M824.248 529.786C806.481 525.236 783.303 523.523 776.026 508.101C769.41 494.09 759.891 484.1 749.055 476.286C714.755 521.384 688.321 572.789 671.774 628.443C673.303 632.104 673.81 636.411 673.957 641.322C674.913 672.321 673.288 704.246 680.36 733.988C688.277 767.295 685.204 807.284 724.767 833.182C727.95 818.502 737.44 809.255 731.199 797.089C712.954 761.51 750.789 745.529 762.852 723.498C770.313 709.862 784.302 694.131 791.727 677.547C796.02 667.961 796.461 658.383 809.722 656.222C830.79 652.789 835.847 635.588 837.994 618.019C839.677 604.28 840.383 590.615 846.668 577.897C862.032 546.804 858.665 538.6 824.248 529.786Z" fill="#5FBBBE"></path></g><g opacity="0.5"><path d="M1278.66 1079.73C1264.13 1074.68 1250.09 1075.25 1245.25 1056.16C1237.58 1025.84 1211.82 1020.63 1185.9 1019.72C1165.63 1019.01 1145.59 1019.7 1126.23 1012.14C1078.89 993.652 1067.34 999.599 1058.83 1050.96C1054.43 1077.48 1054.87 1111.53 1033.27 1124.12C996.554 1145.51 981.712 1179.97 969.672 1213.81C1019.39 1231.39 1072.89 1240.96 1128.62 1240.96C1230.77 1240.96 1325.41 1208.82 1402.98 1154.11C1383.94 1143.01 1367.47 1124.02 1349.41 1116.07C1328.55 1106.89 1303.82 1088.47 1278.66 1079.73Z" fill="#5FBBBE"></path></g><g opacity="0.5"><path d="M1579.51 640.565C1576.04 625.753 1564.48 634.339 1555.15 637.294C1521.89 647.828 1498.24 674.901 1466.29 687.861C1449.98 694.477 1437.54 739.913 1448.82 758.562C1459.66 776.491 1477.48 763.399 1490.54 758.812C1514.44 750.432 1535.26 747.932 1556.97 765.399C1566.83 773.331 1560.62 791.032 1578.71 792.972C1588.82 794.053 1597.21 792.362 1604.54 788.973C1604.95 780.843 1605.15 772.661 1605.15 764.428C1605.15 729.019 1601.3 694.506 1593.96 661.302C1584.84 659.494 1581.97 651.092 1579.51 640.565Z" fill="#5FBBBE"></path></g><g opacity="0.5"><path d="M1291.3 838.069C1326.07 832.621 1343.56 858.308 1356.52 883.135C1367.18 903.536 1362.67 920.269 1333.78 929.13C1319.86 933.399 1325.22 958.558 1333.55 973.498C1342.86 990.196 1353.75 978.869 1363.5 973.388C1391.51 957.649 1422.53 959.837 1450.99 965.483C1499.53 975.115 1526.91 940.57 1564.03 922.367C1452.21 890.988 1361.4 806.766 1235.78 807.681C1248.88 835.473 1266.17 842.006 1291.3 838.069Z" fill="#5FBBBE"></path></g><g opacity="0.5"><path d="M1505.49 591.535C1487.14 595.575 1473.53 610.342 1468.2 627.983C1464.67 639.687 1475.59 646.561 1487.72 645.492C1510.78 643.46 1512.58 626.456 1512.93 605.815C1513.64 601.14 1518.06 588.767 1505.49 591.535Z" fill="#5FBBBE"></path></g><g opacity="0.5"><path d="M1260.05 664.521C1258.55 669.344 1259.58 676.536 1267.08 677.998C1273.39 679.23 1279.51 676.481 1280.34 670.322C1283.04 650.175 1300.64 633.811 1295.04 610.072C1264.51 618.375 1266.39 644.091 1260.05 664.521Z" fill="#5FBBBE"></path></g><path d="M1089.82 1526.56H732.832C757.421 1460.46 778.233 1407.85 778.619 1406.89C778.609 1406.89 778.619 1406.88 778.619 1406.88C778.619 1406.88 788.31 1403.8 804.117 1399.29H804.127C807.083 1398.45 810.252 1397.55 813.624 1396.62C813.634 1396.62 813.634 1396.62 813.643 1396.62C832.281 1391.46 856.773 1385.08 883.169 1379.36H883.179C885.971 1378.73 888.773 1378.14 891.614 1377.54H891.624C912.89 1373.11 935.082 1369.18 956.213 1366.71C958.909 1366.4 961.575 1366.11 964.232 1365.84C984.937 1363.75 1004.34 1363.22 1020.5 1365.14H1020.51C1023.32 1365.47 1026.04 1365.87 1028.66 1366.35C1046.2 1369.65 1058.79 1376.51 1063.25 1388.44C1067.1 1398.79 1071.17 1415.84 1075.28 1437.17C1080.15 1462.33 1085.09 1493.46 1089.82 1526.56Z" fill="#587BC9"></path><path d="M1037.72 1237.11C1040.05 1183.99 1007.6 1089.56 969.159 1058.5C930.722 1027.43 835.818 968.209 804.498 938.297C773.177 908.404 751.637 858.416 721.324 839.532C686.777 818.011 678.061 830.004 678.061 830.004L668.671 792.796C668.671 792.796 695.575 705.686 705.146 658.742C712.656 621.96 686.837 600.056 670.617 590.821C666.14 588.272 662.396 586.677 660.287 586.018C656.463 584.819 643.695 615.133 629.775 654.533C608.235 715.475 583.968 798.172 585.844 819.59C588.925 854.842 594.945 1011.43 610.139 1041.61C625.323 1071.8 848.651 1259.22 848.651 1259.22L866.518 1322.96L1038.7 1329.39C1038.7 1329.39 1035.39 1290.23 1037.72 1237.11Z" fill="#F9CBB7"></path><g opacity="0.5"><path d="M660.287 586.019C656.463 584.82 643.695 615.134 629.775 654.534C636.861 656.716 647.356 658.168 655.429 651.68C668.848 640.88 673.434 599.723 670.617 590.821C666.139 588.273 662.396 586.677 660.287 586.019Z" fill="#B56F40"></path></g><path d="M792.455 1064.61C792.31 1063.52 791.314 1062.76 790.23 1062.91C789.146 1063.05 788.384 1064.05 788.527 1065.13L792.694 1096.4C792.839 1097.49 793.835 1098.25 794.92 1098.1C795.308 1098.05 795.654 1097.89 795.933 1097.66C796.433 1097.24 796.715 1096.58 796.623 1095.88L792.455 1064.61Z" fill="#305399"></path><path d="M850.393 1258.1L849.924 1257.71C847.694 1255.84 626.738 1070.21 611.909 1040.72C600.072 1017.21 593.646 911.815 590.195 855.193C589.228 839.335 588.464 826.809 587.818 819.419C587.723 818.329 586.762 817.523 585.672 817.618C584.583 817.716 583.776 818.675 583.872 819.765C584.513 827.103 585.275 839.606 586.24 855.434C589.953 916.336 596.168 1018.27 608.371 1042.51C623.362 1072.31 832.595 1248.33 846.909 1260.35L864.611 1323.5C864.907 1324.55 866 1325.17 867.054 1324.87C867.335 1324.79 867.585 1324.66 867.794 1324.48C868.37 1324 868.643 1323.2 868.427 1322.43L850.393 1258.1Z" fill="#305399"></path><path d="M1034.61 1272.97C1029.48 1273.07 1023.57 1273.02 1017.07 1272.83C1014.49 1272.77 1011.81 1272.68 1009.05 1272.56C997.526 1272.12 984.6 1271.36 971.164 1270.47C968.552 1270.3 965.905 1270.12 963.253 1269.93C946.642 1268.78 929.557 1267.48 913.632 1266.3C910.95 1266.11 908.292 1265.91 905.669 1265.72C892.348 1264.76 880.092 1263.94 869.963 1263.43C866.824 1263.29 863.897 1263.16 861.194 1263.08C857.811 1262.97 854.799 1262.92 852.215 1262.94C826.23 1263.14 790.946 1347.66 776.704 1384.74C772.66 1395.28 776.019 1407.29 785.091 1414.01C788.619 1416.62 792.223 1419.11 795.903 1421.44C798.169 1422.9 800.473 1424.3 802.809 1425.65C823.41 1437.64 845.898 1445.76 868.87 1451.01C871.442 1451.6 874.027 1452.15 876.613 1452.68C901.082 1457.58 925.925 1459.4 949.462 1459.36C952.128 1459.36 954.783 1459.33 957.41 1459.28C983.88 1458.77 1008.38 1456.01 1028.48 1452.83C1031.19 1452.41 1033.82 1451.97 1036.36 1451.53C1045.62 1449.92 1053.74 1448.28 1060.42 1446.8C1072.44 1444.15 1080.8 1433.24 1080.23 1420.93C1078.14 1375.66 1069.53 1272.27 1034.61 1272.97Z" fill="#7DB5DB"></path><g opacity="0.8"><path d="M795.903 1421.44C798.169 1422.9 800.473 1424.3 802.809 1425.65C814.124 1394.82 847.241 1306.31 869.963 1263.43C866.824 1263.29 863.897 1263.16 861.194 1263.08C838.458 1307.19 807.444 1389.96 795.903 1421.44Z" fill="#7DB5DB"></path></g><g opacity="0.8"><path d="M868.869 1451.01C871.441 1451.6 874.026 1452.15 876.612 1452.68C884.664 1412.42 906.768 1301.69 913.631 1266.3C910.949 1266.11 908.291 1265.91 905.668 1265.72C898.658 1301.87 876.833 1411.19 868.869 1451.01Z" fill="#7DB5DB"></path></g><path d="M949.462 1459.36C952.128 1459.36 954.783 1459.33 957.41 1459.28C960.808 1412.96 968.738 1303.78 971.165 1270.47C968.553 1270.3 965.906 1270.12 963.254 1269.93C960.824 1303.43 952.825 1413.49 949.462 1459.36Z" fill="#7DB5DB"></path><path d="M1009.05 1272.56C1012.93 1301.49 1025.27 1395.61 1028.48 1452.84C1031.19 1452.41 1033.82 1451.97 1036.36 1451.53C1033.12 1394.41 1021.19 1303.28 1017.07 1272.83C1014.49 1272.77 1011.81 1272.68 1009.05 1272.56Z" fill="#7DB5DB"></path><path d="M805.173 938.542C805.173 938.542 803.109 936.699 802.86 936.397C802.611 936.095 778.864 908.516 778.864 908.516L759.258 881.287L739.518 854.81L722.075 841.235L708.838 834.477L691.993 827.688L679.449 829.043C659.934 836.396 665.834 852.658 665.834 852.658L699.033 907.427L844.729 1051.88L912.675 1017.6L854.512 977.693L805.173 938.542Z" fill="#F9CBB7"></path><g opacity="0.5"><path d="M678.065 830.006C678.065 830.006 661.026 835.821 655.32 844.08C655.32 844.08 652.366 846.951 656.059 856.119C659.751 865.287 678.137 903.521 681.433 905.157C684.73 906.793 694.888 911.476 707.321 900.429C719.755 889.382 712.151 865.091 701.83 849.418C691.509 833.746 686.349 827.919 678.065 830.006Z" fill="#B56F40"></path></g><path d="M785.035 1052.46C780.774 1045.95 768.777 1033.05 754.886 1018.1C734.255 995.913 708.58 968.297 703.933 956.303C698.097 941.239 674.578 890.323 663.274 865.853C659.771 858.271 656.979 852.225 656.58 851.286L656.497 851.081C656.432 850.927 654.916 847.272 657.931 843.95C661.47 840.044 675.488 832.297 683.345 829.898C689.786 827.93 707.394 835.424 714.024 838.245C714.778 838.566 715.45 838.852 716.02 839.09C717.031 839.512 718.19 839.033 718.611 838.026C719.032 837.016 718.555 835.856 717.546 835.435C716.983 835.2 716.32 834.918 715.574 834.6C702.297 828.951 689.062 824.011 682.187 826.11C674.258 828.533 659.364 836.488 654.999 841.289C650.205 846.567 652.766 852.445 652.877 852.692C653.197 853.48 654.416 856.126 659.677 867.517C670.963 891.949 694.447 942.789 700.239 957.737C705.161 970.44 730.036 997.197 751.984 1020.8C765.752 1035.61 777.642 1048.4 781.718 1054.63C792.244 1070.72 811.332 1104.24 811.524 1104.58C812.065 1105.53 813.274 1105.86 814.225 1105.32C814.333 1105.26 814.432 1105.19 814.524 1105.11C815.24 1104.51 815.448 1103.46 814.968 1102.62C814.776 1102.28 795.627 1068.66 785.035 1052.46Z" fill="#305399"></path><path d="M970.404 1056.96C953.98 1043.68 927.638 1025.53 899.748 1006.31C862.379 980.561 823.737 953.933 805.865 936.864C793.511 925.073 782.213 909.168 771.287 893.786C754.531 870.198 737.205 845.808 715.036 834.375C714.063 833.874 712.871 834.257 712.367 835.228C711.865 836.2 712.248 837.395 713.22 837.897C734.533 848.887 751.575 872.878 768.056 896.08C779.092 911.615 790.501 927.677 803.129 939.73C821.229 957.016 860.003 983.735 897.5 1009.57C925.326 1028.75 951.608 1046.86 967.914 1060.04C968.664 1060.64 969.722 1060.61 970.434 1060.02C970.529 1059.94 970.619 1059.84 970.7 1059.74C971.387 1058.89 971.255 1057.65 970.404 1056.96Z" fill="#305399"></path><path d="M1533.34 1526.56H1176.35C1181.08 1493.45 1186.02 1462.32 1190.89 1437.17C1195 1415.84 1199.07 1398.79 1202.93 1388.44C1207.38 1376.51 1219.97 1369.65 1237.51 1366.35H1237.52C1240.13 1365.87 1242.85 1365.46 1245.66 1365.14C1245.67 1365.14 1245.67 1365.14 1245.68 1365.14C1261.84 1363.22 1281.24 1363.76 1301.94 1365.84H1301.95C1304.61 1366.11 1307.26 1366.4 1309.96 1366.71C1331.09 1369.18 1353.28 1373.11 1374.56 1377.54H1374.57C1377.4 1378.14 1380.2 1378.73 1382.99 1379.36H1383C1409.4 1385.08 1433.89 1391.46 1452.54 1396.62C1455.91 1397.55 1459.08 1398.45 1462.05 1399.29H1462.06C1477.86 1403.8 1487.55 1406.88 1487.55 1406.88C1487.55 1406.88 1487.56 1406.89 1487.55 1406.89C1487.94 1407.85 1508.75 1460.46 1533.34 1526.56Z" fill="#587BC9"></path><path d="M1605.88 586.019C1603.78 586.678 1600.03 588.273 1595.56 590.822C1579.34 600.057 1553.52 621.962 1561.03 658.743C1570.6 705.686 1597.5 792.797 1597.5 792.797L1588.11 830.005C1588.11 830.005 1579.39 818.011 1544.85 839.533C1514.53 858.417 1492.99 908.405 1461.67 938.298C1430.35 968.21 1335.45 1027.43 1297.01 1058.5C1258.58 1089.56 1226.12 1183.99 1228.45 1237.11C1230.78 1290.24 1227.47 1329.39 1227.47 1329.39L1399.65 1322.97L1417.52 1259.23C1417.52 1259.23 1640.85 1071.8 1656.03 1041.61C1671.23 1011.43 1677.25 854.844 1680.33 819.592C1682.2 798.174 1657.94 715.477 1636.4 654.535C1622.48 615.133 1609.71 584.819 1605.88 586.019Z" fill="#F9CBB7"></path><g opacity="0.5"><path d="M1605.88 586.019C1603.78 586.678 1600.03 588.273 1595.56 590.822C1592.74 599.724 1597.32 640.88 1610.74 651.681C1618.82 658.169 1629.31 656.716 1636.4 654.535C1622.48 615.133 1609.71 584.819 1605.88 586.019Z" fill="#B56F40"></path></g><path d="M1475.94 1062.91C1474.86 1062.76 1473.86 1063.52 1473.72 1064.61L1469.55 1095.88C1469.46 1096.58 1469.74 1097.24 1470.24 1097.66C1470.52 1097.89 1470.86 1098.05 1471.25 1098.1C1472.34 1098.25 1473.33 1097.49 1473.48 1096.4L1477.65 1065.13C1477.79 1064.05 1477.03 1063.05 1475.94 1062.91Z" fill="#305399"></path><path d="M1680.5 817.617C1679.41 817.522 1678.45 818.328 1678.35 819.418C1677.71 826.809 1676.94 839.334 1675.98 855.192C1672.53 911.814 1666.1 1017.21 1654.26 1040.72C1639.43 1070.21 1418.48 1255.84 1416.25 1257.71L1415.78 1258.1L1397.75 1322.43C1397.53 1323.2 1397.8 1324 1398.38 1324.48C1398.59 1324.66 1398.84 1324.79 1399.12 1324.87C1400.17 1325.17 1401.27 1324.55 1401.56 1323.5L1419.26 1260.35C1433.58 1248.33 1642.81 1072.31 1657.8 1042.5C1670 1018.27 1676.22 916.334 1679.93 855.432C1680.9 839.604 1681.66 827.101 1682.3 819.763C1682.4 818.673 1681.59 817.715 1680.5 817.617Z" fill="#305399"></path><path d="M1413.96 1262.94C1411.37 1262.92 1408.36 1262.97 1404.98 1263.08C1402.27 1263.16 1399.35 1263.29 1396.21 1263.43C1386.08 1263.94 1373.82 1264.76 1360.5 1265.72C1357.88 1265.91 1355.22 1266.11 1352.54 1266.3C1336.61 1267.48 1319.53 1268.78 1302.92 1269.93C1300.27 1270.12 1297.62 1270.3 1295.01 1270.47C1281.57 1271.36 1268.65 1272.12 1257.12 1272.56C1254.36 1272.68 1251.68 1272.77 1249.1 1272.83C1242.6 1273.02 1236.69 1273.07 1231.56 1272.97C1196.64 1272.27 1188.03 1375.66 1185.94 1420.93C1185.37 1433.24 1193.73 1444.15 1205.75 1446.81C1212.43 1448.28 1220.56 1449.92 1229.82 1451.53C1232.36 1451.97 1234.99 1452.41 1237.69 1452.84C1257.79 1456.02 1282.29 1458.77 1308.76 1459.28C1311.39 1459.33 1314.04 1459.36 1316.71 1459.36C1340.25 1459.4 1365.09 1457.58 1389.56 1452.68C1392.14 1452.15 1394.73 1451.6 1397.3 1451.01C1420.27 1445.76 1442.76 1437.64 1463.36 1425.65C1465.7 1424.3 1468 1422.9 1470.27 1421.44C1473.95 1419.11 1477.55 1416.62 1481.08 1414.01C1490.15 1407.29 1493.51 1395.29 1489.47 1384.74C1475.23 1347.66 1439.94 1263.14 1413.96 1262.94Z" fill="#7DB5DB"></path><g opacity="0.8"><path d="M1396.21 1263.43C1418.93 1306.31 1452.05 1394.82 1463.36 1425.65C1465.7 1424.3 1468 1422.9 1470.27 1421.44C1458.73 1389.95 1427.71 1307.19 1404.98 1263.08C1402.27 1263.16 1399.35 1263.29 1396.21 1263.43Z" fill="#7DB5DB"></path></g><g opacity="0.8"><path d="M1352.54 1266.3C1359.4 1301.69 1381.51 1412.42 1389.56 1452.68C1392.15 1452.15 1394.73 1451.6 1397.3 1451.01C1389.34 1411.19 1367.51 1301.87 1360.5 1265.72C1357.88 1265.91 1355.22 1266.11 1352.54 1266.3Z" fill="#7DB5DB"></path></g><g opacity="0.8"><path d="M1295.01 1270.47C1297.44 1303.78 1305.36 1412.96 1308.76 1459.28C1311.39 1459.33 1314.05 1459.36 1316.71 1459.36C1313.35 1413.49 1305.35 1303.43 1302.92 1269.93C1300.27 1270.12 1297.62 1270.3 1295.01 1270.47Z" fill="#7DB5DB"></path></g><g opacity="0.8"><path d="M1229.82 1451.53C1232.36 1451.97 1234.99 1452.41 1237.69 1452.84C1240.9 1395.61 1253.24 1301.49 1257.13 1272.56C1254.36 1272.68 1251.68 1272.77 1249.1 1272.83C1244.98 1303.28 1233.05 1394.41 1229.82 1451.53Z" fill="#7DB5DB"></path></g><path d="M1586.72 829.042L1574.18 827.687L1557.33 834.476L1544.1 841.234L1526.65 854.809L1506.91 881.286L1487.31 908.515C1487.31 908.515 1463.56 936.094 1463.31 936.396C1463.06 936.698 1461 938.541 1461 938.541L1411.66 977.691L1353.49 1017.6L1421.44 1051.88L1567.14 907.425L1600.33 852.656C1600.34 852.658 1606.24 836.396 1586.72 829.042Z" fill="#F9CBB7"></path><g opacity="0.5"><path d="M1588.11 830.006C1579.82 827.919 1574.66 833.747 1564.34 849.419C1554.02 865.091 1546.42 889.383 1558.85 900.43C1571.28 911.476 1581.44 906.794 1584.74 905.158C1588.03 903.522 1606.42 865.288 1610.11 856.12C1613.8 846.952 1610.85 844.081 1610.85 844.081C1605.15 835.821 1588.11 830.006 1588.11 830.006Z" fill="#B56F40"></path></g><path d="M1583.98 826.108C1577.11 824.009 1563.87 828.949 1550.6 834.598C1549.85 834.916 1549.19 835.197 1548.63 835.433C1547.62 835.854 1547.14 837.014 1547.56 838.024C1547.98 839.032 1549.14 839.51 1550.15 839.088C1550.72 838.85 1551.39 838.564 1552.15 838.243C1558.78 835.422 1576.39 827.929 1582.83 829.896C1590.68 832.295 1604.7 840.042 1608.24 843.948C1611.25 847.269 1609.74 850.925 1609.67 851.079L1609.59 851.284C1609.19 852.224 1606.4 858.269 1602.9 865.851C1591.59 890.321 1568.07 941.237 1562.24 956.301C1557.59 968.295 1531.92 995.911 1511.28 1018.1C1497.39 1033.04 1485.4 1045.95 1481.14 1052.46C1470.54 1068.65 1451.39 1102.28 1451.2 1102.61C1450.72 1103.46 1450.93 1104.5 1451.65 1105.11C1451.74 1105.18 1451.84 1105.25 1451.95 1105.31C1452.9 1105.86 1454.11 1105.52 1454.65 1104.57C1454.84 1104.24 1473.93 1070.72 1484.45 1054.63C1488.53 1048.4 1500.42 1035.61 1514.19 1020.8C1536.13 997.192 1561.01 970.435 1565.93 957.732C1571.72 942.784 1595.21 891.944 1606.49 867.512C1611.75 856.121 1612.97 853.474 1613.29 852.686L1613.29 852.687C1613.41 852.439 1615.97 846.562 1611.17 841.284C1606.81 836.486 1591.91 828.531 1583.98 826.108Z" fill="#305399"></path><path d="M1551.14 834.375C1528.97 845.808 1511.64 870.198 1494.89 893.786C1483.96 909.168 1472.66 925.074 1460.31 936.864C1442.44 953.932 1403.79 980.561 1366.42 1006.31C1338.53 1025.53 1312.19 1043.68 1295.77 1056.96C1294.92 1057.65 1294.79 1058.89 1295.47 1059.74C1295.55 1059.84 1295.64 1059.93 1295.74 1060.01C1296.45 1060.61 1297.51 1060.64 1298.26 1060.04C1314.56 1046.86 1340.85 1028.75 1368.67 1009.57C1406.17 983.733 1444.94 957.015 1463.04 939.729C1475.67 927.677 1487.08 911.614 1498.12 896.079C1514.6 872.877 1531.64 848.886 1552.95 837.896C1553.92 837.394 1554.31 836.199 1553.81 835.227C1553.3 834.257 1552.11 833.874 1551.14 834.375Z" fill="#305399"></path><path d="M206.122 385.127C206.122 385.127 201.828 307.873 260.224 302.755C327.198 296.886 328.009 372.785 328.009 372.785C328.009 372.785 358.45 343.907 380.405 380.519C380.405 380.519 418.347 358.605 437.486 399.08C438.089 400.354 438.221 401.678 438.006 402.914H178.814C178.598 399.992 179.506 396.939 181.894 394.396C186.239 389.769 193.653 385.999 206.122 385.127Z" fill="white"></path><path d="M2183.21 742.775C2183.21 742.775 2187.51 665.521 2129.11 660.403C2062.14 654.534 2061.33 730.433 2061.33 730.433C2061.33 730.433 2030.88 701.555 2008.93 738.167C2008.93 738.167 1970.99 716.253 1951.85 756.728C1951.25 758.002 1951.11 759.326 1951.33 760.562H2210.52C2210.74 757.64 2209.83 754.587 2207.44 752.044C2203.1 747.417 2195.68 743.647 2183.21 742.775Z" fill="white"></path><path d="M579.831 238.521C574.477 234.867 566.754 236.498 566.754 236.498C566.754 236.498 575.218 201.097 551.285 196.836C527.352 192.575 519.472 216.916 519.472 216.916C519.846 200.75 480.869 170.337 458.446 202.183C452.622 210.454 450.372 217.753 450.232 224.027C449.889 239.356 463.081 251.562 478.36 250.273C515.291 247.159 557.773 248.97 575.895 250.008C582.258 250.373 585.095 242.115 579.831 238.521Z" fill="white"></path><path d="M1757.49 501.264C1764.45 496.515 1774.48 498.636 1774.48 498.636C1774.48 498.636 1763.48 452.634 1794.58 447.097C1825.68 441.56 1835.92 473.19 1835.92 473.19C1835.44 452.183 1886.09 412.663 1915.22 454.046C1922.79 464.793 1925.72 474.278 1925.9 482.431C1926.34 502.351 1909.2 518.211 1889.35 516.537C1841.36 512.49 1786.15 514.843 1762.6 516.192C1754.33 516.666 1750.65 505.934 1757.49 501.264Z" fill="white"></path><path d="M0.82605 796.447C0.34205 800.507 0.0710359 804.693 0.0180359 808.889L0.00402832 810.008L2.24405 810.037L2.25803 808.916C2.30903 804.8 2.57604 800.694 3.04904 796.712L3.18204 795.599L0.958038 795.334L0.82605 796.447Z" fill="#2B478B"></path><path d="M19.4321 879.921C17.6751 876.182 16.0221 872.388 14.5191 868.644L14.1021 867.604L12.0231 868.439L12.4401 869.478C13.9591 873.262 15.6291 877.096 17.4051 880.873L17.8811 881.888L19.9081 880.935L19.4321 879.921Z" fill="#2B478B"></path><path d="M24.967 890.913L24.436 889.926L22.463 890.987L22.994 891.974C24.955 895.622 27.032 899.252 29.169 902.763L29.75 903.721L31.664 902.557L31.082 901.601C28.967 898.122 26.909 894.526 24.967 890.913Z" fill="#2B478B"></path><path d="M6.57803 772.211C5.16003 776.092 3.95605 780.113 2.99805 784.162L2.74103 785.252L4.92102 785.767L5.17905 784.678C6.11605 780.714 7.29404 776.779 8.68204 772.981L9.06705 771.929L6.96304 771.16L6.57803 772.211Z" fill="#2B478B"></path><path d="M17.668 749.912C15.458 753.414 13.397 757.066 11.539 760.766L11.037 761.766L13.039 762.771L13.541 761.77C15.365 758.135 17.39 754.548 19.562 751.107L20.16 750.16L18.265 748.965L17.668 749.912Z" fill="#2B478B"></path><path d="M32.975 730.263C30.136 733.232 27.395 736.409 24.83 739.706L24.142 740.59L25.91 741.965L26.598 741.081C29.117 737.844 31.807 734.725 34.593 731.811L35.368 731.001L33.749 729.453L32.975 730.263Z" fill="#2B478B"></path><path d="M10.293 857.1C8.98903 853.149 7.82904 849.182 6.84604 845.31L6.57004 844.225L4.39905 844.776L4.67505 845.862C5.67205 849.784 6.84602 853.802 8.16702 857.802L8.51804 858.866L10.6451 858.164L10.293 857.1Z" fill="#2B478B"></path><path d="M52.091 714.27C48.687 716.487 45.307 718.998 42.07 721.722L41.212 722.442L42.653 724.157L43.51 723.437C46.688 720.766 49.985 718.314 53.313 716.147L54.252 715.536L53.029 713.659L52.091 714.27Z" fill="#2B478B"></path><path d="M86.056 701.854L86.174 704.091L87.292 704.032C91.424 703.814 95.46 704.111 99.289 704.914L100.385 705.144L100.844 702.951L99.748 702.721C95.73 701.879 91.499 701.568 87.174 701.795L86.056 701.854Z" fill="#2B478B"></path><path d="M93.281 676.122C95.032 672.541 97.067 668.972 99.33 665.515L99.944 664.577L98.069 663.35L97.456 664.287C95.141 667.823 93.06 671.473 91.268 675.137L90.776 676.144L92.789 677.127L93.281 676.122Z" fill="#2B478B"></path><path d="M85.037 699.124C86.009 695.213 87.201 691.271 88.581 687.409L88.958 686.354L86.848 685.6L86.471 686.656C85.066 690.588 83.851 694.602 82.862 698.585L82.592 699.672L84.765 700.212L85.037 699.124Z" fill="#2B478B"></path><path d="M4.27701 833.311C3.57101 829.222 3.04199 825.132 2.70599 821.152L2.612 820.036L0.380005 820.225L0.475006 821.341C0.816006 825.385 1.35301 829.541 2.07101 833.692L2.26102 834.796L4.46899 834.414L4.27701 833.311Z" fill="#2B478B"></path><path d="M175.51 604.72C171.721 606.342 167.923 608.083 164.221 609.896L163.215 610.388L164.2 612.4L165.206 611.907C168.874 610.112 172.637 608.386 176.391 606.78L177.421 606.339L176.539 604.28L175.51 604.72Z" fill="#2B478B"></path><path d="M130.105 723.889L129.458 722.975L127.63 724.27L128.277 725.184C130.646 728.527 132.639 732.077 134.202 735.733L134.642 736.764L136.702 735.883L136.262 734.853C134.638 731.05 132.566 727.362 130.105 723.889Z" fill="#2B478B"></path><path d="M113.268 645.042C110.269 648.035 107.442 651.134 104.869 654.251L104.155 655.115L105.883 656.541L106.596 655.677C109.124 652.616 111.901 649.571 114.85 646.627L115.643 645.836L114.06 644.251L113.268 645.042Z" fill="#2B478B"></path><path d="M137.578 747.3C138.229 751.496 138.209 755.508 137.519 759.221L137.314 760.323L139.517 760.732L139.721 759.632C140.458 755.668 140.481 751.403 139.792 746.957L139.62 745.85L137.406 746.193L137.578 747.3Z" fill="#2B478B"></path><path d="M132.243 628.964C128.841 631.436 125.592 633.975 122.447 636.631L121.591 637.354L123.036 639.066L123.891 638.344C127 635.722 130.204 633.218 133.56 630.778L134.466 630.119L133.148 628.307L132.243 628.964Z" fill="#2B478B"></path><path d="M153.212 615.643C149.551 617.68 145.957 619.814 142.53 621.986L141.584 622.586L142.783 624.478L143.729 623.879C147.121 621.729 150.678 619.618 154.301 617.602L155.28 617.057L154.191 615.099L153.212 615.643Z" fill="#2B478B"></path><path d="M121.819 714.434C120.602 713.31 119.336 712.236 118.056 711.241C116.011 709.65 113.843 708.237 111.613 707.04L110.626 706.511L109.567 708.485L110.554 709.014C112.674 710.151 114.735 711.495 116.681 713.009C117.911 713.966 119.128 714.999 120.298 716.08L121.122 716.84L122.642 715.194L121.819 714.434Z" fill="#2B478B"></path><path d="M101.823 778.238L100.891 777.618L99.65 779.483L100.582 780.103C104.603 782.781 108.763 783.964 112.946 783.619L114.062 783.527L113.878 781.295L112.761 781.387C109.095 781.688 105.414 780.629 101.823 778.238Z" fill="#2B478B"></path><path d="M87.715 759.166L87.287 758.131L85.217 758.988L85.6451 760.023C87.3521 764.15 89.37 767.871 91.64 771.085L92.287 772L94.117 770.708L93.47 769.794C91.295 766.713 89.359 763.139 87.715 759.166Z" fill="#2B478B"></path><path d="M132.935 770.033C131.649 771.782 130.113 773.378 128.372 774.775C128.37 774.776 128.367 774.779 128.367 774.779C127.042 775.842 125.569 776.812 123.991 777.663L123.005 778.194L124.068 780.166L125.054 779.635C126.751 778.721 128.338 777.675 129.769 776.526C129.771 776.525 129.772 776.523 129.774 776.522C131.668 775.003 133.339 773.266 134.741 771.359L135.404 770.457L133.599 769.13L132.935 770.033Z" fill="#2B478B"></path><path d="M79.8581 735.741C80.2571 739.98 80.9271 744.133 81.8491 748.083L82.1031 749.174L84.2851 748.665L84.0301 747.574C83.1321 743.721 82.4781 739.669 82.0881 735.531L81.9831 734.416L79.7531 734.626L79.8581 735.741Z" fill="#2B478B"></path><path d="M81.6921 723.321C81.8001 719.304 82.1411 715.205 82.7091 711.136L82.8641 710.026L80.6451 709.718L80.4901 710.827C79.9131 714.977 79.5631 719.161 79.4541 723.26L79.4241 724.38L81.6641 724.439L81.6921 723.321Z" fill="#2B478B"></path><path d="M75.3571 705.996L76.4381 705.702L75.8511 703.54L74.7701 703.834C70.8811 704.891 66.9261 706.352 63.0121 708.177L61.9971 708.651L62.9441 710.681L63.9601 710.208C67.7561 708.437 71.5921 707.019 75.3571 705.996Z" fill="#2B478B"></path><path d="M218.443 587.282L230.806 612.156L233.746 595.34C233.746 595.34 278.254 561.312 278.717 560.572C279.18 559.833 296.222 532.707 296.222 532.707L264.365 549.566L218.443 587.282Z" fill="#305399"></path><path d="M218.443 587.282L296.221 532.708L192.128 569.566L218.443 587.282Z" fill="#7DB5DB"></path><path d="M261.586 614.313L296.221 532.708L233.746 595.34L261.586 614.313Z" fill="#7DB5DB"></path><path d="M1638.82 88.5021C1666.12 91.6921 1660.34 119.94 1658.52 126.793C1665.2 124.423 1692.89 116.37 1698.28 143.317C1705.53 179.507 1634.09 193.046 1602.14 187.966L1602.12 187.954C1594.47 156.519 1602.16 84.2151 1638.82 88.5021Z" fill="#587BC9"></path><path d="M1440.5 16.86C1453.65 0.927047 1469.12 16.1 1472.7 20.045C1473.94 14.858 1480.14 -5.90393 1499.36 1.68207C1525.16 11.8701 1504.57 62.4941 1488.32 80.5941L1488.31 80.5991C1465.34 72.6071 1422.83 38.253 1440.5 16.86Z" fill="#587BC9"></path><path d="M2247 1522H76V1528H2247V1522Z" fill="#305399"></path></svg>