<svg xmlns="http://www.w3.org/2000/svg" width="1335" height="1322" viewBox="0 0 1335 1322" fill="none"><path d="M906.478 28.1677C806.607 5.8743 702.808 -4.77545 601.327 2.04038C511.349 8.05157 409.348 24.5232 336.977 83.4991C302.472 111.614 261.341 162.07 250.028 206.657C250.028 206.657 190.626 441.141 71.8699 491.408C-46.9338 541.627 -129.434 1399.19 771.439 1315.46C771.439 1315.46 1300.57 1293.5 1332.42 661.425C1340.14 508.684 1335.83 340.844 1243.63 213.142C1173.01 115.306 1073.99 71.808 960.247 41.3734C942.45 36.5929 924.511 32.191 906.478 28.1677Z" fill="#D7E8F4"></path><path d="M968.578 428.598C946.474 433.804 915.897 441.093 909.318 430.112C902.36 418.563 926.074 393.667 921.009 389.075C916.986 385.478 903.259 402.234 885.51 399.347C875.854 397.785 864.636 390.401 863.169 381.171C860.897 367.255 882.481 359.635 880.303 344.394C879.309 337.341 873.393 329.532 866.388 328.206C851.383 325.414 844.899 354.854 820.854 359.777C805.755 362.901 787.864 355.517 778.492 343.873C762.825 324.514 776.031 299.996 763.724 292.187C753.784 285.891 741.478 299.57 720.084 304.54C686.904 312.255 647.192 295.405 625.278 269.988C595.648 235.672 594.37 180.767 615.48 147.35C662.623 72.7073 835.196 84.067 878.694 151.468C892.515 172.862 912.205 229.282 921.198 278.981C923.707 293.039 926.263 311.167 940.794 323.142C959.49 338.477 977.618 326.786 1002.14 341.128C1022.3 352.914 1040.62 378.662 1034.8 397.501C1029.73 414.067 1007.86 419.273 968.578 428.598Z" fill="#587BC9"></path><path d="M728.462 513.512C729.172 517.724 667.592 587.729 657.511 621.382L775.273 657.118C775.273 657.118 848.212 603.537 871.405 603.537L728.462 513.512Z" fill="#F9CBB7"></path><path d="M729.077 503.477C726.994 503.525 704.654 538.976 702.997 547.97C702.997 547.97 800.217 597.148 819.482 627.298L889.06 598.899C889.06 598.899 773.096 502.294 729.077 503.477Z" fill="#587BC9"></path><path d="M648.092 635.818C648.092 635.818 665.699 592.414 676.586 585.314C687.472 578.215 751.749 601.076 791.934 646.468L772.717 662.419L648.092 635.818Z" fill="#587BC9"></path><path d="M497.149 287.217C497.149 287.217 468.324 278.792 451.19 283.004C434.056 287.217 440.304 308.563 443.286 315.048C446.315 321.532 488.204 307.333 488.204 307.333L497.149 287.217Z" fill="#F9CBB7"></path><path d="M1140.44 512.045C1139.07 498.697 1139.73 487.905 1140.63 480.379C1141.96 469.256 1143.9 464.523 1147.49 463.15C1150.29 462.062 1153.17 463.34 1154.07 463.718C1163.78 468.026 1166.38 484.923 1165.48 495.668C1164.44 508.495 1158.05 517.819 1154.07 522.647C1149.53 519.113 1144.99 515.579 1140.44 512.045Z" fill="#F9CBB7"></path><path d="M493.742 276.567C488.567 289.82 483.408 303.073 478.264 316.326C496.582 329.768 524.271 345.814 559.96 350.121C597.447 354.665 608.428 341.933 637.821 351.825C669.865 362.617 667.593 381.36 711.186 405.736C745.644 425.001 764.34 422.965 766.044 434.467C768.268 449.519 737.455 460.31 695.661 508.731C679.899 526.954 677.58 533.202 679.284 538.172C684.774 553.886 724.533 537.746 765.949 555.306C821.47 578.877 833.681 643.391 860.755 637.901C866.293 636.765 867.619 633.688 886.125 612.531C903.118 593.077 917.743 577.647 927.825 567.281C941.977 573.813 959.632 583.705 977.429 598.946C1016.15 632.079 1020.03 660.099 1056.95 677.139C1068.83 682.582 1087.57 691.244 1104.66 683.955C1115.07 679.506 1125.25 668.998 1142.86 603.064C1151.14 571.967 1156.53 545.65 1159.99 526.623C1151.25 520.122 1142.52 513.606 1133.81 507.075C1123.26 518.624 1109.06 537.036 1100.3 562.69C1090.93 590.095 1094.25 606.803 1084.78 610.921C1072.99 615.986 1057.09 594.97 1019.46 559.045C968.058 510.009 958.212 511.476 925.364 474.415C895.024 440.147 896.065 430.586 876.328 407.346C864.779 393.809 829.185 355.659 661.156 311.403C620.119 300.612 563.131 287.311 493.742 276.567Z" fill="#7DB5DB"></path><path style="mix-blend-mode:multiply" opacity="0.3" d="M762.352 512.802C757.808 480.853 842.627 454.867 837.089 427.793C834.107 413.452 808.785 413.262 766.754 397.548C690.028 368.817 697.507 340.607 641.702 325.603C581.401 309.463 552.15 336.915 508.462 310.078C500.226 305.014 493.268 299.144 487.352 292.991C484.323 300.754 481.293 308.532 478.264 316.326C496.582 329.768 524.271 345.814 559.96 350.121C597.447 354.665 608.428 341.933 637.821 351.825C669.865 362.617 667.593 381.36 711.186 405.736C745.644 425.001 764.34 422.965 766.044 434.467C768.268 449.519 737.455 460.31 695.661 508.731C679.899 526.954 677.58 533.202 679.284 538.172C684.774 553.886 724.533 537.746 765.949 555.306C821.47 578.877 833.681 643.391 860.755 637.901C861.26 637.774 861.734 637.648 862.175 637.522C861.56 615.797 856.59 591.799 841.16 571.683C811.956 533.675 765.712 536.042 762.352 512.802Z" fill="#587BC9"></path><path style="mix-blend-mode:multiply" opacity="0.3" d="M1093.77 670.607C1071.38 669.708 1065.23 640.599 1015.29 598.662C995.368 581.907 952.579 545.65 931.753 558.619C929.812 559.803 924.748 563.447 921.529 573.813C923.801 571.446 925.9 569.269 927.824 567.281C941.977 573.813 959.632 583.705 977.429 598.946C1016.15 632.079 1020.03 660.099 1056.95 677.139C1068.83 682.582 1087.57 691.244 1104.66 683.955C1111.85 680.878 1118.95 674.914 1128.47 649.734C1114.27 666.773 1102.67 670.939 1093.77 670.607Z" fill="#587BC9"></path><path d="M960.389 417.901C960.389 417.901 917.79 450.087 889.06 424.338C889.06 424.338 879.025 471.576 940.652 503.477C940.652 503.477 917.601 482.083 968.104 450.134L960.389 417.901Z" fill="#F9CBB7"></path><path d="M1014.77 391.868C1014.77 391.868 1013.64 438.112 995.321 460.831C992.765 464.05 988.505 465.375 984.576 464.144C974.684 461.02 956.082 451.885 951.87 426.468C951.87 426.468 942.025 412.931 943.445 406.967C944.817 401.051 955.372 403.18 958.733 410.659C962.141 418.185 966.732 404.884 965.218 402.376C963.75 399.915 977.287 374.119 1014.77 391.868Z" fill="#F9CBB7"></path><path d="M656.422 630.517C572.597 662.797 561.9 690.345 559.959 700.852C559.58 702.793 557.687 714.058 556.031 728.636C552.812 756.752 554.469 762.432 551.108 772.087C545.333 788.843 532.932 793.718 517.928 806.64C474.619 844.08 487.872 881.567 448.634 908.83C430.127 921.704 414.507 922.225 402.201 925.633C363.625 936.33 317.24 986.833 285.291 1164.33C293.179 1173.32 301.084 1182.32 309.004 1191.31C349.994 1099.34 400.497 1044.39 438.221 1011.54C514.899 944.708 575.247 937.371 649.038 861.876C698.832 810.947 726.758 757.556 742.235 722.105C713.615 691.56 685.011 661.03 656.422 630.517Z" fill="#7DB5DB"></path><path style="mix-blend-mode:multiply" opacity="0.3" d="M687.519 663.697C628.922 672.075 608.522 691.575 600.807 708.189C588.926 733.89 607.433 752.681 602.463 804.652C601.469 814.828 596.831 863.438 569.757 897.849C529.667 948.826 469.886 931.029 420.992 959.144C388.096 978.03 354.159 1021.15 343.272 1125.56C375.932 1071.75 410.484 1035.68 438.221 1011.54C514.899 944.708 575.247 937.371 649.038 861.877C698.832 810.947 726.758 757.556 742.235 722.105C723.997 702.635 705.758 683.166 687.519 663.697Z" fill="#587BC9"></path><path d="M640.471 636.954C614.77 650.207 590.015 680.216 592.24 712.543C594.275 742.268 618.604 766.407 641.844 777.388C682.502 796.653 708.677 770.431 792.123 770.005C840.544 769.768 884.563 778.382 885.32 788.275C885.983 797.741 846.65 797.031 823.173 828.365C814.275 840.246 811.624 851.416 805.187 896.997C801.732 921.515 797.708 952.518 793.733 988.585C798.876 994.296 804.004 1000.01 809.116 1005.72C856.022 952.896 926.31 868.976 977.097 784.157C984.623 771.614 994.468 754.432 989.404 736.636C979.559 702.036 924.227 703.172 813.801 671.648C707.209 641.167 678.857 617.264 640.471 636.954Z" fill="#7DB5DB"></path><path d="M871.405 736.778L904.916 718.318C799.413 680.405 680.893 667.578 609.09 663.271C600.57 674.204 594.37 687.031 592.619 700.616C731.823 698.249 871.405 736.778 871.405 736.778Z" fill="#EBEFF2"></path><path d="M847.076 752.35L862.175 744.966C752.932 714.342 639.619 718.081 593.565 721.584C597.636 739.807 609.895 755.427 624.094 766.455C713.173 738.198 847.076 752.35 847.076 752.35Z" fill="#EBEFF2"></path><path d="M281.22 1145.35C281.22 1145.35 268.914 1152.92 264.133 1152.73C259.305 1152.54 242.171 1149.42 244.301 1165.8C246.431 1182.22 260.063 1251.56 267.21 1268.37C274.357 1285.17 279.327 1290.04 297.218 1287.16C304.697 1285.93 292.438 1267.51 294.331 1257.38C296.224 1247.25 317.666 1183.97 317.666 1183.97C317.666 1183.97 299.538 1163.52 297.881 1157.04C296.272 1150.51 292.532 1137.96 281.22 1145.35Z" fill="#587BC9"></path><path d="M273.978 1238.4V1185.01C273.978 1176.35 271.943 1167.78 268.062 1159.97L264.465 1152.73C264.37 1152.73 264.228 1152.73 264.133 1152.73C259.305 1152.54 235.403 1143.08 240.325 1167.6C243.544 1183.83 258.501 1255.96 265.648 1272.77C272.842 1289.62 281.788 1291.42 299.68 1288.48C302.851 1288.01 300.011 1282.99 298.638 1278.26L289.314 1270.68C279.611 1262.78 273.978 1250.9 273.978 1238.4Z" fill="#B2B8C1"></path><path d="M781.189 971.687C781.189 971.687 769.688 978.787 765.191 978.645C760.695 978.456 744.602 975.521 746.59 990.904C748.578 1006.24 761.357 1071.27 768.078 1087.04C774.8 1102.8 779.438 1107.34 796.194 1104.64C803.199 1103.51 791.697 1086.23 793.496 1076.72C795.294 1067.2 815.411 1007.94 815.411 1007.94C815.411 1007.94 798.371 988.727 796.856 982.621C795.294 976.562 791.839 964.777 781.189 971.687Z" fill="#587BC9"></path><path d="M774.421 1058.92V1008.89C774.421 1000.75 772.528 992.703 768.883 985.414L765.523 978.598C765.381 978.598 765.286 978.645 765.192 978.645C760.695 978.456 738.26 969.557 742.851 992.561C745.88 1007.75 759.89 1075.39 766.612 1091.15C773.333 1106.96 781.711 1108.62 798.513 1105.92C801.448 1105.45 798.797 1100.76 797.567 1096.31L788.81 1089.21C779.675 1081.78 774.421 1070.66 774.421 1058.92Z" fill="#B2B8C1"></path><path d="M771.723 480.805C771.723 483.503 769.546 485.681 766.848 485.681H400.592C397.894 485.681 395.717 483.503 395.717 480.805C395.717 478.107 397.894 475.883 400.592 475.883H766.848C769.546 475.883 771.723 478.107 771.723 480.805Z" fill="white"></path><path d="M771.723 546.171C771.723 548.916 769.546 551.094 766.848 551.094H400.592C397.894 551.094 395.717 548.916 395.717 546.171C395.717 543.473 397.894 541.296 400.592 541.296H766.848C769.546 541.296 771.723 543.473 771.723 546.171Z" fill="white"></path><path d="M845.277 513.512C845.277 516.21 843.1 518.387 840.402 518.387H474.193C471.448 518.387 469.271 516.21 469.271 513.512C469.271 510.767 471.448 508.589 474.193 508.589H840.402C843.1 508.589 845.277 510.767 845.277 513.512Z" fill="white"></path><path d="M938.664 861.735C938.664 864.433 936.96 866.657 934.877 866.657H650.837C648.754 866.657 647.05 864.433 647.05 861.735C647.05 859.037 648.754 856.812 650.837 856.812H934.877C936.96 856.812 938.664 859.037 938.664 861.735Z" fill="white"></path><path d="M938.664 927.147C938.664 929.845 936.96 932.023 934.877 932.023H650.837C648.754 932.023 647.05 929.845 647.05 927.147C647.05 924.402 648.754 922.225 650.837 922.225H934.877C936.96 922.225 938.664 924.402 938.664 927.147Z" fill="white"></path><path d="M995.699 894.441C995.699 897.139 993.995 899.316 991.912 899.316H707.919C705.789 899.316 704.085 897.139 704.085 894.441C704.085 891.743 705.789 889.519 707.919 889.519H991.912C993.995 889.519 995.699 891.743 995.699 894.441Z" fill="white"></path><path d="M310.661 1160.92C310.661 1164.52 307.773 1167.45 304.129 1167.45H171.693C168.096 1167.45 165.162 1164.52 165.162 1160.92C165.162 1157.32 168.096 1154.39 171.693 1154.39H304.129C307.773 1154.39 310.661 1157.32 310.661 1160.92Z" fill="white"></path><path d="M353.212 1126.61C353.212 1130.2 350.277 1133.14 346.633 1133.14H214.245C210.6 1133.14 207.666 1130.2 207.666 1126.61C207.666 1122.96 210.6 1120.03 214.245 1120.03H346.633C350.277 1120.03 353.212 1122.96 353.212 1126.61Z" fill="white"></path></svg>