<svg xmlns="http://www.w3.org/2000/svg" width="1001" height="673" viewBox="0 0 1001 673" fill="none"><path d="M458.9 605.2C429.6 605.2 400.4 605.6 371.1 607.6C360.1 608.4 349.3 610 338.3 610.7C316.2 612 294.5 614.5 272.4 615.6C254.5 616.6 236.6 617.1 218.9 618.3C202.2 619.4 183.7 619.1 167.2 617.3C154.9 616 142.6 615.2 130.6 613.1C117.1 610.7 102.5 608.9 88.4999 609C68.3999 609.1 48.9999 609.1 29.7999 613.3C23.0999 614.8 14.8999 617.3 9.69994 620.4C-1.90006 627.6 -3.50006 645.5 8.09994 652.9C27.7999 665.4 69.7999 670.3 97.2999 670.5C127.5 670.8 156.8 669.4 187.1 668.6C215.1 667.9 243.2 666.8 271.3 666.8C328.8 666.9 386.3 666.8 443.6 664.5C497.5 662.3 551.6 663 605.6 663C661 663 716 663.3 771 667.8C794.9 669.8 819.3 670.5 843.4 671.8C865 673.1 885.7 671.8 907.2 670.7C925.2 669.7 943.2 666.9 959.5 662.1C972.5 658.3 995.6 646.5 999.6 637.5C1010.8 612.1 842.5 612.7 816.6 612.8C787.7 612.9 758.6 613.4 729.7 612.8C717.5 612.5 705.6 611 693.7 609.4C681.9 607.9 670 608.3 658 607.6C608 604.8 558 605.2 507.9 605.2C491.6 605.2 475.2 605.1 458.9 605.2Z" fill="#23364D"></path><path d="M794.1 216.4C794.3 216.4 794.533 216.433 794.8 216.5C797 216.9 797.6 219.1 799.3 220C800.1 220.5 802.7 219.9 802.5 221.4C802.5 221.9 802.4 223.8 802.2 225.6C802.6 227.1 802.9 228.6 803.4 230C804.8 233.7 812 239.8 808.3 243.7C807.6 244.5 806.9 245.2 806 245.7C805.2 246.1 804.4 246.2 803.5 246.3C802.9 246.4 801.9 246.7 801.4 246.3C800.8 245.9 800.4 244.3 800.1 243.6C799.3 241.8 798.5 240 797.7 238.2C796.9 236.5 795.8 234.5 793.8 234.2C793.4 234.2 793 234.2 792.6 234.1C792.1 234 791.7 233.7 791.4 233.4C790 232.2 788.7 231 787.7 229.5C785.8 227 787.5 222.4 788.2 219.7C788.4 219 788.6 218.4 789 217.8C789.8 217 791 216.8 792.1 216.6C792.7 216.5 793.4 216.4 794.1 216.4Z" fill="#B5D6CA"></path><path d="M826.1 279.6C823.8 278.7 821.4 277.7 819.4 276.2C817.9 275 816.6 273.5 815.3 271.9C807.6 262.4 801.3 251.7 796.8 240.2C801.3 236.6 806.6 233.8 812.1 232.2C817.8 240.5 824.2 248.4 831.2 255.7C832.6 257.2 834.1 258.7 835.8 259.8C838.4 261.3 841.4 261.9 844.3 262.4C855.7 264.4 867.067 266.4 878.4 268.4C885.3 269.7 892.4 271 898.1 274.9C914 286 902.4 307.5 884.9 303.4C865.2 298.8 844.9 287.1 826.1 279.6Z" fill="#587BC9"></path><path d="M873.3 631.1C871.7 634 868.4 635.9 865.3 637.3C862.6 638.4 859.8 639.4 857.8 641.4C855.7 643.4 854.7 646.8 856.4 649.2C857.9 651.3 860.9 651.6 863.5 651.8C870.2 652.2 877.6 652.6 883.7 649.5C888.3 647.2 896.5 644.2 895.9 637.7C895.8 636 895 634.4 894.2 632.9C892.7 629.5 891.7 625.9 891.3 622.3C891.3 622.3 879.3 622 878.3 622.1C873.7 622.5 875.1 624.6 874.2 628.7C874 629.567 873.7 630.367 873.3 631.1Z" fill="#587BC9"></path><path d="M941.3 634C940.2 637.1 937.4 639.6 934.5 641.5C932.2 643.1 929.6 644.6 927.9 646.9C926.3 649.2 925.9 652.8 928 654.8C929.8 656.6 932.8 656.4 935.4 656.1C942.1 655.3 949.4 654.3 954.9 650.2C959 647.2 966.5 642.7 964.8 636.4C964.4 634.8 963.3 633.4 962.3 631.9C960.2 628.9 958.5 625.6 957.5 622.1C957.5 622.1 945.7 623.9 944.6 624.2C940.2 625.5 942 627.3 941.8 631.5C941.8 632.367 941.633 633.2 941.3 634Z" fill="#587BC9"></path><path d="M911.7 435.6L907.1 476.8L900.6 552.9L894.1 628.2L873.4 627.2L865 544.9L862.6 475.2L870.4 430.7L911.7 435.6Z" fill="#D7E8F4"></path><path d="M952.8 436.1L959.5 461.4L952 533.4L960.8 629.3L941.1 630.9L915.7 539.2L895.6 438.8L952.8 436.1Z" fill="#D7E8F4"></path><path d="M851 453.4C850.133 457.333 849.2 461.233 848.2 465.1C848 465.9 847.7 466.8 848.1 467.6C848.4 468.3 849.1 468.7 849.7 469C857.6 473.4 867.4 474.2 875.9 471C880.1 469.5 883.9 467 888.1 465.7C895.3 463.4 902.8 464.3 910.1 464.5C917.4 464.7 923.7 462.6 930.6 461.9C947.7 460 952.2 459 968.6 463.6C967.7 432.8 973.3 409 967.8 380.2C962.333 351.733 956.867 323.3 951.4 294.9C950.4 290.1 949.5 285.2 947.4 281C937.8 262.1 916.5 259.1 897.9 265.1C888.4 268.2 881.1 279.2 876.6 287.7C870.9 298.6 868 310.8 866 322.8C859.6 360.6 860.5 399.2 854.3 436.9C853.367 442.433 852.267 447.933 851 453.4Z" fill="#587BC9"></path><path d="M889.1 222.9C888.967 223.3 888.867 223.7 888.8 224.1C888.5 226.2 889.4 228.4 889.1 230.6C888.6 234 885.2 236.6 885.2 240C885.3 242.8 887.6 245.1 888.3 247.8C889 250.8 887.6 254 888.5 256.9C889.2 259.5 891.6 262.8 893.5 264.6C892.9 264 888.6 265.1 887.3 264.6C885.4 263.9 885.1 263.2 884.3 261.5C883.4 259.8 883.5 258 882.4 256.3C881 254.3 878.7 253 877.5 250.8C876 247.7 877.1 243.9 876.3 240.6C875.1 235.5 869.8 231.4 870.5 226.3C870.9 223.2 873.4 220.9 874.4 218C875.3 215.8 875.3 213.5 875.7 211.2C876.1 208.9 877.1 206.5 879.2 205.4C880.4 204.8 881.7 204.7 882.9 204.3C885 203.5 886.5 201.7 888.5 200.6C891.3 199 897.1 201 899.3 203.2C901.5 205.4 901 207.7 899.6 210.3C897.4 214.5 890.7 218.2 889.1 222.9Z" fill="#3B455A"></path><path d="M917.2 268.5C917.067 268.9 916.866 269.267 916.6 269.6C915.6 271.1 914 272.1 912.3 272.7C910.1 273.4 907.7 273.5 905.4 273.5C902.2 273.5 902 271.7 901 269C900.467 267.467 900 265.967 899.6 264.5C899.4 263.6 899.2 260.6 898.5 260.1C898.1 259.8 896.6 260.2 895.9 259.9C894.8 259.6 893.8 258.8 893 257.9C891.7 256.6 890.8 254.9 889.9 253.2C888.433 250.333 886.933 247.467 885.4 244.6C883.9 241.6 882.4 238.6 881.4 235.4C880.1 230.6 879.6 223.5 882.6 219.2C885.4 215.3 890.1 213.3 894.5 211.9C900.4 210 906.8 209.9 912.5 212.1C914.9 213 917.2 214.3 918.8 216.4C921.4 219.6 922 224 922.6 228.2C923.133 232 923.667 235.833 924.2 239.7C924.8 244.1 925.1 249.2 922.3 252.2C920.8 253.8 918.6 254.5 917.4 256.4C915.9 258.7 916.6 261.7 917 264.3C917.2 265.8 917.6 267.2 917.2 268.5Z" fill="#EAC5B0"></path><path d="M926.4 200.3C928.4 201.2 930.8 201.8 932.7 203C936.4 205.4 937.9 210 938.8 214.4C939.7 218.2 942 221.4 942.3 225.5C942.6 228.3 941.9 231.2 940 233.2C937.6 235.7 933.4 236.9 932.7 240.3C932 244 936.4 247.6 934.8 251C933.9 252.9 931.6 253.6 930.1 255C928.4 256.6 927.9 259 927.1 261.1C926.3 263.3 924.9 265.6 922.6 266.1C921.9 262.6 921.3 259.9 922.2 256.5C922.7 254.5 924.6 250.6 922.3 249C920.7 247.5 917.7 247.5 917.3 245.5C917.1 244.5 917.6 243.6 918 242.7C919.4 239.2 918.9 235 916.8 231.7C914.8 228.5 911.4 226.3 907.7 225.3C903.4 224.1 903.9 223 902 219.4C900.3 216.2 898.2 215.7 894.8 215C891.8 214.4 890.7 213.9 889.2 211.4C888.1 209.6 886.7 207.5 887.4 205.1C888 203.3 889.3 201.8 890.7 200.3C893.4 197.3 896.5 194.1 900.6 193.6C902.8 193.4 905.1 194 907.4 193.7C908.8 193.5 910.3 192.9 911.7 192.6C914.3 192 917.1 192.3 919.4 193.4C921.8 194.6 922 196.2 923.5 198.1C924.3 199.1 925.3 199.7 926.4 200.3Z" fill="#3B455A"></path><path d="M914.8 187.7C913.9 185.4 913.6 182.2 915.8 181C916.9 180.3 918.4 180.5 919.7 180C922.4 178.9 922.7 175.4 923.7 172.6C923.9 172.2 924.1 171.8 924.4 171.6C924.9 171.2 925.6 171.3 926.2 171.3C929.1 171.1 930.7 168 933.1 166.5C936.1 164.7 940.5 165.9 942.1 169.1C942.8 170.4 943 171.8 943.6 173.1C946.2 178.4 954.8 179.3 956 185C956.9 188.9 953.8 193.3 955.9 196.6C957.3 198.7 960.6 199.8 960.7 202.3C960.8 203.9 959.3 205.3 957.7 205.6C956.1 205.9 954.4 205.3 953 204.4C950.8 203.1 949 201.2 946.8 199.8C944.6 198.4 941.9 197.4 939.5 198.2C937.1 198.9 935.2 201.2 932.7 201.3C930.7 201.3 929 199.9 927 199.7C925.1 199.6 923.4 200.7 921.5 201.1C919.7 201.6 917.3 201 916.9 199.2C916.8 198.7 916.8 198.3 916.6 197.9C916 196.7 914 197.2 913.4 196.1C914.1 194.4 915.5 194.7 915.8 192.6C916.1 191 915.3 189.2 914.8 187.7Z" fill="#3B455A"></path><path d="M278.9 604C278.9 622 264.3 636.7 246.3 636.7C228.3 636.7 213.7 622 213.7 604C213.7 586 228.3 571.4 246.3 571.4C264.3 571.4 278.9 586 278.9 604Z" fill="#587BC9"></path><g opacity="0.7"><path d="M628.5 324.1C626.7 324.1 625 323.1 624.3 321.3C597.2 256.2 534.1 214 463.5 213.6C461.1 213.6 459.1 211.6 459.1 209.1C459.1 206.6 461.1 204.6 463.6 204.6C537.7 205 604.1 249.5 632.6 317.9C633.6 320.2 632.5 322.8 630.2 323.8C629.6 324 629.033 324.1 628.5 324.1Z" fill="#587BC9"></path><path d="M461.7 572.7C412.5 572.5 366.4 553.1 331.8 518.2C297.2 483.2 278.3 436.9 278.6 387.7C278.8 346.6 292.3 307.7 317.6 275.3C319.1 273.4 322 273 323.9 274.6C325.9 276.1 326.2 278.9 324.7 280.9C300.6 311.6 287.8 348.6 287.6 387.8C287.3 434.5 305.3 478.6 338.2 511.8C371.1 545.1 415 563.5 461.8 563.7C464.2 563.8 466.2 565.8 466.2 568.3C466.2 570.7 464.2 572.7 461.7 572.7Z" fill="#587BC9"></path><path d="M589 520.8C587.8 520.8 586.7 520.3 585.8 519.4C584 517.7 584.1 514.8 585.8 513.1C619.1 480.2 637.5 436.3 637.7 389.6C637.7 387.1 639.7 385.1 642.2 385.1C644.7 385.1 646.7 387.1 646.7 389.6C646.5 438.8 627.1 484.9 592.1 519.5C591.3 520.3 590.1 520.8 589 520.8Z" fill="#587BC9"></path><path d="M481.7 591.3C479.2 591.3 477 589.4 476.8 586.8C476.5 584.1 478.5 581.6 481.2 581.4C558.9 573.8 624.1 520.9 647.4 446.5C648.2 443.9 651 442.4 653.6 443.3C656.2 444.1 657.6 446.9 656.8 449.5C632.3 527.7 563.8 583.3 482.2 591.3C482.067 591.3 481.9 591.3 481.7 591.3Z" fill="#BCBEC0"></path><path d="M273.2 334.3C272.733 334.3 272.233 334.233 271.7 334.1C269.1 333.3 267.6 330.5 268.5 327.9C284.7 276 320.2 233.6 368.3 208.4C416.5 183.2 471.6 178.2 523.4 194.5C566.9 208.1 603.6 235 629.5 272.2C631.1 274.5 630.5 277.6 628.3 279.2C626 280.7 623 280.2 621.4 277.9C596.7 242.5 561.8 216.9 520.5 204C471.1 188.5 418.7 193.2 372.9 217.2C327.1 241.1 293.4 281.5 277.9 330.8C277.3 333 275.3 334.3 273.2 334.3Z" fill="#BCBEC0"></path><path d="M403.3 583.1C402.833 583.1 402.333 583.033 401.8 582.9C350 566.6 307.5 531.1 282.3 483C281.1 480.6 282 477.6 284.4 476.3C286.9 475 289.9 476 291.1 478.4C315.1 524.2 355.5 557.9 404.8 573.4C407.4 574.2 408.9 577 408.1 579.6C407.4 581.7 405.4 583.1 403.3 583.1Z" fill="#BCBEC0"></path></g><path d="M160.1 222.4L165.1 215.6L164.3 208.2L165.6 207.1L166.9 208.9C167.1 205.4 170.4 201.8 172.2 199C175.1 194.4 175.8 195.6 179.3 197.1C181.233 197.9 183.133 198.8 185 199.8C183.2 204.1 181.4 208.2 180 212.6L174.1 218.2L167.6 227.7L160.1 222.4Z" fill="#EAC5B0"></path><path d="M163 216.1L135.3 255.3L101.6 247.3L83.6001 270.5L139.1 296.9L177.3 222.3L163 216.1Z" fill="#D7E8F4"></path><path d="M90.0999 232.8C86.3999 234.1 76.9999 235.4 77.0999 235.8C75.8333 232 74.8333 228.067 74.0999 224C70.1999 223.9 65.4999 223.3 63.5999 219.4C62.8999 218.1 62.6999 216.7 62.4999 215.3C61.5666 209.567 60.6666 203.8 59.7999 198C59.3999 196 59.0999 194 59.4999 192C60.1999 188.6 62.7999 186.2 65.4999 184.5C75.4999 178.4 88.0999 182.8 98.8999 183.5C99.8999 183.6 100.8 183.6 101.6 184.1C103 185 103.6 186.9 103.9 188.7C106 197.8 108.3 211.3 100.5 217.4C98.7999 218.7 96.7999 219.5 95.0999 220.9C90.9999 224.2 94.1999 228.6 91.5999 232C91.3999 232.3 90.8999 232.5 90.0999 232.8Z" fill="#EAC5B0"></path><path d="M115.1 162.2C115.367 160.533 115.733 158.933 116.2 157.4C117.2 154 118.8 150.8 119.4 147.3C119.9 143.7 119.2 139.5 116.5 137.5C114.8 136.2 112.6 136 110.6 136.1C103.8 136.3 97.1999 138.6 91.6999 142.8C86.3999 146.7 81.9999 151.5 75.2999 151.2C68.9999 150.9 65.2999 153.4 60.2999 157.9C54.8999 162.9 46.6999 166.7 42.1999 172.4C40.2999 174.9 39.0999 177.9 38.4999 181.1C36.2999 192.1 40.1999 204.7 48.1999 211.9C49.9999 213.5 51.8999 214.8 53.8999 216.1C57.9999 218.7 62.9999 221.9 67.4999 221.7C66.2999 217.5 58.7999 205.5 60.4999 201C63.1999 193.9 73.7999 192 79.6999 191.3C86.1999 190.5 92.9999 193.4 99.2999 192.2C103.8 191.3 108.5 186.9 111.4 182.9C114.8 178.1 114 168.1 115.1 162.2Z" fill="#3B455A"></path><path d="M39.1001 627.6L38.1001 635.4L53.8001 645L63.2001 638.2L55.8001 629.5L40.1001 619.9L39.1001 627.6Z" fill="#587BC9"></path><path d="M43.3 391L40.2 414.5L60.8 520.2L38.5 625L54.7 630L109.9 505.8L113.5 467.6L108 388.2L43.3 391Z" fill="#3B455A"></path><path d="M146.7 400L148 499.6L126.1 627.9H109.3L98.7 509.5L75.7 391.1L146.7 400Z" fill="#3B455A"></path><path d="M109.4 626.2V634L127.6 641.8L136.7 634L127.6 626.2H109.4Z" fill="#587BC9"></path><path d="M34.4 399.8C35 408.4 36.4 417 39.4 425.1C63.2 415.1 89 409.8 114.8 409.7C122.7 409.7 130.8 410.1 138.5 412C142.2 412.9 146 415.2 149.7 415.9C153.2 416.5 157.6 413.8 161 412.6C162.8 411.9 155.2 342.3 151.6 333.7C143 313.5 134 293.5 125 273.6C121.2 265.1 117.8 253.4 111.8 246.9C101.6 236 84.9 224.5 71.5 237.1C67.8 240.6 65.2 245.1 62.8 249.6C41.6 289.4 34.7 335.3 34 380.4C33.9 386.8 33.9 393.3 34.4 399.8Z" fill="#D7E8F4"></path><path d="M312.6 121.4C325 165.9 298.9 212 254.4 224.4C209.9 236.8 163.8 210.7 151.4 166.2C139 121.6 165.1 75.5 209.6 63.2C254.2 50.8 300.3 76.9 312.6 121.4Z" fill="#305399"></path><path d="M863.7 155.6C863.7 205 823.6 245.2 774.1 245.2C724.6 245.2 684.5 205 684.5 155.6C684.5 106.1 724.6 65.9 774.1 65.9C823.6 65.9 863.7 106.1 863.7 155.6Z" fill="#7DB5DB"></path><path d="M840.1 140.7C833.1 129.1 818.7 123.7 805.6 127.2C805.6 127.2 805.567 127.233 805.5 127.3C801.5 128.7 798.2 131.6 796.8 136.1C796.5 137.1 794.9 136.6 795.2 135.7C796.7 130.8 800.2 127.7 804.4 126C799.7 111.5 785.6 101.3 770.2 102.6C755.1 103.8 742.8 115.4 740 130.1C741.267 130.433 742.5 130.867 743.7 131.4C748.6 133.6 752.3 137.3 755 141.8C755.5 142.7 754.2 143.5 753.6 142.7C752.733 141.167 751.733 139.767 750.6 138.5C746.2 133.7 740.1 130.9 733.6 131.2C727.1 131.6 720.1 135.1 715.7 139.9C710.7 145.4 708 152.8 708.7 160.2C709.4 167.6 713.3 174.4 719.2 178.7C724.7 182.8 731.1 184.6 737.8 184.8C742.3 185 746.7 185 751.2 185C763.8 185.1 776.5 185.1 789.2 185.1C794.8 185.033 800.367 185 805.9 185C810.5 185 815.3 185.3 819.8 184.4C834.6 181.5 845.6 167.9 844.1 152.7C843.7 148.5 842.3 144.4 840.1 140.7Z" fill="white"></path><path d="M272.3 155C265.8 155 260.2 158.8 257.5 164.3L222.3 159.5C222.1 153.2 219.2 147.5 214.8 143.4L234.7 114.8C237 115.8 239.6 116.3 242.3 116.3C253 116.3 261.7 107.6 261.7 97C261.7 86.3 253 77.6 242.3 77.6C231.6 77.6 222.9 86.3 222.9 97C222.9 101.5 224.5 105.7 227.1 109.1L206.7 138.5C204.2 137.7 201.6 137.2 198.9 137.2C186 137.2 175.5 147.7 175.5 160.6C175.5 173.4 186 183.9 198.9 183.9C208.8 183.9 217.3 177.8 220.7 169.2L256.2 174C257.5 181.6 264.2 187.4 272.3 187.4C281.3 187.4 288.6 180.2 288.6 171.2C288.6 162.3 281.3 155 272.3 155Z" fill="white"></path><path d="M767.5 327.3C767.5 362.7 738.7 391.5 703.2 391.5C667.8 391.5 639 362.7 639 327.3C639 291.8 667.8 263 703.2 263C738.7 263 767.5 291.8 767.5 327.3Z" fill="#3B455A"></path><path fill-rule="evenodd" clip-rule="evenodd" d="M757.6 316.7C757.6 319.967 757.6 323.267 757.6 326.6C757.6 330.1 757.4 333.3 755.7 336.5C753.1 341.5 747.7 344.6 742.1 344.6C741.767 344.6 741.467 344.6 741.2 344.6C734.533 344.6 727.9 344.6 721.3 344.6C720.833 344.6 720.333 344.6 719.8 344.6C719.733 345.4 719.667 346.167 719.6 346.9V347C719.4 348.9 718.9 350.6 718 352.4C715.4 357.4 710 360.5 704.4 360.5C704.067 360.5 703.733 360.5 703.4 360.5C692 360.5 680.567 360.5 669.1 360.5C667.1 360.5 665 360.6 663 360C657.7 358.6 653.3 354.2 652 348.8C651.4 346.1 651.6 343.2 651.6 340.4C651.6 337.267 651.6 334.167 651.6 331.1C651.6 326.8 652.8 322.8 655.8 319.6C658.7 316.5 663 314.8 667.2 314.8C672 314.8 676.8 314.8 681.6 314.8C684.133 314.8 686.7 314.8 689.3 314.8C689.4 310.7 690.6 306.8 693.5 303.7C696.5 300.6 700.7 298.9 705 298.9C709.733 298.9 714.5 298.9 719.3 298.9C725.7 298.9 732.067 298.9 738.4 298.9C739.667 298.9 740.9 298.9 742.1 298.9C747.6 298.9 752.8 301.9 755.5 306.6C757.3 309.8 757.6 313.1 757.6 316.7ZM704.4 321.8C704.267 321.8 704.167 321.8 704.1 321.8C703.5 321.8 702.933 321.8 702.4 321.8C700.333 321.8 698.3 321.8 696.3 321.8C696.3 324.133 696.3 326.467 696.3 328.8C696.3 329.133 696.3 329.467 696.3 329.8C696.3 329.9 696.4 330.4 696.3 330.5C696.367 330.567 696.4 330.667 696.4 330.8C696.533 331.333 696.7 331.867 696.9 332.4C696.9 332.4 696.9 332.433 696.9 332.5C696.967 332.567 697.033 332.667 697.1 332.8C697.233 333.067 697.367 333.333 697.5 333.6C697.633 333.8 697.767 333.967 697.9 334.1C697.9 334.167 697.9 334.233 697.9 334.3C697.967 334.3 698 334.333 698 334.4C698.333 334.8 698.7 335.167 699.1 335.5C699.233 335.633 699.4 335.767 699.6 335.9C699.6 336 699.7 336 699.8 336.1C700.4 336.4 700.9 336.8 701.5 337C701.5 337.067 701.5 337.1 701.5 337.1C701.567 337.1 701.633 337.1 701.7 337.1C701.967 337.167 702.233 337.267 702.5 337.4C702.8 337.4 703.8 337.6 703.7 337.6C704.033 337.667 704.4 337.7 704.8 337.7C705.067 337.7 705.367 337.7 705.7 337.7C707.7 337.7 709.733 337.7 711.8 337.7C711.933 337.7 712.067 337.7 712.2 337.7C712.4 337.7 712.633 337.7 712.9 337.7C712.9 337.233 712.9 336.767 712.9 336.3C712.9 334.1 713 331.8 712.8 329.6C712.8 329.5 712.8 329 712.8 329C712.733 328.8 712.7 328.567 712.7 328.3C712.567 327.9 712.4 327.467 712.2 327C712.4 327.4 711.9 326.3 711.8 326.1C711.6 325.833 711.433 325.567 711.3 325.3C711.233 325.233 711.2 325.2 711.2 325.2C711.2 325.2 711.2 325.167 711.2 325.1C710.8 324.633 710.333 324.167 709.8 323.7C709.733 323.633 709.667 323.567 709.6 323.5C709.5 323.5 709.1 323.2 709.1 323.2C708.633 322.933 708.2 322.667 707.8 322.4C707.733 322.4 707.667 322.4 707.6 322.4C707.6 322.4 707.567 322.367 707.5 322.3C707.3 322.233 707.1 322.167 706.9 322.1C706.5 322.033 706.1 321.933 705.7 321.8C705.633 321.8 705.6 321.8 705.6 321.8C705.2 321.8 704.8 321.8 704.4 321.8ZM712.9 345.1C712.9 344.967 712.9 344.8 712.9 344.6C712.633 344.6 712.4 344.6 712.2 344.6C710.4 344.6 708.633 344.6 706.9 344.6C704.8 344.6 702.7 344.6 700.7 344.1C695.4 342.7 691.1 338.3 689.8 332.9C689.1 330.2 689.3 327.3 689.3 324.5C689.3 323.767 689.3 323.067 689.3 322.4V321.9C689.3 321.833 689.3 321.8 689.3 321.8C684.833 321.8 680.4 321.8 676 321.8C673.6 321.8 671.233 321.8 668.9 321.8C668.367 321.8 667.8 321.8 667.2 321.8C667.133 321.8 667.067 321.8 667 321.8C666.667 321.8 666.367 321.8 666.1 321.8C666.033 321.8 665.967 321.8 665.9 321.8C665.367 321.933 664.867 322.067 664.4 322.2C664.3 322.2 663.6 322.5 663.7 322.4C663.5 322.533 663.3 322.633 663.1 322.7C662.7 322.967 662.3 323.2 661.9 323.4C661.8 323.5 661.7 323.6 661.7 323.6C661.5 323.8 661.3 323.967 661.1 324.1C660.833 324.433 660.567 324.767 660.3 325.1C660.3 325.1 659.8 325.7 659.8 325.8C659.667 326 659.533 326.233 659.4 326.5C659.333 326.633 659.267 326.767 659.2 326.9C659.2 326.9 659 327.4 659 327.5C658.8 327.9 658.7 328.5 658.6 329C658.6 329.067 658.6 329.1 658.6 329.1C658.6 329.167 658.6 329.233 658.6 329.3C658.6 329.5 658.567 329.7 658.5 329.9C658.5 332.1 658.5 334.3 658.5 336.5C658.5 339.233 658.5 341.967 658.5 344.7C658.5 345.033 658.5 345.367 658.5 345.7C658.6 345.8 658.6 346.3 658.6 346.4C658.6 346.467 658.633 346.567 658.7 346.7C658.833 347.233 659 347.767 659.2 348.3C659.2 348.3 659.2 348.333 659.2 348.4C659.267 348.533 659.333 348.633 659.4 348.7C659.533 349.033 659.667 349.3 659.8 349.5C659.933 349.7 660.033 349.867 660.1 350C660.167 350.067 660.2 350.133 660.2 350.2C660.267 350.2 660.3 350.233 660.3 350.3C660.633 350.7 660.967 351.067 661.3 351.4C661.5 351.533 661.667 351.667 661.8 351.8C661.9 351.9 662 352 662.1 352C662.6 352.3 663.2 352.7 663.8 353C663.867 353 663.9 353 663.9 353C664.233 353.133 664.533 353.233 664.8 353.3C665 353.3 666.1 353.5 665.9 353.5C666.3 353.567 666.667 353.6 667 353.6C667.333 353.6 667.667 353.6 668 353.6C670 353.6 672 353.6 674 353.6C684.133 353.6 694.267 353.6 704.4 353.6C704.733 353.6 705.033 353.567 705.3 353.5C705.367 353.5 705.433 353.5 705.5 353.5C705.567 353.5 705.633 353.5 705.7 353.5C706.167 353.367 706.667 353.233 707.2 353.1L707.7 352.9C707.833 352.833 707.933 352.8 708 352.8C708.533 352.533 709.033 352.233 709.5 351.9C709.5 351.9 709.5 351.867 709.5 351.8C709.633 351.733 709.733 351.667 709.8 351.6C710.067 351.4 710.3 351.2 710.5 351C710.633 350.867 710.767 350.7 710.9 350.5C710.9 350.5 711.2 350.1 711.3 350.1C711.5 349.767 711.7 349.4 711.9 349C712.033 348.8 712.133 348.6 712.2 348.4C712.2 348.3 712.3 348.2 712.3 348.2C712.5 347.5 712.7 346.9 712.8 346.2C712.8 346.133 712.8 346.067 712.8 346C712.867 345.733 712.9 345.433 712.9 345.1ZM750.6 313.7C750.6 313.6 750.5 313 750.5 313.1C750.5 312.9 750.467 312.667 750.4 312.4C750.267 311.933 750.133 311.5 750 311.1C750.1 311.5 749.6 310.3 749.5 310.1C749.3 309.9 749.133 309.667 749 309.4C749 309.333 748.967 309.3 748.9 309.3C748.9 309.233 748.9 309.2 748.9 309.2C748.5 308.733 748.067 308.267 747.6 307.8C747.467 307.733 747.367 307.667 747.3 307.6C747.2 307.6 746.9 307.3 746.8 307.3C746.4 307.033 745.967 306.767 745.5 306.5C745.433 306.5 745.4 306.5 745.4 306.5C745.333 306.433 745.267 306.4 745.2 306.4C745 306.333 744.8 306.267 744.6 306.2C744.2 306.133 743.8 306.033 743.4 305.9C743.333 305.9 743.3 305.9 743.3 305.9C742.9 305.9 742.5 305.9 742.1 305.9C742.033 305.9 741.933 305.9 741.8 305.9C741.267 305.9 740.7 305.9 740.1 305.9C737.7 305.9 735.333 305.9 733 305.9C726.533 305.9 720.1 305.9 713.7 305.9C711.367 305.9 709 305.9 706.6 305.9C706.067 305.9 705.533 305.9 705 305.9C704.933 305.9 704.867 305.9 704.8 305.9C704.467 305.9 704.133 305.9 703.8 305.9C703.733 305.9 703.667 305.9 703.6 305.9C703.067 305.967 702.567 306.1 702.1 306.3C702 306.3 701.4 306.6 701.4 306.5C701.2 306.633 701 306.733 700.8 306.8C700.4 307 700.033 307.233 699.7 307.5C699.6 307.6 699.5 307.7 699.4 307.7C699.2 307.9 699.033 308.067 698.9 308.2C698.567 308.533 698.267 308.867 698 309.2C698 309.2 697.6 309.8 697.5 309.9C697.367 310.1 697.267 310.3 697.2 310.5C697.067 310.7 696.967 310.867 696.9 311C697 310.9 696.8 311.5 696.7 311.5C696.6 312 696.5 312.5 696.3 313.1C696.3 313.1 696.3 313.133 696.3 313.2C696.3 313.267 696.3 313.333 696.3 313.4C696.3 313.6 696.3 313.8 696.3 314C696.3 314.267 696.3 314.533 696.3 314.8C697.767 314.8 699.233 314.8 700.7 314.8C701.9 314.8 703.133 314.8 704.4 314.8C709.8 314.9 715 317.8 717.8 322.5C719.6 325.7 719.8 329.1 719.8 332.6C719.8 334.267 719.8 335.967 719.8 337.7C720.333 337.7 720.833 337.7 721.3 337.7C728.233 337.7 735.167 337.7 742.1 337.7C742.433 337.633 742.767 337.6 743.1 337.6C743.167 337.6 743.2 337.6 743.2 337.6C743.267 337.6 743.333 337.6 743.4 337.6C743.933 337.467 744.433 337.333 744.9 337.2C745 337.2 745.4 337 745.5 337C745.567 336.933 745.667 336.867 745.8 336.8C746.267 336.6 746.733 336.333 747.2 336C747.2 335.933 747.233 335.9 747.3 335.9C747.367 335.833 747.467 335.767 747.6 335.7C747.8 335.5 748 335.3 748.2 335.1C748.333 334.967 748.467 334.8 748.6 334.6C748.7 334.6 749 334.2 749 334.1C749.2 333.767 749.4 333.433 749.6 333.1C749.733 332.9 749.833 332.7 749.9 332.5C750 332.4 750 332.3 750 332.3C750.2 331.6 750.4 331 750.5 330.3C750.5 330.3 750.533 330.267 750.6 330.2C750.6 330.2 750.6 330.167 750.6 330.1C750.6 329.833 750.6 329.533 750.6 329.2C750.6 329 750.6 328.833 750.6 328.7C750.6 325.9 750.6 323.133 750.6 320.4C750.6 318.2 750.7 315.9 750.6 313.7Z" fill="white"></path><path d="M357.2 396.8C358.8 396.8 421.9 339 421.9 339V230.7L350.7 300.5L357.2 396.8Z" fill="#3B455A"></path><path d="M365.6 356.5C364.4 334.9 359.6 280.8 343.8 259.2C328 280.8 323.2 334.9 322 356.5C321.6 364.2 322 371.6 323.1 378.5L332.4 435.5C337.3 441.8 350.3 441.8 355.2 435.5L364.5 378.5C365.6 371.6 366 364.2 365.6 356.5Z" fill="#7DB5DB"></path><path d="M340.8 422.6C337.3 422.5 333.7 422.2 330.1 421.6L332.4 435.3C337.3 441.7 350.2 441.7 355.1 435.3L357.4 421.1C352.1 422.6 346.3 422.8 340.8 422.6Z" fill="#3B455A"></path><path opacity="0.1" d="M386.3 265.6L397.8 360.9L384.4 373.1L382 269.8L386.3 265.6Z" fill="black"></path><path d="M575.3 396.8C573.7 396.8 510.6 339 510.6 339V230.7L581.7 300.5L575.3 396.8Z" fill="#3B455A"></path><path d="M566.9 356.5C568.1 334.9 572.9 280.8 588.7 259.2C604.4 280.8 609.2 334.9 610.4 356.5C610.8 364.2 610.4 371.6 609.3 378.5L600 435.5C595.1 441.8 582.2 441.8 577.3 435.5L568 378.5C566.9 371.6 566.5 364.2 566.9 356.5Z" fill="#7DB5DB"></path><path d="M591.7 422.6C595.1 422.5 598.8 422.2 602.3 421.6L600.1 435.3C595.2 441.7 582.2 441.7 577.3 435.3L575 421.1C580.3 422.6 586.2 422.8 591.7 422.6Z" fill="#3B455A"></path><path opacity="0.1" d="M546.2 265.6L534.6 360.9L548.1 373.1L550.5 269.8L546.2 265.6Z" fill="black"></path><path d="M507.7 422.4H436.5V405.2H507.7V422.4Z" fill="#3B455A"></path><path d="M514.3 438.3H428.9L434.1 421.1H509.2L514.3 438.3Z" fill="#D7E8F4"></path><path d="M553.9 181.4C548.1 133.6 531.6 87 507.1 45.7C497.7 30 482.2 10.6 468.8 0.5C455.4 10.6 440 30 430.6 45.7C406 87 389.6 133.6 383.8 181.4C377.7 232.3 388.4 281.8 392.7 332.3C394.833 357.1 396.967 381.9 399.1 406.7H468.8H538.6C540.733 381.9 542.867 357.1 545 332.3C549.2 281.8 560 232.3 553.9 181.4Z" fill="#587BC9"></path><path d="M520.8 443.3H423.4C422.5 443.3 421.9 442.6 421.9 441.8V438.7C421.9 437.8 422.5 437.2 423.4 437.2H520.8C521.7 437.2 522.3 437.8 522.3 438.7V441.8C522.3 442.6 521.7 443.3 520.8 443.3Z" fill="#3B455A"></path><path opacity="0.1" d="M436.5 406.7H507.7V418.2L436.5 409.9V406.7Z" fill="black"></path><path d="M522.7 183.7C522.7 211.9 499.8 234.8 471.6 234.8C443.4 234.8 420.5 211.9 420.5 183.7C420.5 155.5 443.4 132.6 471.6 132.6C499.8 132.6 522.7 155.5 522.7 183.7Z" fill="#D7E8F4"></path><path opacity="0.2" d="M438.2 144.6C446.6 138.5 457 134.9 468.2 134.9C496.4 134.9 519.3 157.8 519.3 186C519.3 201.8 512 216 500.7 225.4L438.2 144.6Z" fill="white"></path><path fill-rule="evenodd" clip-rule="evenodd" d="M471.6 238.2C441.5 238.2 417.1 213.7 417.1 183.7C417.1 153.6 441.5 129.1 471.6 129.1C501.7 129.1 526.2 153.6 526.2 183.7C526.2 213.7 501.7 238.2 471.6 238.2ZM471.6 136C445.4 136 424 157.4 424 183.7C424 209.9 445.4 231.3 471.6 231.3C497.9 231.3 519.3 209.9 519.3 183.7C519.3 157.4 497.9 136 471.6 136Z" fill="#3B455A"></path><path opacity="0.2" d="M398.5 406.7H538.1L541.3 369.9L396.4 371L398.5 406.7Z" fill="#304956"></path><path d="M510.2 484.9C516.6 493.7 519.1 505.4 516.8 516.1C513 533.8 497.6 546.7 491 563.6C488.1 556.9 485.1 550 485.1 542.7C481.8 558.6 481.2 575 483.3 591.1C470.1 576.8 456.4 561.7 451.8 542.8C449 546.9 448.1 552.3 449.4 557.1C448.6 554 441.2 548.8 439.1 546C435.4 541.1 432.4 535.7 430.1 530.1C425.9 519.8 426.9 509.5 429.8 498.8C438.4 466.4 491.1 458.9 510.2 484.9Z" fill="#305399"></path><path d="M495.9 490C499 495.6 499.6 502.7 497.4 508.8C493.9 518.8 483.9 525.2 478.7 534.6C477.5 530.5 476.3 526.2 476.9 521.9C473.7 530.9 472.1 540.5 472.1 550.1C465.4 540.7 458.6 530.8 457.4 519.4C455.4 521.6 454.5 524.7 454.9 527.6C454.6 525.7 450.7 522.1 449.7 520.3C447.9 517.2 446.5 513.8 445.6 510.3C443.9 504 445.3 498 447.8 492C455.4 473.7 486.8 473.3 495.9 490Z" fill="#F7F7F7"></path><path opacity="0.1" d="M433.9 538C430.7 532.2 431.5 521.5 432.2 515.2C434 499.1 443.4 484.4 459 478.7C467 475.9 475.7 475.3 484 476.4C493.3 477.5 502.3 480.5 510.4 485.2C509.2 484.5 508 482.2 507 481.2C505.533 479.733 503.967 478.367 502.3 477.1C499.5 475.2 496.5 473.6 493.3 472.4C487.8 470.3 481.9 469.3 476.1 469.2C464.4 469 452.3 472.4 442.9 479.6C436.6 484.4 431.8 491.1 429.8 498.8C426.9 509.5 425.9 519.8 430.1 530.1C431.233 532.833 432.5 535.467 433.9 538Z" fill="black"></path><path d="M164.3 345.9C215.7 345.9 257.4 387.6 257.4 439C257.4 490.4 215.7 532.1 164.3 532.1C112.8 532.1 71.1001 490.4 71.1001 439C71.1001 387.6 112.8 345.9 164.3 345.9Z" fill="#7DB5DB"></path><path d="M230.6 395.4C230.5 395 230.1 394.7 229.5 394.8C225.367 395.533 221.233 396.3 217.1 397.1C207.233 398.967 197.333 400.8 187.4 402.6C175.467 404.867 163.533 407.1 151.6 409.3C141.267 411.233 130.933 413.167 120.6 415.1C115.6 416.033 110.567 416.967 105.5 417.9C105.433 417.9 105.367 417.9 105.3 417.9C105.167 417.967 105.033 418.033 104.9 418.1L104.2 418.2L104.4 418.4C104.1 418.9 104.1 419.5 104.5 420.1C111.233 427.5 117.933 434.9 124.6 442.3C125.2 442.9 125.767 443.5 126.3 444.1L88.3001 470.2L88.5001 470.4C88.2001 470.9 88.1001 471.4 88.4001 471.9C93.6001 479.433 98.8001 486.967 104 494.5C105.333 496.433 106.633 498.367 107.9 500.3C108.3 500.9 109.1 501 109.7 500.7C114.033 497.7 118.4 494.7 122.8 491.7C129.733 486.9 136.7 482.1 143.7 477.3C144.9 476.5 146.133 475.667 147.4 474.8C151.667 483.333 155.967 491.867 160.3 500.4C160.9 501.667 161.533 502.933 162.2 504.2C162.7 505.1 163.9 504.8 164.3 504.1C166.5 500.5 168.7 496.933 170.9 493.4C176.233 484.8 181.533 476.233 186.8 467.7C193.2 457.367 199.567 447.033 205.9 436.7C211.433 427.767 216.967 418.833 222.5 409.9C224.3 406.9 226.133 403.933 228 401C228.8 399.6 229.8 398.2 230.6 396.8C230.6 396.733 230.633 396.667 230.7 396.6C231 396.1 230.9 395.7 230.6 395.4Z" fill="white"></path><path d="M776.7 565.3C725.7 557.5 690.7 509.8 698.5 458.8C706.4 407.8 754 372.8 805 380.6C856 388.4 891 436.1 883.2 487.1C875.4 538.1 827.7 573.1 776.7 565.3Z" fill="#7DB5DB"></path><path fill-rule="evenodd" clip-rule="evenodd" d="M866.9 470.3C866.9 513.1 833.1 547.9 791.6 547.9C750.1 547.9 716.4 513.1 716.4 470.3C716.4 427.5 750.1 392.7 791.6 392.7C833.1 392.7 866.9 427.5 866.9 470.3ZM820 510.2C811.8 507.5 803.3 506 794.6 505.7V541.7C795.6 541.633 796.6 541.567 797.6 541.5C807.2 532.7 814.8 522 820 510.2ZM785.7 541.5C786.7 541.567 787.7 541.633 788.7 541.7V505.7C780 506 771.4 507.5 763.3 510.2C768.5 522 776.1 532.7 785.7 541.5ZM763.3 430.4C771.4 433.1 780 434.6 788.7 434.9V398.9C787.7 398.967 786.7 399.033 785.7 399.1C776.1 407.9 768.5 418.6 763.3 430.4ZM798 399.4L798.2 399.1C797 399.033 795.8 398.967 794.6 398.9V434.9C803.3 434.6 811.8 433.1 820 430.4C814.8 418.7 807.4 408.2 798 399.4ZM794.6 467.3H828.5C828.1 456.5 826 445.9 822.3 436C813.4 439 804.1 440.7 794.6 441V467.3ZM761 436C757.3 445.9 755.2 456.5 754.8 467.3H788.7V441C779.2 440.7 769.9 439 761 436ZM755.4 433.9C749.4 431.5 743.7 428.4 738.2 424.8C728.8 436.4 723 451.2 722.3 467.3H748.9C749.3 455.8 751.5 444.5 755.4 433.9ZM722.3 473.3C723 489.4 728.8 504.2 738.2 515.8C743.7 512.2 749.4 509.1 755.4 506.7C751.5 496.1 749.3 484.9 748.9 473.3H722.3ZM760.9 504.6C769.8 501.6 779.1 499.9 788.7 499.6V473.3H754.8C755.1 484.2 757.2 494.7 760.9 504.6ZM822.3 504.6C826 494.7 828.1 484.2 828.4 473.3H794.6V499.6C804.1 499.9 813.4 501.6 822.3 504.6ZM827.8 506.7C833.8 509.1 839.6 512.2 845.1 515.8C854.4 504.2 860.2 489.4 860.9 473.3H834.3C834 484.9 831.8 496.1 827.8 506.7ZM860.9 467.3C860.2 451.2 854.4 436.4 845.1 424.8C839.6 428.4 833.8 431.5 827.8 434C831.8 444.5 834 455.8 834.3 467.3H860.9ZM807.7 400.8C815.1 408.9 821.2 418.3 825.6 428.3C831 426.2 836.1 423.5 841.1 420.2C832.1 410.8 820.6 403.9 807.7 400.8ZM742.2 420.2C747.1 423.4 752.3 426.2 757.7 428.3C762.1 418.3 768.1 408.9 775.6 400.8C762.7 403.9 751.2 410.8 742.2 420.2ZM775.6 539.8C768.1 531.7 762.1 522.4 757.7 512.3C752.3 514.5 747.133 517.2 742.2 520.4C751.2 529.8 762.7 536.7 775.6 539.8ZM841.1 520.4C836.167 517.2 831 514.5 825.6 512.3C821.2 522.3 815.1 531.7 807.7 539.8C820.6 536.7 832.1 529.8 841.1 520.4Z" fill="white"></path><path d="M835.3 408.3C835.366 408.033 835.433 407.767 835.5 407.5C836.1 404.8 838.7 404.2 839.9 402.2C840.5 401.2 839.9 398.1 841.7 398.4C842.3 398.5 844.5 398.6 846.7 399C848.5 398.5 850.3 398.2 852.1 397.6C856.5 396.2 864.1 387.8 868.6 392.4C869.5 393.2 870.4 394.1 870.9 395.3C871.3 396.2 871.5 397.2 871.6 398.2C871.7 399 872 400.2 871.5 400.8C871 401.4 869 401.8 868.2 402.2C866 403.067 863.8 403.967 861.6 404.9C859.5 405.8 857 407 856.7 409.3C856.6 409.8 856.6 410.3 856.5 410.8C856.3 411.4 855.9 411.8 855.5 412.2C854.1 413.8 852.6 415.3 850.8 416.5C847.7 418.6 842.2 416.5 839.1 415.5C838.3 415.2 837.5 414.9 836.9 414.4C835.9 413.5 835.7 412 835.5 410.7C835.4 409.9 835.3 409.1 835.3 408.3Z" fill="#EAC5B0"></path><path d="M915.3 375.2C914 377.9 912.8 380.6 910.9 382.9C909.4 384.8 907.6 386.3 905.7 387.7C893.9 396.6 880.8 403.6 866.9 408.5C862.7 403 859.7 396.6 858 389.9C868.2 383.4 877.9 376.1 886.9 368C888.8 366.4 890.6 364.7 892 362.6C893.9 359.6 894.7 356.1 895.4 352.6C898.333 339.067 901.233 325.533 904.1 312C905.9 303.9 907.7 295.5 912.7 288.8C926.6 270.3 951.8 284.9 946.2 305.8C939.9 329.2 925.1 352.9 915.3 375.2Z" fill="#587BC9"></path><path d="M151.8 355.8L158.3 361.2L165.8 360.8L166.8 362.2L164.9 363.4L171.3 364.7L174.7 368.6L172.8 374.8L167 378.8L160.4 376.3L155.2 370.1L146 363L151.8 355.8Z" fill="#EAC5B0"></path><path d="M158 359L111.1 315.7C109.033 308.967 106.967 302.233 104.9 295.5C102.7 288.1 101 273.9 95.0001 268.5C93.4001 267 91.3001 266.1 89.4001 265.2C85.7001 263.5 81.9001 261.9 77.8001 261.7C73.8001 261.5 69.5001 262.9 67.1001 266.2C60.3001 275.5 68.5001 292.2 71.0001 301.9C73.4668 311.5 75.9334 321.067 78.4001 330.6L151 373L158 359Z" fill="#D7E8F4"></path></svg>