<svg xmlns="http://www.w3.org/2000/svg" width="155" height="97" fill="none" viewBox="0 0 155 97"><path fill="#6f4bbb" d="M79.821 81.485h18.17v15.507H80.154c-2.82-1.214-5.144-2.94-6.831-4.963.664-3.344 3.125-7.712 6.5-10.544"/><path fill="#7d5dc2" d="M80.98 82.894c-2.388 2.44-4.748 5.395-5.543 8.757 1.427 1.68 3.292 2.982 5.295 3.93h15.145V82.895z"/><path fill="#9478cf" d="M76.84 87.828c-.468.684-1.348 3.45-1.403 3.62 1.43 1.768 3.3 3.136 5.307 4.134h8.085v-7.155a141 141 0 0 1-11.99-.599"/><path fill="#5f3ea7" d="M79.54 93.467c1.82.665 2.677 1.907 2.945 3.525h-6.344c.429-1.387 1.633-3.091 3.4-3.525"/><path fill="#6f4bbb" d="M79.642 94.172c-.88.294-1.616 1.145-2.091 2.115h2.115v-2.115z"/><path fill="#5f3ea7" d="M86.33 93.467c2.436.648 3.614 2.229 3.908 3.525H81.78c.562-1.374 2.275-3.214 4.55-3.525"/><path fill="#6f4bbb" d="M85.955 94.172c-1.356.219-2.684 1.07-3.47 2.115h3.524v-2.115zm33.731-12.687h-18.17v15.507h17.838c2.821-1.214 5.144-2.94 6.831-4.963-.636-3.344-3.097-7.712-6.499-10.544"/><path fill="#7d5dc2" d="M118.529 82.894c2.387 2.44 4.746 5.395 5.542 8.757-1.427 1.68-3.293 2.982-5.295 3.93H103.63V82.895z"/><path fill="#9478cf" d="M122.668 87.828c.468.684 1.348 3.45 1.403 3.62-1.43 1.768-3.3 3.136-5.307 4.134h-8.085v-7.155c3.987-.029 8.002-.228 11.989-.599"/><path fill="#5f3ea7" d="M119.967 93.467c-1.82.665-2.677 1.907-2.945 3.525h6.344c-.428-1.387-1.633-3.091-3.399-3.525"/><path fill="#6f4bbb" d="M119.874 94.172c1.172.294 2.154 1.145 2.787 2.115h-2.819v-2.115z"/><path fill="#5f3ea7" d="M113.502 93.467c-2.638.648-3.914 2.229-4.233 3.525h9.163c-.609-1.374-2.465-3.214-4.93-3.525"/><path fill="#6f4bbb" d="M113.553 94.172c1.355.219 2.683 1.07 3.47 2.115h-3.525v-2.115zm-45.61-72.005c-.8-4.97.082-7.548 1.13-12.093 3.282 2.632 5.378 4.519 9.377 6.459.8-4.81 2.565-9.356 5.13-13.608L85.095.427c5.847 4.252 10.838 7.654 14.7 13.289 3.86-5.635 8.852-9.037 14.698-13.29l1.517 2.499c2.565 4.252 4.33 8.797 5.129 13.608 3.999-1.94 6.095-3.827 9.377-6.459 1.075 4.519 1.93 7.097 1.131 12.093l7.225 1.914c-1.434 18.179-2.896 33.674-4.743 51.853a711 711 0 0 1-.8 7.521c-.083.718-.993 2.02-4.854 2.047-18.863 1.222-38.609 1.222-57.445 0-3.86-.054-4.77-1.33-4.853-2.047a719 719 0 0 1-.8-7.654c-.11-1.037-.22-2.073-.331-3.136-1.572-16.213-3.116-32.372-4.412-48.61l7.225-1.914h.083z"/><path fill="#9478cf" d="M85.841 3.95c-3.119 5.086-4.858 10.462-5.19 16.023-3.201-1.165-6.845-3.072-9.992-5.535-.635 2.702-.497 6.224.359 9.296a136 136 0 0 0-7.564 1.88c1.325 16.632 2.567 33.263 4.279 49.842.165 1.641.524 5.19.718 6.832.69.37 2.125.37 2.705.397a448 448 0 0 0 57.196 0c.607-.053 2.015-.053 2.705-.397.194-1.615.552-5.243.718-6.832 1.684-16.606 2.954-33.237 4.279-49.842a136 136 0 0 0-7.564-1.88c.856-3.072.994-6.594.359-9.296-3.119 2.49-6.791 4.37-9.993 5.535-.331-5.535-2.07-10.937-5.189-16.022-6.349 4.608-10.518 7.945-13.913 14.619-3.423-6.674-7.564-10.011-13.94-14.62z"/><path fill="#a58dd4" d="M86.059 3.95c.474 7.391 2.425 15.602 6.104 19.046-4.906-.504-7.526-1.06-11.316-3.02-3.262-1.165-6.94-3.073-10.118-5.536 1.7 4.874 3.344 8.344 6.717 11.734-2.87-.053-4.515-.954-6.355-2.437a138 138 0 0 0-7.637 1.88c1.338 16.635 2.592 33.27 4.32 49.85.168 1.643.53 5.192.725 6.834.697.371 2.146.371 2.732.397 9.588.61 19.232.901 28.875.901v-9.906c-14.883 1.112-28.485-21.19-12.849-35.838l-3.122 1.642c-.39-2.357.39-5.297 1.422-7.681 2.035-4.635 7.442-8.079 14.549-8.9v-4.37C96.65 11.87 92.497 8.533 86.059 3.95"/><path fill="#7d5dc2" d="M122.362 26.492c3.303-3.435 4.954-6.977 6.633-11.915.633 2.737.495 6.306-.358 9.42-1.816 1.529-3.44 2.441-6.275 2.495m-5.586-1.396c1.651 0 2.972 1.315 2.972 2.899 0 1.61-1.348 2.898-2.972 2.898-1.651 0-2.972-1.315-2.972-2.898s1.348-2.899 2.972-2.899m10.87 6.548c1.128 0 2.064.912 2.064 2.013s-.936 2.012-2.064 2.012-2.064-.912-2.064-2.012c0-1.127.908-2.013 2.064-2.013m-19.786-8.4c3.632-3.46 5.559-11.78 6.026-19.293 3.11 5.152 4.844 10.6 5.174 16.235-3.77 1.986-6.357 2.549-11.2 3.059"/><path fill="#9478cf" d="M72.726 29.325c2.656 0 4.825 2.131 4.825 4.742 0 2.61-2.169 4.741-4.826 4.741s-4.825-2.13-4.825-4.741 2.169-4.742 4.825-4.742M69.608 43.87c1.057 0 1.925.852 1.925 1.891s-.868 1.892-1.925 1.892-1.925-.853-1.925-1.892.868-1.89 1.925-1.89"/><path fill="#d3e8ef" d="M100.106 32.145c11.677 0 21.146 8.995 21.146 20.088s-9.469 20.089-21.146 20.089-21.145-8.996-21.145-20.089 9.468-20.088 21.145-20.088"/><path fill="#fff" d="M79.665 47.637c1.834-7.735 8.128-13.806 16.065-15.444 8.648-.645 15.654 5.291 15.654 13.376 0 8.138-7.116 15.364-15.846 16.116-8.757.752-15.845-5.211-15.845-13.376-.028-.215-.028-.457-.028-.672"/><path fill="#ea4e64" d="M106.449 44.127c6.63 0 11.983 5.196 11.983 11.63s-5.353 11.63-11.983 11.63c-6.629 0-11.982-5.196-11.982-11.63 0-6.407 5.353-11.63 11.982-11.63"/><path fill="#ec6277" d="M106.475 44.127c1.747 0 3.411.343 4.908 1.003v.132c0 7.785-6.822 14.726-15.418 15.782-.943-1.637-1.498-3.51-1.498-5.516 0-6.307 5.352-11.4 12.008-11.4"/><path fill="#232323" d="M106.45 48.356c4.277 0 7.753 3.293 7.753 7.401 0 4.083-3.449 7.401-7.753 7.401-4.277 0-7.754-3.292-7.754-7.4 0-4.083 3.45-7.402 7.754-7.402"/><path fill="#323232" d="M106.427 48.356c1.574 0 3.037.454 4.252 1.228-1.491 4.777-5.411 8.833-10.436 10.755a7.38 7.38 0 0 1-1.546-4.483c-.028-4.137 3.423-7.5 7.73-7.5"/><path fill="#fff" d="M97.992 46.947a4.925 4.925 0 0 1 4.934 4.933 4.925 4.925 0 0 1-4.934 4.934 4.925 4.925 0 0 1-4.934-4.934 4.925 4.925 0 0 1 4.934-4.934"/><path fill="#6f4bbb" d="M75.437 61.27c5.873-3.281 14.71 2.46 14.063 11.756-5.604-1.75-11.665-7.108-14.063-11.756"/><path fill="#a58dd4" d="M75.437 61.749c5.347.105 11.261 3.042 14.097 11.277-6.725-.734-12.99-5.717-14.097-11.277"/><path fill="#7d5dc2" d="M78.256 68.954c.8-.269 4.556-.188 4.86.214.358.483-.636 2.953-1.685 4.563-1.38-1.073-2.512-2.55-3.175-4.777"/><path fill="#fff" d="M76.846 68.249c.801-.269 4.556-.188 4.86.214.358.484-.636 2.953-1.685 4.563-1.38-1.073-2.512-2.55-3.175-4.777"/><path fill="#6f4bbb" d="M78.03 66.682c.256 5.325 7.438 10.457 14.249 8.553.37 1.545-.712 2.456-1.824 2.676-6.184.525-12.14-3.255-14.107-8.083-.57-1.325.057-2.98 1.681-3.146m-1.127 9.868c1.632 3.108 4.19 4.565 6.993 5.032-4 1.815-7.537-.605-6.993-5.031"/><path fill="#9478cf" d="M79.665 77.255c3.235 1.582 6.305 2.085 9.868 1.798-2.604 1.51-7.702 1.678-9.868-1.798"/><path fill="#5f3ea7" d="M107.155 25.805c-6.454-10.994-23.445-4.585-21.73 7.75 4.248-6.919 12.444-9.17 21.73-7.75"/><path fill="#6f4bbb" d="M107.154 26.367c-3.59-6.4-11.146-6.816-16.21-3.297-.027 1.496.402 2.577 1.179 3.436 4.1-2.05 9.458-2.882 15.031-.139m34.538 41.021c6.974 0 12.688 5.325 12.688 11.982s-5.714 11.982-12.688 11.982c-6.973 0-12.687-5.325-12.687-11.982s5.714-11.983 12.687-11.983"/><path fill="#9478cf" d="M141.693 68.797c5.846 0 10.572 4.59 10.572 10.22 0 5.658-4.726 10.22-10.572 10.22-5.847 0-10.573-4.589-10.573-10.22 0-5.63 4.754-10.22 10.573-10.22"/><path fill="#a58dd4" d="M141.705 68.797c4.31 0 8.024 2.413 9.839 5.908.397 5.547-6.522 9.624-11.144 7.71-3.402-1.803-5.756-5.325-5.756-9.347 0-.665.057-1.303.199-1.941a11.34 11.34 0 0 1 6.862-2.33"/><path fill="#2b3039" d="M137.494 77.497c-.492-1.453 5.13-3.276 5.649-1.823l5.567 16.142c.492 1.453-5.13 3.276-5.649 1.823z"/><path fill="#5f3ea7" d="M145.762 75.846c-2.264 1.364-4.137 2.702-5.479 5.185 1.929 2.293 4.473 3.549 7.269 3.221 2.264-2.784 1.09-5.977-1.79-8.406"/><path fill="#6f4bbb" d="M147.331 79.673c-.356-.846-1.008-1.644-1.838-2.418-1.838.967-3.349 2.007-4.506 3.506 1.275.097 3.261-.17 6.344-1.088"/><path fill="#5f3ea7" d="M147.876 82.894c-2.264 1.251-4.137 2.477-5.479 4.754 1.929 2.102 4.473 3.253 7.269 2.953 2.264-2.553 1.09-5.48-1.79-7.707"/><path fill="#6f4bbb" d="M149.446 86.012c-.317-.845-.896-1.641-1.634-2.413-1.634.965-2.977 2.002-4.005 3.498 1.133.12 2.898-.169 5.639-1.085"/><path fill="#5f3ea7" d="M136.068 83.439c2.118-.508 3.988-.829 6.271-.187.275 2.405-.413 4.596-2.2 5.986-2.971-.24-4.236-2.753-4.071-5.8"/><path fill="#6f4bbb" d="M137.431 86.419c-.392-.904-.588-1.937-.673-3.067 1.682-.452 3.224-.645 4.934-.226-.616.936-1.906 2.001-4.261 3.292"/><path fill="#393f4c" d="M131.705 39.225c-11.458.612-20.227 9.945-19.583 20.821s10.478 19.199 21.937 18.587c11.458-.611 20.227-9.945 19.583-20.82s-10.45-19.2-21.937-18.588"/><path fill="#d3e8ef" d="M131.86 42.043c-9.883.53-17.476 8.706-16.923 18.234.552 9.502 9.055 16.801 18.966 16.244 9.884-.531 17.476-8.706 16.924-18.235-.58-9.501-9.055-16.8-18.967-16.243"/><path fill="#fff" d="M146.698 67.387c1.892-2.662 2.923-5.873 2.723-9.293-.43-6.762-5.56-12.27-12.353-13.967a1990 1990 0 0 1-1.72 17.49c2.265.836 8.111 3.5 11.35 5.77m-15.046-23.942c-8.563.49-15.122 7.76-14.6 16.255.082 1.198.274 2.37.603 3.458-.027-.245-.055-.49-.055-.762-.548-9.857 7.026-18.298 16.961-18.87h.083c-.961-.082-1.976-.136-2.992-.082"/><path fill="#999" d="M117.728 67.977q.492.802 1.066 1.525l5.249-7.116 12.083 4.922 6.999-14.153 7.026 1.312c-.192-.643-.383-1.285-.629-1.9l-7.381-1.391-6.862 13.885-11.81-4.816z"/><path fill="#1ec185" d="M123.503 57.525c2.145-.105 3.97 1.371 4.086 3.322.116 1.95-1.507 3.61-3.652 3.716-2.144.106-3.97-1.37-4.086-3.321-.145-1.924 1.507-3.585 3.652-3.717"/><path fill="#ea4e64" d="M142.534 49.067c2.145-.106 3.971 1.37 4.087 3.321.116 1.95-1.507 3.611-3.652 3.717s-3.971-1.371-4.087-3.322c-.145-1.95 1.507-3.61 3.652-3.716"/><path fill="#ff893a" d="M135.486 62.459c2.144-.106 3.97 1.37 4.086 3.321.116 1.95-1.507 3.611-3.652 3.717s-3.971-1.37-4.086-3.321c-.145-1.951 1.507-3.612 3.652-3.717"/><path fill="#6f4bbb" d="M63.454 70.207c6.974 0 12.687 5.169 12.687 11.63s-5.713 11.63-12.687 11.63-12.687-5.169-12.687-11.63 5.713-11.63 12.687-11.63"/><path fill="#9478cf" d="M63.454 71.616c5.846 0 10.573 4.59 10.573 10.22 0 5.658-4.727 10.22-10.573 10.22s-10.573-4.589-10.573-10.22c0-5.63 4.754-10.22 10.573-10.22"/><path fill="#a58dd4" d="M63.466 71.616c4.31 0 8.024 2.293 9.84 5.612.396 5.27-6.523 9.144-11.145 7.326-3.402-1.713-5.756-5.06-5.756-8.88a8 8 0 0 1 .199-1.845 11.73 11.73 0 0 1 6.862-2.213"/><path fill="#eb5757" stroke="#fff" stroke-width="3" d="m41.686 49.508-2.621-2.987c-5.602-6.383-15.66-8.05-23.663-4.982C7.104 44.72 2.03 53.195 1.898 62.077v.001c-.105 6.66 2.324 11.533 6.31 15.206 4.042 3.722 9.752 6.27 16.25 8.044 9.924 2.71 21.256 3.52 30.555 4.185 2.925.209 5.65.404 8.066.639.129.012.245.032.341.05 1.576-2.846 3.256-5.688 4.94-8.54 4.12-6.968 8.271-13.993 11.02-21.269 3.883-10.276 4.806-20.71-1.415-31.524-1.964-3.414-6.257-6.073-11.23-7.336-4.962-1.26-10.203-1.027-13.856.886zm0 0 .006-3.974m-.006 3.974.006-3.974m0 0c.016-9.292 2.967-18.804 11.186-23.115z"/><path fill="#5f3ea7" d="M67.34 78.573c-2.236 1.325-4.085 2.624-5.409 5.037 1.904 2.227 4.415 3.446 7.174 3.128 2.235-2.704 1.076-5.806-1.766-8.165"/><path fill="#6f4bbb" d="M69.077 82.284c-.33-.928-.938-1.803-1.71-2.651-1.711 1.06-3.118 2.2-4.195 3.844 1.187.106 3.036-.186 5.905-1.193"/><path fill="#5f3ea7" d="M69.492 85.067c-2.235 1.326-4.084 2.625-5.409 5.037 1.904 2.227 4.415 3.447 7.175 3.129 2.235-2.705 1.076-5.806-1.766-8.166"/><path fill="#6f4bbb" d="M71.23 88.515c-.332-.928-.939-1.803-1.711-2.651-1.71 1.06-3.118 2.2-4.194 3.843 1.186.133 3.035-.185 5.905-1.192"/><path fill="#5f3ea7" d="M59.924 86.328c2.124-.504 4-.822 6.291-.186.276 2.386-.414 4.56-2.207 5.939-2.98-.24-4.25-2.731-4.084-5.753"/><path fill="#6f4bbb" d="M61.223 89.216c-.386-.742-.58-1.59-.662-2.517 1.656-.371 3.173-.53 4.856-.186-.607.768-1.876 1.643-4.194 2.703"/></svg>