<svg xmlns="http://www.w3.org/2000/svg" width="145" height="114" fill="none" viewBox="0 0 145 114"><path fill="#6f4bbb" d="m34.37 95.272 21.29.003.013 17.821-20.9-.003c-3.307-1.395-6.03-3.379-8.008-5.704.775-3.843 3.655-8.863 7.606-12.117"/><path fill="#7d5dc2" d="M35.604 96.76c-2.817 2.788-5.601 6.166-6.538 10.009 1.686 1.922 3.89 3.409 6.257 4.495l17.887.002-.01-14.504z"/><path fill="#9478cf" d="M30.685 102.837c-.55.743-1.585 3.749-1.65 3.935 1.686 1.922 3.891 3.41 6.257 4.495l9.527.001-.006-7.779a180 180 0 0 1-14.128-.652"/><path fill="#5f3ea7" d="M34.284 109.316c2.204.714 3.242 2.046 3.567 3.782l-7.68-.001c.518-1.488 1.975-3.316 4.113-3.781"/><path fill="#6f4bbb" d="M34.252 110.124c-1.199.31-2.203 1.208-2.85 2.231l2.884.001-.002-2.232z"/><path fill="#5f3ea7" d="M41.867 108.883c2.949.775 4.376 2.665 4.733 4.215l-10.239-.001c.68-1.643 2.752-3.842 5.506-4.214"/><path fill="#6f4bbb" d="M41.802 109.657c-1.62.279-3.207 1.364-4.146 2.696l4.213.001-.002-2.697zM81.189 95.27l-21.29-.003.014 17.82 20.9.003c3.304-1.394 6.025-3.377 8-5.701-.749-3.844-3.636-8.865-7.624-12.12"/><path fill="#7d5dc2" d="M79.99 96.758c2.822 2.79 5.611 6.168 6.554 10.011-1.684 1.921-3.886 3.409-6.251 4.493l-17.887-.002-.01-14.505z"/><path fill="#9478cf" d="M84.885 102.834c.551.744 1.59 3.75 1.655 3.936-1.684 1.921-3.886 3.408-6.25 4.493l-9.527-.001-.006-7.779a180 180 0 0 0 14.128-.649"/><path fill="#5f3ea7" d="M81.323 109.312c-2.203.712-3.239 2.045-3.561 3.78l7.679.001c-.52-1.487-1.979-3.316-4.118-3.781"/><path fill="#6f4bbb" d="M81.357 110.116c1.199.31 2.204 1.209 2.853 2.232h-2.884l-.002-2.232z"/><path fill="#5f3ea7" d="M73.742 108.878c-2.948.775-4.372 2.665-4.727 4.214l10.239.001c-.682-1.642-2.757-3.842-5.512-4.215"/><path fill="#6f4bbb" d="M73.776 109.652c1.62.28 3.209 1.364 4.15 2.697h-4.213l-.002-2.697z"/><path fill="#5f3ea7" d="M.878 100.763c.132 3.254.912 5.796 2.404 7.377 2.333-.185 4.308-2.665 5.214-4.803-1.363-2.263-4.021-3.287-7.618-2.574"/><path fill="#6f4bbb" d="M2.078 101.662c.066 1.891.586 3.844 1.657 5.27l.904-5.146c-.81-.186-1.686-.186-2.56-.124"/><path fill="#5f3ea7" d="M6.776 102.497c.229 2.914.62 5.487 2.534 8.091 3.434-.713 6.123-2.541 7.255-5.455-1.688-3.688-5.707-4.185-9.789-2.636"/><path fill="#6f4bbb" d="m9.796 109.35 2.296-6.479c-1.296-.248-2.755-.062-4.148.371.228 2.201.619 4.155 1.852 6.108"/><path fill="#5f3ea7" d="M18.05 104.884c.586 3.316 3.86 4.96 5.513 4.867.745-1.209 1.489-2.79 1.488-4.68l-1.427-1.147c-2.172-.404-4.472-.249-5.573.96"/><path fill="#6f4bbb" d="M22.98 108.635c.648-.93 1.069-2.356 1.132-3.72l-2.334-.373z"/><path fill="#6f4bbb" d="m25.063 60.425.033 44.611c-8.07.96-17.471.649-24.217-4.312.127-4.154.545-8.216 1.32-12.09 1.454-7.007 4.204-13.393 8.966-18.632 4.21-4.618 8.422-6.819 13.898-9.577"/><path fill="#9478cf" d="M3.148 99.701c4.216 3.101 14.33 4.064 19.646 3.413l-.028-39.094C9.059 70.994 3.623 83.86 3.148 99.701"/><path fill="#a58dd4" d="M3.15 99.705c2.14 1.581 5.772 2.573 9.566 3.132.544-9.952.468-24.927-1.869-28.896-5.085 6.913-7.38 15.75-7.698 25.763"/><path fill="#9478cf" d="M12.7 93.07c1.782.001 3.209 1.365 3.21 3.07s-1.424 3.069-3.206 3.068-3.21-1.364-3.21-3.069c-.002-1.705 1.423-3.068 3.206-3.068"/><path fill="#6f4bbb" d="M20.297 25.624c-.945-5.796.09-8.803 1.318-14.104 3.859 3.07 6.323 5.271 11.024 7.535.936-5.611 3.006-10.911 6.017-15.87L40.436.27C47.31 5.23 53.179 9.2 57.72 15.772 62.253 9.202 68.116 5.234 74.983.276l1.785 2.914c3.017 4.96 5.096 10.26 6.04 15.872 4.697-2.263 7.158-4.463 11.013-7.531 1.268 5.27 2.275 8.277 1.34 14.104l8.492 2.233c-1.67 21.203-3.374 39.275-5.53 60.477-.289 2.914-.61 5.859-.933 8.772-.096.837-1.165 2.356-5.702 2.386-22.166 1.423-45.37 1.42-67.507-.01-4.537-.062-5.608-1.55-5.705-2.387a834 834 0 0 1-.947-8.927 1414 1414 0 0 1-.392-3.658c-1.86-18.91-3.69-37.757-5.227-56.697l8.49-2.23h.097z"/><path fill="#9478cf" d="M41.376 4.703c-3.658 5.951-5.695 12.244-6.079 18.753-3.76-1.364-8.04-3.597-11.736-6.48-.744 3.162-.578 7.285.429 10.88a159 159 0 0 0-8.878 2.2c1.57 19.467 3.043 38.934 5.066 58.34.196 1.921.62 6.075.849 7.997.81.434 2.496.435 3.176.466a528 528 0 0 0 67.15.01c.714-.063 2.366-.062 3.176-.465.226-1.891.644-6.138.837-7.998 1.963-19.435 3.439-38.902 4.98-58.338-2.885-.806-5.77-1.52-8.882-2.202 1.002-3.596 1.161-7.718.414-10.88-3.66 2.913-7.97 5.113-11.728 6.477-.393-6.479-2.44-12.803-6.106-18.755-7.45 5.393-12.34 9.298-16.321 17.109-4.025-7.812-8.889-11.719-16.38-17.114z"/><path fill="#a58dd4" d="M41.386 4.703c.557 8.65 2.833 18.26 7.115 22.292-5.706-.59-8.753-1.242-13.164-3.536-3.793-1.365-8.074-3.598-11.772-6.481 1.982 5.704 3.897 9.766 7.823 13.735-3.34-.063-5.253-1.117-7.393-2.854a160 160 0 0 0-8.88 2.2c1.57 19.47 3.042 38.94 5.066 58.348.196 1.922.62 6.077.849 7.999.81.434 2.496.434 3.177.465A527 527 0 0 0 57.79 97.93l-.008-11.595c-17.31 1.3-33.148-24.806-14.974-41.949l-3.63 1.922c-.456-2.76.45-6.2 1.647-8.99 2.362-5.426 8.648-9.455 16.914-10.415l-.004-5.116c-4.025-7.813-8.858-11.72-16.35-17.084"/><path fill="#7d5dc2" d="M84.077 30.701c3.886-3.967 5.828-8.059 7.8-13.763.748 3.162.59 7.285-.413 10.881-2.138 1.767-4.05 2.82-7.387 2.882m-6.581-1.613c1.945 0 3.501 1.52 3.503 3.349.001 1.86-1.586 3.348-3.498 3.347-1.945 0-3.502-1.52-3.503-3.348-.001-1.83 1.586-3.348 3.498-3.348m12.808 7.566c1.329 0 2.432 1.054 2.433 2.325s-1.1 2.325-2.43 2.325c-1.329 0-2.431-1.054-2.432-2.325-.001-1.302 1.068-2.325 2.429-2.325m-23.31-9.706c4.274-3.999 6.536-13.608 7.08-22.288 3.668 5.952 5.714 12.246 6.108 18.756-4.439 2.293-7.485 2.944-13.189 3.532"/><path fill="#9478cf" d="M25.987 33.969c3.177 0 5.772 2.48 5.774 5.519.002 3.038-2.59 5.518-5.766 5.517s-5.771-2.48-5.774-5.519c-.002-3.038 2.59-5.518 5.766-5.517m-3.715 16.926c1.264 0 2.302.993 2.303 2.202s-1.036 2.2-2.3 2.2-2.302-.992-2.303-2.201 1.036-2.201 2.3-2.2"/><path fill="#d3e8ef" d="M58.12 36.98c13.71.001 24.833 10.635 24.842 23.747s-11.098 23.742-24.806 23.74S33.324 73.832 33.315 60.72 44.413 36.977 58.12 36.98"/><path fill="#fff" d="M33.963 55.325c2.164-8.926 9.612-15.93 19.01-17.82 10.239-.742 18.54 6.109 18.547 15.439.007 9.392-8.412 17.729-18.75 18.595-10.369.867-18.768-6.016-18.775-15.439-.032-.248-.032-.527-.032-.775"/><path fill="#ea4e64" d="M65.776 51.61c7.746.001 14.005 5.984 14.01 13.393.006 7.408-6.244 13.39-13.99 13.388-7.745 0-14.004-5.984-14.01-13.392-.005-7.378 6.245-13.39 13.99-13.39"/><path fill="#ec6277" d="M65.777 51.61c2.041 0 3.986.404 5.737 1.179v.155c.007 9.144-7.96 17.295-18.005 18.534-1.103-1.922-1.753-4.123-1.755-6.48C51.75 57.59 58 51.609 65.777 51.61"/><path fill="#232323" d="M65.78 56.322c5.022 0 9.109 3.876 9.112 8.711.004 4.805-4.044 8.71-9.1 8.71-5.023-.001-9.11-3.877-9.113-8.712-.003-4.805 4.045-8.71 9.1-8.71"/><path fill="#323232" d="M65.78 56.322c1.847 0 3.565.527 4.991 1.426-1.746 5.549-6.344 10.26-12.24 12.49-1.136-1.456-1.818-3.285-1.82-5.207-.035-4.805 4.013-8.71 9.068-8.71"/><path fill="#fff" d="M55.865 54.988c3.176 0 5.738 2.45 5.74 5.487s-2.556 5.486-5.732 5.486-5.738-2.45-5.74-5.488c-.002-3.037 2.556-5.486 5.732-5.485"/><path fill="#6f4bbb" d="M28.952 71.61c7.062-3.718 17.696 2.793 16.926 13.331-6.742-1.984-14.038-8.06-16.926-13.33"/><path fill="#a58dd4" d="M28.951 71.61c6.417.126 13.516 3.598 16.926 13.331-8.07-.869-15.592-6.759-16.926-13.33"/><path fill="#7d5dc2" d="M32.294 80.417c.94-.31 5.347-.217 5.704.248.422.558-.743 3.41-1.973 5.27-1.621-1.24-2.951-2.946-3.73-5.519"/><path fill="#fff" d="M30.998 79.393c.94-.31 5.347-.216 5.704.249.422.558-.743 3.41-1.973 5.27-1.621-1.241-2.951-2.946-3.73-5.519"/><path fill="#6f4bbb" d="M32.323 77.937c.296 5.982 8.467 11.748 16.21 9.61.422 1.736-.808 2.759-2.072 3.007-7.031.587-13.807-3.66-16.047-9.084-.65-1.488.062-3.347 1.91-3.533m-1.321 11.224c1.947 3.503 4.994 5.146 8.332 5.673-4.762 2.045-8.977-.683-8.332-5.673"/><path fill="#9478cf" d="M34.21 89.997c3.825 2.045 7.454 2.696 11.666 2.325-3.077 1.952-9.103 2.168-11.666-2.325"/><path fill="#5f3ea7" d="M66.71 30.244c-7.688-12.708-27.902-5.304-25.85 8.953 5.048-7.995 14.8-10.598 25.85-8.953"/><path fill="#6f4bbb" d="M66.71 30.24c-4.346-7.157-13.483-7.623-19.604-3.689-.032 1.673.488 2.882 1.428 3.842 4.956-2.292 11.435-3.22 18.177-.153m40.217 48.342c8.07.002 14.686 6.202 14.691 13.951s-6.6 13.948-14.67 13.947-14.685-6.202-14.69-13.95c-.006-7.75 6.6-13.949 14.669-13.948"/><path fill="#9478cf" d="M106.932 80.629c6.935.001 12.546 5.333 12.551 11.874.005 6.571-5.598 11.871-12.533 11.87S94.404 99.039 94.4 92.499s5.629-11.871 12.532-11.87"/><path fill="#a58dd4" d="M106.933 80.627c4.926 0 9.173 2.698 11.25 6.604.458 6.199-7.445 10.754-12.729 8.615-3.89-2.016-6.583-5.953-6.586-10.447 0-.744.064-1.457.225-2.17a13.14 13.14 0 0 1 7.84-2.602"/><path fill="#2b3039" d="M104.953 88.946c.009-1.803 7.017-1.625 7.038.189l.022 20.068c-.009 1.802-7.016 1.624-7.038-.189z"/><path fill="#5f3ea7" d="M111.408 88.75c-2.623 1.55-4.794 3.068-6.347 5.888 2.238 2.605 5.188 4.03 8.429 3.66 2.622-3.162 1.258-6.789-2.082-9.548"/><path fill="#6f4bbb" d="M113.455 93.09c-.389-1.086-1.103-2.109-2.011-3.1-2.008 1.239-3.66 2.571-4.922 4.493 1.393.124 3.564-.217 6.933-1.394"/><path fill="#5f3ea7" d="M113.94 96.348c-2.624 1.55-4.794 3.068-6.348 5.888 2.238 2.604 5.188 4.031 8.429 3.659 2.622-3.161 1.259-6.788-2.081-9.547"/><path fill="#6f4bbb" d="M115.986 100.376c-.39-1.085-1.104-2.108-2.012-3.1-2.008 1.24-3.659 2.573-4.922 4.494 1.394.155 3.564-.217 6.934-1.394"/><path fill="#5f3ea7" d="M100.267 97.091c2.495-.588 4.699-.96 7.389-.216.326 2.79-.482 5.332-2.587 6.943-3.501-.279-4.994-3.193-4.802-6.727"/><path fill="#6f4bbb" d="M101.796 100.469c-.454-.868-.682-1.86-.78-2.945 1.944-.433 3.726-.619 5.703-.216-.712.899-2.202 1.921-4.923 3.161"/><path fill="#232323" d="M105.835 20.578C85.8 21.652 70.479 38.097 71.62 57.26s18.347 33.833 38.382 32.758 35.356-17.519 34.215-36.683-18.297-33.833-38.382-32.758"/><path fill="#fff" d="M106.131 24.888c-17.537.935-30.998 15.365-30.006 32.187.992 16.774 16.09 29.662 33.676 28.68 17.537-.934 30.998-15.364 30.006-32.186-1.041-16.774-16.09-29.662-33.676-28.68"/><path fill="#232323" fill-rule="evenodd" d="M119.015 33.549c.562-2.646 4.325-2.685 4.945-.05l.026.123.059.246a7.58 7.58 0 0 0 6.109 5.688c2.759.463 2.784 4.42.031 4.917a7.575 7.575 0 0 0-6.047 5.812l-.074.323c-.584 2.642-4.344 2.65-4.942.012l-.062-.278a7.52 7.52 0 0 0-6.097-5.767c-2.753-.46-2.777-4.41-.031-4.905a7.52 7.52 0 0 0 6.018-5.811l.043-.209zm2.438 22.479a5.97 5.97 0 0 1-4.039-1.647c-.238.16-.444.36-.61.592a54 54 0 0 1-4.935 5.72 56 56 0 0 1-4.28 3.913 56 56 0 0 1-4.328-3.86 56 56 0 0 1-3.914-4.276 56 56 0 0 1 3.86-4.329 55 55 0 0 1 5.657-5.006q.315-.23.54-.547a5.92 5.92 0 0 1-1.955-4.302c-3.113-2.151-6.189-3.74-8.93-4.56-2.97-.889-6.448-1.11-8.712 1.179-1.467 1.488-1.855 3.5-1.73 5.412.126 1.914.78 4.015 1.764 6.145a38.6 38.6 0 0 0 3.568 6.045 38.6 38.6 0 0 0-3.492 6.083c-.956 2.142-1.585 4.251-1.686 6.167-.102 1.912.309 3.92 1.797 5.39 1.488 1.466 3.5 1.855 5.411 1.729 1.912-.13 4.015-.78 6.145-1.764 1.923-.888 3.966-2.095 6.046-3.568 2.095 1.447 4.15 2.629 6.086 3.492 2.139.957 4.251 1.585 6.167 1.687 1.912.102 3.916-.312 5.386-1.8 2.264-2.29 1.999-5.765 1.074-8.723-.884-2.82-2.588-5.985-4.89-9.172M97.16 42.266c1.823.544 4.001 1.586 6.362 3.101a61.6 61.6 0 0 0-7.085 7.174 32 32 0 0 1-2.294-4.069c-.843-1.827-1.26-3.342-1.337-4.47-.073-1.134.202-1.59.375-1.765.282-.286 1.329-.76 3.979.029m-2.917 22.263c.574-1.284 1.327-2.663 2.244-4.097a61.7 61.7 0 0 0 7.177 7.084 32 32 0 0 1-4.066 2.298c-1.828.842-3.342 1.26-4.47 1.336-1.137.074-1.59-.202-1.765-.374-.175-.173-.456-.63-.397-1.761.063-1.129.458-2.648 1.28-4.486zm21.405 5.184a31 31 0 0 1-4.09-2.246 62 62 0 0 0 7.078-7.174c1.541 2.345 2.61 4.509 3.177 6.326.826 2.636.365 3.692.082 3.978-.176.175-.629.456-1.761.393-1.131-.056-2.648-.457-4.486-1.277m-11.27-13.275a3.161 3.161 0 0 1 5.381-2.268 3.16 3.16 0 1 1-5.381 2.268" clip-rule="evenodd"/><path fill="#ea4e64" fill-rule="evenodd" d="M119.011 33.548c.562-2.645 4.325-2.685 4.945-.05l.026.123.059.247a7.58 7.58 0 0 0 6.109 5.688c2.759.463 2.784 4.42.031 4.917a7.57 7.57 0 0 0-6.047 5.811l-.074.323c-.583 2.643-4.344 2.65-4.942.012l-.062-.278a7.52 7.52 0 0 0-6.097-5.767c-2.753-.46-2.777-4.41-.031-4.904a7.52 7.52 0 0 0 6.019-5.812l.042-.208z" clip-rule="evenodd"/></svg>