<svg xmlns="http://www.w3.org/2000/svg" width="36" height="30" fill="none" viewBox="0 0 36 30"><path fill="#6f4bbb" d="M9.819 28.301h6.17l.004 5.242H9.935c-.958-.41-1.748-.994-2.321-1.678.225-1.13 1.06-2.607 2.205-3.564"/><path fill="#7d5dc2" d="M10.176 28.739c-.816.82-1.623 1.813-1.895 2.944.489.565 1.128 1.002 1.814 1.322h5.184l-.003-4.266z"/><path fill="#6f4bbb" d="M23.389 28.3h-6.171l.004 5.24 6.058.002c.957-.41 1.746-.994 2.318-1.677-.216-1.13-1.053-2.607-2.21-3.565"/><path fill="#7d5dc2" d="M23.041 28.738c.818.82 1.626 1.814 1.9 2.944-.488.566-1.127 1.003-1.812 1.322h-5.185l-.003-4.267z"/><path fill="#5f3ea7" d="M.11 29.916c.039.957.265 1.705.697 2.17.676-.055 1.249-.784 1.511-1.413-.395-.666-1.165-.967-2.208-.757"/><path fill="#5f3ea7" d="M1.82 30.426c.066.857.18 1.614.734 2.38.996-.21 1.775-.747 2.103-1.604-.49-1.085-1.654-1.231-2.837-.776"/><path fill="#6f4bbb" d="m7.12 18.052.01 13.121c-2.34.282-5.064.19-7.02-1.268a22 22 0 0 1 .383-3.556c.421-2.061 1.219-3.94 2.599-5.48 1.22-1.359 2.441-2.006 4.028-2.817"/><path fill="#9478cf" d="M.768 29.604c1.222.912 4.154 1.195 5.695 1.004l-.009-11.499C2.481 21.16.906 24.944.768 29.604"/><path fill="#a58dd4" d="M.768 29.605c.62.465 1.673.757 2.773.921.158-2.927.136-7.331-.542-8.499C1.525 24.061.86 26.66.768 29.605"/><path fill="#9478cf" d="M3.537 27.654c.516 0 .93.401.93.902a.91.91 0 0 1-.929.903.914.914 0 0 1-.93-.903c-.001-.501.412-.902.929-.902"/><path fill="#6f4bbb" d="M5.738 7.816c-.273-1.705.027-2.589.383-4.148 1.118.903 1.832 1.55 3.195 2.216.271-1.65.871-3.21 1.744-4.668l.516-.857c1.992 1.46 3.694 2.627 5.01 4.56C17.9 2.986 19.6 1.819 21.59.36l.517.857c.875 1.459 1.477 3.018 1.75 4.668 1.362-.665 2.076-1.312 3.193-2.215.367 1.55.66 2.434.388 4.148l2.462.657c-.484 6.236-.978 11.551-1.603 17.788-.084.857-.177 1.723-.27 2.58-.029.246-.338.692-1.653.701a152 152 0 0 1-19.567-.002c-1.316-.019-1.626-.456-1.654-.703-.095-.875-.19-1.75-.275-2.625l-.113-1.076c-.54-5.562-1.07-11.105-1.515-16.676l2.46-.656h.028z"/><path fill="#9478cf" d="M11.849 1.663c-1.06 1.75-1.651 3.601-1.762 5.516a12.8 12.8 0 0 1-3.402-1.906c-.216.93-.168 2.142.124 3.2-.902.2-1.737.41-2.573.647.455 5.726.882 11.451 1.468 17.159.057.565.18 1.787.246 2.352.235.128.724.128.921.137 6.463.42 13.001.421 19.464.003.206-.019.686-.019.92-.137.066-.556.187-1.805.243-2.352.569-5.717.997-11.442 1.443-17.159a46 46 0 0 0-2.574-.647c.29-1.058.336-2.27.12-3.2-1.061.857-2.31 1.504-3.4 1.905-.114-1.906-.707-3.766-1.77-5.516-2.159 1.586-3.576 2.734-4.73 5.032-1.167-2.298-2.577-3.447-4.748-5.034z"/><path fill="#a58dd4" d="M11.852 1.663c.162 2.544.821 5.37 2.063 6.556-1.654-.173-2.538-.365-3.816-1.04a12.7 12.7 0 0 1-3.412-1.906c.574 1.678 1.13 2.873 2.267 4.04-.968-.018-1.522-.329-2.143-.84-.902.201-1.738.41-2.574.648.455 5.726.882 11.453 1.469 17.16.056.566.18 1.788.246 2.354.235.127.723.127.92.136 3.233.21 6.484.311 9.735.312l-.002-3.41c-5.017.382-9.608-7.297-4.34-12.338l-1.053.565c-.132-.812.13-1.824.478-2.645.684-1.595 2.507-2.78 4.902-3.063V6.688c-1.167-2.298-2.568-3.447-4.74-5.025"/><path fill="#7d5dc2" d="M24.225 9.31c1.127-1.167 1.69-2.37 2.261-4.048.217.93.171 2.143-.12 3.2-.619.52-1.173.83-2.14.848m-1.907-.474c.564 0 1.015.446 1.015.984 0 .547-.46.985-1.014.985-.563 0-1.015-.447-1.015-.985s.46-.985 1.014-.984m3.712 2.225a.7.7 0 0 1 .705.684.7.7 0 0 1-.704.683.7.7 0 0 1-.705-.684c0-.382.31-.683.704-.683m-6.756-2.855c1.239-1.176 1.894-4.002 2.052-6.555 1.063 1.75 1.656 3.601 1.77 5.516-1.286.675-2.17.866-3.822 1.039"/><path fill="#9478cf" d="M7.388 10.27c.92 0 1.673.73 1.674 1.624 0 .893-.75 1.623-1.671 1.623s-1.673-.73-1.674-1.624c0-.893.75-1.623 1.671-1.623m-1.077 4.98a.66.66 0 0 1 .668.647.66.66 0 0 1-.667.648.66.66 0 0 1-.667-.648c0-.355.3-.647.666-.647"/><path fill="#d3e8ef" d="M16.703 11.156c3.973 0 7.197 3.128 7.2 6.985.003 3.856-3.217 6.983-7.19 6.982s-7.198-3.128-7.2-6.985c-.003-3.856 3.216-6.983 7.19-6.982"/><path fill="#fff" d="M9.7 16.552c.627-2.626 2.786-4.686 5.51-5.241 2.968-.219 5.374 1.796 5.376 4.54.002 2.763-2.438 5.215-5.435 5.47-3.005.255-5.44-1.77-5.442-4.541a2 2 0 0 1-.01-.228"/><path fill="#ea4e64" d="M18.922 15.46c2.244 0 4.059 1.76 4.06 3.938.002 2.18-1.81 3.939-4.055 3.938s-4.059-1.76-4.06-3.939c-.002-2.17 1.81-3.938 4.055-3.938"/><path fill="#ec6277" d="M18.922 15.46a4.05 4.05 0 0 1 1.663.346v.046c.002 2.69-2.308 5.087-5.22 5.45a3.86 3.86 0 0 1-.508-1.905c-.002-2.179 1.81-3.938 4.065-3.938"/><path fill="#232323" d="M18.922 16.845c1.456 0 2.64 1.14 2.642 2.562 0 1.413-1.173 2.562-2.638 2.562-1.456 0-2.64-1.14-2.641-2.563-.001-1.413 1.172-2.561 2.637-2.561"/><path fill="#323232" d="M18.922 16.845a2.7 2.7 0 0 1 1.447.42c-.506 1.631-1.84 3.017-3.548 3.673a2.53 2.53 0 0 1-.528-1.531c-.01-1.414 1.163-2.562 2.629-2.562"/><path fill="#fff" d="M16.049 16.453c.92 0 1.663.72 1.663 1.614.001.893-.74 1.613-1.661 1.613-.92 0-1.663-.72-1.664-1.614 0-.893.741-1.613 1.662-1.613"/><path fill="#6f4bbb" d="M8.247 21.342c2.047-1.094 5.13.821 4.906 3.92-1.954-.583-4.069-2.37-4.906-3.92"/><path fill="#a58dd4" d="M8.247 21.342c1.86.037 3.918 1.058 4.906 3.92-2.339-.255-4.52-1.987-4.906-3.92"/><path fill="#7d5dc2" d="M9.216 23.932c.272-.091 1.55-.064 1.653.073.123.164-.215 1.003-.572 1.55-.47-.365-.855-.866-1.08-1.623"/><path fill="#fff" d="M8.84 23.63c.273-.09 1.55-.063 1.654.074.122.164-.215 1.003-.572 1.55-.47-.365-.855-.866-1.081-1.623"/><path fill="#6f4bbb" d="M9.225 23.202c.086 1.76 2.454 3.456 4.698 2.827.123.51-.234.811-.6.884-2.038.173-4.002-1.076-4.651-2.671-.189-.438.018-.985.553-1.04m-.383 3.302c.564 1.03 1.447 1.513 2.415 1.668-1.38.602-2.602-.2-2.415-1.668"/><path fill="#9478cf" d="M9.771 26.75c1.109.601 2.16.793 3.382.684-.892.574-2.639.637-3.382-.684"/><path fill="#5f3ea7" d="M19.193 9.175c-2.23-3.737-8.088-1.56-7.494 2.633 1.464-2.351 4.29-3.116 7.493-2.633"/><path fill="#6f4bbb" d="M19.192 9.174c-1.26-2.105-3.909-2.242-5.683-1.085-.009.492.142.847.414 1.13 1.437-.674 3.315-.947 5.269-.045M30.85 23.393c2.34 0 4.257 1.823 4.258 4.103s-1.913 4.102-4.252 4.102-4.256-1.824-4.258-4.103 1.913-4.103 4.252-4.103"/><path fill="#9478cf" d="M30.85 23.994c2.011 0 3.637 1.569 3.639 3.493.001 1.932-1.623 3.491-3.633 3.49s-3.637-1.568-3.638-3.492 1.632-3.491 3.633-3.49"/><path fill="#a58dd4" d="M30.85 23.994a3.67 3.67 0 0 1 3.261 1.942c.133 1.823-2.158 3.163-3.69 2.534-1.127-.593-1.907-1.75-1.908-3.073 0-.218.018-.428.065-.638a3.77 3.77 0 0 1 2.272-.765"/><path fill="#2b3039" d="M29.368 26.948c-.17-.501 1.765-1.13 1.944-.629l1.92 5.572c.17.501-1.765 1.13-1.944.629z"/><path fill="#5f3ea7" d="M32.148 26.383c-.76.456-1.39.902-1.84 1.732.649.766 1.504 1.185 2.443 1.076.76-.93.365-1.996-.603-2.808"/><path fill="#6f4bbb" d="M32.741 27.66c-.113-.32-.32-.62-.583-.913-.582.365-1.06.757-1.426 1.322.404.037 1.033-.064 2.01-.41"/><path fill="#5f3ea7" d="M32.882 28.617c-.76.456-1.39.903-1.84 1.732.649.766 1.504 1.186 2.443 1.076.76-.93.365-1.996-.603-2.808"/><path fill="#6f4bbb" d="M33.475 29.802c-.113-.319-.32-.62-.583-.911-.582.364-1.061.756-1.427 1.321.404.046 1.033-.063 2.01-.41"/><path fill="#5f3ea7" d="M28.919 28.836c.723-.173 1.361-.282 2.141-.063.095.82-.14 1.568-.75 2.042-1.014-.082-1.447-.94-1.391-1.979"/><path fill="#6f4bbb" d="M29.362 29.83a2.3 2.3 0 0 1-.226-.866c.563-.128 1.08-.182 1.653-.064-.207.264-.639.565-1.427.93"/><path fill="#393f4c" d="M27.465 13.745c-3.842.209-6.78 3.408-6.561 7.137s3.518 6.583 7.36 6.374c3.841-.21 6.78-3.409 6.56-7.138-.218-3.728-3.508-6.582-7.36-6.373"/><path fill="#d3e8ef" d="M27.521 14.583c-3.363.182-5.944 2.99-5.753 6.263.19 3.264 3.085 5.771 6.457 5.58 3.363-.182 5.944-2.99 5.754-6.262-.2-3.264-3.086-5.772-6.458-5.58"/><path fill="#fff" d="M32.515 23.436c.62-.93.957-2.052.89-3.246-.143-2.362-1.826-4.286-4.053-4.879a735 735 0 0 1-.56 6.11c.743.291 2.66 1.221 3.723 2.015m-5.086-8.196c-2.93.163-5.174 2.597-4.993 5.442.028.4.094.793.207 1.158a2 2 0 0 1-.019-.256c-.19-3.3 2.4-6.126 5.8-6.317h.029a8 8 0 0 0-1.024-.027"/><path fill="#999" d="M22.644 23.572q.17.273.367.52l1.801-2.425 4.153 1.677 2.4-4.821 2.415.447a7 7 0 0 0-.217-.647l-2.536-.475-2.354 4.73-4.058-1.64z"/><path fill="#1ec185" d="M24.634 20.082c.695-.037 1.287.474 1.325 1.148.038.675-.488 1.25-1.183 1.286s-1.287-.474-1.325-1.15c-.047-.665.488-1.239 1.183-1.285"/><path fill="#ea4e64" d="M31.12 16.97c.696-.036 1.288.475 1.326 1.15s-.488 1.249-1.183 1.285-1.287-.474-1.325-1.149c-.048-.675.487-1.249 1.183-1.285"/><path fill="#338eef" d="M28.738 21.75c.695-.036 1.287.474 1.325 1.149s-.488 1.249-1.183 1.285c-.695.037-1.287-.474-1.325-1.149-.048-.674.487-1.249 1.183-1.285"/></svg>