<svg xmlns="http://www.w3.org/2000/svg" width="30" height="23" fill="none" viewBox="0 0 30 23"><g clip-path="url(#a)"><path fill="#7eaaba" d="M3.473 14.248c1.62.218 3.036-.146 4.189-1.183l1.926.103-1.05 3.093C7.37 18.115 5.676 18.51 3.94 18.392z"/><path fill="#d3e8ef" d="m4.188 14.948.322 2.831c1.444-.014 2.597-.482 3.458-1.795l.76-2.218-.847-.044c-1.08.89-2.335 1.27-3.693 1.226"/><path fill="#fff" d="m4.188 14.948.19 1.678c1.985-.233 3.532-1.05 4.335-2.86l-.847-.044c-1.08.89-2.32 1.27-3.678 1.226"/><path fill="#7eaaba" d="M3.94 11.825a3.29 3.29 0 0 1 3.284 3.284 3.29 3.29 0 0 1-3.284 3.283A3.28 3.28 0 0 1 .657 15.11a3.29 3.29 0 0 1 3.283-3.284"/><path fill="#d3e8ef" d="M3.94 12.467a2.625 2.625 0 0 0-2.627 2.627A2.625 2.625 0 0 0 3.94 17.72a2.625 2.625 0 0 0 2.627-2.627 2.625 2.625 0 0 0-2.627-2.627"/><path fill="#fff" d="M3.94 12.467a2.61 2.61 0 0 0-2.16 1.124 2.645 2.645 0 0 0 2.627 2.466c.89 0 1.693-.438 2.16-1.124a2.635 2.635 0 0 0-2.627-2.466"/><path fill="#7eaaba" d="M3.605 12.307a2.45 2.45 0 0 1 2.451 2.451 2.45 2.45 0 0 1-2.451 2.452 2.46 2.46 0 0 1-2.452-2.466 2.445 2.445 0 0 1 2.452-2.437"/><path fill="#7f3e13" d="M3.43 11.65c1.357 0 2.466 1.109 2.466 2.451a2.473 2.473 0 0 1-2.467 2.467A2.473 2.473 0 0 1 .963 14.1a2.46 2.46 0 0 1 2.467-2.45"/><path fill="#b85a1b" d="M3.663 12.584a1.956 1.956 0 1 0 0 3.911 1.956 1.956 0 0 0 0-3.911"/><path fill="#7f3e13" d="M2.189 9.665c.044-1.372 2.087-1.46 2.145 0 .599-1.007 2.481-.452 1.897 1.124.03.131.059.248.073.38 1.022.058 1.358 1.648-.043 2.144a3 3 0 0 1-.555 1.124c-1.197 1.036-1.59.19-2.233-.51-.627.014-2.335-.424-1.853 1.181-1.095-.7-1.795-2.116-1.27-4.188-.73-1.678 1.212-2.306 1.839-1.255"/><path fill="#b85a1b" d="M1.007 11.154c-.248 1.007-.263 2.145.452 2.962 1.007 1.153 3.05 1.095 3.839-.35.423-.788.394-1.766.218-2.627-1.503-.321-3.02-.263-4.509.015"/><path fill="#e1762f" d="M1.007 11.154c-.248 1.007-.263 2.145.452 2.962.467.526 1.124.788 1.81.803V10.92c-.759 0-1.503.088-2.262.234"/><path fill="#7f3e13" d="M2 11.927c-.147.555-.147 1.197.262 1.65.555.641 1.693.612 2.13-.205.234-.438.22-.978.118-1.46-.832-.175-1.679-.146-2.51.015"/><path fill="#b85a1b" d="M3.254 10.38a.58.58 0 0 0 .57-.569.58.58 0 0 0-.57-.57zm2.058-.715a.58.58 0 0 1 .57.57.58.58 0 0 1-.57.568.58.58 0 0 1-.569-.569.57.57 0 0 1 .57-.569"/><path fill="#e1762f" d="M1.313 9.723a.58.58 0 0 1 .57.57.58.58 0 0 1-.57.569.58.58 0 0 1-.569-.57.57.57 0 0 1 .57-.569m1.941.657V9.256a.58.58 0 0 0-.569.57c0 .306.263.569.57.554"/><path fill="#b85a1b" d="M5.954 11.723a.58.58 0 0 1 .57.569.58.58 0 0 1-.57.57.58.58 0 0 1-.569-.57.56.56 0 0 1 .57-.57"/><path fill="#7eaaba" d="M25.48 18.436c-.13-1.708-.904-2.934-2.422-3.59l.307-1.182 2.451-.657c2.131.642 2.977 2.014 3.386 3.721z"/><path fill="#fff" d="m25.991 17.502 2.437-1.139c-.423-1.43-1.138-2.349-2.641-2.714l-1.912.51-.087.322c1.182.686 1.897 1.722 2.203 3.02"/><path fill="#7eaaba" d="M23.117 18.728a3.18 3.18 0 0 1 2.028-4.028 3.18 3.18 0 0 1 4.028 2.028 3.18 3.18 0 0 1-2.029 4.028 3.18 3.18 0 0 1-4.027-2.028"/><path fill="#d3e8ef" d="M23.642 18.553a2.63 2.63 0 0 0 3.327 1.678 2.63 2.63 0 0 0 1.678-3.328 2.63 2.63 0 0 0-3.327-1.678 2.63 2.63 0 0 0-1.678 3.328"/><path fill="#fff" d="M28.75 17.37c-.015-.16-.059-.306-.102-.466a2.63 2.63 0 0 0-3.328-1.679c-.423.146-.788.38-1.08.672.015.16.059.306.102.467a2.637 2.637 0 0 0 3.328 1.678c.438-.132.802-.38 1.08-.672"/><path fill="#7f3e13" d="M22.518 19.545a2.996 2.996 0 0 1 1.912-3.794 2.996 2.996 0 0 1 3.794 1.911 2.996 2.996 0 0 1-1.912 3.795 2.996 2.996 0 0 1-3.794-1.912"/><path fill="#b85a1b" d="M23.13 19.355a2.37 2.37 0 0 1 1.504-2.992 2.37 2.37 0 0 1 2.992 1.504 2.37 2.37 0 0 1-1.503 2.991 2.363 2.363 0 0 1-2.992-1.503"/><path fill="#e1762f" d="M23.029 18.232a2.4 2.4 0 0 1 1.605-1.883 2.37 2.37 0 0 1 3.109 2.087c-1.533.978-3.532.773-4.714-.204"/><path fill="#7f3e13" d="M12.113.208c1.196 0 2.174 1.036 2.174 2.292 0 1.27-.963 2.29-2.174 2.29-1.197 0-2.175-1.035-2.175-2.29S10.916.208 12.113.208"/><path fill="#b85a1b" d="M12.113.836c-.89 0-1.533.788-1.533 1.664 0 .86.642 1.663 1.533 1.663s1.532-.788 1.532-1.663c0-.847-.642-1.664-1.532-1.664"/><path fill="#63300f" d="M12.113 1.478c-.555 0-.905.51-.905 1.036 0 .51.365 1.036.905 1.036.554 0 .905-.51.905-1.036 0-.51-.365-1.036-.905-1.036"/><path fill="#7f3e13" d="M21.336.208c1.197 0 2.175 1.036 2.175 2.292 0 1.27-.964 2.29-2.175 2.29-1.197 0-2.174-1.035-2.174-2.29S20.139.208 21.336.208"/><path fill="#b85a1b" d="M21.336.836c-.89 0-1.532.788-1.532 1.664 0 .86.642 1.663 1.532 1.663s1.532-.788 1.532-1.663c0-.847-.642-1.664-1.532-1.664"/><path fill="#4f2800" d="M21.336 1.478c-.555 0-.905.51-.905 1.036 0 .51.365 1.036.905 1.036.555 0 .905-.51.905-1.036 0-.51-.365-1.036-.905-1.036"/><path fill="#7f3e13" d="M17.6 1.288a.685.685 0 1 1 .002 1.37.685.685 0 0 1-.002-1.37m-1.751 0a.685.685 0 1 1 .001 1.37.685.685 0 0 1-.001-1.37"/><path fill="#7f3e13" d="M24.736 4.149v4.276l.044.014a1.58 1.58 0 0 1 1.021 1.489v3.064l-9.077 2.992-9.077-2.919V9.928c0-.672.394-1.24 1.022-1.489l.043-.014V4.134c0-2.948 16.024-2.948 16.024.015"/><path fill="#b85a1b" d="M9.442 4.31v4.61l-.38.147a1.04 1.04 0 0 0-.67.992v3.24l8.347 2.685 8.348-2.743v-3.182c0-.452-.263-.832-.672-.992l-.38-.146V4.309c-.014-2.189-14.578-2.189-14.593 0"/><path fill="#e1762f" d="M9.442 4.31v4.61l-.38.147a1.04 1.04 0 0 0-.67.992v3.24l8.347 2.685v-1.751c-2.89.014-5.78-1.883-5.02-5.633h5.02V2.675c-3.649 0-7.297.554-7.297 1.634"/><path fill="#e5895b" d="M11.325 7.622h10.843c1.532 8.143-12.507 8.085-10.843 0"/><path fill="#e5895b" d="M11.85 8.264c-.146 1.255.117 2.466 1.05 3.415.993.992 2.482 1.416 3.853 1.401 1.328-.015 2.73-.423 3.707-1.357.978-.949 1.284-2.175 1.153-3.459z"/><path fill="#fad395" d="M18.549 12.058c.73.949 2.86.555 2.218-1.444z"/><path fill="#4f2800" d="M17.877 11.854c.817 1.05 3.474.423 2.86-1.853z"/><path fill="#fff" d="M20.329 10.103a.313.313 0 0 1 .38.233c.043.175-.044.35-.205.394a.313.313 0 0 1-.38-.233c-.043-.16.044-.35.205-.394m-1.737 1.211c.16-.044.321.059.38.234.043.175-.044.35-.205.394-.16.043-.32-.059-.38-.234-.043-.175.045-.35.205-.394"/><path fill="#ad6151" d="M19.658 12.263c.583-.19 1.08-.657 1.167-1.401-.467-.073-1.284.627-1.167 1.4"/><path fill="#fad395" d="M12.434 7.622h8.596c1.225 5.823-9.91 5.764-8.596 0"/><path fill="#4f2800" d="M16.724 10.935c.059-.35.19-.672.409-.963 1.036-.161 1.926-.95 1.649-2.35a6.2 6.2 0 0 0-2.043-.35L16.316 8.6z"/><path fill="#63300f" d="M16.724 10.935a2.2 2.2 0 0 0-.408-.963c-1.036-.161-1.927-.95-1.65-2.35a6.2 6.2 0 0 1 2.044-.35z"/><path fill="#ad6151" d="M15.207 7.826a6 6 0 0 1 3.05 0c.423 1.066-3.518 1.051-3.05 0"/><path fill="#fff" d="M15.09 4.864c.627 0 1.153.51 1.153 1.153 0 .627-.511 1.153-1.153 1.153a1.155 1.155 0 0 1-1.153-1.153c0-.628.51-1.153 1.153-1.153"/><path fill="#1b1d23" d="M15.177 5.272a.862.862 0 0 1 .001 1.722.863.863 0 0 1-.862-.86c0-.482.38-.862.861-.862"/><path fill="#fff" d="M18.388 4.864c-.628 0-1.153.51-1.153 1.153 0 .627.51 1.153 1.153 1.153.627 0 1.153-.511 1.153-1.153 0-.628-.51-1.153-1.153-1.153"/><path fill="#1b1d23" d="M18.315 5.272a.863.863 0 0 0-.86.861c0 .467.379.861.86.861a.86.86 0 0 0 .861-.86.87.87 0 0 0-.86-.862"/><path fill="#63300f" d="M15.922 4.499c-.92-.175-1.693-.015-2.379.423-.248-1.415 2.13-1.839 2.379-.423"/><path fill="#4f2800" d="M17.323 3.784c.92-.175 1.693-.015 2.378.423.249-1.416-2.116-1.824-2.378-.423"/><path fill="#7eaaba" d="M25.787 13.007v8.844c0 .584-.482 1.08-1.08 1.08H8.713c-.584 0-1.08-.482-1.08-1.08v-8.756l9.077 2.174z"/><path fill="#d3e8ef" d="m25.072 13.926-8.348 2.058L8.377 14v7.662c0 .306.233.54.54.54h15.63a.53.53 0 0 0 .54-.54z"/><path fill="#fff" d="m16.724 15.999-8.333-2v7.662c0 .306.234.54.54.54h7.808z"/><path fill="#036aab" d="M16.724 20.1h7.005v.934h-7.005zm0-1.941h7.005v.934h-7.005z"/><path fill="#0399ed" d="M16.725 21.048V20.1H9.718v.934h7.006zm-7.006-2.89h7.006v.95H9.718z"/><path fill="#fff" d="M12.565 17.546h.876v4.29h-.876z"/><path fill="#7eaaba" d="M10.099 13.664c2.218.525 4.422 1.065 6.625 1.59l-2.364 2.233c-1.532-.904-3.05-1.897-4.261-3.823"/><path fill="#fff" d="M11.967 14.86c.671.672 1.43 1.197 2.291 1.723l.992-.95c-1.08-.247-2.189-.524-3.283-.773"/><path fill="#7eaaba" d="M23.35 13.664c-2.218.525-4.422 1.065-6.626 1.59l2.364 2.233c1.533-.904 3.05-1.897 4.262-3.823"/><path fill="#fff" d="M21.482 14.86c-.671.672-1.43 1.197-2.291 1.723l-.993-.95c1.095-.247 2.19-.524 3.284-.773"/></g><defs><clipPath id="a"><path fill="#fff" d="M0 .208h29.333v22.708H0z"/></clipPath></defs></svg>