<svg xmlns="http://www.w3.org/2000/svg" width="30" height="30" fill="none" viewBox="0 0 30 30"><path fill="#6f4bbb" d="M8.968 22.783h4.525l.003 3.845-4.443-.001a4.5 4.5 0 0 1-1.702-1.23c.164-.83.777-1.912 1.616-2.614"/><path fill="#7d5dc2" d="M9.23 23.104c-.6.602-1.191 1.33-1.39 2.16.358.414.827.735 1.33.969h3.802l-.002-3.128z"/><path fill="#9478cf" d="M8.184 24.415c-.117.16-.337.809-.35.849.358.414.826.735 1.33.97h2.024l-.001-1.678a38 38 0 0 1-3.003-.141"/><path fill="#5f3ea7" d="M8.949 25.813c.468.154.689.44.758.815H8.075c.11-.32.42-.715.874-.815"/><path fill="#6f4bbb" d="M8.942 25.987c-.255.066-.468.26-.606.48h.613v-.48z"/><path fill="#5f3ea7" d="M10.56 25.719c.628.167.93.575 1.007.91l-2.176-.001c.144-.354.584-.829 1.17-.909"/><path fill="#6f4bbb" d="M10.546 25.886c-.344.06-.681.294-.88.582h.895v-.582zm8.373-3.103h-4.526l.003 3.843h4.443c.702-.3 1.28-.728 1.7-1.23-.159-.828-.773-1.911-1.62-2.613"/><path fill="#7d5dc2" d="M18.664 23.104c.6.601 1.193 1.33 1.393 2.159-.358.414-.826.735-1.329.97l-3.802-.001-.002-3.129z"/><path fill="#9478cf" d="M19.705 24.414c.117.16.338.809.352.85-.358.413-.826.734-1.33.968h-2.024l-.001-1.678a38 38 0 0 0 3.003-.14"/><path fill="#5f3ea7" d="M18.947 25.812c-.468.153-.688.44-.757.815h1.633c-.11-.32-.421-.715-.876-.816"/><path fill="#6f4bbb" d="M18.955 25.985c.255.067.469.261.606.482h-.613v-.482z"/><path fill="#5f3ea7" d="M17.336 25.718c-.626.167-.929.575-1.005.909h2.177c-.145-.354-.586-.829-1.172-.909"/><path fill="#6f4bbb" d="M17.343 25.885c.344.06.682.294.882.582h-.896v-.582z"/><path fill="#5f3ea7" d="M1.848 23.968c.028.701.194 1.25.511 1.59.496-.04.916-.574 1.109-1.035-.29-.488-.855-.71-1.62-.555"/><path fill="#6f4bbb" d="M2.104 24.161c.014.408.124.83.352 1.137l.192-1.11a1.8 1.8 0 0 0-.544-.027"/><path fill="#5f3ea7" d="M3.101 24.342c.05.628.132 1.183.539 1.745.73-.154 1.302-.548 1.542-1.177-.359-.795-1.213-.902-2.08-.568"/><path fill="#6f4bbb" d="m3.743 25.82.488-1.398c-.275-.053-.585-.013-.881.08.048.475.131.896.393 1.318"/><path fill="#5f3ea7" d="M5.498 24.857c.125.715.821 1.07 1.172 1.05.159-.261.317-.602.316-1.01l-.303-.248c-.461-.087-.95-.053-1.185.207"/><path fill="#6f4bbb" d="M6.546 25.666c.138-.201.227-.509.24-.803l-.496-.08z"/><path fill="#6f4bbb" d="m6.989 15.267.007 9.622c-1.716.207-3.714.14-5.148-.93a16 16 0 0 1 .28-2.607c.31-1.512.895-2.889 1.907-4.019.895-.996 1.79-1.47 2.954-2.066"/><path fill="#9478cf" d="M2.33 23.739c.897.668 3.047.876 4.177.736L6.5 16.043c-2.913 1.504-4.069 4.279-4.17 7.696"/><path fill="#a58dd4" d="M2.33 23.74c.456.34 1.228.555 2.034.675.116-2.147.1-5.376-.397-6.232-1.081 1.49-1.57 3.396-1.636 5.556"/><path fill="#9478cf" d="M4.36 22.309a.67.67 0 0 1 .683.662.67.67 0 0 1-.681.662.67.67 0 0 1-.683-.662.67.67 0 0 1 .682-.662"/><path fill="#6f4bbb" d="M5.975 7.761c-.2-1.25.02-1.899.28-3.042.82.662 1.345 1.137 2.344 1.625a9.7 9.7 0 0 1 1.279-3.423l.378-.628c1.461 1.07 2.709 1.926 3.674 3.343.964-1.417 2.21-2.273 3.67-3.342l.379.628c.641 1.07 1.083 2.214 1.284 3.424.998-.488 1.521-.963 2.34-1.625.27 1.137.484 1.786.285 3.043l1.805.481a555 555 0 0 1-1.373 14.936c-.02.18-.248.508-1.212.515-4.712.307-9.644.306-14.35-.002-.964-.014-1.191-.335-1.212-.515a182 182 0 0 1-.201-1.926l-.084-.789c-.395-4.078-.784-8.143-1.11-12.228l1.804-.481h.02z"/><path fill="#9478cf" d="M10.456 3.249c-.777 1.284-1.21 2.64-1.292 4.045A9.4 9.4 0 0 1 6.67 5.896c-.158.682-.123 1.571.09 2.347-.66.147-1.273.3-1.886.474.333 4.199.646 8.398 1.077 12.583.041.415.131 1.31.18 1.725.172.094.53.094.675.1 4.74.309 9.534.31 14.274.003.151-.014.503-.014.675-.1.048-.408.137-1.324.178-1.725.417-4.192.73-8.391 1.058-12.583a34 34 0 0 0-1.888-.475c.213-.776.247-1.665.088-2.347a9 9 0 0 1-2.493 1.397c-.083-1.397-.518-2.761-1.298-4.045-1.583 1.163-2.623 2.005-3.469 3.69-.855-1.685-1.89-2.527-3.481-3.691z"/><path fill="#a58dd4" d="M10.458 3.249c.119 1.865.603 3.938 1.513 4.808-1.213-.127-1.86-.268-2.798-.763A9.3 9.3 0 0 1 6.67 5.896c.422 1.23.829 2.107 1.663 2.963-.71-.014-1.116-.241-1.571-.616-.662.147-1.275.301-1.888.475.334 4.2.647 8.399 1.077 12.585.042.414.132 1.31.18 1.725.173.094.531.094.676.1 2.37.154 4.754.228 7.139.229l-.002-2.501c-3.68.28-7.046-5.35-3.183-9.048l-.772.414c-.097-.595.096-1.337.35-1.939.502-1.17 1.839-2.039 3.596-2.246l-.001-1.103c-.856-1.686-1.883-2.528-3.476-3.685"/><path fill="#7d5dc2" d="M19.533 8.857C20.359 8 20.77 7.118 21.19 5.888c.159.682.125 1.571-.088 2.347-.455.381-.86.608-1.57.622m-1.4-.348c.414 0 .745.327.745.722a.734.734 0 0 1-.743.722.735.735 0 0 1-.745-.722c0-.395.337-.722.744-.722m2.723 1.631c.283 0 .517.228.517.502a.513.513 0 0 1-.516.501.514.514 0 0 1-.517-.501c0-.281.227-.502.516-.502m-4.955-2.093c.909-.862 1.39-2.935 1.506-4.807.779 1.284 1.214 2.641 1.298 4.045-.944.495-1.591.635-2.804.762"/><path fill="#9478cf" d="M7.185 9.561c.675 0 1.227.535 1.227 1.19 0 .656-.55 1.19-1.225 1.19-.676 0-1.227-.535-1.228-1.19s.55-1.19 1.226-1.19m-.79 3.65c.269 0 .49.215.49.476 0 .26-.22.474-.49.474a.485.485 0 0 1-.489-.475c0-.26.22-.474.49-.474"/><path fill="#d3e8ef" d="M14.016 10.21c2.914 0 5.278 2.294 5.28 5.122s-2.359 5.121-5.273 5.12c-2.913 0-5.278-2.293-5.28-5.121s2.359-5.121 5.273-5.12"/><path fill="#fff" d="M8.88 14.167c.46-1.925 2.044-3.436 4.04-3.843 2.178-.16 3.942 1.317 3.944 3.33.001 2.025-1.789 3.823-3.986 4.01-2.204.187-3.99-1.297-3.99-3.33-.008-.053-.008-.113-.008-.167"/><path fill="#ea4e64" d="M15.643 13.366c1.646 0 2.977 1.29 2.978 2.889 0 1.598-1.328 2.888-2.974 2.887s-2.977-1.29-2.978-2.888c-.001-1.591 1.327-2.888 2.974-2.888"/><path fill="#ec6277" d="M15.643 13.366c.434 0 .847.087 1.22.254v.034c0 1.972-1.692 3.73-3.828 3.997a2.83 2.83 0 0 1-.373-1.397c0-1.598 1.328-2.888 2.98-2.888"/><path fill="#232323" d="M15.644 14.382c1.067 0 1.936.836 1.937 1.88 0 1.035-.86 1.878-1.935 1.878-1.067 0-1.936-.836-1.937-1.88 0-1.036.86-1.878 1.935-1.878"/><path fill="#323232" d="M15.643 14.382c.393 0 .758.114 1.061.308-.37 1.197-1.348 2.213-2.602 2.694a1.85 1.85 0 0 1-.386-1.123c-.008-1.037.853-1.879 1.927-1.879"/><path fill="#fff" d="M13.536 14.095c.675 0 1.22.528 1.22 1.183.001.655-.543 1.184-1.218 1.183s-1.22-.528-1.22-1.183.543-1.183 1.218-1.183"/><path fill="#6f4bbb" d="M7.815 17.68c1.501-.802 3.762.602 3.598 2.875-1.433-.428-2.984-1.738-3.598-2.875"/><path fill="#a58dd4" d="M7.815 17.68c1.364.027 2.873.776 3.598 2.875-1.715-.187-3.314-1.458-3.598-2.875"/><path fill="#7d5dc2" d="M8.526 19.58c.2-.068 1.136-.047 1.212.053.09.12-.158.735-.42 1.136-.344-.267-.627-.635-.792-1.19"/><path fill="#fff" d="M8.25 19.359c.2-.067 1.137-.047 1.213.053.09.12-.158.736-.42 1.137-.344-.268-.627-.636-.793-1.19"/><path fill="#6f4bbb" d="M8.532 19.044c.063 1.29 1.8 2.534 3.446 2.073.09.374-.172.595-.44.648-1.495.127-2.936-.789-3.412-1.959-.138-.32.014-.722.406-.762m-.281 2.421c.414.756 1.062 1.11 1.771 1.224-1.012.441-1.908-.147-1.77-1.224"/><path fill="#9478cf" d="M8.933 21.646c.813.441 1.584.581 2.48.501-.654.421-1.935.468-2.48-.501"/><path fill="#5f3ea7" d="M15.842 8.758c-1.635-2.741-5.932-1.144-5.495 1.93 1.073-1.724 3.146-2.285 5.495-1.93"/><path fill="#6f4bbb" d="M15.841 8.757c-.924-1.544-2.866-1.644-4.167-.796-.007.361.104.622.304.829 1.053-.495 2.43-.695 3.863-.033m8.549 10.427c1.716 0 3.122 1.337 3.123 3.009S26.11 25.2 24.395 25.2s-3.122-1.338-3.123-3.01c-.001-1.67 1.403-3.008 3.119-3.007"/><path fill="#9478cf" d="M24.39 19.625c1.475 0 2.667 1.15 2.668 2.561.002 1.417-1.19 2.56-2.663 2.56-1.475 0-2.667-1.15-2.668-2.56s1.196-2.561 2.664-2.56"/><path fill="#a58dd4" d="M24.39 19.625c1.048 0 1.95.582 2.392 1.424.098 1.337-1.582 2.32-2.706 1.858-.826-.434-1.399-1.284-1.4-2.253q-.002-.238.048-.468a2.77 2.77 0 0 1 1.667-.561"/><path fill="#2b3039" d="M23.304 21.791c-.125-.368 1.294-.829 1.425-.461l1.409 4.086c.124.367-1.295.829-1.426.46z"/><path fill="#5f3ea7" d="M25.343 21.377c-.558.334-1.02.662-1.35 1.27.476.562 1.103.87 1.792.789.557-.682.267-1.464-.442-2.06"/><path fill="#6f4bbb" d="M25.777 22.313a2 2 0 0 0-.427-.669c-.427.267-.778.555-1.047.97.297.026.758-.047 1.474-.301"/><path fill="#5f3ea7" d="M25.88 23.015c-.557.334-1.019.662-1.349 1.27.476.562 1.103.87 1.792.79.557-.682.267-1.465-.443-2.06"/><path fill="#6f4bbb" d="M26.315 23.884a2 2 0 0 0-.427-.668c-.427.267-.778.554-1.047.969.297.033.758-.047 1.474-.3"/><path fill="#5f3ea7" d="M22.974 23.176c.53-.127.999-.207 1.57-.047.07.602-.102 1.15-.55 1.498-.743-.06-1.06-.69-1.02-1.451"/><path fill="#6f4bbb" d="M23.3 23.904a1.7 1.7 0 0 1-.167-.635c.414-.093.792-.133 1.213-.046-.152.194-.468.414-1.047.681"/><path fill="#393f4c" d="M21.908 12.109c-2.818.153-4.972 2.5-4.812 5.234s2.58 4.827 5.398 4.674c2.817-.154 4.971-2.5 4.81-5.234-.16-2.735-2.572-4.828-5.396-4.674"/><path fill="#d3e8ef" d="M21.95 12.724c-2.466.133-4.36 2.192-4.22 4.592.14 2.394 2.263 4.233 4.736 4.093 2.465-.134 4.358-2.193 4.219-4.593-.147-2.393-2.263-4.232-4.736-4.092"/><path fill="#fff" d="M25.611 19.215a3.9 3.9 0 0 0 .653-2.38c-.105-1.732-1.339-3.143-2.972-3.578-.13 1.498-.267 2.97-.41 4.48.544.214 1.95.897 2.73 1.478m-3.73-6.01c-2.15.12-3.794 1.905-3.662 3.99.021.295.07.583.152.85a2 2 0 0 1-.014-.187c-.14-2.42 1.76-4.493 4.254-4.633h.021a6 6 0 0 0-.75-.02"/><path fill="#999" d="M18.373 19.315q.124.2.269.381l1.32-1.778 3.046 1.23 1.76-3.535 1.771.328a6 6 0 0 0-.159-.475l-1.86-.348-1.726 3.469-2.976-1.204z"/><path fill="#1ec185" d="M19.832 16.756c.51-.027.944.348.972.842a.9.9 0 0 1-.868.943c-.51.026-.944-.348-.971-.843-.035-.488.357-.909.867-.942"/><path fill="#ea4e64" d="M24.589 14.475c.51-.027.944.347.972.842a.9.9 0 0 1-.868.942c-.51.027-.944-.347-.972-.842-.034-.495.358-.916.868-.942"/><path fill="#338eef" d="M22.841 17.98c.51-.027.944.347.972.842a.9.9 0 0 1-.867.942c-.51.027-.944-.347-.972-.842-.035-.495.357-.916.867-.943"/></svg>