<svg fill="none" viewBox="0 0 93 91" xmlns="http://www.w3.org/2000/svg"><path fill="#6F4BBB" d="M25.802 76.456h16.394v14.348H26.1c-2.545-1.123-4.641-2.72-6.163-4.591.598-3.094 2.82-7.137 5.864-9.757z" /><path fill="#7D5DC2" d="M26.75 77.654c-2.171 2.246-4.317 4.966-5.04 8.06 1.297 1.547 2.994 2.745 4.815 3.618H40.3V77.654H26.75z" /><path fill="#9478CF" d="M22.957 82.545c-.424.599-1.223 3.019-1.273 3.169 1.298 1.547 2.995 2.745 4.816 3.618h7.337v-6.263c-3.619-.025-7.237-.2-10.88-.524z" /><path fill="#5F3EA7" d="M25.726 87.76c1.697.574 2.496 1.647 2.745 3.044h-5.914c.4-1.198 1.523-2.67 3.17-3.044z" /><path fill="#6F4BBB" d="M25.701 88.409c-.923.25-1.696.973-2.195 1.796h2.22V88.41h-.024z" /><path fill="#5F3EA7" d="M31.566 87.41c2.27.624 3.368 2.146 3.643 3.394h-7.886c.524-1.322 2.122-3.094 4.242-3.394z" /><path fill="#6F4BBB" d="M31.516 88.034c-1.248.225-2.47 1.098-3.194 2.171h3.244v-2.17h-.05zM61.858 76.456H45.465v14.348H61.56c2.545-1.123 4.641-2.72 6.163-4.591-.573-3.094-2.794-7.137-5.863-9.757z" /><path fill="#7D5DC2" d="M60.935 77.654c2.171 2.246 4.317 4.966 5.041 8.06-1.298 1.547-2.994 2.745-4.816 3.618H47.386V77.654h13.55z" /><path fill="#9478CF" d="M64.703 82.545c.424.599 1.223 3.019 1.273 3.169-1.298 1.547-2.995 2.745-4.816 3.618h-7.336v-6.263c3.618-.025 7.261-.2 10.88-.524z" /><path fill="#5F3EA7" d="M61.959 87.76c-1.697.574-2.496 1.647-2.745 3.044h5.913c-.399-1.198-1.522-2.67-3.168-3.044z" /><path fill="#6F4BBB" d="M61.983 88.409c.924.25 1.697.973 2.196 1.796h-2.22V88.41h.024z" /><path fill="#5F3EA7" d="M56.12 87.41c-2.271.624-3.37 2.146-3.644 3.394h7.885c-.524-1.322-2.12-3.094-4.242-3.394z" /><path fill="#6F4BBB" d="M56.144 88.034c1.248.225 2.47 1.098 3.194 2.171h-3.244v-2.17h.05z" /><path fill="#5F3EA7" d="M0 80.873c.1 2.62.699 4.666 1.847 5.939 1.796-.15 3.318-2.146 4.017-3.868C4.816 81.122 2.77 80.299 0 80.873z" /><path fill="#6F4BBB" d="M.923 81.596c.05 1.523.45 3.095 1.273 4.242l.699-4.142c-.624-.15-1.298-.15-1.972-.1z" /><path fill="#5F3EA7" d="M4.542 82.27c.174 2.346.474 4.417 1.946 6.513 2.645-.574 4.716-2.046 5.59-4.392-1.298-2.97-4.392-3.369-7.536-2.12z" /><path fill="#6F4BBB" d="M6.862 87.785l1.772-5.215c-.998-.2-2.121-.05-3.194.299.174 1.772.474 3.344 1.422 4.916z" /><path fill="#5F3EA7" d="M13.225 84.192c.45 2.67 2.97 3.992 4.242 3.917.574-.973 1.148-2.246 1.148-3.768l-1.098-.923c-1.672-.325-3.444-.2-4.292.773z" /><path fill="#6F4BBB" d="M17.018 87.21c.499-.748.823-1.896.873-2.993l-1.796-.3.923 3.294z" /><path fill="#6F4BBB" d="M18.64 48.409v35.907c-6.213.774-13.45.524-18.64-3.468.1-3.344.424-6.613 1.023-9.732 1.123-5.64 3.244-10.78 6.912-14.997 3.244-3.718 6.488-5.49 10.705-7.71z" /><path fill="#9478CF" d="M1.747 80.024c3.244 2.496 11.03 3.27 15.121 2.745V51.303C6.313 56.919 2.121 67.273 1.747 80.025z" /><path fill="#A58DD4" d="M1.747 80.024c1.647 1.273 4.441 2.072 7.361 2.52.424-8.01.374-20.062-1.422-23.255-3.918 5.564-5.69 12.676-5.94 20.735z" /><path fill="#9478CF" d="M9.108 74.684a2.46 2.46 0 012.47 2.47 2.46 2.46 0 01-2.47 2.471 2.46 2.46 0 01-2.47-2.47 2.46 2.46 0 012.47-2.47z" /><path fill="#6F4BBB" d="M14.997 20.412c-.724-4.667.074-7.087 1.023-11.354 2.97 2.47 4.866 4.242 8.484 6.063.723-4.516 2.32-8.783 4.641-12.775L30.517 0c5.29 3.992 9.807 7.186 13.3 12.476 3.494-5.29 8.01-8.484 13.3-12.476l1.373 2.346c2.32 3.992 3.917 8.259 4.641 12.775 3.618-1.821 5.515-3.593 8.484-6.063.973 4.242 1.747 6.662 1.023 11.354l6.538 1.796c-1.298 17.068-2.62 31.616-4.292 48.684a675.408 675.408 0 01-.724 7.061c-.075.674-.898 1.897-4.391 1.922-17.068 1.147-34.935 1.147-51.978 0-3.493-.05-4.316-1.248-4.391-1.922-.25-2.395-.5-4.79-.724-7.186-.1-.973-.2-1.947-.3-2.945-1.422-15.221-2.82-30.392-3.992-45.639l6.538-1.796h.075v.025z" /><path fill="#9478CF" d="M31.241 3.568c-2.82 4.791-4.392 9.857-4.691 15.097-2.895-1.098-6.189-2.895-9.033-5.215-.574 2.545-.45 5.864.324 8.758a118.407 118.407 0 00-6.837 1.772c1.198 15.67 2.32 31.34 3.868 46.962.15 1.547.474 4.89.649 6.437.623.35 1.921.35 2.445.375a388.589 388.589 0 0051.703 0c.549-.05 1.821-.05 2.445-.375.175-1.522.5-4.94.649-6.438 1.522-15.645 2.67-31.316 3.868-46.961a118.407 118.407 0 00-6.838-1.772c.774-2.894.899-6.213.325-8.758-2.82 2.345-6.139 4.117-9.033 5.215-.3-5.215-1.872-10.306-4.691-15.097-5.74 4.342-9.507 7.486-12.577 13.774-3.094-6.288-6.837-9.432-12.6-13.774h.024z" /><path fill="#A58DD4" d="M31.241 3.568c.424 6.962 2.171 14.698 5.465 17.941-4.392-.474-6.738-.998-10.131-2.844a33.353 33.353 0 01-9.058-5.215c1.522 4.591 2.994 7.86 6.014 11.054-2.57-.05-4.043-.898-5.69-2.296a118.407 118.407 0 00-6.837 1.772c1.198 15.67 2.32 31.34 3.868 46.962.15 1.547.474 4.89.649 6.437.623.35 1.921.35 2.445.375 8.584.574 17.218.848 25.851.848V69.27c-13.325 1.048-25.502-19.963-11.503-33.762l-2.795 1.547c-.349-2.22.35-4.99 1.273-7.236 1.822-4.367 6.662-7.61 13.025-8.384v-4.118c-3.094-6.288-6.812-9.432-12.576-13.749z" /><path fill="#7D5DC2" d="M64.104 24.504c2.995-3.194 4.492-6.488 6.014-11.08.574 2.546.45 5.865-.324 8.76-1.647 1.421-3.12 2.27-5.69 2.32zm-5.065-1.298a2.7 2.7 0 012.695 2.695 2.7 2.7 0 01-2.695 2.695 2.7 2.7 0 01-2.695-2.695 2.716 2.716 0 012.695-2.695zm9.856 6.089c1.023 0 1.872.848 1.872 1.871a1.885 1.885 0 01-1.872 1.872 1.885 1.885 0 01-1.871-1.872c0-1.048.823-1.871 1.871-1.871zm-17.94-7.81c3.293-3.22 5.04-10.955 5.464-17.942 2.82 4.791 4.392 9.857 4.691 15.097-3.419 1.846-5.764 2.37-10.156 2.845z" /><path fill="#9478CF" d="M19.364 27.124a4.451 4.451 0 014.441 4.442 4.451 4.451 0 01-4.441 4.441 4.451 4.451 0 01-4.442-4.441 4.451 4.451 0 014.442-4.442zm-2.87 13.624c.973 0 1.772.799 1.772 1.772s-.799 1.772-1.772 1.772a1.779 1.779 0 01-1.772-1.772c0-.973.799-1.772 1.772-1.772z" /><path fill="#D3E8EF" d="M44.117 29.544c10.555 0 19.114 8.56 19.114 19.114 0 10.556-8.56 19.114-19.114 19.114-10.555 0-19.114-8.559-19.114-19.114 0-10.555 8.559-19.114 19.114-19.114z" /><path fill="#fff" d="M25.502 44.317c1.672-7.187 7.411-12.826 14.648-14.348 7.885-.6 14.273 4.915 14.273 12.426 0 7.561-6.488 14.273-14.448 14.972-7.985.699-14.448-4.84-14.448-12.427-.025-.2-.025-.424-.025-.623z" /><path fill="#EA4E64" d="M50.006 41.322c5.964 0 10.78 4.816 10.78 10.78 0 5.964-4.816 10.78-10.78 10.78a10.766 10.766 0 01-10.78-10.78c0-5.939 4.816-10.78 10.78-10.78z" /><path fill="#EC6277" d="M50.006 41.322c1.572 0 3.07.325 4.417.948v.125c0 7.361-6.139 13.924-13.874 14.922a10.81 10.81 0 01-1.348-5.215c0-5.964 4.816-10.78 10.805-10.78z" /><path fill="#232323" d="M50.006 45.115a7.002 7.002 0 017.012 7.012 7.002 7.002 0 01-7.012 7.012 7.002 7.002 0 01-7.012-7.012 7.002 7.002 0 017.012-7.012z" /><path fill="#323232" d="M50.006 45.115c1.422 0 2.745.424 3.843 1.148-1.348 4.467-4.891 8.26-9.432 10.056a7.05 7.05 0 01-1.398-4.192 6.965 6.965 0 016.987-7.012z" /><path fill="#fff" d="M42.37 44.042a4.409 4.409 0 014.417 4.417 4.409 4.409 0 01-4.417 4.416 4.409 4.409 0 01-4.417-4.416 4.409 4.409 0 014.417-4.417z" /><path fill="#6F4BBB" d="M21.634 57.417c5.44-2.994 13.624 2.246 13.026 10.73-5.19-1.597-10.805-6.488-13.026-10.73z" /><path fill="#A58DD4" d="M21.634 57.417c4.94.1 10.405 2.894 13.026 10.73-6.214-.699-12.003-5.44-13.026-10.73z" /><path fill="#7D5DC2" d="M24.204 64.504c.724-.25 4.118-.175 4.392.2.325.448-.574 2.744-1.522 4.241-1.248-.998-2.27-2.37-2.87-4.441z" /><path fill="#fff" d="M23.206 63.68c.724-.25 4.118-.175 4.392.2.324.449-.574 2.745-1.522 4.242-1.248-.998-2.27-2.37-2.87-4.442z" /><path fill="#6F4BBB" d="M24.23 62.507c.224 4.816 6.512 9.458 12.476 7.736.325 1.397-.624 2.22-1.597 2.42-5.415.474-10.63-2.944-12.352-7.311-.499-1.198.05-2.695 1.473-2.845zM23.206 71.54c1.497 2.82 3.843 4.143 6.413 4.567-3.668 1.647-6.912-.55-6.413-4.567z" /><path fill="#9478CF" d="M25.677 72.214c2.944 1.647 5.739 2.171 8.983 1.871-2.37 1.573-7.012 1.747-8.983-1.87z" /><path fill="#5F3EA7" d="M50.73 24.13c-5.914-10.231-21.485-4.267-19.913 7.211 3.893-6.438 11.404-8.534 19.913-7.211z" /><path fill="#6F4BBB" d="M50.73 24.13c-3.344-5.764-10.38-6.139-15.097-2.97-.025 1.348.374 2.32 1.098 3.094 3.818-1.846 8.808-2.595 13.998-.124zM81.696 63.031c6.214 0 11.304 4.99 11.304 11.23 0 6.237-5.09 11.228-11.304 11.228-6.213 0-11.303-4.99-11.303-11.229 0-6.238 5.09-11.229 11.303-11.229z" /><path fill="#9478CF" d="M81.696 64.678c5.34 0 9.657 4.292 9.657 9.557 0 5.29-4.317 9.557-9.657 9.557S72.04 79.5 72.04 74.235c0-5.265 4.342-9.557 9.657-9.557z" /><path fill="#A58DD4" d="M81.696 64.678a9.703 9.703 0 018.659 5.315c.35 4.99-5.74 8.659-9.807 6.937-2.994-1.622-5.065-4.79-5.065-8.409 0-.599.05-1.173.175-1.747 1.671-1.297 3.767-2.096 6.038-2.096z" /><path fill="#2B3039" d="M77.754 72.763c-.45-1.372 4.69-3.094 5.165-1.722l5.09 15.247c.45 1.372-4.69 3.094-5.165 1.721l-5.09-15.246z" /><path fill="#5F3EA7" d="M85.14 71.216c-2.022 1.248-3.694 2.47-4.891 4.741 1.722 2.096 3.992 3.244 6.488 2.945 2.02-2.546.973-5.465-1.597-7.686z" /><path fill="#6F4BBB" d="M86.712 74.71c-.3-.874-.849-1.697-1.547-2.496-1.547.998-2.82 2.071-3.793 3.618 1.073.1 2.745-.174 5.34-1.123z" /><path fill="#5F3EA7" d="M87.086 77.33c-2.021 1.247-3.693 2.47-4.89 4.74 1.72 2.097 3.992 3.244 6.487 2.945 2.021-2.545.973-5.465-1.597-7.686z" /><path fill="#6F4BBB" d="M88.658 80.573c-.3-.873-.848-1.697-1.547-2.495-1.547.998-2.82 2.071-3.793 3.618 1.073.125 2.745-.174 5.34-1.123z" /><path fill="#5F3EA7" d="M76.556 77.928c1.921-.474 3.618-.773 5.69-.174.249 2.245-.375 4.292-1.997 5.59-2.695-.225-3.843-2.571-3.693-5.416z" /><path fill="#6F4BBB" d="M77.729 80.648c-.35-.698-.524-1.497-.6-2.37 1.498-.35 2.87-.5 4.393-.175-.55.724-1.697 1.547-3.793 2.545z" /><path fill="#393F4C" d="M72.713 36.631c-10.206.574-18.016 9.333-17.442 19.538.574 10.206 9.332 18.016 19.538 17.442 10.206-.574 18.016-9.332 17.442-19.538-.574-10.206-9.307-18.016-19.538-17.442z" /><path fill="#D3E8EF" d="M72.863 38.927c-8.933.499-15.795 8.184-15.296 17.142.499 8.934 8.184 15.796 17.142 15.272 8.933-.5 15.796-8.185 15.296-17.143-.523-8.933-8.184-15.795-17.142-15.271z" /><path fill="#fff" d="M86.113 63.156a14.835 14.835 0 002.37-8.883c-.374-6.463-4.84-11.728-10.754-13.35-.475 5.59-.974 11.08-1.498 16.718 1.972.799 7.062 3.344 9.882 5.515zM72.613 40.723c-7.785.45-13.749 7.112-13.275 14.897.075 1.098.25 2.171.55 3.17-.026-.225-.05-.45-.05-.7-.5-9.032 6.387-16.768 15.42-17.292h.075c-.873-.075-1.796-.125-2.72-.075z" /><path fill="#999" d="M59.887 63.53c.3.5.624.974.973 1.423l4.791-6.638 11.03 4.592 6.388-13.2 6.412 1.222c-.174-.599-.349-1.198-.573-1.772L82.17 47.86l-6.263 12.95-10.78-4.491-5.24 7.211z" /><path fill="#1EC185" d="M65.177 53.973a3.328 3.328 0 013.519 3.145 3.328 3.328 0 01-3.144 3.518 3.328 3.328 0 01-3.519-3.144c-.125-1.822 1.298-3.394 3.144-3.519z" /><path fill="#EA4E64" d="M82.42 45.464a3.328 3.328 0 013.518 3.145 3.328 3.328 0 01-3.144 3.518 3.328 3.328 0 01-3.518-3.144c-.125-1.847 1.297-3.419 3.144-3.519z" /><path fill="#FF893A" d="M76.082 58.54a3.328 3.328 0 013.518 3.144 3.328 3.328 0 01-3.144 3.518 3.328 3.328 0 01-3.518-3.144c-.125-1.846 1.297-3.418 3.144-3.518z" /></svg>
