<svg fill-rule="evenodd" viewBox="0 0 60.064 70" xmlns="http://www.w3.org/2000/svg"><path fill="#008bf6" d="M29 15.94A27 27 0 112 43a27 27 0 0127-27.06z" class="cls-1" /><path fill="#57b6ff" d="M16.64 66a3.89 3.89 0 011.91.22 26.43 26.43 0 009.88 1.93 26.05 26.05 0 0019-8.25 2.89 2.89 0 012-.78A26.07 26.07 0 0129 69.1 25.8 25.8 0 0116.64 66z" class="cls-2" /><path fill="#006cbf" d="M29 15.94c.84 0 1.65 0 2.47.12a4.91 4.91 0 01-1.95 0 4 4 0 01-.52-.12zm-15.8 49a27.07 27.07 0 01-9.78-13 5.27 5.27 0 01.56 0h.84A4.47 4.47 0 016 49.16a3.42 3.42 0 011.22-.57 5.26 5.26 0 01-1.58-3.17c0-.42-.06-.86-.06-1.32l-2.81-1.41a2.78 2.78 0 01-.77-.62 26.84 26.84 0 013.07-11.69l2.41-.22a41.86 41.86 0 012-5.92 27.43 27.43 0 015.75-4.56c.66-.12 1.32-.2 1.9-.26a43.81 43.81 0 018.1.1c1 .08 2 .18 2.93.3a9.85 9.85 0 01.42-.95c.68-1.28 4.26-.82 6-.54a8.1 8.1 0 00-.46-1.93c.62.11 1.21.25 1.79.39a8.54 8.54 0 01.28 1.88c1.79.43 4.62 1.31 4.76 2.59a8.88 8.88 0 010 1c.94.26 1.89.52 2.83.82a52.56 52.56 0 015.54 2A27.06 27.06 0 0154 53.19l-1.26.1c-.17.42-.37.81-.55 1.19-1 2.05-3.55 2.85-5.62 3.23a38.08 38.08 0 01-8.67.3 80.68 80.68 0 01-10.27-1.38 76.7 76.7 0 01-10-2.61 43.77 43.77 0 01-5.7-2.29v4.72a5.69 5.69 0 012 2.24 7.62 7.62 0 004.32-1.84c.68-.55 2.57.26 1.78 2.53a7.64 7.64 0 01-6.8 5.54z" class="cls-3" /><path fill="#fff" d="M29 21.63A21.34 21.34 0 117.66 43 21.34 21.34 0 0129 21.63z" class="cls-4" /><path fill="#385661" d="M19.15 53.21a8.07 8.07 0 01-9.26 1.41l-3.05 6.06c4.34 2.39 12.15 2.71 14.36-4.9.7-2.45-1.35-3.19-2.05-2.57z" class="cls-5" /><path fill="#385661" d="M19.75 54a8.93 8.93 0 01-9.41 1.88l-2.21 4.38a11.76 11.76 0 004.94 1 7.3 7.3 0 007.21-5.7 1.59 1.59 0 00-.1-1.38.6.6 0 00-.43-.18z" class="cls-5" /><path fill="#598291" d="M16.86 55.82a9 9 0 01-6.52 0l-.91 1.83a7.8 7.8 0 007.45-.78c.56-.48.44-1.05-.02-1.05z" class="cls-6" /><path fill="#385661" d="M35.46 56.85a10.93 10.93 0 013.81 6.22l5.16-1.42c-1.32-3.86-5.2-7.65-9-8z" class="cls-5" /><path fill="#385661" d="M36.42 56.39A12 12 0 0140 61.87l3.15-.87c-1.25-2.67-3.56-5.48-6.57-6.52z" class="cls-5" /><path fill="#598291" d="M41.66 61.42l1.49-.4a13.69 13.69 0 00-4.24-5.28c-.2.18-.12.6.1.83a10.69 10.69 0 012.65 4.85zm-20.4 1.43c0-.44-.08-.9-.1-1.34a1.85 1.85 0 01.84-1.85 15.43 15.43 0 014.26-1.39L27.4 58h.35l1.14.24a15.65 15.65 0 014.26 1.39 1.85 1.85 0 01.85 1.88c0 .52-.06 1-.12 1.54 0 .24 0 .48-.08.72a21.55 21.55 0 01-4.8.53 21.11 21.11 0 01-7.74-1.45z" class="cls-6" /><path fill="#d3e8ef" d="M22.14 63.17c-.06-.56-.1-1.1-.14-1.72a1 1 0 01.44-1.07 19.23 19.23 0 015.12-1.51 19.26 19.26 0 015.11 1.51 1 1 0 01.42 1.07c-.06.9-.1 1.66-.22 2.49a21.24 21.24 0 01-10.73-.77z" class="cls-7" /><path fill="#fff" d="M23.35 59.94a29.25 29.25 0 014.21-1.07v5.37a21.85 21.85 0 01-3.91-.63c-.12-1.22-.22-2.43-.3-3.67z" class="cls-4" /><path fill="#598291" d="M18.57 61.59c-.22-1.13-.38-2.29-.5-3.44-.08-.78-.12-1.56-.18-2.33A2.73 2.73 0 0119.15 53c1.63-1 4.52-1.65 6.41-2.07.58-.14 1.16-.26 1.74-.38l.28-.06.25.06c.58.12 1.16.24 1.74.38 1.89.42 4.78 1 6.41 2.07a2.8 2.8 0 011.26 2.79c-.06.77-.1 1.55-.18 2.33a40.35 40.35 0 01-.8 4.9 21.17 21.17 0 01-7.26 1.3 21.58 21.58 0 01-10.43-2.73z" class="cls-6" /><path fill="#598291" d="M20.05 62.33a38.47 38.47 0 01-.86-6.61 1.54 1.54 0 01.66-1.62c1.49-.93 4.8-1.67 7.73-2.29 2.9.62 6.23 1.36 7.72 2.29.62.38.68.92.66 1.62a39 39 0 01-1.07 7.57s0 .12-.08.2a21.79 21.79 0 01-5.78.79 20.83 20.83 0 01-8.98-1.95z" class="cls-6" /><path fill="#7eaaba" d="M21.86 63.07a49.6 49.6 0 01-.8-7.35 1.74 1.74 0 01.5-1.62c1.15-.93 3.72-1.67 6-2.29 2.25.62 4.82 1.36 6 2.29a1.72 1.72 0 01.5 1.62 48.93 48.93 0 01-.84 7.57 1.71 1.71 0 01-.28.63 21.17 21.17 0 01-3.92.36 20.51 20.51 0 01-7.16-1.21z" class="cls-8" /><path fill="#d3e8ef" d="M19.53 59.54c-.18-1.29-.26-2.45-.36-3.82a1.54 1.54 0 01.66-1.62c1.49-.93 4.8-1.67 7.73-2.29 2.9.62 6.23 1.36 7.72 2.29.62.38.68.92.66 1.62-.1 1.37-.18 2.51-.36 3.82a34 34 0 01-4.06.64.32.32 0 00-.28.26 2.75 2.75 0 01-1 1.83 4.07 4.07 0 01-2.66.8 4.17 4.17 0 01-2.69-.8 2.83 2.83 0 01-1-1.83.3.3 0 00-.28-.26 34.31 34.31 0 01-4.08-.64z" class="cls-7" /><path fill="#fff" d="M27.56 51.81c2.25.62 4.82 1.36 6 2.29a1.72 1.72 0 01.5 1.62c-.08 1.49-.14 2.73-.3 4.16-.7.12-1.43.2-2.23.28a.32.32 0 00-.28.26c-.31 1.89-1.92 2.58-3.69 2.58s-3.41-.74-3.71-2.61a.3.3 0 00-.28-.26c-.78-.08-1.51-.16-2.23-.28a55.74 55.74 0 01-.3-4.16 1.74 1.74 0 01.5-1.62c1.19-.88 3.74-1.62 6.02-2.26z" class="cls-4" /><path fill="#0b87e8" d="M25 56.81h1.31a.31.31 0 01.3.3v2.59a.8.8 0 00.94.94 1 1 0 00.69-.2 1 1 0 00.2-.74v-2.59a.31.31 0 01.3-.3h1.32a.29.29 0 01.29.3v2.73a2 2 0 01-.73 1.71 3.19 3.19 0 01-2.09.6 3.23 3.23 0 01-2.12-.6 2.1 2.1 0 01-.73-1.71v-2.73a.34.34 0 01.32-.3z" class="cls-9" /><path fill="#57b6ff" d="M25 57a.15.15 0 00-.16.14v2.73a1.94 1.94 0 00.67 1.6 3.19 3.19 0 002 .55v-1.26a1.22 1.22 0 01-.82-.26 1.27 1.27 0 01-.26-.84v-2.59a.15.15 0 00-.16-.14H25z" class="cls-2" /><path fill="#3c942c" d="M28.25 51.61l-.65 2.65c.55.94 2.82 2.21 3.92 2.63.48.2.88.24 1.21-.12.8-.83 1.48-3.16 1.62-5.18h-6.1z" class="cls-10" /><path fill="#3c942c" d="M33.65 51.61c0 .42-.1.82-.16 1.2a8.55 8.55 0 01-1.25 3.49l-.08.06a.9.9 0 01-.38-.1 12.37 12.37 0 01-3.43-2.14l.65-2.51z" class="cls-10" /><path fill="#82e371" d="M33.21 54a5.64 5.64 0 01-1 2.26l-.08.06a.9.9 0 01-.38-.1 13.47 13.47 0 01-3.27-2H29a5.61 5.61 0 001.77.76 6.32 6.32 0 01-.75-.78c1.06 0 2.14-.06 3.19-.2z" class="cls-11" /><path fill="#3c942c" d="M26.76 51.61l.66 2.65c-.56.94-2.83 2.21-3.93 2.63-.48.2-.87.24-1.21-.12-.8-.83-1.48-3.16-1.62-5.18h6.1z" class="cls-10" /><path fill="#3c942c" d="M21.38 51.61c0 .42.1.82.16 1.2a8.55 8.55 0 001.25 3.49l.08.06a.9.9 0 00.38-.1 12.37 12.37 0 003.43-2.14L26 51.61z" class="cls-10" /><path fill="#82e371" d="M21.8 54a5.64 5.64 0 001 2.26l.08.06a.9.9 0 00.38-.1 13.47 13.47 0 003.27-2H26a5.71 5.71 0 01-1.77.76 7.14 7.14 0 00.76-.78c-1.06 0-2.14-.06-3.19-.2z" class="cls-11" /><path fill="#3c942c" d="M29.77 51.61a15.76 15.76 0 01-.5 3.43 3.08 3.08 0 01-3.53 0 15.58 15.58 0 01-.5-3.43z" class="cls-10" /><path fill="#3c942c" d="M25.84 51.85a15.41 15.41 0 00.42 2.87 2.55 2.55 0 002.51 0 15.41 15.41 0 00.42-2.87z" class="cls-10" /><path fill="#82e371" d="M26.1 54c0 .24.1.46.16.7a2.55 2.55 0 002.51 0c.06-.24.1-.48.16-.72h-1.81c-.36.02-.68.02-1.02.02z" class="cls-11" /><path fill="#598291" d="M3.83 26.55l6.41-.67-2.17 16.49L2 39.44a2.19 2.19 0 01-1.3-1.55 17 17 0 011.46-10.34c.3-.55.63-.88 1.67-1z" class="cls-6" /><path fill="#d3e8ef" d="M7 40.36l1.67-12.93c-.56.06-5 .48-5.22.62a1.12 1.12 0 00-.1.16A15.62 15.62 0 002 37.63a.81.81 0 00.52.56z" class="cls-7" /><path fill="#fff" d="M7 40.36l.12-.92-4.6-1.87c-.34-.14-.58-1.39-.74-2.77A11.76 11.76 0 002 37.63a.81.81 0 00.52.56zm.71-5.46l1-7.47c-.56.06-5 .48-5.22.62a1.12 1.12 0 00-.1.16A16.13 16.13 0 002 32.69z" class="cls-4" /><path fill="#d3e8ef" d="M2.46 30.56l1.77 1.53a1 1 0 01.34.86c-.18 1.83-.4 3.56-.46 6a37 37 0 01-.28-6.11c0-.08 0-.14-.06-.18l-1.21-1.11-.16-.63a1.13 1.13 0 01.06-.36z" class="cls-7" /><path fill="#7eaaba" d="M2.36 30.92l1.51 1.33a1 1 0 01.34.86 34.13 34.13 0 00-.21 5.1v.75l-.78-.37a2.42 2.42 0 000-.38A35.74 35.74 0 013.45 33c0-.08 0-.14-.06-.18l-1.23-1.1c.06-.27.14-.54.2-.8z" class="cls-8" /><path fill="#598291" d="M31.84 5.4c4.36 3.92 4.66 9 2.67 14.22L33 19c1.74-4.6 1.62-8.92-2.23-12.39z" class="cls-6" /><path fill="#3c942c" d="M30.44.08a5.11 5.11 0 11-5.91 4.14A5.1 5.1 0 0130.44.08z" class="cls-10" /><path fill="#3c942c" d="M30.26 1.1a4.06 4.06 0 11-4.72 3.3 4.08 4.08 0 014.72-3.3z" class="cls-10" /><path fill="#82e371" d="M33.13 3.17a4.07 4.07 0 11-7.47 3.13 4 4 0 002.87 2.07 4.1 4.1 0 004.72-3.31 4.27 4.27 0 00-.12-1.89zm-3.86-1.73c1.41-.06 2.39.81 2.19 2a3.08 3.08 0 01-2.91 2.21c-1.41.08-2.39-.82-2.19-1.95a3.1 3.1 0 012.91-2.26z" class="cls-11" /><path fill="#006cbf" d="M32.71 22.57c-1.39-.26-6-1.22-6.19-3a14.3 14.3 0 011.19-6.43c.76-1.52 5.42-.8 6.78-.56s6 1.18 6.15 2.85a14.08 14.08 0 01-1.07 6.45c-.76 1.61-5.46.93-6.86.69z" class="cls-3" /><path fill="#006cbf" d="M39.47 15.56c-.48-.84-4.23-1.68-5.2-1.83a26.23 26.23 0 00-3.07-.36 6.26 6.26 0 00-2.45.3 13 13 0 00-1.06 5.75c.1.42 1.82 1.1 2.22 1.22 2 .68 5.81 1.37 7.86.95a1.89 1.89 0 00.7-.25 13.06 13.06 0 001-5.78z" class="cls-3" /><path fill="#57b6ff" d="M34.27 13.71a26.23 26.23 0 00-3.07-.36 6.26 6.26 0 00-2.45.3 13 13 0 00-1.06 5.75c.06.16.44.42.56.5a15 15 0 004.64 1.47z" class="cls-2" /><path fill="#598291" d="M58.47 36.2l-5.78-2.83-3.6 16.23 6.71-.68a2.18 2.18 0 001.76-1 16.84 16.84 0 002.17-10.22c-.08-.65-.3-1.03-1.26-1.5z" class="cls-6" /><path fill="#d3e8ef" d="M50.8 48.09l2.83-12.73c.5.24 4.56 2.17 4.68 2.37v.18a15.8 15.8 0 01-2 9.32.79.79 0 01-.68.36z" class="cls-7" /><path fill="#fff" d="M50.8 48.09l.2-.9 4.94-.19c.38 0 1-1.11 1.66-2.35a11.71 11.71 0 01-1.2 2.57.79.79 0 01-.68.36zm1.2-5.36l1.63-7.37c.5.24 4.56 2.17 4.68 2.37v.18a15.73 15.73 0 01-.24 4.68z" class="cls-4" /><path fill="#d3e8ef" d="M58.41 40.44l-2.17.84a1 1 0 00-.6.69c-.46 1.78-.85 3.49-1.63 5.8a37.66 37.66 0 002.37-5.66c0-.08 0-.12.12-.16l1.5-.63.36-.54c.03-.1.05-.24.05-.34z" class="cls-7" /><path fill="#7eaaba" d="M58.37 40.8l-1.87.73a1 1 0 00-.6.7 33.48 33.48 0 01-1.59 4.84l-.3.7.86-.1c.06-.12.1-.24.16-.36a35.6 35.6 0 001.61-5c0-.06 0-.12.12-.14l1.53-.6c.04-.23.06-.49.08-.77z" class="cls-8" /><path fill="#598291" d="M27.28 53.43A77 77 0 0117.18 51a35.39 35.39 0 01-8-3.49c-1.79-1.11-3.89-2.85-4.07-5.22-.53-6.91 1.42-17.87 4.47-24.1 1.13-2.37 4.48-3.07 6.75-3.35a44.17 44.17 0 018.13-.12 82.63 82.63 0 019.4 1.16A83.9 83.9 0 0143.11 18a44.81 44.81 0 017.61 2.89c2.05 1 4.94 2.85 5.22 5.48.72 6.91-1.19 17.84-4.06 24.18-1 2.15-3.53 3.07-5.6 3.5a35.19 35.19 0 01-8.68.54 79.08 79.08 0 01-10.32-1.16z" class="cls-6" /><path fill="#bdd6de" d="M27.56 51.81C20.64 50.6 13.89 48.53 10 46.1c-2-1.26-3.23-2.61-3.33-4C6.2 35.7 8 25 11 18.89c.64-1.32 2.69-2.1 5.56-2.46 4.42-.55 10.82-.09 17.09 1S46 20.32 50 22.33c2.57 1.32 4.22 2.75 4.38 4.2.72 6.78-1.28 17.45-3.93 23.31-.52 1.26-2.16 2.16-4.45 2.61-4.48.96-11.53.55-18.44-.64z" class="cls-12" /><path fill="#fff" d="M7.08 33.25A50.26 50.26 0 0111 18.89c.64-1.32 2.69-2.1 5.56-2.46 4.42-.55 10.82-.09 17.09 1s12.43 2.87 16.42 4.88c2.57 1.32 4.22 2.75 4.38 4.2a50.17 50.17 0 01-1.26 14.83 14 14 0 01-3 .53c-.39 0-.81.08-1.25.1A40.17 40.17 0 0051 31.26c0-.68-.44-.9-1.07-1.12a77.56 77.56 0 00-10.28-3.07.57.57 0 00-.64.3 27 27 0 01-2.55 4.52c-1.12 1.22-9.78-.32-10.4-1.83a28.8 28.8 0 01-.84-5.12.54.54 0 00-.49-.48 75.46 75.46 0 00-10.7-.63c-.68 0-1.22 0-1.41.67a40 40 0 00-1.76 10.8l-1.15-.52a14.23 14.23 0 01-2.63-1.53zm20.48 18.56C20.64 50.6 13.89 48.53 10 46.1c-2-1.26-3.23-2.61-3.33-4v-.75a3.42 3.42 0 00.52 1 8 8 0 003 2.83c3.89 2.39 10.64 4.42 17.55 5.64s14 1.61 18.43.69A8.29 8.29 0 0050 49.88a3.84 3.84 0 00.81-.74 7.45 7.45 0 01-.32.7C49.91 51.1 48.27 52 46 52.45c-4.48.96-11.53.55-18.44-.64z" class="cls-4" /><path fill="#bdd6de" d="M23.53 16.28a19.78 19.78 0 001.64 3.18 28.28 28.28 0 007.7 2.25 28.46 28.46 0 008 .52c.82-.66 1.83-1.65 2.61-2.43a9.06 9.06 0 01-2.41 3.35 28.84 28.84 0 01-8.39-.5 28.89 28.89 0 01-8-2.39 13.54 13.54 0 01-1.15-3.98z" class="cls-12" /><path fill="#7eaaba" d="M23.53 16.28a12.54 12.54 0 001.32 3.6 30.2 30.2 0 007.94 2.31 30.23 30.23 0 008.27.54 12.4 12.4 0 002.45-2.93l.9.28c-.66 1-2.15 3.17-3.13 3.57a30.2 30.2 0 01-8.64-.54 31 31 0 01-8.31-2.45c-.8-.72-1.46-3.21-1.73-4.42.29.02.61.04.93.04z" class="cls-8" /><path fill="#1e2432" d="M30.78 33.53c2.13.37 5.12.49 5.68-.36a40.07 40.07 0 002.47-6 .53.53 0 01.64-.38 64.61 64.61 0 0111.15 3.61c.66.28 1.16.52 1.12 1.39a56.12 56.12 0 01-3.83 17c-.3.71-2.31 1.27-2.92 1.41a30.32 30.32 0 01-7.59.54 67.55 67.55 0 01-9.61-1 69.12 69.12 0 01-9.36-2.31 31 31 0 01-7-3.09C11 44 9.35 42.79 9.31 42a57.4 57.4 0 012.25-17.31c.24-.83.8-.89 1.51-.93a66.84 66.84 0 0111.72.43.54.54 0 01.47.58 38.65 38.65 0 00.28 6.48c.26.98 3.11 1.9 5.24 2.28z" class="cls-13" /><path fill="#2d3956" d="M51 31.2a49.88 49.88 0 01-1.43 9.32c-.48 1.77-1.38 1.65-3.29 1.89-8 1-25.92-2.17-33.07-5.84-1.71-.87-2.63-1.59-2.45-2.88a69.44 69.44 0 011.84-9.25c.05-.22.33-.3.53-.32a67.06 67.06 0 0111.66.44.18.18 0 01.16.2c0 .66-.06 1.32 0 2a43.48 43.48 0 00.33 4.61c.32 1.45 4.19 2.33 5.5 2.54s5.24.74 6.06-.51c.1-.16.2-.36.28-.52a39.1 39.1 0 002.23-5.56.18.18 0 01.22-.14 65.87 65.87 0 0111.09 3.59.6.6 0 01.34.43zm-41.33 10v.75c0 .58 1.61 1.76 2.09 2.05 7 4.57 25.1 7.75 33.23 5.86.55-.12 2.45-.68 2.68-1.21.1-.22.2-.46.3-.7a9.52 9.52 0 01-2.37.86c-8.34 1.89-26.83-1.36-34-6a8.62 8.62 0 01-1.93-1.59z" class="cls-14" /><path fill="#82e371" d="M17.28 32.49a16.16 16.16 0 00-.92 5.18c0 2.59 4.66 3.45 5.4 1a22.25 22.25 0 00.91-5.18c.16-2.63-4.52-3.49-5.39-1zm26.53 4.68a15.94 15.94 0 01-.92 5.18C42 44.8 37.34 44 37.5 41.4a21.56 21.56 0 01.91-5.18c.76-2.49 5.44-1.64 5.4.95zm-10.98 6.64c-1 4.32-7.63 3.16-7.07-1.24a14.25 14.25 0 007.07 1.24z" class="cls-11" /><path fill="#598291" d="M9 52.11A5.9 5.9 0 113.13 58 5.9 5.9 0 019 52.11z" class="cls-6" /><path fill="#d3e8ef" d="M9 53.11A4.92 4.92 0 114.11 58 4.92 4.92 0 019 53.11z" class="cls-7" /><path fill="#fff" d="M9 53.11A4.92 4.92 0 0114 58a5 5 0 01-.28 1.65 8.34 8.34 0 01-3 .52c-3 0-5.57-1.49-6.39-3.55A4.92 4.92 0 019 53.11z" class="cls-4" /><path fill="#598291" d="M4.77 48.13A4.63 4.63 0 016 45.26a4.53 4.53 0 012.63-.8c1.44 0 3.55.56 3.59 2.33.08 3.81 0 7.61 0 11.4a3.41 3.41 0 01-.54 2C10 62.85 4.57 63 2 61.63a2.05 2.05 0 01-1.06-1 20.93 20.93 0 01-.77-4.21 24.41 24.41 0 01-.06-4.68c.09-1.13.37-2.88 1.65-3.26a9.47 9.47 0 012.13-.34 4.51 4.51 0 01.88-.01z" class="cls-6" /><path fill="#598291" d="M5.44 54c-.77-2-.81-7.33.72-8.52 1.69-1.32 5.68-.9 5.74 1.27.08 3.81 0 7.61 0 11.42.1 4.2-6.74 4.83-9.8 3.21a1.73 1.73 0 01-.92-.84z" class="cls-6" /><path fill="#d3e8ef" d="M6.5 54.14c-1-1.69-.82-7.11.24-7.92 1.23-1 4.24-.62 4.26.59.08 3.19 0 7.41.06 11.4.08 3.38-6.71 3.82-9 2.07z" class="cls-7" /><path fill="#fff" d="M5.78 49.88c.06-1.61.38-3.11.88-3.53a4 4 0 013.5-.27 27.75 27.75 0 01-.05 3.56c-.11 1.02-3.01.86-4.33.24z" class="cls-4" /><path fill="#598291" d="M1.82 48.75a8 8 0 012.05-.32c1.41-.06 5.18.22 5.5 2.07a24.47 24.47 0 010 8C9 60.74 3.83 60.68 3 59.72l-.95.56-.86.28a22.55 22.55 0 01-.78-4.17 25.46 25.46 0 01-.06-4.62c.11-.97.33-2.69 1.47-3.02z" class="cls-6" /><path fill="#d3e8ef" d="M2.06 49.62c2.59-.75 6.25.06 6.43 1a23.2 23.2 0 010 7.71c-.18 1.17-4.62 2.39-6.43 1.93C.92 56.61.86 50 2.06 49.62z" class="cls-7" /><path fill="#fff" d="M2.06 49.62a9.48 9.48 0 015.32.18 25.13 25.13 0 01-.08 7.45c-.14 1.06-3.41 2.11-5.48 2.11-.9-3.76-.82-9.42.24-9.74z" class="cls-4" /><path fill="#598291" d="M.76 54.54a16.77 16.77 0 018.67 0l-.2.82a15.53 15.53 0 00-8.23 0zM41.32 59a4.67 4.67 0 11-4.66 4.67A4.66 4.66 0 0141.32 59z" class="cls-6" /><path fill="#d3e8ef" d="M41.32 59.74a3.89 3.89 0 11-3.88 3.89 3.86 3.86 0 013.88-3.89z" class="cls-7" /><path fill="#fff" d="M41.32 59.74a3.86 3.86 0 013.87 3.89 3.47 3.47 0 01-.08.79 3.83 3.83 0 01-2 .56 3.87 3.87 0 01-3.88-3.88 3.5 3.5 0 01.08-.8 4.12 4.12 0 012.01-.56z" class="cls-4" /><path fill="#598291" d="M34.59 65.52c-.72-.12-1.44-.4-1.58-1.14a17.92 17.92 0 01-.2-4.14c.06-.94 1.12-1.32 2-1.49a5.3 5.3 0 012.71-1.66 12 12 0 014.9.86c1.55.54 1.49 3.46 1.45 4.8-.06 1.15-.24 3.64-1.16 4.42-1.65 1.4-7.47 1.52-7.88-.5a11.11 11.11 0 01-.24-1.15z" class="cls-6" /><path fill="#598291" d="M37.79 59.64a13.25 13.25 0 010 4.7c-.21.84-1.49.94-2.21.94s-2.09-.06-2.25-1a17.29 17.29 0 01-.2-4.06c.06-.9 1.48-1.18 2.17-1.3s2.24-.23 2.49.72z" class="cls-6" /><path fill="#d3e8ef" d="M37.1 59.84c-.14-.56-3.23 0-3.27.46a16.85 16.85 0 00.17 3.9c.1.48 2.93.52 3.07 0a12 12 0 00.03-4.36z" class="cls-7" /><path fill="#598291" d="M42.3 58.25c1.37.46 1.31 3.38 1.25 4.52s-.22 3.51-1 4.2a6.23 6.23 0 01-3.33.94c-1 0-3.81 0-4.08-1.28a24.56 24.56 0 01-.4-6.95c.08-1 2-2.11 2.87-2.25a11.33 11.33 0 014.69.82z" class="cls-6" /><path fill="#d3e8ef" d="M42 58.9a11.19 11.19 0 00-4.37-.79 3.74 3.74 0 00-2.27 1.61 23.71 23.71 0 00.38 6.75c.18.84 4.88 1.1 6.26-.06.89-.73 1.33-7.15 0-7.51z" class="cls-7" /><path fill="#fff" d="M42 58.9a11.83 11.83 0 00-4.25-.81v7.83a10 10 0 004.71-.48c.54-2.01.61-6.26-.46-6.54zm-6.34.34a1.19 1.19 0 00-.32.46 23.71 23.71 0 00.38 6.75c.18.84 4.88 1.1 6.26-.06a.8.8 0 00.22-.29c-1.46 1.09-6 .83-6.2 0a23.85 23.85 0 01-.38-6.76s.06-.06.08-.1z" class="cls-4" /><path fill="#598291" d="M34.93 62.61a9.63 9.63 0 013.18-.68c.24 0 .2.76 0 .76a8.83 8.83 0 00-3 .64z" class="cls-6" /><path fill="#7eaaba" d="M42.48 65.42c-.38-.16-.76-.32-1.18-.52a.2.2 0 01-.12-.24 18.87 18.87 0 000-4.38.22.22 0 01.14-.24 12.38 12.38 0 011.22-.52.63.63 0 01.13.46c-.37.12-.71.28-1.05.42a19.1 19.1 0 010 4.14c.32.16.64.3 1 .44a.57.57 0 01-.14.44z" class="cls-8" /></svg>
