<svg viewBox="0 0 20 20" fill="none" xmlns="http://www.w3.org/2000/svg"><g clip-path="url(#clip0_2451_393)"><mask id="mask0_2451_393" style="mask-type:luminance" maskUnits="userSpaceOnUse" x="8" y="2" width="4" height="3"><path d="M8.81494 2.36862H11.1853V4.74073H8.81494V2.36862Z" fill="white"></path></mask><g mask="url(#mask0_2451_393)"><path d="M11.1703 3.54243C11.1703 3.58081 11.1684 3.6192 11.1647 3.65749C11.1609 3.69569 11.1552 3.73369 11.1477 3.7714C11.1403 3.80911 11.1309 3.84634 11.1197 3.88319C11.1086 3.91993 11.0957 3.9561 11.081 3.9916C11.0663 4.02709 11.0498 4.06181 11.0318 4.09576C11.0136 4.12962 10.9939 4.1626 10.9725 4.19453C10.9511 4.22655 10.9283 4.25732 10.9039 4.28702C10.8796 4.31673 10.8537 4.34518 10.8266 4.37238C10.7994 4.39958 10.771 4.42533 10.7413 4.44974C10.7116 4.47414 10.6807 4.497 10.6488 4.51841C10.6167 4.53973 10.5839 4.5595 10.55 4.57763C10.516 4.59576 10.4813 4.61216 10.4458 4.62682C10.4103 4.64158 10.3742 4.6545 10.3374 4.66569C10.3007 4.67678 10.2634 4.68614 10.2257 4.69366C10.188 4.70118 10.15 4.70678 10.1118 4.71054C10.0735 4.7143 10.0352 4.71623 9.99676 4.71623C9.95837 4.71623 9.91998 4.7143 9.88179 4.71054C9.8435 4.70678 9.8055 4.70118 9.76778 4.69366C9.73017 4.68614 9.69284 4.67678 9.65609 4.66569C9.61935 4.6545 9.58318 4.64158 9.54768 4.62682C9.51219 4.61216 9.47747 4.59576 9.44361 4.57763C9.40966 4.5595 9.37677 4.53973 9.34475 4.51841C9.31283 4.497 9.28196 4.47414 9.25225 4.44974C9.22255 4.42533 9.19409 4.39958 9.16699 4.37238C9.13979 4.34518 9.11404 4.31673 9.08964 4.28702C9.06524 4.25732 9.04238 4.22655 9.02097 4.19453C8.99965 4.1626 8.97988 4.12962 8.96184 4.09576C8.94371 4.06181 8.92731 4.02709 8.91256 3.9916C8.89789 3.9561 8.88497 3.91993 8.87378 3.88319C8.86259 3.84634 8.85324 3.80911 8.84581 3.7714C8.83829 3.73369 8.83269 3.69569 8.82893 3.65749C8.82507 3.6192 8.82324 3.58081 8.82324 3.54243C8.82324 3.50394 8.82507 3.46565 8.82893 3.42736C8.83269 3.38907 8.83829 3.35116 8.84581 3.31345C8.85324 3.27574 8.86259 3.23851 8.87378 3.20167C8.88497 3.16492 8.89789 3.12875 8.91256 3.09326C8.92731 3.05767 8.94371 3.02304 8.96184 2.98909C8.97988 2.95523 8.99965 2.92225 9.02097 2.89032C9.04238 2.8583 9.06524 2.82753 9.08964 2.79773C9.11404 2.76802 9.13979 2.73957 9.16699 2.71247C9.19409 2.68527 9.22255 2.65942 9.25225 2.63502C9.28196 2.61071 9.31283 2.58776 9.34475 2.56644C9.37677 2.54513 9.40966 2.52535 9.44361 2.50722C9.47747 2.48909 9.51219 2.47269 9.54768 2.45794C9.58318 2.44327 9.61935 2.43035 9.65609 2.41916C9.69284 2.40797 9.73017 2.39871 9.76778 2.39119C9.8055 2.38367 9.8435 2.37807 9.88179 2.37431C9.91998 2.37055 9.95837 2.36862 9.99676 2.36862C10.0352 2.36862 10.0735 2.37055 10.1118 2.37431C10.15 2.37807 10.188 2.38367 10.2257 2.39119C10.2634 2.39871 10.3007 2.40797 10.3374 2.41916C10.3742 2.43035 10.4103 2.44327 10.4458 2.45794C10.4813 2.47269 10.516 2.48909 10.55 2.50722C10.5839 2.52535 10.6167 2.54513 10.6488 2.56644C10.6807 2.58776 10.7116 2.61071 10.7413 2.63502C10.771 2.65942 10.7994 2.68527 10.8266 2.71247C10.8537 2.73957 10.8796 2.76802 10.9039 2.79773C10.9283 2.82753 10.9511 2.8583 10.9725 2.89032C10.9939 2.92225 11.0136 2.95523 11.0318 2.98909C11.0498 3.02304 11.0663 3.05767 11.081 3.09326C11.0957 3.12875 11.1086 3.16492 11.1197 3.20167C11.1309 3.23851 11.1403 3.27574 11.1477 3.31345C11.1552 3.35116 11.1609 3.38907 11.1647 3.42736C11.1684 3.46565 11.1703 3.50394 11.1703 3.54243Z" fill="#393F4C"></path></g><path d="M8.82342 11.1721V14.6934C8.82342 15.0162 9.0875 15.2803 9.41022 15.2803C9.73295 15.2803 9.99693 15.0162 9.99693 14.6934C9.99693 15.0162 10.261 15.2803 10.5837 15.2803C10.9065 15.2803 11.1704 15.0162 11.1704 14.6934V11.1721C11.8159 11.1721 12.344 10.6438 12.344 9.99826V7.06375C12.344 6.41821 11.8159 5.89005 11.1704 5.89005H10.5837L9.99693 7.06375L9.41022 5.89005H8.82342C8.17797 5.89005 7.6499 6.41821 7.6499 7.06375V9.99826C7.6499 10.6438 8.17797 11.1721 8.82342 11.1721Z" fill="#393F4C"></path><mask id="mask1_2451_393" style="mask-type:luminance" maskUnits="userSpaceOnUse" x="2" y="11" width="16" height="7"><path d="M2.95068 11.9506H17.0433V17.6279H2.95068V11.9506Z" fill="white"></path></mask><g mask="url(#mask1_2451_393)"><path d="M12.3438 11.9538V13.1029C14.5231 13.4293 15.8644 14.1629 15.8644 14.6934C15.8644 15.3953 13.5244 16.4541 9.99675 16.4541C6.46917 16.4541 4.12908 15.3953 4.12908 14.6934C4.12908 14.1629 5.47167 13.4293 7.64972 13.1029V11.9538C5.06562 12.2907 2.95557 13.2027 2.95557 14.6934C2.95557 16.6208 6.49849 17.6279 9.99675 17.6279C13.495 17.6279 17.0379 16.6208 17.0379 14.6934C17.0379 13.2027 14.9279 12.2907 12.3438 11.9538Z" fill="#393F4C"></path></g></g><defs><clipPath id="clip0_2451_393"><rect width="20" height="20" fill="white"></rect></clipPath></defs></svg>
