<svg width="17" height="17" viewBox="0 0 17 17" fill="none" xmlns="http://www.w3.org/2000/svg"><g clip-path="url(#clip0_20_1874)"><path d="M9.90867 5.76374H3.68645C3.56857 5.76374 3.45553 5.71692 3.37218 5.63357C3.28883 5.55022 3.242 5.43717 3.242 5.3193V3.54152C3.242 3.42365 3.28883 3.3106 3.37218 3.22725C3.45553 3.1439 3.56857 3.09708 3.68645 3.09708H9.90867C10.0265 3.09708 10.1396 3.1439 10.2229 3.22725C10.3063 3.3106 10.3531 3.42365 10.3531 3.54152V5.3193C10.3531 5.43717 10.3063 5.55022 10.2229 5.63357C10.1396 5.71692 10.0265 5.76374 9.90867 5.76374ZM4.13089 4.87485H9.46423V3.9593H4.13089V4.87485Z" fill="currentColor"></path><path d="M9.90867 6.6882H3.68645C3.56857 6.6882 3.45553 6.73503 3.37218 6.81838C3.28883 6.90173 3.242 7.01477 3.242 7.13265V8.87487C3.242 8.99274 3.28883 9.10579 3.37218 9.18914C3.45553 9.27249 3.56857 9.31931 3.68645 9.31931H8.73534L10.3531 7.67487V7.13265C10.3531 7.01477 10.3063 6.90173 10.2229 6.81838C10.1396 6.73503 10.0265 6.6882 9.90867 6.6882ZM9.46423 8.43042H4.13089V7.54154H9.46423V8.43042Z" fill="currentColor"></path><path d="M5.4909 14.4349V14.4082L5.63312 13.7904H2.35312V2.20819H11.242V6.76375L12.1309 5.92375V1.76375C12.1309 1.64588 12.0841 1.53283 12.0007 1.44948C11.9174 1.36613 11.8043 1.31931 11.6865 1.31931H1.90868C1.7908 1.31931 1.67776 1.36613 1.59441 1.44948C1.51106 1.53283 1.46423 1.64588 1.46423 1.76375V14.2082C1.46423 14.3261 1.51106 14.4391 1.59441 14.5225C1.67776 14.6058 1.7908 14.6526 1.90868 14.6526H5.46423C5.46783 14.5795 5.47675 14.5067 5.4909 14.4349Z" fill="currentColor"></path><path d="M10.3531 8.95041L10.0064 9.30152C10.0924 9.28379 10.1712 9.24098 10.2329 9.17849C10.2946 9.116 10.3364 9.03663 10.3531 8.95041Z" fill="currentColor"></path><path d="M3.242 12.4037C3.242 12.5216 3.28883 12.6347 3.37218 12.718C3.45553 12.8014 3.56857 12.8482 3.68645 12.8482H5.83756L5.97089 12.2704L6.02867 12.026V12.0037H4.13089V11.0971H6.94867L7.83756 10.2082H3.68645C3.56857 10.2082 3.45553 10.255 3.37218 10.3384C3.28883 10.4217 3.242 10.5348 3.242 10.6526V12.4037Z" fill="currentColor"></path><path d="M15.4598 7.83931L13.962 6.34153C13.8955 6.27488 13.8166 6.22199 13.7296 6.18591C13.6427 6.14983 13.5495 6.13126 13.4553 6.13126C13.3612 6.13126 13.268 6.14983 13.181 6.18591C13.0941 6.22199 13.0151 6.27488 12.9487 6.34153L6.85533 12.4704L6.35311 14.6082C6.3343 14.7004 6.33388 14.7955 6.35186 14.8878C6.36985 14.9802 6.40588 15.0682 6.4579 15.1466C6.50992 15.2251 6.5769 15.2925 6.65501 15.345C6.73313 15.3975 6.82083 15.4341 6.91311 15.4526C6.95893 15.4571 7.00507 15.4571 7.05089 15.4526C7.10537 15.4611 7.16084 15.4611 7.21533 15.4526L9.37089 14.9771L15.4598 8.87486C15.5263 8.80877 15.5791 8.73018 15.6151 8.64361C15.6511 8.55703 15.6697 8.46419 15.6697 8.37042C15.6697 8.27665 15.6511 8.18381 15.6151 8.09723C15.5791 8.01066 15.5263 7.93207 15.4598 7.86598V7.83931ZM8.91755 14.1682L7.29088 14.5282L7.68644 12.9149L12.2553 8.29709L13.5087 9.55042L8.91755 14.1682ZM14.0109 9.0482L12.7576 7.79486L13.4642 7.09709L14.7264 8.35931L14.0109 9.0482Z" fill="currentColor"></path></g><defs><clipPath id="clip0_20_1874"><rect width="16" height="16" fill="white" transform="translate(0.575317 0.43042)"></rect></clipPath></defs></svg>
