<svg width="17" height="17" viewBox="0 0 17 17" fill="none" xmlns="http://www.w3.org/2000/svg"><path d="M2.56976 7.33951C2.56976 6.8573 2.76132 6.39484 3.10229 6.05386C3.44327 5.71289 3.90573 5.52133 4.38794 5.52133C4.87015 5.52133 5.33261 5.71289 5.67359 6.05386C6.01456 6.39484 6.20612 6.8573 6.20612 7.33951C6.20612 7.82172 6.01456 8.28418 5.67359 8.62516C5.33261 8.96614 4.87015 9.15769 4.38794 9.15769C3.90573 9.15769 3.44327 8.96614 3.10229 8.62516C2.76132 8.28418 2.56976 7.82172 2.56976 7.33951ZM4.38794 6.61224C4.19505 6.61224 4.01007 6.68886 3.87368 6.82525C3.73729 6.96164 3.66067 7.14663 3.66067 7.33951C3.66067 7.5324 3.73729 7.71738 3.87368 7.85377C4.01007 7.99016 4.19505 8.06678 4.38794 8.06678C4.58082 8.06678 4.76581 7.99016 4.9022 7.85377C5.03859 7.71738 5.11521 7.5324 5.11521 7.33951C5.11521 7.14663 5.03859 6.96164 4.9022 6.82525C4.76581 6.68886 4.58082 6.61224 4.38794 6.61224ZM4.38794 10.6122C3.90573 10.6122 3.44327 10.8038 3.10229 11.1448C2.76132 11.4857 2.56976 11.9482 2.56976 12.4304C2.56976 12.9126 2.76132 13.3751 3.10229 13.7161C3.44327 14.057 3.90573 14.2486 4.38794 14.2486C4.87015 14.2486 5.33261 14.057 5.67359 13.7161C6.01456 13.3751 6.20612 12.9126 6.20612 12.4304C6.20612 11.9482 6.01456 11.4857 5.67359 11.1448C5.33261 10.8038 4.87015 10.6122 4.38794 10.6122ZM3.66067 12.4304C3.66067 12.2375 3.73729 12.0526 3.87368 11.9162C4.01007 11.7798 4.19505 11.7031 4.38794 11.7031C4.58082 11.7031 4.76581 11.7798 4.9022 11.9162C5.03859 12.0526 5.11521 12.2375 5.11521 12.4304C5.11521 12.6233 5.03859 12.8083 4.9022 12.9447C4.76581 13.0811 4.58082 13.1577 4.38794 13.1577C4.19505 13.1577 4.01007 13.0811 3.87368 12.9447C3.73729 12.8083 3.66067 12.6233 3.66067 12.4304ZM7.66067 7.15769C7.66067 7.01303 7.71813 6.87429 7.82043 6.772C7.92272 6.66971 8.06146 6.61224 8.20612 6.61224H13.6607C13.8053 6.61224 13.9441 6.66971 14.0464 6.772C14.1487 6.87429 14.2061 7.01303 14.2061 7.15769C14.2061 7.30236 14.1487 7.44109 14.0464 7.54339C13.9441 7.64568 13.8053 7.70315 13.6607 7.70315H8.20612C8.06146 7.70315 7.92272 7.64568 7.82043 7.54339C7.71813 7.44109 7.66067 7.30236 7.66067 7.15769ZM8.20612 11.7031C8.06146 11.7031 7.92272 11.7606 7.82043 11.8629C7.71813 11.9652 7.66067 12.1039 7.66067 12.2486C7.66067 12.3933 7.71813 12.532 7.82043 12.6343C7.92272 12.7366 8.06146 12.7941 8.20612 12.7941H13.6607C13.8053 12.7941 13.9441 12.7366 14.0464 12.6343C14.1487 12.532 14.2061 12.3933 14.2061 12.2486C14.2061 12.1039 14.1487 11.9652 14.0464 11.8629C13.9441 11.7606 13.8053 11.7031 13.6607 11.7031H8.20612ZM2.56976 3.52133C2.56976 3.37667 2.62722 3.23793 2.72952 3.13563C2.83181 3.03334 2.97055 2.97587 3.11521 2.97587H13.6607C13.8053 2.97587 13.9441 3.03334 14.0464 3.13563C14.1487 3.23793 14.2061 3.37667 14.2061 3.52133C14.2061 3.66599 14.1487 3.80473 14.0464 3.90702C13.9441 4.00932 13.8053 4.06678 13.6607 4.06678H3.11521C2.97055 4.06678 2.83181 4.00932 2.72952 3.90702C2.62722 3.80473 2.56976 3.66599 2.56976 3.52133ZM3.11521 0.43042C2.39189 0.43042 1.6982 0.717757 1.18674 1.22922C0.675276 1.74068 0.387939 2.43438 0.387939 3.15769V13.7031C0.387939 14.4265 0.675276 15.1202 1.18674 15.6316C1.6982 16.1431 2.39189 16.4304 3.11521 16.4304H13.6607C14.384 16.4304 15.0777 16.1431 15.5891 15.6316C16.1006 15.1202 16.3879 14.4265 16.3879 13.7031V3.15769C16.3879 2.43438 16.1006 1.74068 15.5891 1.22922C15.0777 0.717757 14.384 0.43042 13.6607 0.43042H3.11521ZM1.47885 3.15769C1.47885 2.7237 1.65125 2.30749 1.95813 2.00061C2.26501 1.69373 2.68122 1.52133 3.11521 1.52133H13.6607C14.0947 1.52133 14.5109 1.69373 14.8178 2.00061C15.1246 2.30749 15.297 2.7237 15.297 3.15769V13.7031C15.297 14.1371 15.1246 14.5534 14.8178 14.8602C14.5109 15.1671 14.0947 15.3395 13.6607 15.3395H3.11521C2.68122 15.3395 2.26501 15.1671 1.95813 14.8602C1.65125 14.5534 1.47885 14.1371 1.47885 13.7031V3.15769Z" fill="currentColor"></path></svg>
