<svg viewBox="0 0 20 20" fill="none" xmlns="http://www.w3.org/2000/svg"><path d="M12.5002 2.91666V1.66666M15.7829 4.21721L16.6668 3.33332M15.7829 10.8333L16.6668 11.7172M9.16683 4.21721L8.28291 3.33332M17.0835 7.49999H18.3335M6.77975 13.4913L8.85625 17.3475C9.09341 17.7881 9.21208 18.0083 9.35475 18.0641C9.47858 18.1124 9.61808 18.0987 9.73016 18.0273C9.85941 17.945 9.933 17.7059 10.0803 17.2277L12.9625 7.87103C13.0828 7.48041 13.143 7.2851 13.0946 7.15318C13.0524 7.03828 12.9619 6.94773 12.847 6.90557C12.7151 6.85716 12.5197 6.91732 12.1291 7.03765L2.7725 9.91982C2.29433 10.0672 2.05525 10.1408 1.97291 10.27C1.90141 10.3822 1.88783 10.5216 1.93616 10.6454C1.99183 10.7882 2.21216 10.9067 2.65266 11.144L6.50883 13.2204C6.57433 13.2557 6.60708 13.2732 6.63566 13.2959C6.66116 13.316 6.68416 13.339 6.70425 13.3645C6.72691 13.3931 6.7445 13.4258 6.77975 13.4913Z" stroke="#393F4C" stroke-width="1.5" stroke-linecap="round" stroke-linejoin="round"></path></svg>
