<svg x="0px" y="0px" viewBox="0 0 50 50" xml:space="preserve" width="30" height="30" xmlns="http://www.w3.org/2000/svg">
<g><path fill="#8AA5B7" d="M23.7,2.8c0.9,0,1.7,0,2.6,0C27,2.9,27.8,3,28.5,3.1c4.6,0.8,8.7,2.8,12,6.1c5,5,7.2,11,6.5,18
						c-0.4,4.7-2.3,8.9-5.4,12.4c-4.2,4.7-9.4,7.2-15.7,7.5c-4.4,0.2-8.5-0.8-12.2-3.1C8,40.5,4.4,35.5,3.2,28.8
						C3,28,2.9,27.1,2.8,26.3c0-0.9,0-1.7,0-2.6c0-0.3,0.1-0.6,0.1-0.9c0.5-4.8,2.4-9,5.6-12.6c3.4-3.8,7.6-6.2,12.7-7
						C22,3,22.9,2.9,23.7,2.8z M19.5,25c0,2.7,0,5.4,0,8.1c0,0.4,0.1,0.8,0.5,1.1c0.4,0.2,0.8,0.1,1.2-0.2c4.2-2.7,8.3-5.4,12.5-8
						c0.9-0.6,0.9-1.3,0-1.8c-4.2-2.7-8.3-5.4-12.5-8.1c-0.4-0.2-0.7-0.4-1.2-0.1c-0.4,0.2-0.5,0.6-0.5,1C19.5,19.6,19.5,22.3,19.5,25z"></path></g>
</svg>
